<svg width="342" height="397" viewBox="0 0 342 397" fill="none" xmlns="http://www.w3.org/2000/svg">
<g filter="url(#filter0_d_20_93)">
<rect x="27.7838" y="55" width="287" height="306" rx="20" fill="white"/>
</g>
<path d="M62.656 251.848V258.904C62.656 259.896 62.896 260.632 63.376 261.112C63.8667 261.592 64.544 261.832 65.408 261.832C66.2613 261.832 66.928 261.592 67.408 261.112C67.8987 260.632 68.144 259.896 68.144 258.904V251.848H69.6V258.888C69.6 259.816 69.4133 260.6 69.04 261.24C68.6667 261.869 68.16 262.339 67.52 262.648C66.8907 262.957 66.1813 263.112 65.392 263.112C64.6027 263.112 63.888 262.957 63.248 262.648C62.6187 262.339 62.1173 261.869 61.744 261.24C61.3813 260.6 61.2 259.816 61.2 258.888V251.848H62.656ZM73.4849 255.432V260.6C73.4849 261.027 73.5755 261.331 73.7569 261.512C73.9382 261.683 74.2529 261.768 74.7009 261.768H75.7729V263H74.4609C73.6502 263 73.0422 262.813 72.6369 262.44C72.2315 262.067 72.0289 261.453 72.0289 260.6V255.432H70.8929V254.232H72.0289V252.024H73.4849V254.232H75.7729V255.432H73.4849ZM77.969 252.808C77.6917 252.808 77.457 252.712 77.265 252.52C77.073 252.328 76.977 252.093 76.977 251.816C76.977 251.539 77.073 251.304 77.265 251.112C77.457 250.92 77.6917 250.824 77.969 250.824C78.2357 250.824 78.4597 250.92 78.641 251.112C78.833 251.304 78.929 251.539 78.929 251.816C78.929 252.093 78.833 252.328 78.641 252.52C78.4597 252.712 78.2357 252.808 77.969 252.808ZM78.673 254.232V263H77.217V254.232H78.673ZM82.2905 251.16V263H80.8345V251.16H82.2905ZM85.204 252.808C84.9267 252.808 84.692 252.712 84.5 252.52C84.308 252.328 84.212 252.093 84.212 251.816C84.212 251.539 84.308 251.304 84.5 251.112C84.692 250.92 84.9267 250.824 85.204 250.824C85.4707 250.824 85.6947 250.92 85.876 251.112C86.068 251.304 86.164 251.539 86.164 251.816C86.164 252.093 86.068 252.328 85.876 252.52C85.6947 252.712 85.4707 252.808 85.204 252.808ZM85.908 254.232V263H84.452V254.232H85.908ZM89.1575 261.8H93.4615V263H87.4935V261.8L91.7495 255.416H87.5255V254.232H93.4295V255.416L89.1575 261.8ZM94.4868 258.584C94.4868 257.688 94.6681 256.904 95.0308 256.232C95.3934 255.549 95.8894 255.021 96.5188 254.648C97.1588 254.275 97.8681 254.088 98.6468 254.088C99.4148 254.088 100.081 254.253 100.647 254.584C101.212 254.915 101.633 255.331 101.911 255.832V254.232H103.383V263H101.911V261.368C101.623 261.88 101.191 262.307 100.615 262.648C100.049 262.979 99.3881 263.144 98.6308 263.144C97.8521 263.144 97.1481 262.952 96.5188 262.568C95.8894 262.184 95.3934 261.645 95.0308 260.952C94.6681 260.259 94.4868 259.469 94.4868 258.584ZM101.911 258.6C101.911 257.939 101.777 257.363 101.511 256.872C101.244 256.381 100.881 256.008 100.423 255.752C99.9748 255.485 99.4788 255.352 98.9348 255.352C98.3908 255.352 97.8948 255.48 97.4468 255.736C96.9988 255.992 96.6414 256.365 96.3748 256.856C96.1081 257.347 95.9748 257.923 95.9748 258.584C95.9748 259.256 96.1081 259.843 96.3748 260.344C96.6414 260.835 96.9988 261.213 97.4468 261.48C97.8948 261.736 98.3908 261.864 98.9348 261.864C99.4788 261.864 99.9748 261.736 100.423 261.48C100.881 261.213 101.244 260.835 101.511 260.344C101.777 259.843 101.911 259.261 101.911 258.6ZM109.251 261.912C109.891 261.912 110.425 261.763 110.851 261.464C111.278 261.165 111.571 260.739 111.731 260.184H113.299C113.086 261.016 112.665 261.699 112.035 262.232C111.417 262.755 110.638 263.053 109.699 263.128V263.928C110.329 263.917 110.83 264.051 111.203 264.328C111.577 264.605 111.763 265 111.763 265.512C111.763 266.013 111.582 266.413 111.219 266.712C110.857 267.011 110.387 267.16 109.811 267.16H107.971V266.216H109.523C109.875 266.216 110.131 266.163 110.291 266.056C110.462 265.949 110.547 265.768 110.547 265.512C110.547 265.267 110.462 265.091 110.291 264.984C110.131 264.877 109.875 264.824 109.523 264.824H108.723V263.112C107.987 263.037 107.337 262.808 106.771 262.424C106.206 262.029 105.763 261.507 105.443 260.856C105.134 260.195 104.979 259.443 104.979 258.6C104.979 257.693 105.161 256.904 105.523 256.232C105.886 255.549 106.387 255.021 107.027 254.648C107.678 254.275 108.419 254.088 109.251 254.088C110.329 254.088 111.214 254.349 111.907 254.872C112.611 255.395 113.075 256.12 113.299 257.048H111.731C111.582 256.515 111.289 256.093 110.851 255.784C110.425 255.475 109.891 255.32 109.251 255.32C108.419 255.32 107.747 255.608 107.235 256.184C106.723 256.749 106.467 257.555 106.467 258.6C106.467 259.656 106.723 260.472 107.235 261.048C107.747 261.624 108.419 261.912 109.251 261.912ZM114.378 258.584C114.378 257.688 114.559 256.904 114.922 256.232C115.285 255.549 115.781 255.021 116.41 254.648C117.05 254.275 117.759 254.088 118.538 254.088C119.306 254.088 119.973 254.253 120.538 254.584C121.103 254.915 121.525 255.331 121.802 255.832V254.232H123.274V263H121.802V261.368C121.514 261.88 121.082 262.307 120.506 262.648C119.941 262.979 119.279 263.144 118.522 263.144C117.743 263.144 117.039 262.952 116.41 262.568C115.781 262.184 115.285 261.645 114.922 260.952C114.559 260.259 114.378 259.469 114.378 258.584ZM121.802 258.6C121.802 257.939 121.669 257.363 121.402 256.872C121.135 256.381 120.773 256.008 120.314 255.752C119.866 255.485 119.37 255.352 118.826 255.352C118.282 255.352 117.786 255.48 117.338 255.736C116.89 255.992 116.533 256.365 116.266 256.856C115.999 257.347 115.866 257.923 115.866 258.584C115.866 259.256 115.999 259.843 116.266 260.344C116.533 260.835 116.89 261.213 117.338 261.48C117.786 261.736 118.282 261.864 118.826 261.864C119.37 261.864 119.866 261.736 120.314 261.48C120.773 261.213 121.135 260.835 121.402 260.344C121.669 259.843 121.802 259.261 121.802 258.6ZM116.762 253.288C116.837 252.744 117.013 252.328 117.29 252.04C117.578 251.752 117.935 251.608 118.362 251.608C118.565 251.608 118.735 251.645 118.874 251.72C119.023 251.784 119.199 251.88 119.402 252.008C119.551 252.115 119.685 252.2 119.802 252.264C119.919 252.317 120.047 252.344 120.186 252.344C120.367 252.344 120.522 252.285 120.65 252.168C120.778 252.051 120.858 251.88 120.89 251.656H121.722C121.658 252.189 121.482 252.6 121.194 252.888C120.906 253.176 120.549 253.32 120.122 253.32C119.919 253.32 119.738 253.288 119.578 253.224C119.429 253.149 119.258 253.043 119.066 252.904C118.895 252.797 118.757 252.717 118.65 252.664C118.554 252.611 118.437 252.584 118.298 252.584C118.117 252.584 117.962 252.643 117.834 252.76C117.717 252.877 117.642 253.053 117.61 253.288H116.762ZM129.239 263.144C128.417 263.144 127.671 262.957 126.999 262.584C126.337 262.211 125.815 261.683 125.431 261C125.057 260.307 124.871 259.507 124.871 258.6C124.871 257.704 125.063 256.915 125.447 256.232C125.841 255.539 126.375 255.011 127.047 254.648C127.719 254.275 128.471 254.088 129.303 254.088C130.135 254.088 130.887 254.275 131.559 254.648C132.231 255.011 132.759 255.533 133.143 256.216C133.537 256.899 133.735 257.693 133.735 258.6C133.735 259.507 133.532 260.307 133.127 261C132.732 261.683 132.193 262.211 131.511 262.584C130.828 262.957 130.071 263.144 129.239 263.144ZM129.239 261.864C129.761 261.864 130.252 261.741 130.711 261.496C131.169 261.251 131.537 260.883 131.815 260.392C132.103 259.901 132.247 259.304 132.247 258.6C132.247 257.896 132.108 257.299 131.831 256.808C131.553 256.317 131.191 255.955 130.743 255.72C130.295 255.475 129.809 255.352 129.287 255.352C128.753 255.352 128.263 255.475 127.815 255.72C127.377 255.955 127.025 256.317 126.759 256.808C126.492 257.299 126.359 257.896 126.359 258.6C126.359 259.315 126.487 259.917 126.743 260.408C127.009 260.899 127.361 261.267 127.799 261.512C128.236 261.747 128.716 261.864 129.239 261.864ZM138.731 258.584C138.731 257.688 138.912 256.904 139.275 256.232C139.637 255.549 140.133 255.021 140.763 254.648C141.403 254.275 142.117 254.088 142.907 254.088C143.589 254.088 144.224 254.248 144.811 254.568C145.397 254.877 145.845 255.288 146.155 255.8V251.16H147.627V263H146.155V261.352C145.867 261.875 145.44 262.307 144.875 262.648C144.309 262.979 143.648 263.144 142.891 263.144C142.112 263.144 141.403 262.952 140.763 262.568C140.133 262.184 139.637 261.645 139.275 260.952C138.912 260.259 138.731 259.469 138.731 258.584ZM146.155 258.6C146.155 257.939 146.021 257.363 145.755 256.872C145.488 256.381 145.125 256.008 144.667 255.752C144.219 255.485 143.723 255.352 143.179 255.352C142.635 255.352 142.139 255.48 141.691 255.736C141.243 255.992 140.885 256.365 140.619 256.856C140.352 257.347 140.219 257.923 140.219 258.584C140.219 259.256 140.352 259.843 140.619 260.344C140.885 260.835 141.243 261.213 141.691 261.48C142.139 261.736 142.635 261.864 143.179 261.864C143.723 261.864 144.219 261.736 144.667 261.48C145.125 261.213 145.488 260.835 145.755 260.344C146.021 259.843 146.155 259.261 146.155 258.6ZM153.591 263.144C152.77 263.144 152.023 262.957 151.351 262.584C150.69 262.211 150.167 261.683 149.783 261C149.41 260.307 149.223 259.507 149.223 258.6C149.223 257.704 149.415 256.915 149.799 256.232C150.194 255.539 150.727 255.011 151.399 254.648C152.071 254.275 152.823 254.088 153.655 254.088C154.487 254.088 155.239 254.275 155.911 254.648C156.583 255.011 157.111 255.533 157.495 256.216C157.89 256.899 158.087 257.693 158.087 258.6C158.087 259.507 157.884 260.307 157.479 261C157.084 261.683 156.546 262.211 155.863 262.584C155.18 262.957 154.423 263.144 153.591 263.144ZM153.591 261.864C154.114 261.864 154.604 261.741 155.063 261.496C155.522 261.251 155.89 260.883 156.167 260.392C156.455 259.901 156.599 259.304 156.599 258.6C156.599 257.896 156.46 257.299 156.183 256.808C155.906 256.317 155.543 255.955 155.095 255.72C154.647 255.475 154.162 255.352 153.639 255.352C153.106 255.352 152.615 255.475 152.167 255.72C151.73 255.955 151.378 256.317 151.111 256.808C150.844 257.299 150.711 257.896 150.711 258.6C150.711 259.315 150.839 259.917 151.095 260.408C151.362 260.899 151.714 261.267 152.151 261.512C152.588 261.747 153.068 261.864 153.591 261.864ZM167.195 255.432H165.355V263H163.899V255.432H162.763V254.232H163.899V253.608C163.899 252.627 164.15 251.912 164.651 251.464C165.163 251.005 165.979 250.776 167.099 250.776V251.992C166.459 251.992 166.006 252.12 165.739 252.376C165.483 252.621 165.355 253.032 165.355 253.608V254.232H167.195V255.432ZM170.029 255.656C170.285 255.155 170.647 254.765 171.117 254.488C171.597 254.211 172.178 254.072 172.861 254.072V255.576H172.477C170.845 255.576 170.029 256.461 170.029 258.232V263H168.573V254.232H170.029V255.656ZM173.677 258.584C173.677 257.688 173.859 256.904 174.221 256.232C174.584 255.549 175.08 255.021 175.709 254.648C176.349 254.275 177.059 254.088 177.837 254.088C178.605 254.088 179.272 254.253 179.837 254.584C180.403 254.915 180.824 255.331 181.101 255.832V254.232H182.573V263H181.101V261.368C180.813 261.88 180.381 262.307 179.805 262.648C179.24 262.979 178.579 263.144 177.821 263.144C177.043 263.144 176.339 262.952 175.709 262.568C175.08 262.184 174.584 261.645 174.221 260.952C173.859 260.259 173.677 259.469 173.677 258.584ZM181.101 258.6C181.101 257.939 180.968 257.363 180.701 256.872C180.435 256.381 180.072 256.008 179.613 255.752C179.165 255.485 178.669 255.352 178.125 255.352C177.581 255.352 177.085 255.48 176.637 255.736C176.189 255.992 175.832 256.365 175.565 256.856C175.299 257.347 175.165 257.923 175.165 258.584C175.165 259.256 175.299 259.843 175.565 260.344C175.832 260.835 176.189 261.213 176.637 261.48C177.085 261.736 177.581 261.864 178.125 261.864C178.669 261.864 179.165 261.736 179.613 261.48C180.072 261.213 180.435 260.835 180.701 260.344C180.968 259.843 181.101 259.261 181.101 258.6ZM195.258 254.072C195.941 254.072 196.549 254.216 197.082 254.504C197.615 254.781 198.037 255.203 198.346 255.768C198.655 256.333 198.81 257.021 198.81 257.832V263H197.37V258.04C197.37 257.165 197.151 256.499 196.714 256.04C196.287 255.571 195.706 255.336 194.97 255.336C194.213 255.336 193.61 255.581 193.162 256.072C192.714 256.552 192.49 257.251 192.49 258.168V263H191.05V258.04C191.05 257.165 190.831 256.499 190.394 256.04C189.967 255.571 189.386 255.336 188.65 255.336C187.893 255.336 187.29 255.581 186.842 256.072C186.394 256.552 186.17 257.251 186.17 258.168V263H184.714V254.232H186.17V255.496C186.458 255.037 186.842 254.685 187.322 254.44C187.813 254.195 188.351 254.072 188.938 254.072C189.674 254.072 190.325 254.237 190.89 254.568C191.455 254.899 191.877 255.384 192.154 256.024C192.399 255.405 192.805 254.925 193.37 254.584C193.935 254.243 194.565 254.072 195.258 254.072ZM208.878 258.28C208.878 258.557 208.862 258.851 208.83 259.16H201.822C201.876 260.024 202.169 260.701 202.702 261.192C203.246 261.672 203.902 261.912 204.67 261.912C205.3 261.912 205.822 261.768 206.238 261.48C206.665 261.181 206.964 260.787 207.134 260.296H208.702C208.468 261.139 207.998 261.827 207.294 262.36C206.59 262.883 205.716 263.144 204.67 263.144C203.838 263.144 203.092 262.957 202.43 262.584C201.78 262.211 201.268 261.683 200.894 261C200.521 260.307 200.334 259.507 200.334 258.6C200.334 257.693 200.516 256.899 200.878 256.216C201.241 255.533 201.748 255.011 202.398 254.648C203.06 254.275 203.817 254.088 204.67 254.088C205.502 254.088 206.238 254.269 206.878 254.632C207.518 254.995 208.009 255.496 208.35 256.136C208.702 256.765 208.878 257.48 208.878 258.28ZM207.374 257.976C207.374 257.421 207.252 256.947 207.006 256.552C206.761 256.147 206.425 255.843 205.998 255.64C205.582 255.427 205.118 255.32 204.606 255.32C203.87 255.32 203.241 255.555 202.718 256.024C202.206 256.493 201.913 257.144 201.838 257.976H207.374ZM222.16 254.232L219.424 263H217.92L215.808 256.04L213.696 263H212.192L209.44 254.232H210.928L212.944 261.592L215.12 254.232H216.608L218.736 261.608L220.72 254.232H222.16ZM227.109 263.144C226.288 263.144 225.541 262.957 224.869 262.584C224.208 262.211 223.685 261.683 223.301 261C222.928 260.307 222.741 259.507 222.741 258.6C222.741 257.704 222.933 256.915 223.317 256.232C223.712 255.539 224.245 255.011 224.917 254.648C225.589 254.275 226.341 254.088 227.173 254.088C228.005 254.088 228.757 254.275 229.429 254.648C230.101 255.011 230.629 255.533 231.013 256.216C231.408 256.899 231.605 257.693 231.605 258.6C231.605 259.507 231.402 260.307 230.997 261C230.602 261.683 230.064 262.211 229.381 262.584C228.698 262.957 227.941 263.144 227.109 263.144ZM227.109 261.864C227.632 261.864 228.122 261.741 228.581 261.496C229.04 261.251 229.408 260.883 229.685 260.392C229.973 259.901 230.117 259.304 230.117 258.6C230.117 257.896 229.978 257.299 229.701 256.808C229.424 256.317 229.061 255.955 228.613 255.72C228.165 255.475 227.68 255.352 227.157 255.352C226.624 255.352 226.133 255.475 225.685 255.72C225.248 255.955 224.896 256.317 224.629 256.808C224.362 257.299 224.229 257.896 224.229 258.6C224.229 259.315 224.357 259.917 224.613 260.408C224.88 260.899 225.232 261.267 225.669 261.512C226.106 261.747 226.586 261.864 227.109 261.864ZM234.655 255.656C234.911 255.155 235.274 254.765 235.743 254.488C236.223 254.211 236.805 254.072 237.487 254.072V255.576H237.103C235.471 255.576 234.655 256.461 234.655 258.232V263H233.199V254.232H234.655V255.656ZM243.744 263L240.304 259.128V263H238.848V251.16H240.304V258.12L243.68 254.232H245.712L241.584 258.6L245.728 263H243.744ZM62.688 279.848C62.976 279.347 63.4027 278.931 63.968 278.6C64.544 278.259 65.2107 278.088 65.968 278.088C66.7467 278.088 67.4507 278.275 68.08 278.648C68.72 279.021 69.2213 279.549 69.584 280.232C69.9467 280.904 70.128 281.688 70.128 282.584C70.128 283.469 69.9467 284.259 69.584 284.952C69.2213 285.645 68.72 286.184 68.08 286.568C67.4507 286.952 66.7467 287.144 65.968 287.144C65.2213 287.144 64.56 286.979 63.984 286.648C63.4187 286.307 62.9867 285.885 62.688 285.384V291.16H61.232V278.232H62.688V279.848ZM68.64 282.584C68.64 281.923 68.5067 281.347 68.24 280.856C67.9733 280.365 67.6107 279.992 67.152 279.736C66.704 279.48 66.208 279.352 65.664 279.352C65.1307 279.352 64.6347 279.485 64.176 279.752C63.728 280.008 63.3653 280.387 63.088 280.888C62.8213 281.379 62.688 281.949 62.688 282.6C62.688 283.261 62.8213 283.843 63.088 284.344C63.3653 284.835 63.728 285.213 64.176 285.48C64.6347 285.736 65.1307 285.864 65.664 285.864C66.208 285.864 66.704 285.736 67.152 285.48C67.6107 285.213 67.9733 284.835 68.24 284.344C68.5067 283.843 68.64 283.256 68.64 282.584ZM71.1805 282.584C71.1805 281.688 71.3618 280.904 71.7245 280.232C72.0872 279.549 72.5832 279.021 73.2125 278.648C73.8525 278.275 74.5618 278.088 75.3405 278.088C76.1085 278.088 76.7752 278.253 77.3405 278.584C77.9058 278.915 78.3272 279.331 78.6045 279.832V278.232H80.0765V287H78.6045V285.368C78.3165 285.88 77.8845 286.307 77.3085 286.648C76.7432 286.979 76.0818 287.144 75.3245 287.144C74.5458 287.144 73.8418 286.952 73.2125 286.568C72.5832 286.184 72.0872 285.645 71.7245 284.952C71.3618 284.259 71.1805 283.469 71.1805 282.584ZM78.6045 282.6C78.6045 281.939 78.4712 281.363 78.2045 280.872C77.9378 280.381 77.5752 280.008 77.1165 279.752C76.6685 279.485 76.1725 279.352 75.6285 279.352C75.0845 279.352 74.5885 279.48 74.1405 279.736C73.6925 279.992 73.3352 280.365 73.0685 280.856C72.8018 281.347 72.6685 281.923 72.6685 282.584C72.6685 283.256 72.8018 283.843 73.0685 284.344C73.3352 284.835 73.6925 285.213 74.1405 285.48C74.5885 285.736 75.0845 285.864 75.6285 285.864C76.1725 285.864 76.6685 285.736 77.1165 285.48C77.5752 285.213 77.9378 284.835 78.2045 284.344C78.4712 283.843 78.6045 283.261 78.6045 282.6ZM83.673 279.656C83.929 279.155 84.2917 278.765 84.761 278.488C85.241 278.211 85.8223 278.072 86.505 278.072V279.576H86.121C84.489 279.576 83.673 280.461 83.673 282.232V287H82.217V278.232H83.673V279.656ZM87.3218 282.584C87.3218 281.688 87.5031 280.904 87.8658 280.232C88.2284 279.549 88.7244 279.021 89.3538 278.648C89.9938 278.275 90.7031 278.088 91.4818 278.088C92.2498 278.088 92.9164 278.253 93.4818 278.584C94.0471 278.915 94.4684 279.331 94.7458 279.832V278.232H96.2178V287H94.7458V285.368C94.4578 285.88 94.0258 286.307 93.4498 286.648C92.8844 286.979 92.2231 287.144 91.4658 287.144C90.6871 287.144 89.9831 286.952 89.3538 286.568C88.7244 286.184 88.2284 285.645 87.8658 284.952C87.5031 284.259 87.3218 283.469 87.3218 282.584ZM94.7458 282.6C94.7458 281.939 94.6124 281.363 94.3458 280.872C94.0791 280.381 93.7164 280.008 93.2578 279.752C92.8098 279.485 92.3138 279.352 91.7698 279.352C91.2258 279.352 90.7298 279.48 90.2818 279.736C89.8338 279.992 89.4764 280.365 89.2098 280.856C88.9431 281.347 88.8098 281.923 88.8098 282.584C88.8098 283.256 88.9431 283.843 89.2098 284.344C89.4764 284.835 89.8338 285.213 90.2818 285.48C90.7298 285.736 91.2258 285.864 91.7698 285.864C92.3138 285.864 92.8098 285.736 93.2578 285.48C93.7164 285.213 94.0791 284.835 94.3458 284.344C94.6124 283.843 94.7458 283.261 94.7458 282.6ZM106.128 287.144C105.307 287.144 104.56 286.957 103.888 286.584C103.227 286.211 102.704 285.683 102.32 285C101.947 284.307 101.76 283.507 101.76 282.6C101.76 281.704 101.952 280.915 102.336 280.232C102.731 279.539 103.264 279.011 103.936 278.648C104.608 278.275 105.36 278.088 106.192 278.088C107.024 278.088 107.776 278.275 108.448 278.648C109.12 279.011 109.648 279.533 110.032 280.216C110.427 280.899 110.624 281.693 110.624 282.6C110.624 283.507 110.421 284.307 110.016 285C109.621 285.683 109.083 286.211 108.4 286.584C107.717 286.957 106.96 287.144 106.128 287.144ZM106.128 285.864C106.651 285.864 107.141 285.741 107.6 285.496C108.059 285.251 108.427 284.883 108.704 284.392C108.992 283.901 109.136 283.304 109.136 282.6C109.136 281.896 108.997 281.299 108.72 280.808C108.443 280.317 108.08 279.955 107.632 279.72C107.184 279.475 106.699 279.352 106.176 279.352C105.643 279.352 105.152 279.475 104.704 279.72C104.267 279.955 103.915 280.317 103.648 280.808C103.381 281.299 103.248 281.896 103.248 282.6C103.248 283.315 103.376 283.917 103.632 284.408C103.899 284.899 104.251 285.267 104.688 285.512C105.125 285.747 105.605 285.864 106.128 285.864ZM115.62 282.584C115.62 281.688 115.801 280.904 116.164 280.232C116.527 279.549 117.023 279.021 117.652 278.648C118.292 278.275 119.007 278.088 119.796 278.088C120.479 278.088 121.113 278.248 121.7 278.568C122.287 278.877 122.735 279.288 123.044 279.8V275.16H124.516V287H123.044V285.352C122.756 285.875 122.329 286.307 121.764 286.648C121.199 286.979 120.537 287.144 119.78 287.144C119.001 287.144 118.292 286.952 117.652 286.568C117.023 286.184 116.527 285.645 116.164 284.952C115.801 284.259 115.62 283.469 115.62 282.584ZM123.044 282.6C123.044 281.939 122.911 281.363 122.644 280.872C122.377 280.381 122.015 280.008 121.556 279.752C121.108 279.485 120.612 279.352 120.068 279.352C119.524 279.352 119.028 279.48 118.58 279.736C118.132 279.992 117.775 280.365 117.508 280.856C117.241 281.347 117.108 281.923 117.108 282.584C117.108 283.256 117.241 283.843 117.508 284.344C117.775 284.835 118.132 285.213 118.58 285.48C119.028 285.736 119.524 285.864 120.068 285.864C120.612 285.864 121.108 285.736 121.556 285.48C122.015 285.213 122.377 284.835 122.644 284.344C122.911 283.843 123.044 283.261 123.044 282.6ZM134.656 282.28C134.656 282.557 134.64 282.851 134.608 283.16H127.6C127.654 284.024 127.947 284.701 128.48 285.192C129.024 285.672 129.68 285.912 130.448 285.912C131.078 285.912 131.6 285.768 132.016 285.48C132.443 285.181 132.742 284.787 132.912 284.296H134.48C134.246 285.139 133.776 285.827 133.072 286.36C132.368 286.883 131.494 287.144 130.448 287.144C129.616 287.144 128.87 286.957 128.208 286.584C127.558 286.211 127.046 285.683 126.672 285C126.299 284.307 126.112 283.507 126.112 282.6C126.112 281.693 126.294 280.899 126.656 280.216C127.019 279.533 127.526 279.011 128.176 278.648C128.838 278.275 129.595 278.088 130.448 278.088C131.28 278.088 132.016 278.269 132.656 278.632C133.296 278.995 133.787 279.496 134.128 280.136C134.48 280.765 134.656 281.48 134.656 282.28ZM133.152 281.976C133.152 281.421 133.03 280.947 132.784 280.552C132.539 280.147 132.203 279.843 131.776 279.64C131.36 279.427 130.896 279.32 130.384 279.32C129.648 279.32 129.019 279.555 128.496 280.024C127.984 280.493 127.691 281.144 127.616 281.976H133.152ZM139.362 287.144C138.69 287.144 138.088 287.032 137.554 286.808C137.021 286.573 136.6 286.253 136.29 285.848C135.981 285.432 135.81 284.957 135.778 284.424H137.282C137.325 284.861 137.528 285.219 137.89 285.496C138.264 285.773 138.749 285.912 139.346 285.912C139.901 285.912 140.338 285.789 140.658 285.544C140.978 285.299 141.138 284.989 141.138 284.616C141.138 284.232 140.968 283.949 140.626 283.768C140.285 283.576 139.757 283.389 139.042 283.208C138.392 283.037 137.858 282.867 137.442 282.696C137.037 282.515 136.685 282.253 136.386 281.912C136.098 281.56 135.954 281.101 135.954 280.536C135.954 280.088 136.088 279.677 136.354 279.304C136.621 278.931 137 278.637 137.49 278.424C137.981 278.2 138.541 278.088 139.17 278.088C140.141 278.088 140.925 278.333 141.522 278.824C142.12 279.315 142.44 279.987 142.482 280.84H141.026C140.994 280.381 140.808 280.013 140.466 279.736C140.136 279.459 139.688 279.32 139.122 279.32C138.6 279.32 138.184 279.432 137.874 279.656C137.565 279.88 137.41 280.173 137.41 280.536C137.41 280.824 137.501 281.064 137.682 281.256C137.874 281.437 138.109 281.587 138.386 281.704C138.674 281.811 139.069 281.933 139.57 282.072C140.2 282.243 140.712 282.413 141.106 282.584C141.501 282.744 141.837 282.989 142.114 283.32C142.402 283.651 142.552 284.083 142.562 284.616C142.562 285.096 142.429 285.528 142.162 285.912C141.896 286.296 141.517 286.6 141.026 286.824C140.546 287.037 139.992 287.144 139.362 287.144ZM152.298 282.28C152.298 282.557 152.282 282.851 152.25 283.16H145.242C145.295 284.024 145.588 284.701 146.122 285.192C146.666 285.672 147.322 285.912 148.09 285.912C148.719 285.912 149.242 285.768 149.658 285.48C150.084 285.181 150.383 284.787 150.554 284.296H152.122C151.887 285.139 151.418 285.827 150.714 286.36C150.01 286.883 149.135 287.144 148.09 287.144C147.258 287.144 146.511 286.957 145.85 286.584C145.199 286.211 144.687 285.683 144.314 285C143.94 284.307 143.754 283.507 143.754 282.6C143.754 281.693 143.935 280.899 144.298 280.216C144.66 279.533 145.167 279.011 145.818 278.648C146.479 278.275 147.236 278.088 148.09 278.088C148.922 278.088 149.658 278.269 150.298 278.632C150.938 278.995 151.428 279.496 151.77 280.136C152.122 280.765 152.298 281.48 152.298 282.28ZM150.794 281.976C150.794 281.421 150.671 280.947 150.426 280.552C150.18 280.147 149.844 279.843 149.418 279.64C149.002 279.427 148.538 279.32 148.026 279.32C147.29 279.32 146.66 279.555 146.138 280.024C145.626 280.493 145.332 281.144 145.258 281.976H150.794ZM158.172 278.072C159.238 278.072 160.102 278.397 160.764 279.048C161.425 279.688 161.756 280.616 161.756 281.832V287H160.316V282.04C160.316 281.165 160.097 280.499 159.66 280.04C159.222 279.571 158.625 279.336 157.868 279.336C157.1 279.336 156.486 279.576 156.028 280.056C155.58 280.536 155.356 281.235 155.356 282.152V287H153.9V278.232H155.356V279.48C155.644 279.032 156.033 278.685 156.524 278.44C157.025 278.195 157.574 278.072 158.172 278.072ZM167.078 285.656L169.798 278.232H171.35L167.91 287H166.214L162.774 278.232H164.342L167.078 285.656ZM176.287 287.144C175.465 287.144 174.719 286.957 174.047 286.584C173.385 286.211 172.863 285.683 172.479 285C172.105 284.307 171.919 283.507 171.919 282.6C171.919 281.704 172.111 280.915 172.495 280.232C172.889 279.539 173.423 279.011 174.095 278.648C174.767 278.275 175.519 278.088 176.351 278.088C177.183 278.088 177.935 278.275 178.607 278.648C179.279 279.011 179.807 279.533 180.191 280.216C180.585 280.899 180.783 281.693 180.783 282.6C180.783 283.507 180.58 284.307 180.175 285C179.78 285.683 179.241 286.211 178.559 286.584C177.876 286.957 177.119 287.144 176.287 287.144ZM176.287 285.864C176.809 285.864 177.3 285.741 177.759 285.496C178.217 285.251 178.585 284.883 178.863 284.392C179.151 283.901 179.295 283.304 179.295 282.6C179.295 281.896 179.156 281.299 178.879 280.808C178.601 280.317 178.239 279.955 177.791 279.72C177.343 279.475 176.857 279.352 176.335 279.352C175.801 279.352 175.311 279.475 174.863 279.72C174.425 279.955 174.073 280.317 173.807 280.808C173.54 281.299 173.407 281.896 173.407 282.6C173.407 283.315 173.535 283.917 173.791 284.408C174.057 284.899 174.409 285.267 174.847 285.512C175.284 285.747 175.764 285.864 176.287 285.864ZM183.833 275.16V287H182.377V275.16H183.833ZM189.258 285.656L191.978 278.232H193.53L190.09 287H188.394L184.954 278.232H186.522L189.258 285.656ZM195.395 276.808C195.118 276.808 194.883 276.712 194.691 276.52C194.499 276.328 194.403 276.093 194.403 275.816C194.403 275.539 194.499 275.304 194.691 275.112C194.883 274.92 195.118 274.824 195.395 274.824C195.662 274.824 195.886 274.92 196.067 275.112C196.259 275.304 196.355 275.539 196.355 275.816C196.355 276.093 196.259 276.328 196.067 276.52C195.886 276.712 195.662 276.808 195.395 276.808ZM196.099 278.232V287H194.643V278.232H196.099ZM208.805 278.072C209.487 278.072 210.095 278.216 210.629 278.504C211.162 278.781 211.583 279.203 211.893 279.768C212.202 280.333 212.357 281.021 212.357 281.832V287H210.917V282.04C210.917 281.165 210.698 280.499 210.261 280.04C209.834 279.571 209.253 279.336 208.517 279.336C207.759 279.336 207.157 279.581 206.709 280.072C206.261 280.552 206.037 281.251 206.037 282.168V287H204.597V282.04C204.597 281.165 204.378 280.499 203.941 280.04C203.514 279.571 202.933 279.336 202.197 279.336C201.439 279.336 200.837 279.581 200.389 280.072C199.941 280.552 199.717 281.251 199.717 282.168V287H198.261V278.232H199.717V279.496C200.005 279.037 200.389 278.685 200.869 278.44C201.359 278.195 201.898 278.072 202.485 278.072C203.221 278.072 203.871 278.237 204.437 278.568C205.002 278.899 205.423 279.384 205.701 280.024C205.946 279.405 206.351 278.925 206.917 278.584C207.482 278.243 208.111 278.072 208.805 278.072ZM222.425 282.28C222.425 282.557 222.409 282.851 222.377 283.16H215.369C215.422 284.024 215.716 284.701 216.249 285.192C216.793 285.672 217.449 285.912 218.217 285.912C218.846 285.912 219.369 285.768 219.785 285.48C220.212 285.181 220.51 284.787 220.681 284.296H222.249C222.014 285.139 221.545 285.827 220.841 286.36C220.137 286.883 219.262 287.144 218.217 287.144C217.385 287.144 216.638 286.957 215.977 286.584C215.326 286.211 214.814 285.683 214.441 285C214.068 284.307 213.881 283.507 213.881 282.6C213.881 281.693 214.062 280.899 214.425 280.216C214.788 279.533 215.294 279.011 215.945 278.648C216.606 278.275 217.364 278.088 218.217 278.088C219.049 278.088 219.785 278.269 220.425 278.632C221.065 278.995 221.556 279.496 221.897 280.136C222.249 280.765 222.425 281.48 222.425 282.28ZM220.921 281.976C220.921 281.421 220.798 280.947 220.553 280.552C220.308 280.147 219.972 279.843 219.545 279.64C219.129 279.427 218.665 279.32 218.153 279.32C217.417 279.32 216.788 279.555 216.265 280.024C215.753 280.493 215.46 281.144 215.385 281.976H220.921ZM228.299 278.072C229.366 278.072 230.23 278.397 230.891 279.048C231.552 279.688 231.883 280.616 231.883 281.832V287H230.443V282.04C230.443 281.165 230.224 280.499 229.787 280.04C229.35 279.571 228.752 279.336 227.995 279.336C227.227 279.336 226.614 279.576 226.155 280.056C225.707 280.536 225.483 281.235 225.483 282.152V287H224.027V278.232H225.483V279.48C225.771 279.032 226.16 278.685 226.651 278.44C227.152 278.195 227.702 278.072 228.299 278.072ZM235.717 279.432V284.6C235.717 285.027 235.808 285.331 235.989 285.512C236.171 285.683 236.485 285.768 236.933 285.768H238.005V287H236.693C235.883 287 235.275 286.813 234.869 286.44C234.464 286.067 234.261 285.453 234.261 284.6V279.432H233.125V278.232H234.261V276.024H235.717V278.232H238.005V279.432H235.717ZM243.273 287.144C242.452 287.144 241.705 286.957 241.033 286.584C240.372 286.211 239.849 285.683 239.465 285C239.092 284.307 238.905 283.507 238.905 282.6C238.905 281.704 239.097 280.915 239.481 280.232C239.876 279.539 240.409 279.011 241.081 278.648C241.753 278.275 242.505 278.088 243.337 278.088C244.169 278.088 244.921 278.275 245.593 278.648C246.265 279.011 246.793 279.533 247.177 280.216C247.572 280.899 247.769 281.693 247.769 282.6C247.769 283.507 247.567 284.307 247.161 285C246.767 285.683 246.228 286.211 245.545 286.584C244.863 286.957 244.105 287.144 243.273 287.144ZM243.273 285.864C243.796 285.864 244.287 285.741 244.745 285.496C245.204 285.251 245.572 284.883 245.849 284.392C246.137 283.901 246.281 283.304 246.281 282.6C246.281 281.896 246.143 281.299 245.865 280.808C245.588 280.317 245.225 279.955 244.777 279.72C244.329 279.475 243.844 279.352 243.321 279.352C242.788 279.352 242.297 279.475 241.849 279.72C241.412 279.955 241.06 280.317 240.793 280.808C240.527 281.299 240.393 281.896 240.393 282.6C240.393 283.315 240.521 283.917 240.777 284.408C241.044 284.899 241.396 285.267 241.833 285.512C242.271 285.747 242.751 285.864 243.273 285.864ZM72.912 302.232L70.176 311H68.672L66.56 304.04L64.448 311H62.944L60.192 302.232H61.68L63.696 309.592L65.872 302.232H67.36L69.488 309.608L71.472 302.232H72.912ZM82.037 306.28C82.037 306.557 82.021 306.851 81.989 307.16H74.981C75.0343 308.024 75.3277 308.701 75.861 309.192C76.405 309.672 77.061 309.912 77.829 309.912C78.4583 309.912 78.981 309.768 79.397 309.48C79.8237 309.181 80.1223 308.787 80.293 308.296H81.861C81.6263 309.139 81.157 309.827 80.453 310.36C79.749 310.883 78.8743 311.144 77.829 311.144C76.997 311.144 76.2503 310.957 75.589 310.584C74.9383 310.211 74.4263 309.683 74.053 309C73.6797 308.307 73.493 307.507 73.493 306.6C73.493 305.693 73.6743 304.899 74.037 304.216C74.3997 303.533 74.9063 303.011 75.557 302.648C76.2183 302.275 76.9757 302.088 77.829 302.088C78.661 302.088 79.397 302.269 80.037 302.632C80.677 302.995 81.1677 303.496 81.509 304.136C81.861 304.765 82.037 305.48 82.037 306.28ZM80.533 305.976C80.533 305.421 80.4103 304.947 80.165 304.552C79.9197 304.147 79.5837 303.843 79.157 303.64C78.741 303.427 78.277 303.32 77.765 303.32C77.029 303.32 76.3997 303.555 75.877 304.024C75.365 304.493 75.0717 305.144 74.997 305.976H80.533ZM85.0949 303.864C85.3935 303.341 85.8309 302.915 86.4069 302.584C86.9829 302.253 87.6389 302.088 88.3749 302.088C89.1642 302.088 89.8735 302.275 90.5029 302.648C91.1322 303.021 91.6282 303.549 91.9909 304.232C92.3535 304.904 92.5349 305.688 92.5349 306.584C92.5349 307.469 92.3535 308.259 91.9909 308.952C91.6282 309.645 91.1269 310.184 90.4869 310.568C89.8575 310.952 89.1535 311.144 88.3749 311.144C87.6175 311.144 86.9509 310.979 86.3749 310.648C85.8095 310.317 85.3829 309.896 85.0949 309.384V311H83.6389V299.16H85.0949V303.864ZM91.0469 306.584C91.0469 305.923 90.9135 305.347 90.6469 304.856C90.3802 304.365 90.0175 303.992 89.5589 303.736C89.1109 303.48 88.6149 303.352 88.0709 303.352C87.5375 303.352 87.0415 303.485 86.5829 303.752C86.1349 304.008 85.7722 304.387 85.4949 304.888C85.2282 305.379 85.0949 305.949 85.0949 306.6C85.0949 307.261 85.2282 307.843 85.4949 308.344C85.7722 308.835 86.1349 309.213 86.5829 309.48C87.0415 309.736 87.5375 309.864 88.0709 309.864C88.6149 309.864 89.1109 309.736 89.5589 309.48C90.0175 309.213 90.3802 308.835 90.6469 308.344C90.9135 307.843 91.0469 307.256 91.0469 306.584ZM106.077 306.28C106.077 306.557 106.061 306.851 106.029 307.16H99.021C99.0743 308.024 99.3677 308.701 99.901 309.192C100.445 309.672 101.101 309.912 101.869 309.912C102.498 309.912 103.021 309.768 103.437 309.48C103.864 309.181 104.162 308.787 104.333 308.296H105.901C105.666 309.139 105.197 309.827 104.493 310.36C103.789 310.883 102.914 311.144 101.869 311.144C101.037 311.144 100.29 310.957 99.629 310.584C98.9783 310.211 98.4663 309.683 98.093 309C97.7197 308.307 97.533 307.507 97.533 306.6C97.533 305.693 97.7143 304.899 98.077 304.216C98.4397 303.533 98.9463 303.011 99.597 302.648C100.258 302.275 101.016 302.088 101.869 302.088C102.701 302.088 103.437 302.269 104.077 302.632C104.717 302.995 105.208 303.496 105.549 304.136C105.901 304.765 106.077 305.48 106.077 306.28ZM104.573 305.976C104.573 305.421 104.45 304.947 104.205 304.552C103.96 304.147 103.624 303.843 103.197 303.64C102.781 303.427 102.317 303.32 101.805 303.32C101.069 303.32 100.44 303.555 99.917 304.024C99.405 304.493 99.1117 305.144 99.037 305.976H104.573ZM113.081 303.656C113.337 303.155 113.699 302.765 114.169 302.488C114.649 302.211 115.23 302.072 115.913 302.072V303.576H115.529C113.897 303.576 113.081 304.461 113.081 306.232V311H111.625V302.232H113.081V303.656ZM125.273 306.28C125.273 306.557 125.257 306.851 125.225 307.16H118.217C118.271 308.024 118.564 308.701 119.097 309.192C119.641 309.672 120.297 309.912 121.065 309.912C121.695 309.912 122.217 309.768 122.633 309.48C123.06 309.181 123.359 308.787 123.529 308.296H125.097C124.863 309.139 124.393 309.827 123.689 310.36C122.985 310.883 122.111 311.144 121.065 311.144C120.233 311.144 119.487 310.957 118.825 310.584C118.175 310.211 117.663 309.683 117.289 309C116.916 308.307 116.729 307.507 116.729 306.6C116.729 305.693 116.911 304.899 117.273 304.216C117.636 303.533 118.143 303.011 118.793 302.648C119.455 302.275 120.212 302.088 121.065 302.088C121.897 302.088 122.633 302.269 123.273 302.632C123.913 302.995 124.404 303.496 124.745 304.136C125.097 304.765 125.273 305.48 125.273 306.28ZM123.769 305.976C123.769 305.421 123.647 304.947 123.401 304.552C123.156 304.147 122.82 303.843 122.393 303.64C121.977 303.427 121.513 303.32 121.001 303.32C120.265 303.32 119.636 303.555 119.113 304.024C118.601 304.493 118.308 305.144 118.233 305.976H123.769ZM129.979 311.144C129.307 311.144 128.704 311.032 128.171 310.808C127.638 310.573 127.216 310.253 126.907 309.848C126.598 309.432 126.427 308.957 126.395 308.424H127.899C127.942 308.861 128.144 309.219 128.507 309.496C128.88 309.773 129.366 309.912 129.963 309.912C130.518 309.912 130.955 309.789 131.275 309.544C131.595 309.299 131.755 308.989 131.755 308.616C131.755 308.232 131.584 307.949 131.243 307.768C130.902 307.576 130.374 307.389 129.659 307.208C129.008 307.037 128.475 306.867 128.059 306.696C127.654 306.515 127.302 306.253 127.003 305.912C126.715 305.56 126.571 305.101 126.571 304.536C126.571 304.088 126.704 303.677 126.971 303.304C127.238 302.931 127.616 302.637 128.107 302.424C128.598 302.2 129.158 302.088 129.787 302.088C130.758 302.088 131.542 302.333 132.139 302.824C132.736 303.315 133.056 303.987 133.099 304.84H131.643C131.611 304.381 131.424 304.013 131.083 303.736C130.752 303.459 130.304 303.32 129.739 303.32C129.216 303.32 128.8 303.432 128.491 303.656C128.182 303.88 128.027 304.173 128.027 304.536C128.027 304.824 128.118 305.064 128.299 305.256C128.491 305.437 128.726 305.587 129.003 305.704C129.291 305.811 129.686 305.933 130.187 306.072C130.816 306.243 131.328 306.413 131.723 306.584C132.118 306.744 132.454 306.989 132.731 307.32C133.019 307.651 133.168 308.083 133.179 308.616C133.179 309.096 133.046 309.528 132.779 309.912C132.512 310.296 132.134 310.6 131.643 310.824C131.163 311.037 130.608 311.144 129.979 311.144ZM136.371 303.848C136.659 303.347 137.085 302.931 137.651 302.6C138.227 302.259 138.893 302.088 139.651 302.088C140.429 302.088 141.133 302.275 141.763 302.648C142.403 303.021 142.904 303.549 143.267 304.232C143.629 304.904 143.811 305.688 143.811 306.584C143.811 307.469 143.629 308.259 143.267 308.952C142.904 309.645 142.403 310.184 141.763 310.568C141.133 310.952 140.429 311.144 139.651 311.144C138.904 311.144 138.243 310.979 137.667 310.648C137.101 310.307 136.669 309.885 136.371 309.384V315.16H134.915V302.232H136.371V303.848ZM142.323 306.584C142.323 305.923 142.189 305.347 141.923 304.856C141.656 304.365 141.293 303.992 140.835 303.736C140.387 303.48 139.891 303.352 139.347 303.352C138.813 303.352 138.317 303.485 137.859 303.752C137.411 304.008 137.048 304.387 136.771 304.888C136.504 305.379 136.371 305.949 136.371 306.6C136.371 307.261 136.504 307.843 136.771 308.344C137.048 308.835 137.411 309.213 137.859 309.48C138.317 309.736 138.813 309.864 139.347 309.864C139.891 309.864 140.387 309.736 140.835 309.48C141.293 309.213 141.656 308.835 141.923 308.344C142.189 307.843 142.323 307.256 142.323 306.584ZM149.231 311.144C148.41 311.144 147.663 310.957 146.991 310.584C146.33 310.211 145.807 309.683 145.423 309C145.05 308.307 144.863 307.507 144.863 306.6C144.863 305.704 145.055 304.915 145.439 304.232C145.834 303.539 146.367 303.011 147.039 302.648C147.711 302.275 148.463 302.088 149.295 302.088C150.127 302.088 150.879 302.275 151.551 302.648C152.223 303.011 152.751 303.533 153.135 304.216C153.53 304.899 153.727 305.693 153.727 306.6C153.727 307.507 153.524 308.307 153.119 309C152.724 309.683 152.186 310.211 151.503 310.584C150.82 310.957 150.063 311.144 149.231 311.144ZM149.231 309.864C149.754 309.864 150.244 309.741 150.703 309.496C151.162 309.251 151.53 308.883 151.807 308.392C152.095 307.901 152.239 307.304 152.239 306.6C152.239 305.896 152.1 305.299 151.823 304.808C151.546 304.317 151.183 303.955 150.735 303.72C150.287 303.475 149.802 303.352 149.279 303.352C148.746 303.352 148.255 303.475 147.807 303.72C147.37 303.955 147.018 304.317 146.751 304.808C146.484 305.299 146.351 305.896 146.351 306.6C146.351 307.315 146.479 307.917 146.735 308.408C147.002 308.899 147.354 309.267 147.791 309.512C148.228 309.747 148.708 309.864 149.231 309.864ZM159.593 302.072C160.66 302.072 161.524 302.397 162.185 303.048C162.847 303.688 163.177 304.616 163.177 305.832V311H161.737V306.04C161.737 305.165 161.519 304.499 161.081 304.04C160.644 303.571 160.047 303.336 159.289 303.336C158.521 303.336 157.908 303.576 157.449 304.056C157.001 304.536 156.777 305.235 156.777 306.152V311H155.321V302.232H156.777V303.48C157.065 303.032 157.455 302.685 157.945 302.44C158.447 302.195 158.996 302.072 159.593 302.072ZM168.34 311.144C167.668 311.144 167.065 311.032 166.532 310.808C165.998 310.573 165.577 310.253 165.268 309.848C164.958 309.432 164.788 308.957 164.756 308.424H166.26C166.302 308.861 166.505 309.219 166.868 309.496C167.241 309.773 167.726 309.912 168.324 309.912C168.878 309.912 169.316 309.789 169.636 309.544C169.956 309.299 170.116 308.989 170.116 308.616C170.116 308.232 169.945 307.949 169.604 307.768C169.262 307.576 168.734 307.389 168.02 307.208C167.369 307.037 166.836 306.867 166.42 306.696C166.014 306.515 165.662 306.253 165.364 305.912C165.076 305.56 164.932 305.101 164.932 304.536C164.932 304.088 165.065 303.677 165.332 303.304C165.598 302.931 165.977 302.637 166.468 302.424C166.958 302.2 167.518 302.088 168.148 302.088C169.118 302.088 169.902 302.333 170.5 302.824C171.097 303.315 171.417 303.987 171.46 304.84H170.004C169.972 304.381 169.785 304.013 169.444 303.736C169.113 303.459 168.665 303.32 168.1 303.32C167.577 303.32 167.161 303.432 166.852 303.656C166.542 303.88 166.388 304.173 166.388 304.536C166.388 304.824 166.478 305.064 166.66 305.256C166.852 305.437 167.086 305.587 167.364 305.704C167.652 305.811 168.046 305.933 168.548 306.072C169.177 306.243 169.689 306.413 170.084 306.584C170.478 306.744 170.814 306.989 171.092 307.32C171.38 307.651 171.529 308.083 171.54 308.616C171.54 309.096 171.406 309.528 171.14 309.912C170.873 310.296 170.494 310.6 170.004 310.824C169.524 311.037 168.969 311.144 168.34 311.144ZM174.027 300.808C173.75 300.808 173.515 300.712 173.323 300.52C173.131 300.328 173.035 300.093 173.035 299.816C173.035 299.539 173.131 299.304 173.323 299.112C173.515 298.92 173.75 298.824 174.027 298.824C174.294 298.824 174.518 298.92 174.699 299.112C174.891 299.304 174.987 299.539 174.987 299.816C174.987 300.093 174.891 300.328 174.699 300.52C174.518 300.712 174.294 300.808 174.027 300.808ZM174.731 302.232V311H173.275V302.232H174.731ZM180.157 309.656L182.877 302.232H184.429L180.989 311H179.293L175.853 302.232H177.421L180.157 309.656ZM186.293 300.808C186.016 300.808 185.781 300.712 185.589 300.52C185.397 300.328 185.301 300.093 185.301 299.816C185.301 299.539 185.397 299.304 185.589 299.112C185.781 298.92 186.016 298.824 186.293 298.824C186.56 298.824 186.784 298.92 186.965 299.112C187.157 299.304 187.253 299.539 187.253 299.816C187.253 300.093 187.157 300.328 186.965 300.52C186.784 300.712 186.56 300.808 186.293 300.808ZM186.997 302.232V311H185.541V302.232H186.997ZM188.615 306.584C188.615 305.688 188.796 304.904 189.159 304.232C189.522 303.549 190.018 303.021 190.647 302.648C191.287 302.275 192.002 302.088 192.791 302.088C193.474 302.088 194.108 302.248 194.695 302.568C195.282 302.877 195.73 303.288 196.039 303.8V299.16H197.511V311H196.039V309.352C195.751 309.875 195.324 310.307 194.759 310.648C194.194 310.979 193.532 311.144 192.775 311.144C191.996 311.144 191.287 310.952 190.647 310.568C190.018 310.184 189.522 309.645 189.159 308.952C188.796 308.259 188.615 307.469 188.615 306.584ZM196.039 306.6C196.039 305.939 195.906 305.363 195.639 304.872C195.372 304.381 195.01 304.008 194.551 303.752C194.103 303.485 193.607 303.352 193.063 303.352C192.519 303.352 192.023 303.48 191.575 303.736C191.127 303.992 190.77 304.365 190.503 304.856C190.236 305.347 190.103 305.923 190.103 306.584C190.103 307.256 190.236 307.843 190.503 308.344C190.77 308.835 191.127 309.213 191.575 309.48C192.023 309.736 192.519 309.864 193.063 309.864C193.607 309.864 194.103 309.736 194.551 309.48C195.01 309.213 195.372 308.835 195.639 308.344C195.906 307.843 196.039 307.261 196.039 306.6ZM199.107 306.584C199.107 305.688 199.289 304.904 199.651 304.232C200.014 303.549 200.51 303.021 201.139 302.648C201.779 302.275 202.489 302.088 203.267 302.088C204.035 302.088 204.702 302.253 205.267 302.584C205.833 302.915 206.254 303.331 206.531 303.832V302.232H208.003V311H206.531V309.368C206.243 309.88 205.811 310.307 205.235 310.648C204.67 310.979 204.009 311.144 203.251 311.144C202.473 311.144 201.769 310.952 201.139 310.568C200.51 310.184 200.014 309.645 199.651 308.952C199.289 308.259 199.107 307.469 199.107 306.584ZM206.531 306.6C206.531 305.939 206.398 305.363 206.131 304.872C205.865 304.381 205.502 304.008 205.043 303.752C204.595 303.485 204.099 303.352 203.555 303.352C203.011 303.352 202.515 303.48 202.067 303.736C201.619 303.992 201.262 304.365 200.995 304.856C200.729 305.347 200.595 305.923 200.595 306.584C200.595 307.256 200.729 307.843 200.995 308.344C201.262 308.835 201.619 309.213 202.067 309.48C202.515 309.736 203.011 309.864 203.555 309.864C204.099 309.864 204.595 309.736 205.043 309.48C205.502 309.213 205.865 308.835 206.131 308.344C206.398 307.843 206.531 307.261 206.531 306.6ZM209.6 306.584C209.6 305.688 209.781 304.904 210.144 304.232C210.507 303.549 211.003 303.021 211.632 302.648C212.272 302.275 212.987 302.088 213.776 302.088C214.459 302.088 215.093 302.248 215.68 302.568C216.267 302.877 216.715 303.288 217.024 303.8V299.16H218.496V311H217.024V309.352C216.736 309.875 216.309 310.307 215.744 310.648C215.179 310.979 214.517 311.144 213.76 311.144C212.981 311.144 212.272 310.952 211.632 310.568C211.003 310.184 210.507 309.645 210.144 308.952C209.781 308.259 209.6 307.469 209.6 306.584ZM217.024 306.6C217.024 305.939 216.891 305.363 216.624 304.872C216.357 304.381 215.995 304.008 215.536 303.752C215.088 303.485 214.592 303.352 214.048 303.352C213.504 303.352 213.008 303.48 212.56 303.736C212.112 303.992 211.755 304.365 211.488 304.856C211.221 305.347 211.088 305.923 211.088 306.584C211.088 307.256 211.221 307.843 211.488 308.344C211.755 308.835 212.112 309.213 212.56 309.48C213.008 309.736 213.504 309.864 214.048 309.864C214.592 309.864 215.088 309.736 215.536 309.48C215.995 309.213 216.357 308.835 216.624 308.344C216.891 307.843 217.024 307.261 217.024 306.6ZM228.636 306.28C228.636 306.557 228.62 306.851 228.588 307.16H221.58C221.634 308.024 221.927 308.701 222.46 309.192C223.004 309.672 223.66 309.912 224.428 309.912C225.058 309.912 225.58 309.768 225.996 309.48C226.423 309.181 226.722 308.787 226.892 308.296H228.46C228.226 309.139 227.756 309.827 227.052 310.36C226.348 310.883 225.474 311.144 224.428 311.144C223.596 311.144 222.85 310.957 222.188 310.584C221.538 310.211 221.026 309.683 220.652 309C220.279 308.307 220.092 307.507 220.092 306.6C220.092 305.693 220.274 304.899 220.636 304.216C220.999 303.533 221.506 303.011 222.156 302.648C222.818 302.275 223.575 302.088 224.428 302.088C225.26 302.088 225.996 302.269 226.636 302.632C227.276 302.995 227.767 303.496 228.108 304.136C228.46 304.765 228.636 305.48 228.636 306.28ZM227.132 305.976C227.132 305.421 227.01 304.947 226.764 304.552C226.519 304.147 226.183 303.843 225.756 303.64C225.34 303.427 224.876 303.32 224.364 303.32C223.628 303.32 222.999 303.555 222.476 304.024C221.964 304.493 221.671 305.144 221.596 305.976H227.132ZM230.702 311.096C230.425 311.096 230.19 311 229.998 310.808C229.806 310.616 229.71 310.381 229.71 310.104C229.71 309.827 229.806 309.592 229.998 309.4C230.19 309.208 230.425 309.112 230.702 309.112C230.969 309.112 231.193 309.208 231.374 309.4C231.566 309.592 231.662 309.827 231.662 310.104C231.662 310.381 231.566 310.616 231.374 310.808C231.193 311 230.969 311.096 230.702 311.096Z" fill="#363636"/>
<path d="M63.36 223H74.8C80.52 223 84 220.08 84 215.28C84 211.84 82.36 209.52 79.16 208.48C82.04 207.28 83.48 205.04 83.48 201.72C83.48 196.96 80.04 194.08 74.4 194.08H63.36V223ZM74.16 197.56C77.56 197.56 79.48 199.2 79.48 202.08C79.48 205.08 77.64 206.84 74.4 206.84H67.28V197.56H74.16ZM74.72 210.24C78.04 210.24 79.96 211.92 79.96 214.8C79.96 217.8 78.08 219.52 74.72 219.52H67.28V210.24H74.72ZM87.7869 213.2C87.7869 219.24 92.1069 223.48 97.9869 223.48C103.827 223.48 108.147 219.24 108.147 213.2C108.147 207.16 103.827 202.92 97.9869 202.92C92.1069 202.92 87.7869 207.16 87.7869 213.2ZM91.5869 213.2C91.5869 209.12 94.1869 206.28 97.9869 206.28C101.747 206.28 104.387 209.12 104.387 213.2C104.387 217.28 101.747 220.12 97.9869 220.12C94.1869 220.12 91.5869 217.28 91.5869 213.2ZM111.829 213.2C111.829 219.24 116.149 223.48 122.029 223.48C127.869 223.48 132.189 219.24 132.189 213.2C132.189 207.16 127.869 202.92 122.029 202.92C116.149 202.92 111.829 207.16 111.829 213.2ZM115.629 213.2C115.629 209.12 118.229 206.28 122.029 206.28C125.789 206.28 128.429 209.12 128.429 213.2C128.429 217.28 125.789 220.12 122.029 220.12C118.229 220.12 115.629 217.28 115.629 213.2ZM142.476 223V206.6H146.316V203.44H142.476V197.32H138.716V203.44H134.876V206.6H138.716V223H142.476ZM148.89 217.32C148.89 221.04 151.81 223.48 156.41 223.48C161.05 223.48 164.25 221.12 164.25 217.4C164.25 214.48 162.61 212.96 159.29 212.16L155.85 211.32C153.93 210.84 152.97 209.96 152.97 208.64C152.97 206.84 154.29 205.8 156.65 205.8C158.93 205.8 160.25 207.04 160.33 209H163.93C163.85 205.28 161.05 202.88 156.77 202.88C152.45 202.88 149.41 205.16 149.41 208.76C149.41 211.64 151.05 213.36 154.53 214.2L157.97 215C160.01 215.52 160.65 216.32 160.65 217.64C160.65 219.44 159.13 220.52 156.49 220.52C154.01 220.52 152.49 219.32 152.49 217.32H148.89ZM174.74 223V206.6H178.58V203.44H174.74V197.32H170.98V203.44H167.14V206.6H170.98V223H174.74ZM193.954 203.28C193.194 203.12 192.634 203.04 191.954 203.04C189.274 203.04 187.314 204.4 186.514 206.44L186.274 203.48H182.754V223H186.514V212.64C186.514 208.88 188.714 206.72 192.274 206.72H193.954V203.28ZM203.22 223.48C206.38 223.48 209.06 222.08 210.06 219.84L210.46 223H213.66V210.72C213.66 205.44 210.38 202.88 205.54 202.88C200.5 202.88 197.14 205.56 197.14 209.64H200.42C200.42 207.28 202.22 205.88 205.38 205.88C208.02 205.88 209.98 207.04 209.98 210.32V210.88L203.82 211.36C199.22 211.72 196.54 213.96 196.54 217.56C196.54 221.12 199.02 223.48 203.22 223.48ZM204.3 220.56C201.86 220.56 200.34 219.52 200.34 217.44C200.34 215.52 201.7 214.24 205.02 213.92L210.02 213.52V214.56C210.02 218.24 207.86 220.56 204.3 220.56ZM219.667 231.76H223.427V219.8C224.707 222.2 227.307 223.52 230.427 223.52C236.227 223.52 239.507 219.04 239.507 213.08C239.507 207.08 236.027 202.88 230.427 202.88C227.307 202.88 224.667 204.28 223.347 206.96L223.067 203.44H219.667V231.76ZM223.467 213.24C223.467 209.16 225.787 206.32 229.627 206.32C233.467 206.32 235.747 209.2 235.747 213.24C235.747 217.24 233.467 220.12 229.627 220.12C225.787 220.12 223.467 217.24 223.467 213.24Z" fill="#3C2A56"/>
<g clip-path="url(#clip0_20_93)">
<path d="M202.297 0H132.703C115.746 0 102 13.7463 102 30.7031V100.297C102 117.254 115.746 131 132.703 131H202.297C219.254 131 233 117.254 233 100.297V30.7031C233 13.7463 219.254 0 202.297 0Z" fill="url(#paint0_linear_20_93)"/>
<g filter="url(#filter1_d_20_93)">
<path d="M169.532 100.377C184.717 100.377 193.868 92.9414 193.868 80.6776C193.868 71.4068 187.339 64.6956 177.644 63.6327V63.2469C184.767 62.0879 190.356 55.4729 190.356 48.0857C190.356 37.5596 182.047 30.7031 169.383 30.7031H140.891V100.377H169.532ZM151.971 39.539H166.712C174.725 39.539 179.276 43.1123 179.276 49.5825C179.276 56.4871 173.983 60.3495 164.387 60.3495H151.971V39.539ZM151.971 91.5414V68.6066H166.613C177.1 68.6066 182.541 72.4691 182.541 80.0016C182.541 87.5336 177.248 91.5414 167.256 91.5414H151.971Z" fill="url(#paint1_linear_20_93)"/>
<path d="M169.532 100.377C184.717 100.377 193.868 92.9414 193.868 80.6776C193.868 71.4068 187.339 64.6956 177.644 63.6327V63.2469C184.767 62.0879 190.356 55.4729 190.356 48.0857C190.356 37.5596 182.047 30.7031 169.383 30.7031H140.891V100.377H169.532ZM151.971 39.539H166.712C174.725 39.539 179.276 43.1123 179.276 49.5825C179.276 56.4871 173.983 60.3495 164.387 60.3495H151.971V39.539ZM151.971 91.5414V68.6066H166.613C177.1 68.6066 182.541 72.4691 182.541 80.0016C182.541 87.5336 177.248 91.5414 167.256 91.5414H151.971Z" stroke="white" stroke-width="2"/>
</g>
</g>
<defs>
<filter id="filter0_d_20_93" x="0.783813" y="37" width="341" height="360" filterUnits="userSpaceOnUse" color-interpolation-filters="sRGB">
<feFlood flood-opacity="0" result="BackgroundImageFix"/>
<feColorMatrix in="SourceAlpha" type="matrix" values="0 0 0 0 0 0 0 0 0 0 0 0 0 0 0 0 0 0 127 0" result="hardAlpha"/>
<feOffset dy="9"/>
<feGaussianBlur stdDeviation="13.5"/>
<feColorMatrix type="matrix" values="0 0 0 0 0 0 0 0 0 0 0 0 0 0 0 0 0 0 0.1 0"/>
<feBlend mode="normal" in2="BackgroundImageFix" result="effect1_dropShadow_20_93"/>
<feBlend mode="normal" in="SourceGraphic" in2="effect1_dropShadow_20_93" result="shape"/>
</filter>
<filter id="filter1_d_20_93" x="123.891" y="17.7031" width="86.9778" height="103.674" filterUnits="userSpaceOnUse" color-interpolation-filters="sRGB">
<feFlood flood-opacity="0" result="BackgroundImageFix"/>
<feColorMatrix in="SourceAlpha" type="matrix" values="0 0 0 0 0 0 0 0 0 0 0 0 0 0 0 0 0 0 127 0" result="hardAlpha"/>
<feOffset dy="4"/>
<feGaussianBlur stdDeviation="8"/>
<feColorMatrix type="matrix" values="0 0 0 0 0 0 0 0 0 0 0 0 0 0 0 0 0 0 0.15 0"/>
<feBlend mode="normal" in2="BackgroundImageFix" result="effect1_dropShadow_20_93"/>
<feBlend mode="normal" in="SourceGraphic" in2="effect1_dropShadow_20_93" result="shape"/>
</filter>
<linearGradient id="paint0_linear_20_93" x1="102" y1="0" x2="233" y2="131" gradientUnits="userSpaceOnUse">
<stop stop-color="#9013FE"/>
<stop offset="1" stop-color="#6B11F4"/>
</linearGradient>
<linearGradient id="paint1_linear_20_93" x1="145.902" y1="35.2891" x2="178.011" y2="89.5938" gradientUnits="userSpaceOnUse">
<stop stop-color="white"/>
<stop offset="1" stop-color="#F1E5FC"/>
</linearGradient>
<clipPath id="clip0_20_93">
<rect width="131" height="131" fill="white" transform="translate(102)"/>
</clipPath>
</defs>
</svg>
