<svg width="342" height="404" viewBox="0 0 342 404" fill="none" xmlns="http://www.w3.org/2000/svg">
<g filter="url(#filter0_d_36_84)">
<rect x="27.7838" y="62" width="287" height="306" rx="20" fill="white"/>
</g>
<path d="M60.688 257.032V260.76H64.752V261.96H60.688V265.8H65.232V267H59.232V255.832H65.232V257.032H60.688ZM70.2191 267.144C69.5471 267.144 68.9445 267.032 68.4111 266.808C67.8778 266.573 67.4565 266.253 67.1471 265.848C66.8378 265.432 66.6671 264.957 66.6351 264.424H68.1391C68.1818 264.861 68.3845 265.219 68.7471 265.496C69.1205 265.773 69.6058 265.912 70.2031 265.912C70.7578 265.912 71.1951 265.789 71.5151 265.544C71.8351 265.299 71.9951 264.989 71.9951 264.616C71.9951 264.232 71.8245 263.949 71.4831 263.768C71.1418 263.576 70.6138 263.389 69.8991 263.208C69.2485 263.037 68.7151 262.867 68.2991 262.696C67.8938 262.515 67.5418 262.253 67.2431 261.912C66.9551 261.56 66.8111 261.101 66.8111 260.536C66.8111 260.088 66.9445 259.677 67.2111 259.304C67.4778 258.931 67.8565 258.637 68.3471 258.424C68.8378 258.2 69.3978 258.088 70.0271 258.088C70.9978 258.088 71.7818 258.333 72.3791 258.824C72.9765 259.315 73.2965 259.987 73.3391 260.84H71.8831C71.8511 260.381 71.6645 260.013 71.3231 259.736C70.9925 259.459 70.5445 259.32 69.9791 259.32C69.4565 259.32 69.0405 259.432 68.7311 259.656C68.4218 259.88 68.2671 260.173 68.2671 260.536C68.2671 260.824 68.3578 261.064 68.5391 261.256C68.7311 261.437 68.9658 261.587 69.2431 261.704C69.5311 261.811 69.9258 261.933 70.4271 262.072C71.0565 262.243 71.5685 262.413 71.9631 262.584C72.3578 262.744 72.6938 262.989 72.9711 263.32C73.2591 263.651 73.4085 264.083 73.4191 264.616C73.4191 265.096 73.2858 265.528 73.0191 265.912C72.7525 266.296 72.3738 266.6 71.8831 266.824C71.4031 267.037 70.8485 267.144 70.2191 267.144ZM76.9305 259.432V264.6C76.9305 265.027 77.0212 265.331 77.2025 265.512C77.3838 265.683 77.6985 265.768 78.1465 265.768H79.2185V267H77.9065C77.0958 267 76.4878 266.813 76.0825 266.44C75.6772 266.067 75.4745 265.453 75.4745 264.6V259.432H74.3385V258.232H75.4745V256.024H76.9305V258.232H79.2185V259.432H76.9305ZM81.4146 256.808C81.1373 256.808 80.9026 256.712 80.7106 256.52C80.5186 256.328 80.4226 256.093 80.4226 255.816C80.4226 255.539 80.5186 255.304 80.7106 255.112C80.9026 254.92 81.1373 254.824 81.4146 254.824C81.6813 254.824 81.9053 254.92 82.0866 255.112C82.2786 255.304 82.3746 255.539 82.3746 255.816C82.3746 256.093 82.2786 256.328 82.0866 256.52C81.9053 256.712 81.6813 256.808 81.4146 256.808ZM82.1186 258.232V267H80.6626V258.232H82.1186ZM85.7361 255.16V267H84.2801V255.16H85.7361ZM88.6496 256.808C88.3723 256.808 88.1376 256.712 87.9456 256.52C87.7536 256.328 87.6576 256.093 87.6576 255.816C87.6576 255.539 87.7536 255.304 87.9456 255.112C88.1376 254.92 88.3723 254.824 88.6496 254.824C88.9163 254.824 89.1403 254.92 89.3216 255.112C89.5136 255.304 89.6096 255.539 89.6096 255.816C89.6096 256.093 89.5136 256.328 89.3216 256.52C89.1403 256.712 88.9163 256.808 88.6496 256.808ZM89.3536 258.232V267H87.8976V258.232H89.3536ZM92.6031 265.8H96.9071V267H90.9391V265.8L95.1951 259.416H90.9711V258.232H96.8751V259.416L92.6031 265.8ZM97.9324 262.584C97.9324 261.688 98.1137 260.904 98.4764 260.232C98.839 259.549 99.335 259.021 99.9644 258.648C100.604 258.275 101.314 258.088 102.092 258.088C102.86 258.088 103.527 258.253 104.092 258.584C104.658 258.915 105.079 259.331 105.356 259.832V258.232H106.828V267H105.356V265.368C105.068 265.88 104.636 266.307 104.06 266.648C103.495 266.979 102.834 267.144 102.076 267.144C101.298 267.144 100.594 266.952 99.9644 266.568C99.335 266.184 98.839 265.645 98.4764 264.952C98.1137 264.259 97.9324 263.469 97.9324 262.584ZM105.356 262.6C105.356 261.939 105.223 261.363 104.956 260.872C104.69 260.381 104.327 260.008 103.868 259.752C103.42 259.485 102.924 259.352 102.38 259.352C101.836 259.352 101.34 259.48 100.892 259.736C100.444 259.992 100.087 260.365 99.8204 260.856C99.5537 261.347 99.4204 261.923 99.4204 262.584C99.4204 263.256 99.5537 263.843 99.8204 264.344C100.087 264.835 100.444 265.213 100.892 265.48C101.34 265.736 101.836 265.864 102.38 265.864C102.924 265.864 103.42 265.736 103.868 265.48C104.327 265.213 104.69 264.835 104.956 264.344C105.223 263.843 105.356 263.261 105.356 262.6ZM112.697 265.912C113.337 265.912 113.87 265.763 114.297 265.464C114.724 265.165 115.017 264.739 115.177 264.184H116.745C116.532 265.016 116.11 265.699 115.481 266.232C114.862 266.755 114.084 267.053 113.145 267.128V267.928C113.774 267.917 114.276 268.051 114.649 268.328C115.022 268.605 115.209 269 115.209 269.512C115.209 270.013 115.028 270.413 114.665 270.712C114.302 271.011 113.833 271.16 113.257 271.16H111.417V270.216H112.969C113.321 270.216 113.577 270.163 113.737 270.056C113.908 269.949 113.993 269.768 113.993 269.512C113.993 269.267 113.908 269.091 113.737 268.984C113.577 268.877 113.321 268.824 112.969 268.824H112.169V267.112C111.433 267.037 110.782 266.808 110.217 266.424C109.652 266.029 109.209 265.507 108.889 264.856C108.58 264.195 108.425 263.443 108.425 262.6C108.425 261.693 108.606 260.904 108.969 260.232C109.332 259.549 109.833 259.021 110.473 258.648C111.124 258.275 111.865 258.088 112.697 258.088C113.774 258.088 114.66 258.349 115.353 258.872C116.057 259.395 116.521 260.12 116.745 261.048H115.177C115.028 260.515 114.734 260.093 114.297 259.784C113.87 259.475 113.337 259.32 112.697 259.32C111.865 259.32 111.193 259.608 110.681 260.184C110.169 260.749 109.913 261.555 109.913 262.6C109.913 263.656 110.169 264.472 110.681 265.048C111.193 265.624 111.865 265.912 112.697 265.912ZM117.824 262.584C117.824 261.688 118.005 260.904 118.368 260.232C118.73 259.549 119.226 259.021 119.856 258.648C120.496 258.275 121.205 258.088 121.984 258.088C122.752 258.088 123.418 258.253 123.984 258.584C124.549 258.915 124.97 259.331 125.248 259.832V258.232H126.72V267H125.248V265.368C124.96 265.88 124.528 266.307 123.952 266.648C123.386 266.979 122.725 267.144 121.968 267.144C121.189 267.144 120.485 266.952 119.856 266.568C119.226 266.184 118.73 265.645 118.368 264.952C118.005 264.259 117.824 263.469 117.824 262.584ZM125.248 262.6C125.248 261.939 125.114 261.363 124.848 260.872C124.581 260.381 124.218 260.008 123.76 259.752C123.312 259.485 122.816 259.352 122.272 259.352C121.728 259.352 121.232 259.48 120.784 259.736C120.336 259.992 119.978 260.365 119.712 260.856C119.445 261.347 119.312 261.923 119.312 262.584C119.312 263.256 119.445 263.843 119.712 264.344C119.978 264.835 120.336 265.213 120.784 265.48C121.232 265.736 121.728 265.864 122.272 265.864C122.816 265.864 123.312 265.736 123.76 265.48C124.218 265.213 124.581 264.835 124.848 264.344C125.114 263.843 125.248 263.261 125.248 262.6ZM120.208 257.288C120.282 256.744 120.458 256.328 120.736 256.04C121.024 255.752 121.381 255.608 121.808 255.608C122.01 255.608 122.181 255.645 122.32 255.72C122.469 255.784 122.645 255.88 122.848 256.008C122.997 256.115 123.13 256.2 123.248 256.264C123.365 256.317 123.493 256.344 123.632 256.344C123.813 256.344 123.968 256.285 124.096 256.168C124.224 256.051 124.304 255.88 124.336 255.656H125.168C125.104 256.189 124.928 256.6 124.64 256.888C124.352 257.176 123.994 257.32 123.568 257.32C123.365 257.32 123.184 257.288 123.024 257.224C122.874 257.149 122.704 257.043 122.512 256.904C122.341 256.797 122.202 256.717 122.096 256.664C122 256.611 121.882 256.584 121.744 256.584C121.562 256.584 121.408 256.643 121.28 256.76C121.162 256.877 121.088 257.053 121.056 257.288H120.208ZM132.684 267.144C131.863 267.144 131.116 266.957 130.444 266.584C129.783 266.211 129.26 265.683 128.876 265C128.503 264.307 128.316 263.507 128.316 262.6C128.316 261.704 128.508 260.915 128.892 260.232C129.287 259.539 129.82 259.011 130.492 258.648C131.164 258.275 131.916 258.088 132.748 258.088C133.58 258.088 134.332 258.275 135.004 258.648C135.676 259.011 136.204 259.533 136.588 260.216C136.983 260.899 137.18 261.693 137.18 262.6C137.18 263.507 136.977 264.307 136.572 265C136.177 265.683 135.639 266.211 134.956 266.584C134.273 266.957 133.516 267.144 132.684 267.144ZM132.684 265.864C133.207 265.864 133.697 265.741 134.156 265.496C134.615 265.251 134.983 264.883 135.26 264.392C135.548 263.901 135.692 263.304 135.692 262.6C135.692 261.896 135.553 261.299 135.276 260.808C134.999 260.317 134.636 259.955 134.188 259.72C133.74 259.475 133.255 259.352 132.732 259.352C132.199 259.352 131.708 259.475 131.26 259.72C130.823 259.955 130.471 260.317 130.204 260.808C129.937 261.299 129.804 261.896 129.804 262.6C129.804 263.315 129.932 263.917 130.188 264.408C130.455 264.899 130.807 265.267 131.244 265.512C131.681 265.747 132.161 265.864 132.684 265.864ZM142.176 262.584C142.176 261.688 142.357 260.904 142.72 260.232C143.083 259.549 143.579 259.021 144.208 258.648C144.848 258.275 145.563 258.088 146.352 258.088C147.035 258.088 147.669 258.248 148.256 258.568C148.843 258.877 149.291 259.288 149.6 259.8V255.16H151.072V267H149.6V265.352C149.312 265.875 148.885 266.307 148.32 266.648C147.755 266.979 147.093 267.144 146.336 267.144C145.557 267.144 144.848 266.952 144.208 266.568C143.579 266.184 143.083 265.645 142.72 264.952C142.357 264.259 142.176 263.469 142.176 262.584ZM149.6 262.6C149.6 261.939 149.467 261.363 149.2 260.872C148.933 260.381 148.571 260.008 148.112 259.752C147.664 259.485 147.168 259.352 146.624 259.352C146.08 259.352 145.584 259.48 145.136 259.736C144.688 259.992 144.331 260.365 144.064 260.856C143.797 261.347 143.664 261.923 143.664 262.584C143.664 263.256 143.797 263.843 144.064 264.344C144.331 264.835 144.688 265.213 145.136 265.48C145.584 265.736 146.08 265.864 146.624 265.864C147.168 265.864 147.664 265.736 148.112 265.48C148.571 265.213 148.933 264.835 149.2 264.344C149.467 263.843 149.6 263.261 149.6 262.6ZM152.669 262.584C152.669 261.688 152.85 260.904 153.213 260.232C153.575 259.549 154.071 259.021 154.701 258.648C155.341 258.275 156.05 258.088 156.829 258.088C157.597 258.088 158.263 258.253 158.829 258.584C159.394 258.915 159.815 259.331 160.093 259.832V258.232H161.565V267H160.093V265.368C159.805 265.88 159.373 266.307 158.797 266.648C158.231 266.979 157.57 267.144 156.813 267.144C156.034 267.144 155.33 266.952 154.701 266.568C154.071 266.184 153.575 265.645 153.213 264.952C152.85 264.259 152.669 263.469 152.669 262.584ZM160.093 262.6C160.093 261.939 159.959 261.363 159.693 260.872C159.426 260.381 159.063 260.008 158.605 259.752C158.157 259.485 157.661 259.352 157.117 259.352C156.573 259.352 156.077 259.48 155.629 259.736C155.181 259.992 154.823 260.365 154.557 260.856C154.29 261.347 154.157 261.923 154.157 262.584C154.157 263.256 154.29 263.843 154.557 264.344C154.823 264.835 155.181 265.213 155.629 265.48C156.077 265.736 156.573 265.864 157.117 265.864C157.661 265.864 158.157 265.736 158.605 265.48C159.063 265.213 159.426 264.835 159.693 264.344C159.959 263.843 160.093 263.261 160.093 262.6ZM166.809 267.144C166.137 267.144 165.534 267.032 165.001 266.808C164.468 266.573 164.046 266.253 163.737 265.848C163.428 265.432 163.257 264.957 163.225 264.424H164.729C164.772 264.861 164.974 265.219 165.337 265.496C165.71 265.773 166.196 265.912 166.793 265.912C167.348 265.912 167.785 265.789 168.105 265.544C168.425 265.299 168.585 264.989 168.585 264.616C168.585 264.232 168.414 263.949 168.073 263.768C167.732 263.576 167.204 263.389 166.489 263.208C165.838 263.037 165.305 262.867 164.889 262.696C164.484 262.515 164.132 262.253 163.833 261.912C163.545 261.56 163.401 261.101 163.401 260.536C163.401 260.088 163.534 259.677 163.801 259.304C164.068 258.931 164.446 258.637 164.937 258.424C165.428 258.2 165.988 258.088 166.617 258.088C167.588 258.088 168.372 258.333 168.969 258.824C169.566 259.315 169.886 259.987 169.929 260.84H168.473C168.441 260.381 168.254 260.013 167.913 259.736C167.582 259.459 167.134 259.32 166.569 259.32C166.046 259.32 165.63 259.432 165.321 259.656C165.012 259.88 164.857 260.173 164.857 260.536C164.857 260.824 164.948 261.064 165.129 261.256C165.321 261.437 165.556 261.587 165.833 261.704C166.121 261.811 166.516 261.933 167.017 262.072C167.646 262.243 168.158 262.413 168.553 262.584C168.948 262.744 169.284 262.989 169.561 263.32C169.849 263.651 169.998 264.083 170.009 264.616C170.009 265.096 169.876 265.528 169.609 265.912C169.342 266.296 168.964 266.6 168.473 266.824C167.993 267.037 167.438 267.144 166.809 267.144ZM177.146 259.848C177.434 259.347 177.861 258.931 178.426 258.6C179.002 258.259 179.669 258.088 180.426 258.088C181.205 258.088 181.909 258.275 182.538 258.648C183.178 259.021 183.679 259.549 184.042 260.232C184.405 260.904 184.586 261.688 184.586 262.584C184.586 263.469 184.405 264.259 184.042 264.952C183.679 265.645 183.178 266.184 182.538 266.568C181.909 266.952 181.205 267.144 180.426 267.144C179.679 267.144 179.018 266.979 178.442 266.648C177.877 266.307 177.445 265.885 177.146 265.384V271.16H175.69V258.232H177.146V259.848ZM183.098 262.584C183.098 261.923 182.965 261.347 182.698 260.856C182.431 260.365 182.069 259.992 181.61 259.736C181.162 259.48 180.666 259.352 180.122 259.352C179.589 259.352 179.093 259.485 178.634 259.752C178.186 260.008 177.823 260.387 177.546 260.888C177.279 261.379 177.146 261.949 177.146 262.6C177.146 263.261 177.279 263.843 177.546 264.344C177.823 264.835 178.186 265.213 178.634 265.48C179.093 265.736 179.589 265.864 180.122 265.864C180.666 265.864 181.162 265.736 181.61 265.48C182.069 265.213 182.431 264.835 182.698 264.344C182.965 263.843 183.098 263.256 183.098 262.584ZM185.639 262.584C185.639 261.688 185.82 260.904 186.183 260.232C186.545 259.549 187.041 259.021 187.671 258.648C188.311 258.275 189.02 258.088 189.799 258.088C190.567 258.088 191.233 258.253 191.799 258.584C192.364 258.915 192.785 259.331 193.063 259.832V258.232H194.535V267H193.063V265.368C192.775 265.88 192.343 266.307 191.767 266.648C191.201 266.979 190.54 267.144 189.783 267.144C189.004 267.144 188.3 266.952 187.671 266.568C187.041 266.184 186.545 265.645 186.183 264.952C185.82 264.259 185.639 263.469 185.639 262.584ZM193.063 262.6C193.063 261.939 192.929 261.363 192.663 260.872C192.396 260.381 192.033 260.008 191.575 259.752C191.127 259.485 190.631 259.352 190.087 259.352C189.543 259.352 189.047 259.48 188.599 259.736C188.151 259.992 187.793 260.365 187.527 260.856C187.26 261.347 187.127 261.923 187.127 262.584C187.127 263.256 187.26 263.843 187.527 264.344C187.793 264.835 188.151 265.213 188.599 265.48C189.047 265.736 189.543 265.864 190.087 265.864C190.631 265.864 191.127 265.736 191.575 265.48C192.033 265.213 192.396 264.835 192.663 264.344C192.929 263.843 193.063 263.261 193.063 262.6ZM191.927 255.752L188.519 257.576V256.488L191.927 254.488V255.752ZM200.291 258.088C201.048 258.088 201.71 258.253 202.275 258.584C202.851 258.915 203.278 259.331 203.555 259.832V258.232H205.027V267.192C205.027 267.992 204.856 268.701 204.515 269.32C204.174 269.949 203.683 270.44 203.043 270.792C202.414 271.144 201.678 271.32 200.835 271.32C199.683 271.32 198.723 271.048 197.955 270.504C197.187 269.96 196.734 269.219 196.595 268.28H198.035C198.195 268.813 198.526 269.24 199.027 269.56C199.528 269.891 200.131 270.056 200.835 270.056C201.635 270.056 202.286 269.805 202.787 269.304C203.299 268.803 203.555 268.099 203.555 267.192V265.352C203.267 265.864 202.84 266.291 202.275 266.632C201.71 266.973 201.048 267.144 200.291 267.144C199.512 267.144 198.803 266.952 198.163 266.568C197.534 266.184 197.038 265.645 196.675 264.952C196.312 264.259 196.131 263.469 196.131 262.584C196.131 261.688 196.312 260.904 196.675 260.232C197.038 259.549 197.534 259.021 198.163 258.648C198.803 258.275 199.512 258.088 200.291 258.088ZM203.555 262.6C203.555 261.939 203.422 261.363 203.155 260.872C202.888 260.381 202.526 260.008 202.067 259.752C201.619 259.485 201.123 259.352 200.579 259.352C200.035 259.352 199.539 259.48 199.091 259.736C198.643 259.992 198.286 260.365 198.019 260.856C197.752 261.347 197.619 261.923 197.619 262.584C197.619 263.256 197.752 263.843 198.019 264.344C198.286 264.835 198.643 265.213 199.091 265.48C199.539 265.736 200.035 265.864 200.579 265.864C201.123 265.864 201.619 265.736 202.067 265.48C202.526 265.213 202.888 264.835 203.155 264.344C203.422 263.843 203.555 263.261 203.555 262.6ZM207.92 256.808C207.642 256.808 207.408 256.712 207.216 256.52C207.024 256.328 206.928 256.093 206.928 255.816C206.928 255.539 207.024 255.304 207.216 255.112C207.408 254.92 207.642 254.824 207.92 254.824C208.186 254.824 208.41 254.92 208.592 255.112C208.784 255.304 208.88 255.539 208.88 255.816C208.88 256.093 208.784 256.328 208.592 256.52C208.41 256.712 208.186 256.808 207.92 256.808ZM208.624 258.232V267H207.168V258.232H208.624ZM215.057 258.072C216.124 258.072 216.988 258.397 217.649 259.048C218.31 259.688 218.641 260.616 218.641 261.832V267H217.201V262.04C217.201 261.165 216.982 260.499 216.545 260.04C216.108 259.571 215.51 259.336 214.753 259.336C213.985 259.336 213.372 259.576 212.913 260.056C212.465 260.536 212.241 261.235 212.241 262.152V267H210.785V258.232H212.241V259.48C212.529 259.032 212.918 258.685 213.409 258.44C213.91 258.195 214.46 258.072 215.057 258.072ZM220.155 262.584C220.155 261.688 220.337 260.904 220.699 260.232C221.062 259.549 221.558 259.021 222.187 258.648C222.827 258.275 223.537 258.088 224.315 258.088C225.083 258.088 225.75 258.253 226.315 258.584C226.881 258.915 227.302 259.331 227.579 259.832V258.232H229.051V267H227.579V265.368C227.291 265.88 226.859 266.307 226.283 266.648C225.718 266.979 225.057 267.144 224.299 267.144C223.521 267.144 222.817 266.952 222.187 266.568C221.558 266.184 221.062 265.645 220.699 264.952C220.337 264.259 220.155 263.469 220.155 262.584ZM227.579 262.6C227.579 261.939 227.446 261.363 227.179 260.872C226.913 260.381 226.55 260.008 226.091 259.752C225.643 259.485 225.147 259.352 224.603 259.352C224.059 259.352 223.563 259.48 223.115 259.736C222.667 259.992 222.31 260.365 222.043 260.856C221.777 261.347 221.643 261.923 221.643 262.584C221.643 263.256 221.777 263.843 222.043 264.344C222.31 264.835 222.667 265.213 223.115 265.48C223.563 265.736 224.059 265.864 224.603 265.864C225.147 265.864 225.643 265.736 226.091 265.48C226.55 265.213 226.913 264.835 227.179 264.344C227.446 263.843 227.579 263.261 227.579 262.6ZM234.296 267.144C233.624 267.144 233.021 267.032 232.488 266.808C231.955 266.573 231.533 266.253 231.224 265.848C230.915 265.432 230.744 264.957 230.712 264.424H232.216C232.259 264.861 232.461 265.219 232.824 265.496C233.197 265.773 233.683 265.912 234.28 265.912C234.835 265.912 235.272 265.789 235.592 265.544C235.912 265.299 236.072 264.989 236.072 264.616C236.072 264.232 235.901 263.949 235.56 263.768C235.219 263.576 234.691 263.389 233.976 263.208C233.325 263.037 232.792 262.867 232.376 262.696C231.971 262.515 231.619 262.253 231.32 261.912C231.032 261.56 230.888 261.101 230.888 260.536C230.888 260.088 231.021 259.677 231.288 259.304C231.555 258.931 231.933 258.637 232.424 258.424C232.915 258.2 233.475 258.088 234.104 258.088C235.075 258.088 235.859 258.333 236.456 258.824C237.053 259.315 237.373 259.987 237.416 260.84H235.96C235.928 260.381 235.741 260.013 235.4 259.736C235.069 259.459 234.621 259.32 234.056 259.32C233.533 259.32 233.117 259.432 232.808 259.656C232.499 259.88 232.344 260.173 232.344 260.536C232.344 260.824 232.435 261.064 232.616 261.256C232.808 261.437 233.043 261.587 233.32 261.704C233.608 261.811 234.003 261.933 234.504 262.072C235.133 262.243 235.645 262.413 236.04 262.584C236.435 262.744 236.771 262.989 237.048 263.32C237.336 263.651 237.485 264.083 237.496 264.616C237.496 265.096 237.363 265.528 237.096 265.912C236.829 266.296 236.451 266.6 235.96 266.824C235.48 267.037 234.925 267.144 234.296 267.144ZM254.857 258.232L252.121 267H250.617L248.505 260.04L246.393 267H244.889L242.137 258.232H243.625L245.641 265.592L247.817 258.232H249.305L251.433 265.608L253.417 258.232H254.857ZM263.982 262.28C263.982 262.557 263.966 262.851 263.934 263.16H256.926C256.979 264.024 257.273 264.701 257.806 265.192C258.35 265.672 259.006 265.912 259.774 265.912C260.403 265.912 260.926 265.768 261.342 265.48C261.769 265.181 262.067 264.787 262.238 264.296H263.806C263.571 265.139 263.102 265.827 262.398 266.36C261.694 266.883 260.819 267.144 259.774 267.144C258.942 267.144 258.195 266.957 257.534 266.584C256.883 266.211 256.371 265.683 255.998 265C255.625 264.307 255.438 263.507 255.438 262.6C255.438 261.693 255.619 260.899 255.982 260.216C256.345 259.533 256.851 259.011 257.502 258.648C258.163 258.275 258.921 258.088 259.774 258.088C260.606 258.088 261.342 258.269 261.982 258.632C262.622 258.995 263.113 259.496 263.454 260.136C263.806 260.765 263.982 261.48 263.982 262.28ZM262.478 261.976C262.478 261.421 262.355 260.947 262.11 260.552C261.865 260.147 261.529 259.843 261.102 259.64C260.686 259.427 260.222 259.32 259.71 259.32C258.974 259.32 258.345 259.555 257.822 260.024C257.31 260.493 257.017 261.144 256.942 261.976H262.478ZM267.04 259.864C267.339 259.341 267.776 258.915 268.352 258.584C268.928 258.253 269.584 258.088 270.32 258.088C271.109 258.088 271.819 258.275 272.448 258.648C273.077 259.021 273.573 259.549 273.936 260.232C274.299 260.904 274.48 261.688 274.48 262.584C274.48 263.469 274.299 264.259 273.936 264.952C273.573 265.645 273.072 266.184 272.432 266.568C271.803 266.952 271.099 267.144 270.32 267.144C269.563 267.144 268.896 266.979 268.32 266.648C267.755 266.317 267.328 265.896 267.04 265.384V267H265.584V255.16H267.04V259.864ZM272.992 262.584C272.992 261.923 272.859 261.347 272.592 260.856C272.325 260.365 271.963 259.992 271.504 259.736C271.056 259.48 270.56 259.352 270.016 259.352C269.483 259.352 268.987 259.485 268.528 259.752C268.08 260.008 267.717 260.387 267.44 260.888C267.173 261.379 267.04 261.949 267.04 262.6C267.04 263.261 267.173 263.843 267.44 264.344C267.717 264.835 268.08 265.213 268.528 265.48C268.987 265.736 269.483 265.864 270.016 265.864C270.56 265.864 271.056 265.736 271.504 265.48C271.963 265.213 272.325 264.835 272.592 264.344C272.859 263.843 272.992 263.256 272.992 262.584ZM58.688 286.584C58.688 285.688 58.8693 284.904 59.232 284.232C59.5947 283.549 60.0907 283.021 60.72 282.648C61.36 282.275 62.0693 282.088 62.848 282.088C63.616 282.088 64.2827 282.253 64.848 282.584C65.4133 282.915 65.8347 283.331 66.112 283.832V282.232H67.584V291H66.112V289.368C65.824 289.88 65.392 290.307 64.816 290.648C64.2507 290.979 63.5893 291.144 62.832 291.144C62.0533 291.144 61.3493 290.952 60.72 290.568C60.0907 290.184 59.5947 289.645 59.232 288.952C58.8693 288.259 58.688 287.469 58.688 286.584ZM66.112 286.6C66.112 285.939 65.9787 285.363 65.712 284.872C65.4453 284.381 65.0827 284.008 64.624 283.752C64.176 283.485 63.68 283.352 63.136 283.352C62.592 283.352 62.096 283.48 61.648 283.736C61.2 283.992 60.8427 284.365 60.576 284.856C60.3093 285.347 60.176 285.923 60.176 286.584C60.176 287.256 60.3093 287.843 60.576 288.344C60.8427 288.835 61.2 289.213 61.648 289.48C62.096 289.736 62.592 289.864 63.136 289.864C63.68 289.864 64.176 289.736 64.624 289.48C65.0827 289.213 65.4453 288.835 65.712 288.344C65.9787 287.843 66.112 287.261 66.112 286.6ZM71.5005 283.432V288.6C71.5005 289.027 71.5912 289.331 71.7725 289.512C71.9538 289.683 72.2685 289.768 72.7165 289.768H73.7885V291H72.4765C71.6658 291 71.0578 290.813 70.6525 290.44C70.2472 290.067 70.0445 289.453 70.0445 288.6V283.432H68.9085V282.232H70.0445V280.024H71.5005V282.232H73.7885V283.432H71.5005ZM76.6886 283.656C76.9446 283.155 77.3073 282.765 77.7766 282.488C78.2566 282.211 78.838 282.072 79.5206 282.072V283.576H79.1366C77.5046 283.576 76.6886 284.461 76.6886 286.232V291H75.2326V282.232H76.6886V283.656ZM80.3374 286.584C80.3374 285.688 80.5187 284.904 80.8814 284.232C81.244 283.549 81.74 283.021 82.3694 282.648C83.0094 282.275 83.7187 282.088 84.4974 282.088C85.2654 282.088 85.932 282.253 86.4974 282.584C87.0627 282.915 87.484 283.331 87.7614 283.832V282.232H89.2334V291H87.7614V289.368C87.4734 289.88 87.0414 290.307 86.4654 290.648C85.9 290.979 85.2387 291.144 84.4814 291.144C83.7027 291.144 82.9987 290.952 82.3694 290.568C81.74 290.184 81.244 289.645 80.8814 288.952C80.5187 288.259 80.3374 287.469 80.3374 286.584ZM87.7614 286.6C87.7614 285.939 87.628 285.363 87.3614 284.872C87.0947 284.381 86.732 284.008 86.2734 283.752C85.8254 283.485 85.3294 283.352 84.7854 283.352C84.2414 283.352 83.7454 283.48 83.2974 283.736C82.8494 283.992 82.492 284.365 82.2254 284.856C81.9587 285.347 81.8254 285.923 81.8254 286.584C81.8254 287.256 81.9587 287.843 82.2254 288.344C82.492 288.835 82.8494 289.213 83.2974 289.48C83.7454 289.736 84.2414 289.864 84.7854 289.864C85.3294 289.864 85.8254 289.736 86.2734 289.48C86.732 289.213 87.0947 288.835 87.3614 288.344C87.628 287.843 87.7614 287.261 87.7614 286.6ZM94.6379 289.656L97.3579 282.232H98.9099L95.4699 291H93.7739L90.3339 282.232H91.9019L94.6379 289.656ZM108.023 286.28C108.023 286.557 108.007 286.851 107.975 287.16H100.967C101.02 288.024 101.313 288.701 101.847 289.192C102.391 289.672 103.047 289.912 103.815 289.912C104.444 289.912 104.967 289.768 105.383 289.48C105.809 289.181 106.108 288.787 106.279 288.296H107.847C107.612 289.139 107.143 289.827 106.439 290.36C105.735 290.883 104.86 291.144 103.815 291.144C102.983 291.144 102.236 290.957 101.575 290.584C100.924 290.211 100.412 289.683 100.039 289C99.6653 288.307 99.4786 287.507 99.4786 286.6C99.4786 285.693 99.66 284.899 100.023 284.216C100.385 283.533 100.892 283.011 101.543 282.648C102.204 282.275 102.961 282.088 103.815 282.088C104.647 282.088 105.383 282.269 106.023 282.632C106.663 282.995 107.153 283.496 107.495 284.136C107.847 284.765 108.023 285.48 108.023 286.28ZM106.519 285.976C106.519 285.421 106.396 284.947 106.151 284.552C105.905 284.147 105.569 283.843 105.143 283.64C104.727 283.427 104.263 283.32 103.751 283.32C103.015 283.32 102.385 283.555 101.863 284.024C101.351 284.493 101.057 285.144 100.983 285.976H106.519ZM105.319 279.752L101.911 281.576V280.488L105.319 278.488V279.752ZM112.729 291.144C112.057 291.144 111.454 291.032 110.921 290.808C110.387 290.573 109.966 290.253 109.657 289.848C109.347 289.432 109.177 288.957 109.145 288.424H110.649C110.691 288.861 110.894 289.219 111.257 289.496C111.63 289.773 112.115 289.912 112.713 289.912C113.267 289.912 113.705 289.789 114.025 289.544C114.345 289.299 114.505 288.989 114.505 288.616C114.505 288.232 114.334 287.949 113.993 287.768C113.651 287.576 113.123 287.389 112.409 287.208C111.758 287.037 111.225 286.867 110.809 286.696C110.403 286.515 110.051 286.253 109.753 285.912C109.465 285.56 109.321 285.101 109.321 284.536C109.321 284.088 109.454 283.677 109.721 283.304C109.987 282.931 110.366 282.637 110.857 282.424C111.347 282.2 111.907 282.088 112.537 282.088C113.507 282.088 114.291 282.333 114.889 282.824C115.486 283.315 115.806 283.987 115.849 284.84H114.393C114.361 284.381 114.174 284.013 113.833 283.736C113.502 283.459 113.054 283.32 112.489 283.32C111.966 283.32 111.55 283.432 111.241 283.656C110.931 283.88 110.777 284.173 110.777 284.536C110.777 284.824 110.867 285.064 111.049 285.256C111.241 285.437 111.475 285.587 111.753 285.704C112.041 285.811 112.435 285.933 112.937 286.072C113.566 286.243 114.078 286.413 114.473 286.584C114.867 286.744 115.203 286.989 115.481 287.32C115.769 287.651 115.918 288.083 115.929 288.616C115.929 289.096 115.795 289.528 115.529 289.912C115.262 290.296 114.883 290.6 114.393 290.824C113.913 291.037 113.358 291.144 112.729 291.144ZM121.065 286.584C121.065 285.688 121.247 284.904 121.609 284.232C121.972 283.549 122.468 283.021 123.097 282.648C123.737 282.275 124.452 282.088 125.241 282.088C125.924 282.088 126.559 282.248 127.145 282.568C127.732 282.877 128.18 283.288 128.489 283.8V279.16H129.961V291H128.489V289.352C128.201 289.875 127.775 290.307 127.209 290.648C126.644 290.979 125.983 291.144 125.225 291.144C124.447 291.144 123.737 290.952 123.097 290.568C122.468 290.184 121.972 289.645 121.609 288.952C121.247 288.259 121.065 287.469 121.065 286.584ZM128.489 286.6C128.489 285.939 128.356 285.363 128.089 284.872C127.823 284.381 127.46 284.008 127.001 283.752C126.553 283.485 126.057 283.352 125.513 283.352C124.969 283.352 124.473 283.48 124.025 283.736C123.577 283.992 123.22 284.365 122.953 284.856C122.687 285.347 122.553 285.923 122.553 286.584C122.553 287.256 122.687 287.843 122.953 288.344C123.22 288.835 123.577 289.213 124.025 289.48C124.473 289.736 124.969 289.864 125.513 289.864C126.057 289.864 126.553 289.736 127.001 289.48C127.46 289.213 127.823 288.835 128.089 288.344C128.356 287.843 128.489 287.261 128.489 286.6ZM135.926 291.144C135.105 291.144 134.358 290.957 133.686 290.584C133.025 290.211 132.502 289.683 132.118 289C131.745 288.307 131.558 287.507 131.558 286.6C131.558 285.704 131.75 284.915 132.134 284.232C132.529 283.539 133.062 283.011 133.734 282.648C134.406 282.275 135.158 282.088 135.99 282.088C136.822 282.088 137.574 282.275 138.246 282.648C138.918 283.011 139.446 283.533 139.83 284.216C140.225 284.899 140.422 285.693 140.422 286.6C140.422 287.507 140.219 288.307 139.814 289C139.419 289.683 138.881 290.211 138.198 290.584C137.515 290.957 136.758 291.144 135.926 291.144ZM135.926 289.864C136.449 289.864 136.939 289.741 137.398 289.496C137.857 289.251 138.225 288.883 138.502 288.392C138.79 287.901 138.934 287.304 138.934 286.6C138.934 285.896 138.795 285.299 138.518 284.808C138.241 284.317 137.878 283.955 137.43 283.72C136.982 283.475 136.497 283.352 135.974 283.352C135.441 283.352 134.95 283.475 134.502 283.72C134.065 283.955 133.713 284.317 133.446 284.808C133.179 285.299 133.046 285.896 133.046 286.6C133.046 287.315 133.174 287.917 133.43 288.408C133.697 288.899 134.049 289.267 134.486 289.512C134.923 289.747 135.403 289.864 135.926 289.864ZM145.418 285.416C145.418 284.328 145.663 283.352 146.154 282.488C146.645 281.613 147.311 280.931 148.154 280.44C149.007 279.949 149.951 279.704 150.986 279.704C152.202 279.704 153.263 279.997 154.17 280.584C155.077 281.171 155.738 282.003 156.154 283.08H154.41C154.101 282.408 153.653 281.891 153.066 281.528C152.49 281.165 151.797 280.984 150.986 280.984C150.207 280.984 149.509 281.165 148.89 281.528C148.271 281.891 147.786 282.408 147.434 283.08C147.082 283.741 146.906 284.52 146.906 285.416C146.906 286.301 147.082 287.08 147.434 287.752C147.786 288.413 148.271 288.925 148.89 289.288C149.509 289.651 150.207 289.832 150.986 289.832C151.797 289.832 152.49 289.656 153.066 289.304C153.653 288.941 154.101 288.424 154.41 287.752H156.154C155.738 288.819 155.077 289.645 154.17 290.232C153.263 290.808 152.202 291.096 150.986 291.096C149.951 291.096 149.007 290.856 148.154 290.376C147.311 289.885 146.645 289.208 146.154 288.344C145.663 287.48 145.418 286.504 145.418 285.416ZM161.537 291.112C160.801 291.112 160.14 290.984 159.553 290.728C158.977 290.461 158.524 290.099 158.193 289.64C157.863 289.171 157.692 288.632 157.681 288.024H159.233C159.287 288.547 159.5 288.989 159.873 289.352C160.257 289.704 160.812 289.88 161.537 289.88C162.231 289.88 162.775 289.709 163.169 289.368C163.575 289.016 163.777 288.568 163.777 288.024C163.777 287.597 163.66 287.251 163.425 286.984C163.191 286.717 162.897 286.515 162.545 286.376C162.193 286.237 161.719 286.088 161.121 285.928C160.385 285.736 159.793 285.544 159.345 285.352C158.908 285.16 158.529 284.861 158.209 284.456C157.9 284.04 157.745 283.485 157.745 282.792C157.745 282.184 157.9 281.645 158.209 281.176C158.519 280.707 158.951 280.344 159.505 280.088C160.071 279.832 160.716 279.704 161.441 279.704C162.487 279.704 163.34 279.965 164.001 280.488C164.673 281.011 165.052 281.704 165.137 282.568H163.537C163.484 282.141 163.26 281.768 162.865 281.448C162.471 281.117 161.948 280.952 161.297 280.952C160.689 280.952 160.193 281.112 159.809 281.432C159.425 281.741 159.233 282.179 159.233 282.744C159.233 283.149 159.345 283.48 159.569 283.736C159.804 283.992 160.087 284.189 160.417 284.328C160.759 284.456 161.233 284.605 161.841 284.776C162.577 284.979 163.169 285.181 163.617 285.384C164.065 285.576 164.449 285.88 164.769 286.296C165.089 286.701 165.249 287.256 165.249 287.96C165.249 288.504 165.105 289.016 164.817 289.496C164.529 289.976 164.103 290.365 163.537 290.664C162.972 290.963 162.305 291.112 161.537 291.112ZM170.608 291.112C169.872 291.112 169.211 290.984 168.624 290.728C168.048 290.461 167.595 290.099 167.264 289.64C166.933 289.171 166.763 288.632 166.752 288.024H168.304C168.357 288.547 168.571 288.989 168.944 289.352C169.328 289.704 169.883 289.88 170.608 289.88C171.301 289.88 171.845 289.709 172.24 289.368C172.645 289.016 172.848 288.568 172.848 288.024C172.848 287.597 172.731 287.251 172.496 286.984C172.261 286.717 171.968 286.515 171.616 286.376C171.264 286.237 170.789 286.088 170.192 285.928C169.456 285.736 168.864 285.544 168.416 285.352C167.979 285.16 167.6 284.861 167.28 284.456C166.971 284.04 166.816 283.485 166.816 282.792C166.816 282.184 166.971 281.645 167.28 281.176C167.589 280.707 168.021 280.344 168.576 280.088C169.141 279.832 169.787 279.704 170.512 279.704C171.557 279.704 172.411 279.965 173.072 280.488C173.744 281.011 174.123 281.704 174.208 282.568H172.608C172.555 282.141 172.331 281.768 171.936 281.448C171.541 281.117 171.019 280.952 170.368 280.952C169.76 280.952 169.264 281.112 168.88 281.432C168.496 281.741 168.304 282.179 168.304 282.744C168.304 283.149 168.416 283.48 168.64 283.736C168.875 283.992 169.157 284.189 169.488 284.328C169.829 284.456 170.304 284.605 170.912 284.776C171.648 284.979 172.24 285.181 172.688 285.384C173.136 285.576 173.52 285.88 173.84 286.296C174.16 286.701 174.32 287.256 174.32 287.96C174.32 288.504 174.176 289.016 173.888 289.496C173.6 289.976 173.173 290.365 172.608 290.664C172.043 290.963 171.376 291.112 170.608 291.112ZM175.871 282.344C175.945 281.363 176.324 280.595 177.007 280.04C177.689 279.485 178.575 279.208 179.663 279.208C180.388 279.208 181.012 279.341 181.535 279.608C182.068 279.864 182.468 280.216 182.735 280.664C183.012 281.112 183.151 281.619 183.151 282.184C183.151 282.845 182.959 283.416 182.575 283.896C182.201 284.376 181.711 284.685 181.103 284.824V284.904C181.796 285.075 182.345 285.411 182.751 285.912C183.156 286.413 183.359 287.069 183.359 287.88C183.359 288.488 183.22 289.037 182.943 289.528C182.665 290.008 182.249 290.387 181.695 290.664C181.14 290.941 180.473 291.08 179.695 291.08C178.564 291.08 177.636 290.787 176.911 290.2C176.185 289.603 175.78 288.76 175.695 287.672H177.103C177.177 288.312 177.439 288.835 177.887 289.24C178.335 289.645 178.932 289.848 179.679 289.848C180.425 289.848 180.991 289.656 181.375 289.272C181.769 288.877 181.967 288.371 181.967 287.752C181.967 286.952 181.7 286.376 181.167 286.024C180.633 285.672 179.828 285.496 178.751 285.496H178.383V284.28H178.767C179.748 284.269 180.489 284.109 180.991 283.8C181.492 283.48 181.743 282.989 181.743 282.328C181.743 281.763 181.556 281.309 181.183 280.968C180.82 280.627 180.297 280.456 179.615 280.456C178.953 280.456 178.42 280.627 178.015 280.968C177.609 281.309 177.369 281.768 177.295 282.344H175.871ZM185.708 291.096C185.431 291.096 185.196 291 185.004 290.808C184.812 290.616 184.716 290.381 184.716 290.104C184.716 289.827 184.812 289.592 185.004 289.4C185.196 289.208 185.431 289.112 185.708 289.112C185.975 289.112 186.199 289.208 186.38 289.4C186.572 289.592 186.668 289.827 186.668 290.104C186.668 290.381 186.572 290.616 186.38 290.808C186.199 291 185.975 291.096 185.708 291.096Z" fill="#363636"/>
<path d="M74.36 225.44C80.88 225.44 86.04 221.6 87.28 215.84H83.12C82.04 219.4 78.68 221.68 74.44 221.68C68.6 221.68 64.76 217.28 64.76 210.52C64.76 203.76 68.6 199.36 74.44 199.36C78.64 199.36 81.88 201.64 82.96 205.4H87.16C86.08 199.48 81.08 195.6 74.56 195.6C66.28 195.6 60.64 201.64 60.64 210.56C60.64 219.52 66.12 225.44 74.36 225.44ZM91.2066 203.88C91.2066 208.04 93.6466 210.76 98.3666 211.84L103.127 212.92C105.887 213.56 107.127 215 107.127 217.28C107.127 220.16 104.687 221.96 100.847 221.96C97.2066 221.96 94.8866 220.2 94.8066 217.44H90.8066C91.0466 222.4 94.9666 225.48 100.847 225.48C107.007 225.48 111.047 222.16 111.047 216.96C111.047 212.88 108.647 210.32 103.927 209.24L99.1666 208.12C96.4466 207.48 95.1266 206.08 95.1266 203.76C95.1266 200.92 97.4866 199.08 101.127 199.08C104.367 199.08 106.407 200.76 106.607 203.64H110.567C110.247 198.64 106.687 195.56 101.167 195.56C95.2066 195.56 91.2066 198.92 91.2066 203.88ZM115.249 203.88C115.249 208.04 117.689 210.76 122.409 211.84L127.169 212.92C129.929 213.56 131.169 215 131.169 217.28C131.169 220.16 128.729 221.96 124.889 221.96C121.249 221.96 118.929 220.2 118.849 217.44H114.849C115.089 222.4 119.009 225.48 124.889 225.48C131.049 225.48 135.089 222.16 135.089 216.96C135.089 212.88 132.689 210.32 127.969 209.24L123.209 208.12C120.489 207.48 119.169 206.08 119.169 203.76C119.169 200.92 121.529 199.08 125.169 199.08C128.409 199.08 130.449 200.76 130.649 203.64H134.609C134.289 198.64 130.729 195.56 125.209 195.56C119.249 195.56 115.249 198.92 115.249 203.88Z" fill="#3C2A56"/>
<g clip-path="url(#clip0_36_84)">
<path d="M169.928 166.578L121.907 153.199L111.205 32.7366H228.795L218.082 153.18L169.928 166.578Z" fill="#264DE4"/>
<path d="M208.911 145.511L218.065 42.5859H170V156.337L208.911 145.511Z" fill="#2965F1"/>
<path d="M135.738 87.2637L137.057 102.038H170V87.2637H135.738ZM133.087 57.3606L134.425 72.1347H170V57.3606H133.087ZM170 125.634L169.935 125.651L153.541 121.208L152.493 109.425H137.715L139.777 132.623L169.932 141.024L170 141.005V125.634Z" fill="#EBEBEB"/>
<path d="M138.879 0H156.708V7.48308H146.335V14.9662H156.709V22.4488H138.879V0ZM160.275 0H178.104V6.50699H167.731V7.80829H178.104V22.7745H160.275V15.9413H170.649V14.64H160.274L160.275 0ZM181.67 0H199.5V6.50699H189.127V7.80829H199.5V22.7745H181.67V15.9413H192.044V14.64H181.671V0H181.67Z" fill="#FCFCFC"/>
<path d="M204.168 87.2637L206.825 57.3606H169.949V72.1347H190.692L189.353 87.2637H169.949V102.038H188.077L186.367 121.199L169.949 125.646V141.017L200.128 132.623L200.349 130.127L203.809 91.231L204.168 87.2637Z" fill="white"/>
</g>
<defs>
<filter id="filter0_d_36_84" x="0.783813" y="44" width="341" height="360" filterUnits="userSpaceOnUse" color-interpolation-filters="sRGB">
<feFlood flood-opacity="0" result="BackgroundImageFix"/>
<feColorMatrix in="SourceAlpha" type="matrix" values="0 0 0 0 0 0 0 0 0 0 0 0 0 0 0 0 0 0 127 0" result="hardAlpha"/>
<feOffset dy="9"/>
<feGaussianBlur stdDeviation="13.5"/>
<feColorMatrix type="matrix" values="0 0 0 0 0 0 0 0 0 0 0 0 0 0 0 0 0 0 0.1 0"/>
<feBlend mode="normal" in2="BackgroundImageFix" result="effect1_dropShadow_36_84"/>
<feBlend mode="normal" in="SourceGraphic" in2="effect1_dropShadow_36_84" result="shape"/>
</filter>
<clipPath id="clip0_36_84">
<rect width="118" height="167" fill="white" transform="translate(111)"/>
</clipPath>
</defs>
</svg>
