<svg width="342" height="388" viewBox="0 0 342 388" fill="none" xmlns="http://www.w3.org/2000/svg">
<g filter="url(#filter0_d_20_101)">
<rect x="27.0748" y="45.9167" width="287" height="306" rx="20" fill="white"/>
</g>
<path d="M60.688 230.848V242H59.232V230.848H60.688ZM67.1215 233.072C68.1882 233.072 69.0522 233.397 69.7135 234.048C70.3748 234.688 70.7055 235.616 70.7055 236.832V242H69.2655V237.04C69.2655 236.165 69.0468 235.499 68.6095 235.04C68.1722 234.571 67.5748 234.336 66.8175 234.336C66.0495 234.336 65.4362 234.576 64.9775 235.056C64.5295 235.536 64.3055 236.235 64.3055 237.152V242H62.8495V233.232H64.3055V234.48C64.5935 234.032 64.9828 233.685 65.4735 233.44C65.9748 233.195 66.5242 233.072 67.1215 233.072ZM75.8679 242.144C75.1959 242.144 74.5932 242.032 74.0599 241.808C73.5265 241.573 73.1052 241.253 72.7959 240.848C72.4865 240.432 72.3159 239.957 72.2839 239.424H73.7879C73.8305 239.861 74.0332 240.219 74.3959 240.496C74.7692 240.773 75.2545 240.912 75.8519 240.912C76.4065 240.912 76.8439 240.789 77.1639 240.544C77.4839 240.299 77.6439 239.989 77.6439 239.616C77.6439 239.232 77.4732 238.949 77.1319 238.768C76.7905 238.576 76.2625 238.389 75.5479 238.208C74.8972 238.037 74.3639 237.867 73.9479 237.696C73.5425 237.515 73.1905 237.253 72.8919 236.912C72.6039 236.56 72.4599 236.101 72.4599 235.536C72.4599 235.088 72.5932 234.677 72.8599 234.304C73.1265 233.931 73.5052 233.637 73.9959 233.424C74.4865 233.2 75.0465 233.088 75.6759 233.088C76.6465 233.088 77.4305 233.333 78.0279 233.824C78.6252 234.315 78.9452 234.987 78.9879 235.84H77.5319C77.4999 235.381 77.3132 235.013 76.9719 234.736C76.6412 234.459 76.1932 234.32 75.6279 234.32C75.1052 234.32 74.6892 234.432 74.3799 234.656C74.0705 234.88 73.9159 235.173 73.9159 235.536C73.9159 235.824 74.0065 236.064 74.1879 236.256C74.3799 236.437 74.6145 236.587 74.8919 236.704C75.1799 236.811 75.5745 236.933 76.0759 237.072C76.7052 237.243 77.2172 237.413 77.6119 237.584C78.0065 237.744 78.3425 237.989 78.6199 238.32C78.9079 238.651 79.0572 239.083 79.0679 239.616C79.0679 240.096 78.9345 240.528 78.6679 240.912C78.4012 241.296 78.0225 241.6 77.5319 241.824C77.0519 242.037 76.4972 242.144 75.8679 242.144ZM82.2593 234.848C82.5473 234.347 82.9739 233.931 83.5393 233.6C84.1153 233.259 84.7819 233.088 85.5393 233.088C86.3179 233.088 87.0219 233.275 87.6513 233.648C88.2913 234.021 88.7926 234.549 89.1553 235.232C89.5179 235.904 89.6993 236.688 89.6993 237.584C89.6993 238.469 89.5179 239.259 89.1553 239.952C88.7926 240.645 88.2913 241.184 87.6513 241.568C87.0219 241.952 86.3179 242.144 85.5393 242.144C84.7926 242.144 84.1313 241.979 83.5553 241.648C82.9899 241.307 82.5579 240.885 82.2593 240.384V246.16H80.8033V233.232H82.2593V234.848ZM88.2113 237.584C88.2113 236.923 88.0779 236.347 87.8113 235.856C87.5446 235.365 87.1819 234.992 86.7233 234.736C86.2753 234.48 85.7793 234.352 85.2353 234.352C84.7019 234.352 84.2059 234.485 83.7473 234.752C83.2993 235.008 82.9366 235.387 82.6593 235.888C82.3926 236.379 82.2593 236.949 82.2593 237.6C82.2593 238.261 82.3926 238.843 82.6593 239.344C82.9366 239.835 83.2993 240.213 83.7473 240.48C84.2059 240.736 84.7019 240.864 85.2353 240.864C85.7793 240.864 86.2753 240.736 86.7233 240.48C87.1819 240.213 87.5446 239.835 87.8113 239.344C88.0779 238.843 88.2113 238.256 88.2113 237.584ZM92.0478 231.808C91.7704 231.808 91.5358 231.712 91.3438 231.52C91.1518 231.328 91.0558 231.093 91.0558 230.816C91.0558 230.539 91.1518 230.304 91.3438 230.112C91.5358 229.92 91.7704 229.824 92.0478 229.824C92.3144 229.824 92.5384 229.92 92.7198 230.112C92.9118 230.304 93.0078 230.539 93.0078 230.816C93.0078 231.093 92.9118 231.328 92.7198 231.52C92.5384 231.712 92.3144 231.808 92.0478 231.808ZM92.7518 233.232V242H91.2958V233.232H92.7518ZM96.3693 234.656C96.6253 234.155 96.9879 233.765 97.4573 233.488C97.9373 233.211 98.5186 233.072 99.2013 233.072V234.576H98.8173C97.1853 234.576 96.3693 235.461 96.3693 237.232V242H94.9133V233.232H96.3693V234.656ZM100.018 237.584C100.018 236.688 100.199 235.904 100.562 235.232C100.925 234.549 101.421 234.021 102.05 233.648C102.69 233.275 103.399 233.088 104.178 233.088C104.946 233.088 105.613 233.253 106.178 233.584C106.743 233.915 107.165 234.331 107.442 234.832V233.232H108.914V242H107.442V240.368C107.154 240.88 106.722 241.307 106.146 241.648C105.581 241.979 104.919 242.144 104.162 242.144C103.383 242.144 102.679 241.952 102.05 241.568C101.421 241.184 100.925 240.645 100.562 239.952C100.199 239.259 100.018 238.469 100.018 237.584ZM107.442 237.6C107.442 236.939 107.309 236.363 107.042 235.872C106.775 235.381 106.413 235.008 105.954 234.752C105.506 234.485 105.01 234.352 104.466 234.352C103.922 234.352 103.426 234.48 102.978 234.736C102.53 234.992 102.173 235.365 101.906 235.856C101.639 236.347 101.506 236.923 101.506 237.584C101.506 238.256 101.639 238.843 101.906 239.344C102.173 239.835 102.53 240.213 102.978 240.48C103.426 240.736 103.922 240.864 104.466 240.864C105.01 240.864 105.506 240.736 105.954 240.48C106.413 240.213 106.775 239.835 107.042 239.344C107.309 238.843 107.442 238.261 107.442 237.6ZM114.782 240.912C115.422 240.912 115.956 240.763 116.382 240.464C116.809 240.165 117.102 239.739 117.262 239.184H118.83C118.617 240.016 118.196 240.699 117.566 241.232C116.948 241.755 116.169 242.053 115.23 242.128V242.928C115.86 242.917 116.361 243.051 116.734 243.328C117.108 243.605 117.294 244 117.294 244.512C117.294 245.013 117.113 245.413 116.75 245.712C116.388 246.011 115.918 246.16 115.342 246.16H113.502V245.216H115.054C115.406 245.216 115.662 245.163 115.822 245.056C115.993 244.949 116.078 244.768 116.078 244.512C116.078 244.267 115.993 244.091 115.822 243.984C115.662 243.877 115.406 243.824 115.054 243.824H114.254V242.112C113.518 242.037 112.868 241.808 112.302 241.424C111.737 241.029 111.294 240.507 110.974 239.856C110.665 239.195 110.51 238.443 110.51 237.6C110.51 236.693 110.692 235.904 111.054 235.232C111.417 234.549 111.918 234.021 112.558 233.648C113.209 233.275 113.95 233.088 114.782 233.088C115.86 233.088 116.745 233.349 117.438 233.872C118.142 234.395 118.606 235.12 118.83 236.048H117.262C117.113 235.515 116.82 235.093 116.382 234.784C115.956 234.475 115.422 234.32 114.782 234.32C113.95 234.32 113.278 234.608 112.766 235.184C112.254 235.749 111.998 236.555 111.998 237.6C111.998 238.656 112.254 239.472 112.766 240.048C113.278 240.624 113.95 240.912 114.782 240.912ZM119.909 237.584C119.909 236.688 120.091 235.904 120.453 235.232C120.816 234.549 121.312 234.021 121.941 233.648C122.581 233.275 123.291 233.088 124.069 233.088C124.837 233.088 125.504 233.253 126.069 233.584C126.635 233.915 127.056 234.331 127.333 234.832V233.232H128.805V242H127.333V240.368C127.045 240.88 126.613 241.307 126.037 241.648C125.472 241.979 124.811 242.144 124.053 242.144C123.275 242.144 122.571 241.952 121.941 241.568C121.312 241.184 120.816 240.645 120.453 239.952C120.091 239.259 119.909 238.469 119.909 237.584ZM127.333 237.6C127.333 236.939 127.2 236.363 126.933 235.872C126.667 235.381 126.304 235.008 125.845 234.752C125.397 234.485 124.901 234.352 124.357 234.352C123.813 234.352 123.317 234.48 122.869 234.736C122.421 234.992 122.064 235.365 121.797 235.856C121.531 236.347 121.397 236.923 121.397 237.584C121.397 238.256 121.531 238.843 121.797 239.344C122.064 239.835 122.421 240.213 122.869 240.48C123.317 240.736 123.813 240.864 124.357 240.864C124.901 240.864 125.397 240.736 125.845 240.48C126.304 240.213 126.667 239.835 126.933 239.344C127.2 238.843 127.333 238.261 127.333 237.6ZM122.293 232.288C122.368 231.744 122.544 231.328 122.821 231.04C123.109 230.752 123.467 230.608 123.893 230.608C124.096 230.608 124.267 230.645 124.405 230.72C124.555 230.784 124.731 230.88 124.933 231.008C125.083 231.115 125.216 231.2 125.333 231.264C125.451 231.317 125.579 231.344 125.717 231.344C125.899 231.344 126.053 231.285 126.181 231.168C126.309 231.051 126.389 230.88 126.421 230.656H127.253C127.189 231.189 127.013 231.6 126.725 231.888C126.437 232.176 126.08 232.32 125.653 232.32C125.451 232.32 125.269 232.288 125.109 232.224C124.96 232.149 124.789 232.043 124.597 231.904C124.427 231.797 124.288 231.717 124.181 231.664C124.085 231.611 123.968 231.584 123.829 231.584C123.648 231.584 123.493 231.643 123.365 231.76C123.248 231.877 123.173 232.053 123.141 232.288H122.293ZM134.77 242.144C133.948 242.144 133.202 241.957 132.53 241.584C131.868 241.211 131.346 240.683 130.962 240C130.588 239.307 130.402 238.507 130.402 237.6C130.402 236.704 130.594 235.915 130.978 235.232C131.372 234.539 131.906 234.011 132.578 233.648C133.25 233.275 134.002 233.088 134.834 233.088C135.666 233.088 136.418 233.275 137.09 233.648C137.762 234.011 138.29 234.533 138.674 235.216C139.068 235.899 139.266 236.693 139.266 237.6C139.266 238.507 139.063 239.307 138.658 240C138.263 240.683 137.724 241.211 137.042 241.584C136.359 241.957 135.602 242.144 134.77 242.144ZM134.77 240.864C135.292 240.864 135.783 240.741 136.242 240.496C136.7 240.251 137.068 239.883 137.346 239.392C137.634 238.901 137.778 238.304 137.778 237.6C137.778 236.896 137.639 236.299 137.362 235.808C137.084 235.317 136.722 234.955 136.274 234.72C135.826 234.475 135.34 234.352 134.818 234.352C134.284 234.352 133.794 234.475 133.346 234.72C132.908 234.955 132.556 235.317 132.29 235.808C132.023 236.299 131.89 236.896 131.89 237.6C131.89 238.315 132.018 238.917 132.274 239.408C132.54 239.899 132.892 240.267 133.33 240.512C133.767 240.747 134.247 240.864 134.77 240.864ZM142.364 239.984L140.572 244.288H139.596L140.764 239.984H142.364ZM155.434 233.232V242H153.978V240.704C153.7 241.152 153.311 241.504 152.81 241.76C152.319 242.005 151.775 242.128 151.178 242.128C150.495 242.128 149.882 241.989 149.338 241.712C148.794 241.424 148.362 240.997 148.042 240.432C147.732 239.867 147.578 239.179 147.578 238.368V233.232H149.018V238.176C149.018 239.04 149.236 239.707 149.674 240.176C150.111 240.635 150.708 240.864 151.466 240.864C152.244 240.864 152.858 240.624 153.306 240.144C153.754 239.664 153.978 238.965 153.978 238.048V233.232H155.434ZM159.348 234.432V239.6C159.348 240.027 159.439 240.331 159.62 240.512C159.801 240.683 160.116 240.768 160.564 240.768H161.636V242H160.324C159.513 242 158.905 241.813 158.5 241.44C158.095 241.067 157.892 240.453 157.892 239.6V234.432H156.756V233.232H157.892V231.024H159.348V233.232H161.636V234.432H159.348ZM163.832 231.808C163.555 231.808 163.32 231.712 163.128 231.52C162.936 231.328 162.84 231.093 162.84 230.816C162.84 230.539 162.936 230.304 163.128 230.112C163.32 229.92 163.555 229.824 163.832 229.824C164.099 229.824 164.323 229.92 164.504 230.112C164.696 230.304 164.792 230.539 164.792 230.816C164.792 231.093 164.696 231.328 164.504 231.52C164.323 231.712 164.099 231.808 163.832 231.808ZM164.536 233.232V242H163.08V233.232H164.536ZM168.154 230.16V242H166.698V230.16H168.154ZM171.067 231.808C170.79 231.808 170.555 231.712 170.363 231.52C170.171 231.328 170.075 231.093 170.075 230.816C170.075 230.539 170.171 230.304 170.363 230.112C170.555 229.92 170.79 229.824 171.067 229.824C171.334 229.824 171.558 229.92 171.739 230.112C171.931 230.304 172.027 230.539 172.027 230.816C172.027 231.093 171.931 231.328 171.739 231.52C171.558 231.712 171.334 231.808 171.067 231.808ZM171.771 233.232V242H170.315V233.232H171.771ZM175.021 240.8H179.325V242H173.357V240.8L177.613 234.416H173.389V233.232H179.293V234.416L175.021 240.8ZM180.35 237.584C180.35 236.688 180.531 235.904 180.894 235.232C181.257 234.549 181.753 234.021 182.382 233.648C183.022 233.275 183.731 233.088 184.51 233.088C185.278 233.088 185.945 233.253 186.51 233.584C187.075 233.915 187.497 234.331 187.774 234.832V233.232H189.246V242H187.774V240.368C187.486 240.88 187.054 241.307 186.478 241.648C185.913 241.979 185.251 242.144 184.494 242.144C183.715 242.144 183.011 241.952 182.382 241.568C181.753 241.184 181.257 240.645 180.894 239.952C180.531 239.259 180.35 238.469 180.35 237.584ZM187.774 237.6C187.774 236.939 187.641 236.363 187.374 235.872C187.107 235.381 186.745 235.008 186.286 234.752C185.838 234.485 185.342 234.352 184.798 234.352C184.254 234.352 183.758 234.48 183.31 234.736C182.862 234.992 182.505 235.365 182.238 235.856C181.971 236.347 181.838 236.923 181.838 237.584C181.838 238.256 181.971 238.843 182.238 239.344C182.505 239.835 182.862 240.213 183.31 240.48C183.758 240.736 184.254 240.864 184.798 240.864C185.342 240.864 185.838 240.736 186.286 240.48C186.745 240.213 187.107 239.835 187.374 239.344C187.641 238.843 187.774 238.261 187.774 237.6ZM195.114 240.912C195.754 240.912 196.288 240.763 196.714 240.464C197.141 240.165 197.434 239.739 197.594 239.184H199.162C198.949 240.016 198.528 240.699 197.898 241.232C197.28 241.755 196.501 242.053 195.562 242.128V242.928C196.192 242.917 196.693 243.051 197.066 243.328C197.44 243.605 197.626 244 197.626 244.512C197.626 245.013 197.445 245.413 197.082 245.712C196.72 246.011 196.25 246.16 195.674 246.16H193.834V245.216H195.386C195.738 245.216 195.994 245.163 196.154 245.056C196.325 244.949 196.41 244.768 196.41 244.512C196.41 244.267 196.325 244.091 196.154 243.984C195.994 243.877 195.738 243.824 195.386 243.824H194.586V242.112C193.85 242.037 193.2 241.808 192.634 241.424C192.069 241.029 191.626 240.507 191.306 239.856C190.997 239.195 190.842 238.443 190.842 237.6C190.842 236.693 191.024 235.904 191.386 235.232C191.749 234.549 192.25 234.021 192.89 233.648C193.541 233.275 194.282 233.088 195.114 233.088C196.192 233.088 197.077 233.349 197.77 233.872C198.474 234.395 198.938 235.12 199.162 236.048H197.594C197.445 235.515 197.152 235.093 196.714 234.784C196.288 234.475 195.754 234.32 195.114 234.32C194.282 234.32 193.61 234.608 193.098 235.184C192.586 235.749 192.33 236.555 192.33 237.6C192.33 238.656 192.586 239.472 193.098 240.048C193.61 240.624 194.282 240.912 195.114 240.912ZM200.241 237.584C200.241 236.688 200.422 235.904 200.785 235.232C201.148 234.549 201.644 234.021 202.273 233.648C202.913 233.275 203.622 233.088 204.401 233.088C205.169 233.088 205.836 233.253 206.401 233.584C206.966 233.915 207.388 234.331 207.665 234.832V233.232H209.137V242H207.665V240.368C207.377 240.88 206.945 241.307 206.369 241.648C205.804 241.979 205.142 242.144 204.385 242.144C203.606 242.144 202.902 241.952 202.273 241.568C201.644 241.184 201.148 240.645 200.785 239.952C200.422 239.259 200.241 238.469 200.241 237.584ZM207.665 237.6C207.665 236.939 207.532 236.363 207.265 235.872C206.998 235.381 206.636 235.008 206.177 234.752C205.729 234.485 205.233 234.352 204.689 234.352C204.145 234.352 203.649 234.48 203.201 234.736C202.753 234.992 202.396 235.365 202.129 235.856C201.862 236.347 201.729 236.923 201.729 237.584C201.729 238.256 201.862 238.843 202.129 239.344C202.396 239.835 202.753 240.213 203.201 240.48C203.649 240.736 204.145 240.864 204.689 240.864C205.233 240.864 205.729 240.736 206.177 240.48C206.636 240.213 206.998 239.835 207.265 239.344C207.532 238.843 207.665 238.261 207.665 237.6ZM202.625 232.288C202.7 231.744 202.876 231.328 203.153 231.04C203.441 230.752 203.798 230.608 204.225 230.608C204.428 230.608 204.598 230.645 204.737 230.72C204.886 230.784 205.062 230.88 205.265 231.008C205.414 231.115 205.548 231.2 205.665 231.264C205.782 231.317 205.91 231.344 206.049 231.344C206.23 231.344 206.385 231.285 206.513 231.168C206.641 231.051 206.721 230.88 206.753 230.656H207.585C207.521 231.189 207.345 231.6 207.057 231.888C206.769 232.176 206.412 232.32 205.985 232.32C205.782 232.32 205.601 232.288 205.441 232.224C205.292 232.149 205.121 232.043 204.929 231.904C204.758 231.797 204.62 231.717 204.513 231.664C204.417 231.611 204.3 231.584 204.161 231.584C203.98 231.584 203.825 231.643 203.697 231.76C203.58 231.877 203.505 232.053 203.473 232.288H202.625ZM215.102 242.144C214.28 242.144 213.534 241.957 212.862 241.584C212.2 241.211 211.678 240.683 211.294 240C210.92 239.307 210.734 238.507 210.734 237.6C210.734 236.704 210.926 235.915 211.31 235.232C211.704 234.539 212.238 234.011 212.91 233.648C213.582 233.275 214.334 233.088 215.166 233.088C215.998 233.088 216.75 233.275 217.422 233.648C218.094 234.011 218.622 234.533 219.006 235.216C219.4 235.899 219.598 236.693 219.598 237.6C219.598 238.507 219.395 239.307 218.99 240C218.595 240.683 218.056 241.211 217.374 241.584C216.691 241.957 215.934 242.144 215.102 242.144ZM215.102 240.864C215.624 240.864 216.115 240.741 216.574 240.496C217.032 240.251 217.4 239.883 217.678 239.392C217.966 238.901 218.11 238.304 218.11 237.6C218.11 236.896 217.971 236.299 217.694 235.808C217.416 235.317 217.054 234.955 216.606 234.72C216.158 234.475 215.672 234.352 215.15 234.352C214.616 234.352 214.126 234.475 213.678 234.72C213.24 234.955 212.888 235.317 212.622 235.808C212.355 236.299 212.222 236.896 212.222 237.6C212.222 238.315 212.35 238.917 212.606 239.408C212.872 239.899 213.224 240.267 213.662 240.512C214.099 240.747 214.579 240.864 215.102 240.864ZM224.594 237.584C224.594 236.688 224.775 235.904 225.138 235.232C225.5 234.549 225.996 234.021 226.626 233.648C227.266 233.275 227.98 233.088 228.77 233.088C229.452 233.088 230.087 233.248 230.674 233.568C231.26 233.877 231.708 234.288 232.018 234.8V230.16H233.49V242H232.018V240.352C231.73 240.875 231.303 241.307 230.738 241.648C230.172 241.979 229.511 242.144 228.754 242.144C227.975 242.144 227.266 241.952 226.626 241.568C225.996 241.184 225.5 240.645 225.138 239.952C224.775 239.259 224.594 238.469 224.594 237.584ZM232.018 237.6C232.018 236.939 231.884 236.363 231.618 235.872C231.351 235.381 230.988 235.008 230.53 234.752C230.082 234.485 229.586 234.352 229.042 234.352C228.498 234.352 228.002 234.48 227.554 234.736C227.106 234.992 226.748 235.365 226.482 235.856C226.215 236.347 226.082 236.923 226.082 237.584C226.082 238.256 226.215 238.843 226.482 239.344C226.748 239.835 227.106 240.213 227.554 240.48C228.002 240.736 228.498 240.864 229.042 240.864C229.586 240.864 230.082 240.736 230.53 240.48C230.988 240.213 231.351 239.835 231.618 239.344C231.884 238.843 232.018 238.261 232.018 237.6ZM243.63 237.28C243.63 237.557 243.614 237.851 243.582 238.16H236.574C236.627 239.024 236.921 239.701 237.454 240.192C237.998 240.672 238.654 240.912 239.422 240.912C240.051 240.912 240.574 240.768 240.99 240.48C241.417 240.181 241.715 239.787 241.886 239.296H243.454C243.219 240.139 242.75 240.827 242.046 241.36C241.342 241.883 240.467 242.144 239.422 242.144C238.59 242.144 237.843 241.957 237.182 241.584C236.531 241.211 236.019 240.683 235.646 240C235.273 239.307 235.086 238.507 235.086 237.6C235.086 236.693 235.267 235.899 235.63 235.216C235.993 234.533 236.499 234.011 237.15 233.648C237.811 233.275 238.569 233.088 239.422 233.088C240.254 233.088 240.99 233.269 241.63 233.632C242.27 233.995 242.761 234.496 243.102 235.136C243.454 235.765 243.63 236.48 243.63 237.28ZM242.126 236.976C242.126 236.421 242.003 235.947 241.758 235.552C241.513 235.147 241.177 234.843 240.75 234.64C240.334 234.427 239.87 234.32 239.358 234.32C238.622 234.32 237.993 234.555 237.47 235.024C236.958 235.493 236.665 236.144 236.59 236.976H242.126ZM60.688 258.848C60.976 258.347 61.4027 257.931 61.968 257.6C62.544 257.259 63.2107 257.088 63.968 257.088C64.7467 257.088 65.4507 257.275 66.08 257.648C66.72 258.021 67.2213 258.549 67.584 259.232C67.9467 259.904 68.128 260.688 68.128 261.584C68.128 262.469 67.9467 263.259 67.584 263.952C67.2213 264.645 66.72 265.184 66.08 265.568C65.4507 265.952 64.7467 266.144 63.968 266.144C63.2213 266.144 62.56 265.979 61.984 265.648C61.4187 265.307 60.9867 264.885 60.688 264.384V270.16H59.232V257.232H60.688V258.848ZM66.64 261.584C66.64 260.923 66.5067 260.347 66.24 259.856C65.9733 259.365 65.6107 258.992 65.152 258.736C64.704 258.48 64.208 258.352 63.664 258.352C63.1307 258.352 62.6347 258.485 62.176 258.752C61.728 259.008 61.3653 259.387 61.088 259.888C60.8213 260.379 60.688 260.949 60.688 261.6C60.688 262.261 60.8213 262.843 61.088 263.344C61.3653 263.835 61.728 264.213 62.176 264.48C62.6347 264.736 63.1307 264.864 63.664 264.864C64.208 264.864 64.704 264.736 65.152 264.48C65.6107 264.213 65.9733 263.835 66.24 263.344C66.5067 262.843 66.64 262.256 66.64 261.584ZM71.1805 258.656C71.4365 258.155 71.7992 257.765 72.2685 257.488C72.7485 257.211 73.3298 257.072 74.0125 257.072V258.576H73.6285C71.9965 258.576 71.1805 259.461 71.1805 261.232V266H69.7245V257.232H71.1805V258.656ZM79.1973 266.144C78.3759 266.144 77.6293 265.957 76.9573 265.584C76.2959 265.211 75.7733 264.683 75.3893 264C75.0159 263.307 74.8293 262.507 74.8293 261.6C74.8293 260.704 75.0213 259.915 75.4053 259.232C75.7999 258.539 76.3333 258.011 77.0053 257.648C77.6773 257.275 78.4293 257.088 79.2613 257.088C80.0933 257.088 80.8453 257.275 81.5173 257.648C82.1893 258.011 82.7173 258.533 83.1013 259.216C83.4959 259.899 83.6933 260.693 83.6933 261.6C83.6933 262.507 83.4906 263.307 83.0853 264C82.6906 264.683 82.1519 265.211 81.4693 265.584C80.7866 265.957 80.0293 266.144 79.1973 266.144ZM79.1973 264.864C79.7199 264.864 80.2106 264.741 80.6693 264.496C81.1279 264.251 81.4959 263.883 81.7733 263.392C82.0613 262.901 82.2053 262.304 82.2053 261.6C82.2053 260.896 82.0666 260.299 81.7893 259.808C81.5119 259.317 81.1493 258.955 80.7013 258.72C80.2533 258.475 79.7679 258.352 79.2453 258.352C78.7119 258.352 78.2213 258.475 77.7733 258.72C77.3359 258.955 76.9839 259.317 76.7173 259.808C76.4506 260.299 76.3173 260.896 76.3173 261.6C76.3173 262.315 76.4453 262.917 76.7013 263.408C76.9679 263.899 77.3199 264.267 77.7573 264.512C78.1946 264.747 78.6746 264.864 79.1973 264.864ZM87.0636 258.432V263.6C87.0636 264.027 87.1543 264.331 87.3356 264.512C87.517 264.683 87.8316 264.768 88.2796 264.768H89.3516V266H88.0396C87.229 266 86.621 265.813 86.2156 265.44C85.8103 265.067 85.6076 264.453 85.6076 263.6V258.432H84.4716V257.232H85.6076V255.024H87.0636V257.232H89.3516V258.432H87.0636ZM94.6197 266.144C93.7984 266.144 93.0517 265.957 92.3797 265.584C91.7184 265.211 91.1957 264.683 90.8117 264C90.4384 263.307 90.2517 262.507 90.2517 261.6C90.2517 260.704 90.4437 259.915 90.8277 259.232C91.2224 258.539 91.7557 258.011 92.4277 257.648C93.0997 257.275 93.8517 257.088 94.6837 257.088C95.5157 257.088 96.2677 257.275 96.9397 257.648C97.6117 258.011 98.1397 258.533 98.5237 259.216C98.9184 259.899 99.1157 260.693 99.1157 261.6C99.1157 262.507 98.9131 263.307 98.5077 264C98.1131 264.683 97.5744 265.211 96.8917 265.584C96.2091 265.957 95.4517 266.144 94.6197 266.144ZM94.6197 264.864C95.1424 264.864 95.6331 264.741 96.0917 264.496C96.5504 264.251 96.9184 263.883 97.1957 263.392C97.4837 262.901 97.6277 262.304 97.6277 261.6C97.6277 260.896 97.4891 260.299 97.2117 259.808C96.9344 259.317 96.5717 258.955 96.1237 258.72C95.6757 258.475 95.1904 258.352 94.6677 258.352C94.1344 258.352 93.6437 258.475 93.1957 258.72C92.7584 258.955 92.4064 259.317 92.1397 259.808C91.8731 260.299 91.7397 260.896 91.7397 261.6C91.7397 262.315 91.8677 262.917 92.1237 263.408C92.3904 263.899 92.7424 264.267 93.1797 264.512C93.6171 264.747 94.0971 264.864 94.6197 264.864ZM96.2517 254.64L92.8437 256.464V255.376L96.2517 253.376V254.64ZM102.486 258.432V263.6C102.486 264.027 102.577 264.331 102.758 264.512C102.939 264.683 103.254 264.768 103.702 264.768H104.774V266H103.462C102.651 266 102.043 265.813 101.638 265.44C101.233 265.067 101.03 264.453 101.03 263.6V258.432H99.8941V257.232H101.03V255.024H102.486V257.232H104.774V258.432H102.486ZM106.97 255.808C106.693 255.808 106.458 255.712 106.266 255.52C106.074 255.328 105.978 255.093 105.978 254.816C105.978 254.539 106.074 254.304 106.266 254.112C106.458 253.92 106.693 253.824 106.97 253.824C107.237 253.824 107.461 253.92 107.642 254.112C107.834 254.304 107.93 254.539 107.93 254.816C107.93 255.093 107.834 255.328 107.642 255.52C107.461 255.712 107.237 255.808 106.97 255.808ZM107.674 257.232V266H106.218V257.232H107.674ZM111.292 258.848C111.58 258.347 112.006 257.931 112.572 257.6C113.148 257.259 113.814 257.088 114.572 257.088C115.35 257.088 116.054 257.275 116.684 257.648C117.324 258.021 117.825 258.549 118.188 259.232C118.55 259.904 118.732 260.688 118.732 261.584C118.732 262.469 118.55 263.259 118.188 263.952C117.825 264.645 117.324 265.184 116.684 265.568C116.054 265.952 115.35 266.144 114.572 266.144C113.825 266.144 113.164 265.979 112.588 265.648C112.022 265.307 111.59 264.885 111.292 264.384V270.16H109.836V257.232H111.292V258.848ZM117.244 261.584C117.244 260.923 117.11 260.347 116.844 259.856C116.577 259.365 116.214 258.992 115.756 258.736C115.308 258.48 114.812 258.352 114.268 258.352C113.734 258.352 113.238 258.485 112.78 258.752C112.332 259.008 111.969 259.387 111.692 259.888C111.425 260.379 111.292 260.949 111.292 261.6C111.292 262.261 111.425 262.843 111.692 263.344C111.969 263.835 112.332 264.213 112.78 264.48C113.238 264.736 113.734 264.864 114.268 264.864C114.812 264.864 115.308 264.736 115.756 264.48C116.214 264.213 116.577 263.835 116.844 263.344C117.11 262.843 117.244 262.256 117.244 261.584ZM124.152 266.144C123.331 266.144 122.584 265.957 121.912 265.584C121.251 265.211 120.728 264.683 120.344 264C119.971 263.307 119.784 262.507 119.784 261.6C119.784 260.704 119.976 259.915 120.36 259.232C120.755 258.539 121.288 258.011 121.96 257.648C122.632 257.275 123.384 257.088 124.216 257.088C125.048 257.088 125.8 257.275 126.472 257.648C127.144 258.011 127.672 258.533 128.056 259.216C128.451 259.899 128.648 260.693 128.648 261.6C128.648 262.507 128.446 263.307 128.04 264C127.646 264.683 127.107 265.211 126.424 265.584C125.742 265.957 124.984 266.144 124.152 266.144ZM124.152 264.864C124.675 264.864 125.166 264.741 125.624 264.496C126.083 264.251 126.451 263.883 126.728 263.392C127.016 262.901 127.16 262.304 127.16 261.6C127.16 260.896 127.022 260.299 126.744 259.808C126.467 259.317 126.104 258.955 125.656 258.72C125.208 258.475 124.723 258.352 124.2 258.352C123.667 258.352 123.176 258.475 122.728 258.72C122.291 258.955 121.939 259.317 121.672 259.808C121.406 260.299 121.272 260.896 121.272 261.6C121.272 262.315 121.4 262.917 121.656 263.408C121.923 263.899 122.275 264.267 122.712 264.512C123.15 264.747 123.63 264.864 124.152 264.864ZM133.347 266.144C132.675 266.144 132.072 266.032 131.539 265.808C131.005 265.573 130.584 265.253 130.275 264.848C129.965 264.432 129.795 263.957 129.763 263.424H131.267C131.309 263.861 131.512 264.219 131.875 264.496C132.248 264.773 132.733 264.912 133.331 264.912C133.885 264.912 134.323 264.789 134.643 264.544C134.963 264.299 135.123 263.989 135.123 263.616C135.123 263.232 134.952 262.949 134.611 262.768C134.269 262.576 133.741 262.389 133.027 262.208C132.376 262.037 131.843 261.867 131.427 261.696C131.021 261.515 130.669 261.253 130.371 260.912C130.083 260.56 129.939 260.101 129.939 259.536C129.939 259.088 130.072 258.677 130.339 258.304C130.605 257.931 130.984 257.637 131.475 257.424C131.965 257.2 132.525 257.088 133.155 257.088C134.125 257.088 134.909 257.333 135.507 257.824C136.104 258.315 136.424 258.987 136.467 259.84H135.011C134.979 259.381 134.792 259.013 134.451 258.736C134.12 258.459 133.672 258.32 133.107 258.32C132.584 258.32 132.168 258.432 131.859 258.656C131.549 258.88 131.395 259.173 131.395 259.536C131.395 259.824 131.485 260.064 131.667 260.256C131.859 260.437 132.093 260.587 132.371 260.704C132.659 260.811 133.053 260.933 133.555 261.072C134.184 261.243 134.696 261.413 135.091 261.584C135.485 261.744 135.821 261.989 136.099 262.32C136.387 262.651 136.536 263.083 136.547 263.616C136.547 264.096 136.413 264.528 136.147 264.912C135.88 265.296 135.501 265.6 135.011 265.824C134.531 266.037 133.976 266.144 133.347 266.144ZM143.684 258.848C143.972 258.347 144.398 257.931 144.964 257.6C145.54 257.259 146.206 257.088 146.964 257.088C147.742 257.088 148.446 257.275 149.076 257.648C149.716 258.021 150.217 258.549 150.58 259.232C150.942 259.904 151.124 260.688 151.124 261.584C151.124 262.469 150.942 263.259 150.58 263.952C150.217 264.645 149.716 265.184 149.076 265.568C148.446 265.952 147.742 266.144 146.964 266.144C146.217 266.144 145.556 265.979 144.98 265.648C144.414 265.307 143.982 264.885 143.684 264.384V270.16H142.228V257.232H143.684V258.848ZM149.636 261.584C149.636 260.923 149.502 260.347 149.236 259.856C148.969 259.365 148.606 258.992 148.148 258.736C147.7 258.48 147.204 258.352 146.66 258.352C146.126 258.352 145.63 258.485 145.172 258.752C144.724 259.008 144.361 259.387 144.084 259.888C143.817 260.379 143.684 260.949 143.684 261.6C143.684 262.261 143.817 262.843 144.084 263.344C144.361 263.835 144.724 264.213 145.172 264.48C145.63 264.736 146.126 264.864 146.66 264.864C147.204 264.864 147.7 264.736 148.148 264.48C148.606 264.213 148.969 263.835 149.236 263.344C149.502 262.843 149.636 262.256 149.636 261.584ZM154.176 258.656C154.432 258.155 154.795 257.765 155.264 257.488C155.744 257.211 156.325 257.072 157.008 257.072V258.576H156.624C154.992 258.576 154.176 259.461 154.176 261.232V266H152.72V257.232H154.176V258.656ZM162.193 266.144C161.372 266.144 160.625 265.957 159.953 265.584C159.292 265.211 158.769 264.683 158.385 264C158.012 263.307 157.825 262.507 157.825 261.6C157.825 260.704 158.017 259.915 158.401 259.232C158.796 258.539 159.329 258.011 160.001 257.648C160.673 257.275 161.425 257.088 162.257 257.088C163.089 257.088 163.841 257.275 164.513 257.648C165.185 258.011 165.713 258.533 166.097 259.216C166.492 259.899 166.689 260.693 166.689 261.6C166.689 262.507 166.486 263.307 166.081 264C165.686 264.683 165.148 265.211 164.465 265.584C163.782 265.957 163.025 266.144 162.193 266.144ZM162.193 264.864C162.716 264.864 163.206 264.741 163.665 264.496C164.124 264.251 164.492 263.883 164.769 263.392C165.057 262.901 165.201 262.304 165.201 261.6C165.201 260.896 165.062 260.299 164.785 259.808C164.508 259.317 164.145 258.955 163.697 258.72C163.249 258.475 162.764 258.352 162.241 258.352C161.708 258.352 161.217 258.475 160.769 258.72C160.332 258.955 159.98 259.317 159.713 259.808C159.446 260.299 159.313 260.896 159.313 261.6C159.313 262.315 159.441 262.917 159.697 263.408C159.964 263.899 160.316 264.267 160.753 264.512C161.19 264.747 161.67 264.864 162.193 264.864ZM172.555 257.072C173.622 257.072 174.486 257.397 175.147 258.048C175.809 258.688 176.139 259.616 176.139 260.832V266H174.699V261.04C174.699 260.165 174.481 259.499 174.043 259.04C173.606 258.571 173.009 258.336 172.251 258.336C171.483 258.336 170.87 258.576 170.411 259.056C169.963 259.536 169.739 260.235 169.739 261.152V266H168.283V257.232H169.739V258.48C170.027 258.032 170.417 257.685 170.907 257.44C171.409 257.195 171.958 257.072 172.555 257.072ZM179.974 258.432V263.6C179.974 264.027 180.064 264.331 180.246 264.512C180.427 264.683 180.742 264.768 181.19 264.768H182.262V266H180.95C180.139 266 179.531 265.813 179.126 265.44C178.72 265.067 178.518 264.453 178.518 263.6V258.432H177.382V257.232H178.518V255.024H179.974V257.232H182.262V258.432H179.974ZM187.53 266.144C186.708 266.144 185.962 265.957 185.29 265.584C184.628 265.211 184.106 264.683 183.722 264C183.348 263.307 183.162 262.507 183.162 261.6C183.162 260.704 183.354 259.915 183.738 259.232C184.132 258.539 184.666 258.011 185.338 257.648C186.01 257.275 186.762 257.088 187.594 257.088C188.426 257.088 189.178 257.275 189.85 257.648C190.522 258.011 191.05 258.533 191.434 259.216C191.828 259.899 192.026 260.693 192.026 261.6C192.026 262.507 191.823 263.307 191.418 264C191.023 264.683 190.484 265.211 189.802 265.584C189.119 265.957 188.362 266.144 187.53 266.144ZM187.53 264.864C188.052 264.864 188.543 264.741 189.002 264.496C189.46 264.251 189.828 263.883 190.106 263.392C190.394 262.901 190.538 262.304 190.538 261.6C190.538 260.896 190.399 260.299 190.122 259.808C189.844 259.317 189.482 258.955 189.034 258.72C188.586 258.475 188.1 258.352 187.578 258.352C187.044 258.352 186.554 258.475 186.106 258.72C185.668 258.955 185.316 259.317 185.05 259.808C184.783 260.299 184.65 260.896 184.65 261.6C184.65 262.315 184.778 262.917 185.034 263.408C185.3 263.899 185.652 264.267 186.09 264.512C186.527 264.747 187.007 264.864 187.53 264.864ZM196.724 266.144C196.052 266.144 195.449 266.032 194.916 265.808C194.383 265.573 193.961 265.253 193.652 264.848C193.343 264.432 193.172 263.957 193.14 263.424H194.644C194.687 263.861 194.889 264.219 195.252 264.496C195.625 264.773 196.111 264.912 196.708 264.912C197.263 264.912 197.7 264.789 198.02 264.544C198.34 264.299 198.5 263.989 198.5 263.616C198.5 263.232 198.329 262.949 197.988 262.768C197.647 262.576 197.119 262.389 196.404 262.208C195.753 262.037 195.22 261.867 194.804 261.696C194.399 261.515 194.047 261.253 193.748 260.912C193.46 260.56 193.316 260.101 193.316 259.536C193.316 259.088 193.449 258.677 193.716 258.304C193.983 257.931 194.361 257.637 194.852 257.424C195.343 257.2 195.903 257.088 196.532 257.088C197.503 257.088 198.287 257.333 198.884 257.824C199.481 258.315 199.801 258.987 199.844 259.84H198.388C198.356 259.381 198.169 259.013 197.828 258.736C197.497 258.459 197.049 258.32 196.484 258.32C195.961 258.32 195.545 258.432 195.236 258.656C194.927 258.88 194.772 259.173 194.772 259.536C194.772 259.824 194.863 260.064 195.044 260.256C195.236 260.437 195.471 260.587 195.748 260.704C196.036 260.811 196.431 260.933 196.932 261.072C197.561 261.243 198.073 261.413 198.468 261.584C198.863 261.744 199.199 261.989 199.476 262.32C199.764 262.651 199.913 263.083 199.924 263.616C199.924 264.096 199.791 264.528 199.524 264.912C199.257 265.296 198.879 265.6 198.388 265.824C197.908 266.037 197.353 266.144 196.724 266.144ZM213.605 261.28C213.605 261.557 213.589 261.851 213.557 262.16H206.549C206.602 263.024 206.896 263.701 207.429 264.192C207.973 264.672 208.629 264.912 209.397 264.912C210.026 264.912 210.549 264.768 210.965 264.48C211.392 264.181 211.69 263.787 211.861 263.296H213.429C213.194 264.139 212.725 264.827 212.021 265.36C211.317 265.883 210.442 266.144 209.397 266.144C208.565 266.144 207.818 265.957 207.157 265.584C206.506 265.211 205.994 264.683 205.621 264C205.248 263.307 205.061 262.507 205.061 261.6C205.061 260.693 205.242 259.899 205.605 259.216C205.968 258.533 206.474 258.011 207.125 257.648C207.786 257.275 208.544 257.088 209.397 257.088C210.229 257.088 210.965 257.269 211.605 257.632C212.245 257.995 212.736 258.496 213.077 259.136C213.429 259.765 213.605 260.48 213.605 261.28ZM212.101 260.976C212.101 260.421 211.978 259.947 211.733 259.552C211.488 259.147 211.152 258.843 210.725 258.64C210.309 258.427 209.845 258.32 209.333 258.32C208.597 258.32 207.968 258.555 207.445 259.024C206.933 259.493 206.64 260.144 206.565 260.976H212.101ZM223.425 257.072C224.491 257.072 225.355 257.397 226.017 258.048C226.678 258.688 227.009 259.616 227.009 260.832V266H225.569V261.04C225.569 260.165 225.35 259.499 224.913 259.04C224.475 258.571 223.878 258.336 223.121 258.336C222.353 258.336 221.739 258.576 221.281 259.056C220.833 259.536 220.609 260.235 220.609 261.152V266H219.153V257.232H220.609V258.48C220.897 258.032 221.286 257.685 221.777 257.44C222.278 257.195 222.827 257.072 223.425 257.072ZM228.523 261.584C228.523 260.688 228.704 259.904 229.067 259.232C229.43 258.549 229.926 258.021 230.555 257.648C231.195 257.275 231.904 257.088 232.683 257.088C233.451 257.088 234.118 257.253 234.683 257.584C235.248 257.915 235.67 258.331 235.947 258.832V257.232H237.419V266H235.947V264.368C235.659 264.88 235.227 265.307 234.651 265.648C234.086 265.979 233.424 266.144 232.667 266.144C231.888 266.144 231.184 265.952 230.555 265.568C229.926 265.184 229.43 264.645 229.067 263.952C228.704 263.259 228.523 262.469 228.523 261.584ZM235.947 261.6C235.947 260.939 235.814 260.363 235.547 259.872C235.28 259.381 234.918 259.008 234.459 258.752C234.011 258.485 233.515 258.352 232.971 258.352C232.427 258.352 231.931 258.48 231.483 258.736C231.035 258.992 230.678 259.365 230.411 259.856C230.144 260.347 230.011 260.923 230.011 261.584C230.011 262.256 230.144 262.843 230.411 263.344C230.678 263.835 231.035 264.213 231.483 264.48C231.931 264.736 232.427 264.864 232.971 264.864C233.515 264.864 234.011 264.736 234.459 264.48C234.918 264.213 235.28 263.835 235.547 263.344C235.814 262.843 235.947 262.261 235.947 261.6ZM58.688 285.6C58.688 284.693 58.8693 283.904 59.232 283.232C59.5947 282.549 60.096 282.021 60.736 281.648C61.3867 281.275 62.128 281.088 62.96 281.088C64.0373 281.088 64.9227 281.349 65.616 281.872C66.32 282.395 66.784 283.12 67.008 284.048H65.44C65.2907 283.515 64.9973 283.093 64.56 282.784C64.1333 282.475 63.6 282.32 62.96 282.32C62.128 282.32 61.456 282.608 60.944 283.184C60.432 283.749 60.176 284.555 60.176 285.6C60.176 286.656 60.432 287.472 60.944 288.048C61.456 288.624 62.128 288.912 62.96 288.912C63.6 288.912 64.1333 288.763 64.56 288.464C64.9867 288.165 65.28 287.739 65.44 287.184H67.008C66.7733 288.08 66.304 288.8 65.6 289.344C64.896 289.877 64.016 290.144 62.96 290.144C62.128 290.144 61.3867 289.957 60.736 289.584C60.096 289.211 59.5947 288.683 59.232 288C58.8693 287.317 58.688 286.517 58.688 285.6ZM72.4548 290.144C71.6334 290.144 70.8868 289.957 70.2148 289.584C69.5534 289.211 69.0308 288.683 68.6468 288C68.2734 287.307 68.0868 286.507 68.0868 285.6C68.0868 284.704 68.2788 283.915 68.6628 283.232C69.0574 282.539 69.5908 282.011 70.2628 281.648C70.9348 281.275 71.6868 281.088 72.5188 281.088C73.3508 281.088 74.1028 281.275 74.7748 281.648C75.4468 282.011 75.9748 282.533 76.3588 283.216C76.7534 283.899 76.9508 284.693 76.9508 285.6C76.9508 286.507 76.7481 287.307 76.3428 288C75.9481 288.683 75.4094 289.211 74.7268 289.584C74.0441 289.957 73.2868 290.144 72.4548 290.144ZM72.4548 288.864C72.9774 288.864 73.4681 288.741 73.9268 288.496C74.3854 288.251 74.7534 287.883 75.0308 287.392C75.3188 286.901 75.4628 286.304 75.4628 285.6C75.4628 284.896 75.3241 284.299 75.0468 283.808C74.7694 283.317 74.4068 282.955 73.9588 282.72C73.5108 282.475 73.0254 282.352 72.5028 282.352C71.9694 282.352 71.4788 282.475 71.0308 282.72C70.5934 282.955 70.2414 283.317 69.9748 283.808C69.7081 284.299 69.5748 284.896 69.5748 285.6C69.5748 286.315 69.7028 286.917 69.9588 287.408C70.2254 287.899 70.5774 288.267 71.0148 288.512C71.4521 288.747 71.9321 288.864 72.4548 288.864ZM82.8171 281.072C83.8838 281.072 84.7478 281.397 85.4091 282.048C86.0705 282.688 86.4011 283.616 86.4011 284.832V290H84.9611V285.04C84.9611 284.165 84.7425 283.499 84.3051 283.04C83.8678 282.571 83.2705 282.336 82.5131 282.336C81.7451 282.336 81.1318 282.576 80.6731 283.056C80.2251 283.536 80.0011 284.235 80.0011 285.152V290H78.5451V281.232H80.0011V282.48C80.2891 282.032 80.6785 281.685 81.1691 281.44C81.6705 281.195 82.2198 281.072 82.8171 281.072ZM91.5635 290.144C90.8915 290.144 90.2888 290.032 89.7555 289.808C89.2222 289.573 88.8008 289.253 88.4915 288.848C88.1822 288.432 88.0115 287.957 87.9795 287.424H89.4835C89.5262 287.861 89.7288 288.219 90.0915 288.496C90.4648 288.773 90.9502 288.912 91.5475 288.912C92.1022 288.912 92.5395 288.789 92.8595 288.544C93.1795 288.299 93.3395 287.989 93.3395 287.616C93.3395 287.232 93.1688 286.949 92.8275 286.768C92.4862 286.576 91.9582 286.389 91.2435 286.208C90.5928 286.037 90.0595 285.867 89.6435 285.696C89.2382 285.515 88.8862 285.253 88.5875 284.912C88.2995 284.56 88.1555 284.101 88.1555 283.536C88.1555 283.088 88.2888 282.677 88.5555 282.304C88.8222 281.931 89.2008 281.637 89.6915 281.424C90.1822 281.2 90.7422 281.088 91.3715 281.088C92.3422 281.088 93.1262 281.333 93.7235 281.824C94.3208 282.315 94.6408 282.987 94.6835 283.84H93.2275C93.1955 283.381 93.0088 283.013 92.6675 282.736C92.3368 282.459 91.8888 282.32 91.3235 282.32C90.8008 282.32 90.3848 282.432 90.0755 282.656C89.7662 282.88 89.6115 283.173 89.6115 283.536C89.6115 283.824 89.7022 284.064 89.8835 284.256C90.0755 284.437 90.3102 284.587 90.5875 284.704C90.8755 284.811 91.2702 284.933 91.7715 285.072C92.4008 285.243 92.9128 285.413 93.3075 285.584C93.7022 285.744 94.0382 285.989 94.3155 286.32C94.6035 286.651 94.7528 287.083 94.7635 287.616C94.7635 288.096 94.6302 288.528 94.3635 288.912C94.0968 289.296 93.7182 289.6 93.2275 289.824C92.7475 290.037 92.1928 290.144 91.5635 290.144ZM98.2749 282.432V287.6C98.2749 288.027 98.3655 288.331 98.5469 288.512C98.7282 288.683 99.0429 288.768 99.4909 288.768H100.563V290H99.2509C98.4402 290 97.8322 289.813 97.4269 289.44C97.0215 289.067 96.8189 288.453 96.8189 287.6V282.432H95.6829V281.232H96.8189V279.024H98.2749V281.232H100.563V282.432H98.2749ZM103.463 282.656C103.719 282.155 104.082 281.765 104.551 281.488C105.031 281.211 105.612 281.072 106.295 281.072V282.576H105.911C104.279 282.576 103.463 283.461 103.463 285.232V290H102.007V281.232H103.463V282.656ZM115.432 281.232V290H113.976V288.704C113.698 289.152 113.309 289.504 112.808 289.76C112.317 290.005 111.773 290.128 111.176 290.128C110.493 290.128 109.88 289.989 109.336 289.712C108.792 289.424 108.36 288.997 108.04 288.432C107.73 287.867 107.576 287.179 107.576 286.368V281.232H109.016V286.176C109.016 287.04 109.234 287.707 109.672 288.176C110.109 288.635 110.706 288.864 111.464 288.864C112.242 288.864 112.856 288.624 113.304 288.144C113.752 287.664 113.976 286.965 113.976 286.048V281.232H115.432ZM121.298 288.912C121.938 288.912 122.471 288.763 122.898 288.464C123.325 288.165 123.618 287.739 123.778 287.184H125.346C125.133 288.016 124.711 288.699 124.082 289.232C123.463 289.755 122.685 290.053 121.746 290.128V290.928C122.375 290.917 122.877 291.051 123.25 291.328C123.623 291.605 123.81 292 123.81 292.512C123.81 293.013 123.629 293.413 123.266 293.712C122.903 294.011 122.434 294.16 121.858 294.16H120.018V293.216H121.57C121.922 293.216 122.178 293.163 122.338 293.056C122.509 292.949 122.594 292.768 122.594 292.512C122.594 292.267 122.509 292.091 122.338 291.984C122.178 291.877 121.922 291.824 121.57 291.824H120.77V290.112C120.034 290.037 119.383 289.808 118.818 289.424C118.253 289.029 117.81 288.507 117.49 287.856C117.181 287.195 117.026 286.443 117.026 285.6C117.026 284.693 117.207 283.904 117.57 283.232C117.933 282.549 118.434 282.021 119.074 281.648C119.725 281.275 120.466 281.088 121.298 281.088C122.375 281.088 123.261 281.349 123.954 281.872C124.658 282.395 125.122 283.12 125.346 284.048H123.778C123.629 283.515 123.335 283.093 122.898 282.784C122.471 282.475 121.938 282.32 121.298 282.32C120.466 282.32 119.794 282.608 119.282 283.184C118.77 283.749 118.514 284.555 118.514 285.6C118.514 286.656 118.77 287.472 119.282 288.048C119.794 288.624 120.466 288.912 121.298 288.912ZM126.425 285.584C126.425 284.688 126.606 283.904 126.969 283.232C127.332 282.549 127.828 282.021 128.457 281.648C129.097 281.275 129.806 281.088 130.585 281.088C131.353 281.088 132.02 281.253 132.585 281.584C133.15 281.915 133.572 282.331 133.849 282.832V281.232H135.321V290H133.849V288.368C133.561 288.88 133.129 289.307 132.553 289.648C131.988 289.979 131.326 290.144 130.569 290.144C129.79 290.144 129.086 289.952 128.457 289.568C127.828 289.184 127.332 288.645 126.969 287.952C126.606 287.259 126.425 286.469 126.425 285.584ZM133.849 285.6C133.849 284.939 133.716 284.363 133.449 283.872C133.182 283.381 132.82 283.008 132.361 282.752C131.913 282.485 131.417 282.352 130.873 282.352C130.329 282.352 129.833 282.48 129.385 282.736C128.937 282.992 128.58 283.365 128.313 283.856C128.046 284.347 127.913 284.923 127.913 285.584C127.913 286.256 128.046 286.843 128.313 287.344C128.58 287.835 128.937 288.213 129.385 288.48C129.833 288.736 130.329 288.864 130.873 288.864C131.417 288.864 131.913 288.736 132.361 288.48C132.82 288.213 133.182 287.835 133.449 287.344C133.716 286.843 133.849 286.261 133.849 285.6ZM128.809 280.288C128.884 279.744 129.06 279.328 129.337 279.04C129.625 278.752 129.982 278.608 130.409 278.608C130.612 278.608 130.782 278.645 130.921 278.72C131.07 278.784 131.246 278.88 131.449 279.008C131.598 279.115 131.732 279.2 131.849 279.264C131.966 279.317 132.094 279.344 132.233 279.344C132.414 279.344 132.569 279.285 132.697 279.168C132.825 279.051 132.905 278.88 132.937 278.656H133.769C133.705 279.189 133.529 279.6 133.241 279.888C132.953 280.176 132.596 280.32 132.169 280.32C131.966 280.32 131.785 280.288 131.625 280.224C131.476 280.149 131.305 280.043 131.113 279.904C130.942 279.797 130.804 279.717 130.697 279.664C130.601 279.611 130.484 279.584 130.345 279.584C130.164 279.584 130.009 279.643 129.881 279.76C129.764 279.877 129.689 280.053 129.657 280.288H128.809ZM141.285 290.144C140.464 290.144 139.717 289.957 139.045 289.584C138.384 289.211 137.861 288.683 137.477 288C137.104 287.307 136.917 286.507 136.917 285.6C136.917 284.704 137.109 283.915 137.493 283.232C137.888 282.539 138.421 282.011 139.093 281.648C139.765 281.275 140.517 281.088 141.349 281.088C142.181 281.088 142.933 281.275 143.605 281.648C144.277 282.011 144.805 282.533 145.189 283.216C145.584 283.899 145.781 284.693 145.781 285.6C145.781 286.507 145.579 287.307 145.173 288C144.779 288.683 144.24 289.211 143.557 289.584C142.875 289.957 142.117 290.144 141.285 290.144ZM141.285 288.864C141.808 288.864 142.299 288.741 142.757 288.496C143.216 288.251 143.584 287.883 143.861 287.392C144.149 286.901 144.293 286.304 144.293 285.6C144.293 284.896 144.155 284.299 143.877 283.808C143.6 283.317 143.237 282.955 142.789 282.72C142.341 282.475 141.856 282.352 141.333 282.352C140.8 282.352 140.309 282.475 139.861 282.72C139.424 282.955 139.072 283.317 138.805 283.808C138.539 284.299 138.405 284.896 138.405 285.6C138.405 286.315 138.533 286.917 138.789 287.408C139.056 287.899 139.408 288.267 139.845 288.512C140.283 288.747 140.763 288.864 141.285 288.864ZM150.777 285.584C150.777 284.688 150.959 283.904 151.321 283.232C151.684 282.549 152.18 282.021 152.809 281.648C153.449 281.275 154.164 281.088 154.953 281.088C155.636 281.088 156.271 281.248 156.857 281.568C157.444 281.877 157.892 282.288 158.201 282.8V278.16H159.673V290H158.201V288.352C157.913 288.875 157.487 289.307 156.921 289.648C156.356 289.979 155.695 290.144 154.937 290.144C154.159 290.144 153.449 289.952 152.809 289.568C152.18 289.184 151.684 288.645 151.321 287.952C150.959 287.259 150.777 286.469 150.777 285.584ZM158.201 285.6C158.201 284.939 158.068 284.363 157.801 283.872C157.535 283.381 157.172 283.008 156.713 282.752C156.265 282.485 155.769 282.352 155.225 282.352C154.681 282.352 154.185 282.48 153.737 282.736C153.289 282.992 152.932 283.365 152.665 283.856C152.399 284.347 152.265 284.923 152.265 285.584C152.265 286.256 152.399 286.843 152.665 287.344C152.932 287.835 153.289 288.213 153.737 288.48C154.185 288.736 154.681 288.864 155.225 288.864C155.769 288.864 156.265 288.736 156.713 288.48C157.172 288.213 157.535 287.835 157.801 287.344C158.068 286.843 158.201 286.261 158.201 285.6ZM169.814 285.28C169.814 285.557 169.798 285.851 169.766 286.16H162.758C162.811 287.024 163.105 287.701 163.638 288.192C164.182 288.672 164.838 288.912 165.606 288.912C166.235 288.912 166.758 288.768 167.174 288.48C167.601 288.181 167.899 287.787 168.07 287.296H169.638C169.403 288.139 168.934 288.827 168.23 289.36C167.526 289.883 166.651 290.144 165.606 290.144C164.774 290.144 164.027 289.957 163.366 289.584C162.715 289.211 162.203 288.683 161.83 288C161.457 287.307 161.27 286.507 161.27 285.6C161.27 284.693 161.451 283.899 161.814 283.216C162.177 282.533 162.683 282.011 163.334 281.648C163.995 281.275 164.753 281.088 165.606 281.088C166.438 281.088 167.174 281.269 167.814 281.632C168.454 281.995 168.945 282.496 169.286 283.136C169.638 283.765 169.814 284.48 169.814 285.28ZM168.31 284.976C168.31 284.421 168.187 283.947 167.942 283.552C167.697 283.147 167.361 282.843 166.934 282.64C166.518 282.427 166.054 282.32 165.542 282.32C164.806 282.32 164.177 282.555 163.654 283.024C163.142 283.493 162.849 284.144 162.774 284.976H168.31ZM179.633 281.072C180.7 281.072 181.564 281.397 182.225 282.048C182.887 282.688 183.217 283.616 183.217 284.832V290H181.777V285.04C181.777 284.165 181.559 283.499 181.121 283.04C180.684 282.571 180.087 282.336 179.329 282.336C178.561 282.336 177.948 282.576 177.489 283.056C177.041 283.536 176.817 284.235 176.817 285.152V290H175.361V281.232H176.817V282.48C177.105 282.032 177.495 281.685 177.985 281.44C178.487 281.195 179.036 281.072 179.633 281.072ZM189.1 290.144C188.278 290.144 187.532 289.957 186.86 289.584C186.198 289.211 185.676 288.683 185.292 288C184.918 287.307 184.732 286.507 184.732 285.6C184.732 284.704 184.924 283.915 185.308 283.232C185.702 282.539 186.236 282.011 186.908 281.648C187.58 281.275 188.332 281.088 189.164 281.088C189.996 281.088 190.748 281.275 191.42 281.648C192.092 282.011 192.62 282.533 193.004 283.216C193.398 283.899 193.596 284.693 193.596 285.6C193.596 286.507 193.393 287.307 192.988 288C192.593 288.683 192.054 289.211 191.372 289.584C190.689 289.957 189.932 290.144 189.1 290.144ZM189.1 288.864C189.622 288.864 190.113 288.741 190.572 288.496C191.03 288.251 191.398 287.883 191.676 287.392C191.964 286.901 192.108 286.304 192.108 285.6C192.108 284.896 191.969 284.299 191.692 283.808C191.414 283.317 191.052 282.955 190.604 282.72C190.156 282.475 189.67 282.352 189.148 282.352C188.614 282.352 188.124 282.475 187.676 282.72C187.238 282.955 186.886 283.317 186.62 283.808C186.353 284.299 186.22 284.896 186.22 285.6C186.22 286.315 186.348 286.917 186.604 287.408C186.87 287.899 187.222 288.267 187.66 288.512C188.097 288.747 188.577 288.864 189.1 288.864ZM198.454 288.656L201.174 281.232H202.726L199.286 290H197.59L194.15 281.232H195.718L198.454 288.656ZM207.663 290.144C206.842 290.144 206.095 289.957 205.423 289.584C204.762 289.211 204.239 288.683 203.855 288C203.482 287.307 203.295 286.507 203.295 285.6C203.295 284.704 203.487 283.915 203.871 283.232C204.266 282.539 204.799 282.011 205.471 281.648C206.143 281.275 206.895 281.088 207.727 281.088C208.559 281.088 209.311 281.275 209.983 281.648C210.655 282.011 211.183 282.533 211.567 283.216C211.962 283.899 212.159 284.693 212.159 285.6C212.159 286.507 211.956 287.307 211.551 288C211.156 288.683 210.618 289.211 209.935 289.584C209.252 289.957 208.495 290.144 207.663 290.144ZM207.663 288.864C208.186 288.864 208.676 288.741 209.135 288.496C209.594 288.251 209.962 287.883 210.239 287.392C210.527 286.901 210.671 286.304 210.671 285.6C210.671 284.896 210.532 284.299 210.255 283.808C209.978 283.317 209.615 282.955 209.167 282.72C208.719 282.475 208.234 282.352 207.711 282.352C207.178 282.352 206.687 282.475 206.239 282.72C205.802 282.955 205.45 283.317 205.183 283.808C204.916 284.299 204.783 284.896 204.783 285.6C204.783 286.315 204.911 286.917 205.167 287.408C205.434 287.899 205.786 288.267 206.223 288.512C206.66 288.747 207.14 288.864 207.663 288.864ZM216.857 290.144C216.185 290.144 215.583 290.032 215.049 289.808C214.516 289.573 214.095 289.253 213.785 288.848C213.476 288.432 213.305 287.957 213.273 287.424H214.777C214.82 287.861 215.023 288.219 215.385 288.496C215.759 288.773 216.244 288.912 216.841 288.912C217.396 288.912 217.833 288.789 218.153 288.544C218.473 288.299 218.633 287.989 218.633 287.616C218.633 287.232 218.463 286.949 218.121 286.768C217.78 286.576 217.252 286.389 216.537 286.208C215.887 286.037 215.353 285.867 214.937 285.696C214.532 285.515 214.18 285.253 213.881 284.912C213.593 284.56 213.449 284.101 213.449 283.536C213.449 283.088 213.583 282.677 213.849 282.304C214.116 281.931 214.495 281.637 214.985 281.424C215.476 281.2 216.036 281.088 216.665 281.088C217.636 281.088 218.42 281.333 219.017 281.824C219.615 282.315 219.935 282.987 219.977 283.84H218.521C218.489 283.381 218.303 283.013 217.961 282.736C217.631 282.459 217.183 282.32 216.617 282.32C216.095 282.32 215.679 282.432 215.369 282.656C215.06 282.88 214.905 283.173 214.905 283.536C214.905 283.824 214.996 284.064 215.177 284.256C215.369 284.437 215.604 284.587 215.881 284.704C216.169 284.811 216.564 284.933 217.065 285.072C217.695 285.243 218.207 285.413 218.601 285.584C218.996 285.744 219.332 285.989 219.609 286.32C219.897 286.651 220.047 287.083 220.057 287.616C220.057 288.096 219.924 288.528 219.657 288.912C219.391 289.296 219.012 289.6 218.521 289.824C218.041 290.037 217.487 290.144 216.857 290.144ZM227.194 278.16V290H225.738V278.16H227.194ZM228.812 285.584C228.812 284.688 228.993 283.904 229.356 283.232C229.718 282.549 230.214 282.021 230.844 281.648C231.484 281.275 232.193 281.088 232.972 281.088C233.74 281.088 234.406 281.253 234.972 281.584C235.537 281.915 235.958 282.331 236.236 282.832V281.232H237.708V290H236.236V288.368C235.948 288.88 235.516 289.307 234.94 289.648C234.374 289.979 233.713 290.144 232.956 290.144C232.177 290.144 231.473 289.952 230.844 289.568C230.214 289.184 229.718 288.645 229.356 287.952C228.993 287.259 228.812 286.469 228.812 285.584ZM236.236 285.6C236.236 284.939 236.102 284.363 235.836 283.872C235.569 283.381 235.206 283.008 234.748 282.752C234.3 282.485 233.804 282.352 233.26 282.352C232.716 282.352 232.22 282.48 231.772 282.736C231.324 282.992 230.966 283.365 230.7 283.856C230.433 284.347 230.3 284.923 230.3 285.584C230.3 286.256 230.433 286.843 230.7 287.344C230.966 287.835 231.324 288.213 231.772 288.48C232.22 288.736 232.716 288.864 233.26 288.864C233.804 288.864 234.3 288.736 234.748 288.48C235.206 288.213 235.569 287.835 235.836 287.344C236.102 286.843 236.236 286.261 236.236 285.6ZM247.4 281.232L242.12 294.128H240.616L242.344 289.904L238.808 281.232H240.424L243.176 288.336L245.896 281.232H247.4ZM252.368 290.144C251.547 290.144 250.8 289.957 250.128 289.584C249.467 289.211 248.944 288.683 248.56 288C248.187 287.307 248 286.507 248 285.6C248 284.704 248.192 283.915 248.576 283.232C248.971 282.539 249.504 282.011 250.176 281.648C250.848 281.275 251.6 281.088 252.432 281.088C253.264 281.088 254.016 281.275 254.688 281.648C255.36 282.011 255.888 282.533 256.272 283.216C256.667 283.899 256.864 284.693 256.864 285.6C256.864 286.507 256.661 287.307 256.256 288C255.861 288.683 255.323 289.211 254.64 289.584C253.957 289.957 253.2 290.144 252.368 290.144ZM252.368 288.864C252.891 288.864 253.381 288.741 253.84 288.496C254.299 288.251 254.667 287.883 254.944 287.392C255.232 286.901 255.376 286.304 255.376 285.6C255.376 284.896 255.237 284.299 254.96 283.808C254.683 283.317 254.32 282.955 253.872 282.72C253.424 282.475 252.939 282.352 252.416 282.352C251.883 282.352 251.392 282.475 250.944 282.72C250.507 282.955 250.155 283.317 249.888 283.808C249.621 284.299 249.488 284.896 249.488 285.6C249.488 286.315 249.616 286.917 249.872 287.408C250.139 287.899 250.491 288.267 250.928 288.512C251.365 288.747 251.845 288.864 252.368 288.864ZM266.234 281.232V290H264.778V288.704C264.501 289.152 264.112 289.504 263.61 289.76C263.12 290.005 262.576 290.128 261.978 290.128C261.296 290.128 260.682 289.989 260.138 289.712C259.594 289.424 259.162 288.997 258.842 288.432C258.533 287.867 258.378 287.179 258.378 286.368V281.232H259.818V286.176C259.818 287.04 260.037 287.707 260.474 288.176C260.912 288.635 261.509 288.864 262.266 288.864C263.045 288.864 263.658 288.624 264.106 288.144C264.554 287.664 264.778 286.965 264.778 286.048V281.232H266.234ZM270.149 282.432V287.6C270.149 288.027 270.239 288.331 270.421 288.512C270.602 288.683 270.917 288.768 271.365 288.768H272.437V290H271.125C270.314 290 269.706 289.813 269.301 289.44C268.895 289.067 268.693 288.453 268.693 287.6V282.432H267.557V281.232H268.693V279.024H270.149V281.232H272.437V282.432H270.149ZM276.985 290.144C276.313 290.144 275.71 290.032 275.177 289.808C274.643 289.573 274.222 289.253 273.913 288.848C273.603 288.432 273.433 287.957 273.401 287.424H274.905C274.947 287.861 275.15 288.219 275.513 288.496C275.886 288.773 276.371 288.912 276.969 288.912C277.523 288.912 277.961 288.789 278.281 288.544C278.601 288.299 278.761 287.989 278.761 287.616C278.761 287.232 278.59 286.949 278.249 286.768C277.907 286.576 277.379 286.389 276.665 286.208C276.014 286.037 275.481 285.867 275.065 285.696C274.659 285.515 274.307 285.253 274.009 284.912C273.721 284.56 273.577 284.101 273.577 283.536C273.577 283.088 273.71 282.677 273.977 282.304C274.243 281.931 274.622 281.637 275.113 281.424C275.603 281.2 276.163 281.088 276.793 281.088C277.763 281.088 278.547 281.333 279.145 281.824C279.742 282.315 280.062 282.987 280.105 283.84H278.649C278.617 283.381 278.43 283.013 278.089 282.736C277.758 282.459 277.31 282.32 276.745 282.32C276.222 282.32 275.806 282.432 275.497 282.656C275.187 282.88 275.033 283.173 275.033 283.536C275.033 283.824 275.123 284.064 275.305 284.256C275.497 284.437 275.731 284.587 276.009 284.704C276.297 284.811 276.691 284.933 277.193 285.072C277.822 285.243 278.334 285.413 278.729 285.584C279.123 285.744 279.459 285.989 279.737 286.32C280.025 286.651 280.174 287.083 280.185 287.616C280.185 288.096 280.051 288.528 279.785 288.912C279.518 289.296 279.139 289.6 278.649 289.824C278.169 290.037 277.614 290.144 276.985 290.144ZM282.384 290.096C282.107 290.096 281.872 290 281.68 289.808C281.488 289.616 281.392 289.381 281.392 289.104C281.392 288.827 281.488 288.592 281.68 288.4C281.872 288.208 282.107 288.112 282.384 288.112C282.651 288.112 282.875 288.208 283.056 288.4C283.248 288.592 283.344 288.827 283.344 289.104C283.344 289.381 283.248 289.616 283.056 289.808C282.875 290 282.651 290.096 282.384 290.096Z" fill="#363636"/>
<path d="M76.64 178.72V175.16H65.28V165.68H78.8V162.08H61.36V191H65.28V178.72H76.64ZM85.5475 166.8C86.9075 166.8 88.0275 165.68 88.0275 164.32C88.0275 162.92 86.9075 161.84 85.5475 161.84C84.1875 161.84 83.0675 162.92 83.0675 164.32C83.0675 165.68 84.1875 166.8 85.5475 166.8ZM83.7075 191H87.4675V171.44H83.7075V191ZM92.4862 180.72C92.4862 186.2 96.0062 190.48 101.566 190.48C104.646 190.48 107.206 189.12 108.486 186.84V190.76C108.486 194.48 106.086 196.88 102.406 196.88C99.1262 196.88 96.9662 195.2 96.4862 192.32H92.7262C93.4462 197.28 97.0862 200.28 102.406 200.28C108.406 200.28 112.206 196.36 112.206 190.2V171.44H108.846L108.566 174.76C107.326 172.32 104.886 170.88 101.726 170.88C96.0462 170.88 92.4862 175.2 92.4862 180.72ZM96.2462 180.64C96.2462 177.04 98.4862 174.16 102.246 174.16C106.086 174.16 108.326 176.88 108.326 180.64C108.326 184.48 106.006 187.2 102.206 187.2C98.5262 187.2 96.2462 184.32 96.2462 180.64ZM122.193 191V179.4C122.193 176.28 124.073 174.32 126.913 174.32C129.553 174.32 131.233 176 131.233 179.08V191H134.953V179.4C134.953 176.28 136.833 174.28 139.673 174.28C142.313 174.28 144.033 176.04 144.033 179.12V191H147.713V178.2C147.713 173.68 144.993 170.88 140.513 170.88C137.473 170.88 135.113 172.4 134.193 174.84C133.193 172.4 131.033 170.88 127.993 170.88C125.233 170.88 123.153 172.16 122.153 174L121.793 171.44H118.433V191H122.193ZM159.445 191.48C162.605 191.48 165.285 190.08 166.285 187.84L166.685 191H169.885V178.72C169.885 173.44 166.605 170.88 161.765 170.88C156.725 170.88 153.365 173.56 153.365 177.64H156.645C156.645 175.28 158.445 173.88 161.605 173.88C164.245 173.88 166.205 175.04 166.205 178.32V178.88L160.045 179.36C155.445 179.72 152.765 181.96 152.765 185.56C152.765 189.12 155.245 191.48 159.445 191.48ZM160.525 188.56C158.085 188.56 156.565 187.52 156.565 185.44C156.565 183.52 157.925 182.24 161.245 181.92L166.245 181.52V182.56C166.245 186.24 164.085 188.56 160.525 188.56Z" fill="#3C2A56"/>
<g clip-path="url(#clip0_20_101)">
<path d="M203.297 0H133.703C116.746 0 103 13.7463 103 30.7031V100.297C103 117.254 116.746 131 133.703 131H203.297C220.254 131 234 117.254 234 100.297V30.7031C234 13.7463 220.254 0 203.297 0Z" fill="#242938"/>
<mask id="mask0_20_101" style="mask-type:luminance" maskUnits="userSpaceOnUse" x="134" y="14" width="69" height="103">
<path d="M134.215 14.3281H202.458V116.672H134.215V14.3281Z" fill="white"/>
</mask>
<g mask="url(#mask0_20_101)">
<path d="M151.279 116.672C160.695 116.672 168.336 109.03 168.336 99.6148V82.5571H151.279C141.864 82.5571 134.221 90.1991 134.221 99.6148C134.221 109.03 141.864 116.672 151.279 116.672Z" fill="#0ACF83"/>
<path d="M134.221 65.5C134.221 56.0844 141.864 48.4429 151.279 48.4429H168.336V82.5571H151.279C141.864 82.5571 134.221 74.9156 134.221 65.5Z" fill="#A259FF"/>
<path d="M134.221 31.3852C134.221 21.9696 141.864 14.3281 151.279 14.3281H168.336V48.4429H151.279C141.864 48.4429 134.221 40.8009 134.221 31.3852Z" fill="#F24E1E"/>
<path d="M168.336 14.3281H185.393C194.809 14.3281 202.451 21.9696 202.451 31.3852C202.451 40.8009 194.809 48.4429 185.393 48.4429H168.336V14.3281Z" fill="#FF7262"/>
<path d="M202.451 65.5C202.451 74.9156 194.809 82.5571 185.393 82.5571C175.978 82.5571 168.336 74.9156 168.336 65.5C168.336 56.0844 175.978 48.4429 185.393 48.4429C194.809 48.4429 202.451 56.0844 202.451 65.5Z" fill="#1ABCFE"/>
</g>
</g>
<defs>
<filter id="filter0_d_20_101" x="0.0748291" y="27.9167" width="341" height="360" filterUnits="userSpaceOnUse" color-interpolation-filters="sRGB">
<feFlood flood-opacity="0" result="BackgroundImageFix"/>
<feColorMatrix in="SourceAlpha" type="matrix" values="0 0 0 0 0 0 0 0 0 0 0 0 0 0 0 0 0 0 127 0" result="hardAlpha"/>
<feOffset dy="9"/>
<feGaussianBlur stdDeviation="13.5"/>
<feColorMatrix type="matrix" values="0 0 0 0 0 0 0 0 0 0 0 0 0 0 0 0 0 0 0.1 0"/>
<feBlend mode="normal" in2="BackgroundImageFix" result="effect1_dropShadow_20_101"/>
<feBlend mode="normal" in="SourceGraphic" in2="effect1_dropShadow_20_101" result="shape"/>
</filter>
<clipPath id="clip0_20_101">
<rect width="131" height="131" fill="white" transform="translate(103)"/>
</clipPath>
</defs>
</svg>
