<svg width="342" height="388" viewBox="0 0 342 388" fill="none" xmlns="http://www.w3.org/2000/svg">
<g filter="url(#filter0_d_36_130)">
<rect x="27.0748" y="45.9167" width="287" height="306" rx="20" fill="white"/>
</g>
<path d="M68.688 240.112C68.688 241.04 68.368 241.813 67.728 242.432C67.0987 243.04 66.1333 243.344 64.832 243.344H62.688V248H61.232V236.848H64.832C66.0907 236.848 67.0453 237.152 67.696 237.76C68.3573 238.368 68.688 239.152 68.688 240.112ZM64.832 242.144C65.6427 242.144 66.24 241.968 66.624 241.616C67.008 241.264 67.2 240.763 67.2 240.112C67.2 238.736 66.4107 238.048 64.832 238.048H62.688V242.144H64.832ZM69.6336 243.584C69.6336 242.688 69.815 241.904 70.1776 241.232C70.5403 240.549 71.0363 240.021 71.6656 239.648C72.3056 239.275 73.015 239.088 73.7936 239.088C74.5616 239.088 75.2283 239.253 75.7936 239.584C76.359 239.915 76.7803 240.331 77.0576 240.832V239.232H78.5296V248H77.0576V246.368C76.7696 246.88 76.3376 247.307 75.7616 247.648C75.1963 247.979 74.535 248.144 73.7776 248.144C72.999 248.144 72.295 247.952 71.6656 247.568C71.0363 247.184 70.5403 246.645 70.1776 245.952C69.815 245.259 69.6336 244.469 69.6336 243.584ZM77.0576 243.6C77.0576 242.939 76.9243 242.363 76.6576 241.872C76.391 241.381 76.0283 241.008 75.5696 240.752C75.1216 240.485 74.6256 240.352 74.0816 240.352C73.5376 240.352 73.0416 240.48 72.5936 240.736C72.1456 240.992 71.7883 241.365 71.5216 241.856C71.255 242.347 71.1216 242.923 71.1216 243.584C71.1216 244.256 71.255 244.843 71.5216 245.344C71.7883 245.835 72.1456 246.213 72.5936 246.48C73.0416 246.736 73.5376 246.864 74.0816 246.864C74.6256 246.864 75.1216 246.736 75.5696 246.48C76.0283 246.213 76.391 245.835 76.6576 245.344C76.9243 244.843 77.0576 244.261 77.0576 243.6ZM82.1261 240.656C82.3821 240.155 82.7448 239.765 83.2141 239.488C83.6941 239.211 84.2755 239.072 84.9581 239.072V240.576H84.5741C82.9421 240.576 82.1261 241.461 82.1261 243.232V248H80.6701V239.232H82.1261V240.656ZM85.7749 243.584C85.7749 242.688 85.9562 241.904 86.3189 241.232C86.6815 240.549 87.1775 240.021 87.8069 239.648C88.4469 239.275 89.1562 239.088 89.9349 239.088C90.7029 239.088 91.3695 239.253 91.9349 239.584C92.5002 239.915 92.9215 240.331 93.1989 240.832V239.232H94.6709V248H93.1989V246.368C92.9109 246.88 92.4789 247.307 91.9029 247.648C91.3375 247.979 90.6762 248.144 89.9189 248.144C89.1402 248.144 88.4362 247.952 87.8069 247.568C87.1775 247.184 86.6815 246.645 86.3189 245.952C85.9562 245.259 85.7749 244.469 85.7749 243.584ZM93.1989 243.6C93.1989 242.939 93.0655 242.363 92.7989 241.872C92.5322 241.381 92.1695 241.008 91.7109 240.752C91.2629 240.485 90.7669 240.352 90.2229 240.352C89.6789 240.352 89.1829 240.48 88.7349 240.736C88.2869 240.992 87.9295 241.365 87.6629 241.856C87.3962 242.347 87.2629 242.923 87.2629 243.584C87.2629 244.256 87.3962 244.843 87.6629 245.344C87.9295 245.835 88.2869 246.213 88.7349 246.48C89.1829 246.736 89.6789 246.864 90.2229 246.864C90.7669 246.864 91.2629 246.736 91.7109 246.48C92.1695 246.213 92.5322 245.835 92.7989 245.344C93.0655 244.843 93.1989 244.261 93.1989 243.6ZM100.213 243.6C100.213 242.693 100.394 241.904 100.757 241.232C101.12 240.549 101.621 240.021 102.261 239.648C102.912 239.275 103.653 239.088 104.485 239.088C105.562 239.088 106.448 239.349 107.141 239.872C107.845 240.395 108.309 241.12 108.533 242.048H106.965C106.816 241.515 106.522 241.093 106.085 240.784C105.658 240.475 105.125 240.32 104.485 240.32C103.653 240.32 102.981 240.608 102.469 241.184C101.957 241.749 101.701 242.555 101.701 243.6C101.701 244.656 101.957 245.472 102.469 246.048C102.981 246.624 103.653 246.912 104.485 246.912C105.125 246.912 105.658 246.763 106.085 246.464C106.512 246.165 106.805 245.739 106.965 245.184H108.533C108.298 246.08 107.829 246.8 107.125 247.344C106.421 247.877 105.541 248.144 104.485 248.144C103.653 248.144 102.912 247.957 102.261 247.584C101.621 247.211 101.12 246.683 100.757 246C100.394 245.317 100.213 244.517 100.213 243.6ZM113.98 248.144C113.158 248.144 112.412 247.957 111.74 247.584C111.078 247.211 110.556 246.683 110.172 246C109.798 245.307 109.612 244.507 109.612 243.6C109.612 242.704 109.804 241.915 110.188 241.232C110.582 240.539 111.116 240.011 111.788 239.648C112.46 239.275 113.212 239.088 114.044 239.088C114.876 239.088 115.628 239.275 116.3 239.648C116.972 240.011 117.5 240.533 117.884 241.216C118.278 241.899 118.476 242.693 118.476 243.6C118.476 244.507 118.273 245.307 117.868 246C117.473 246.683 116.934 247.211 116.252 247.584C115.569 247.957 114.812 248.144 113.98 248.144ZM113.98 246.864C114.502 246.864 114.993 246.741 115.452 246.496C115.91 246.251 116.278 245.883 116.556 245.392C116.844 244.901 116.988 244.304 116.988 243.6C116.988 242.896 116.849 242.299 116.572 241.808C116.294 241.317 115.932 240.955 115.484 240.72C115.036 240.475 114.55 240.352 114.028 240.352C113.494 240.352 113.004 240.475 112.556 240.72C112.118 240.955 111.766 241.317 111.5 241.808C111.233 242.299 111.1 242.896 111.1 243.6C111.1 244.315 111.228 244.917 111.484 245.408C111.75 245.899 112.102 246.267 112.54 246.512C112.977 246.747 113.457 246.864 113.98 246.864ZM130.614 239.072C131.297 239.072 131.905 239.216 132.438 239.504C132.971 239.781 133.393 240.203 133.702 240.768C134.011 241.333 134.166 242.021 134.166 242.832V248H132.726V243.04C132.726 242.165 132.507 241.499 132.07 241.04C131.643 240.571 131.062 240.336 130.326 240.336C129.569 240.336 128.966 240.581 128.518 241.072C128.07 241.552 127.846 242.251 127.846 243.168V248H126.406V243.04C126.406 242.165 126.187 241.499 125.75 241.04C125.323 240.571 124.742 240.336 124.006 240.336C123.249 240.336 122.646 240.581 122.198 241.072C121.75 241.552 121.526 242.251 121.526 243.168V248H120.07V239.232H121.526V240.496C121.814 240.037 122.198 239.685 122.678 239.44C123.169 239.195 123.707 239.072 124.294 239.072C125.03 239.072 125.681 239.237 126.246 239.568C126.811 239.899 127.233 240.384 127.51 241.024C127.755 240.405 128.161 239.925 128.726 239.584C129.291 239.243 129.921 239.072 130.614 239.072ZM137.691 240.848C137.979 240.347 138.405 239.931 138.971 239.6C139.547 239.259 140.213 239.088 140.971 239.088C141.749 239.088 142.453 239.275 143.083 239.648C143.723 240.021 144.224 240.549 144.587 241.232C144.949 241.904 145.131 242.688 145.131 243.584C145.131 244.469 144.949 245.259 144.587 245.952C144.224 246.645 143.723 247.184 143.083 247.568C142.453 247.952 141.749 248.144 140.971 248.144C140.224 248.144 139.563 247.979 138.987 247.648C138.421 247.307 137.989 246.885 137.691 246.384V252.16H136.235V239.232H137.691V240.848ZM143.643 243.584C143.643 242.923 143.509 242.347 143.243 241.856C142.976 241.365 142.613 240.992 142.155 240.736C141.707 240.48 141.211 240.352 140.667 240.352C140.133 240.352 139.637 240.485 139.179 240.752C138.731 241.008 138.368 241.387 138.091 241.888C137.824 242.379 137.691 242.949 137.691 243.6C137.691 244.261 137.824 244.843 138.091 245.344C138.368 245.835 138.731 246.213 139.179 246.48C139.637 246.736 140.133 246.864 140.667 246.864C141.211 246.864 141.707 246.736 142.155 246.48C142.613 246.213 142.976 245.835 143.243 245.344C143.509 244.843 143.643 244.256 143.643 243.584ZM146.183 243.584C146.183 242.688 146.364 241.904 146.727 241.232C147.09 240.549 147.586 240.021 148.215 239.648C148.855 239.275 149.564 239.088 150.343 239.088C151.111 239.088 151.778 239.253 152.343 239.584C152.908 239.915 153.33 240.331 153.607 240.832V239.232H155.079V248H153.607V246.368C153.319 246.88 152.887 247.307 152.311 247.648C151.746 247.979 151.084 248.144 150.327 248.144C149.548 248.144 148.844 247.952 148.215 247.568C147.586 247.184 147.09 246.645 146.727 245.952C146.364 245.259 146.183 244.469 146.183 243.584ZM153.607 243.6C153.607 242.939 153.474 242.363 153.207 241.872C152.94 241.381 152.578 241.008 152.119 240.752C151.671 240.485 151.175 240.352 150.631 240.352C150.087 240.352 149.591 240.48 149.143 240.736C148.695 240.992 148.338 241.365 148.071 241.856C147.804 242.347 147.671 242.923 147.671 243.584C147.671 244.256 147.804 244.843 148.071 245.344C148.338 245.835 148.695 246.213 149.143 246.48C149.591 246.736 150.087 246.864 150.631 246.864C151.175 246.864 151.671 246.736 152.119 246.48C152.578 246.213 152.94 245.835 153.207 245.344C153.474 244.843 153.607 244.261 153.607 243.6ZM158.676 240.656C158.932 240.155 159.294 239.765 159.764 239.488C160.244 239.211 160.825 239.072 161.508 239.072V240.576H161.124C159.492 240.576 158.676 241.461 158.676 243.232V248H157.22V239.232H158.676V240.656ZM164.644 240.432V245.6C164.644 246.027 164.735 246.331 164.916 246.512C165.098 246.683 165.412 246.768 165.86 246.768H166.932V248H165.62C164.81 248 164.202 247.813 163.796 247.44C163.391 247.067 163.188 246.453 163.188 245.6V240.432H162.052V239.232H163.188V237.024H164.644V239.232H166.932V240.432H164.644ZM169.128 237.808C168.851 237.808 168.616 237.712 168.424 237.52C168.232 237.328 168.136 237.093 168.136 236.816C168.136 236.539 168.232 236.304 168.424 236.112C168.616 235.92 168.851 235.824 169.128 235.824C169.395 235.824 169.619 235.92 169.8 236.112C169.992 236.304 170.088 236.539 170.088 236.816C170.088 237.093 169.992 237.328 169.8 237.52C169.619 237.712 169.395 237.808 169.128 237.808ZM169.832 239.232V248H168.376V239.232H169.832ZM173.45 236.16V248H171.994V236.16H173.45ZM179.963 239.072C180.625 239.072 181.222 239.216 181.755 239.504C182.289 239.781 182.705 240.203 183.003 240.768C183.313 241.333 183.467 242.021 183.467 242.832V248H182.027V243.04C182.027 242.165 181.809 241.499 181.371 241.04C180.934 240.571 180.337 240.336 179.579 240.336C178.811 240.336 178.198 240.576 177.739 241.056C177.291 241.536 177.067 242.235 177.067 243.152V248H175.611V236.16H177.067V240.48C177.355 240.032 177.75 239.685 178.251 239.44C178.763 239.195 179.334 239.072 179.963 239.072ZM184.982 243.584C184.982 242.688 185.163 241.904 185.526 241.232C185.888 240.549 186.384 240.021 187.014 239.648C187.654 239.275 188.363 239.088 189.142 239.088C189.91 239.088 190.576 239.253 191.142 239.584C191.707 239.915 192.128 240.331 192.406 240.832V239.232H193.878V248H192.406V246.368C192.118 246.88 191.686 247.307 191.11 247.648C190.544 247.979 189.883 248.144 189.126 248.144C188.347 248.144 187.643 247.952 187.014 247.568C186.384 247.184 185.888 246.645 185.526 245.952C185.163 245.259 184.982 244.469 184.982 243.584ZM192.406 243.6C192.406 242.939 192.272 242.363 192.006 241.872C191.739 241.381 191.376 241.008 190.918 240.752C190.47 240.485 189.974 240.352 189.43 240.352C188.886 240.352 188.39 240.48 187.942 240.736C187.494 240.992 187.136 241.365 186.87 241.856C186.603 242.347 186.47 242.923 186.47 243.584C186.47 244.256 186.603 244.843 186.87 245.344C187.136 245.835 187.494 246.213 187.942 246.48C188.39 246.736 188.886 246.864 189.43 246.864C189.974 246.864 190.47 246.736 190.918 246.48C191.376 246.213 191.739 245.835 192.006 245.344C192.272 244.843 192.406 244.261 192.406 243.6ZM206.562 239.072C207.245 239.072 207.853 239.216 208.386 239.504C208.92 239.781 209.341 240.203 209.65 240.768C209.96 241.333 210.114 242.021 210.114 242.832V248H208.674V243.04C208.674 242.165 208.456 241.499 208.018 241.04C207.592 240.571 207.01 240.336 206.274 240.336C205.517 240.336 204.914 240.581 204.466 241.072C204.018 241.552 203.794 242.251 203.794 243.168V248H202.354V243.04C202.354 242.165 202.136 241.499 201.698 241.04C201.272 240.571 200.69 240.336 199.954 240.336C199.197 240.336 198.594 240.581 198.146 241.072C197.698 241.552 197.474 242.251 197.474 243.168V248H196.018V239.232H197.474V240.496C197.762 240.037 198.146 239.685 198.626 239.44C199.117 239.195 199.656 239.072 200.242 239.072C200.978 239.072 201.629 239.237 202.194 239.568C202.76 239.899 203.181 240.384 203.458 241.024C203.704 240.405 204.109 239.925 204.674 239.584C205.24 239.243 205.869 239.072 206.562 239.072ZM220.183 243.28C220.183 243.557 220.167 243.851 220.135 244.16H213.127C213.18 245.024 213.473 245.701 214.007 246.192C214.551 246.672 215.207 246.912 215.975 246.912C216.604 246.912 217.127 246.768 217.543 246.48C217.969 246.181 218.268 245.787 218.439 245.296H220.007C219.772 246.139 219.303 246.827 218.599 247.36C217.895 247.883 217.02 248.144 215.975 248.144C215.143 248.144 214.396 247.957 213.735 247.584C213.084 247.211 212.572 246.683 212.199 246C211.825 245.307 211.639 244.507 211.639 243.6C211.639 242.693 211.82 241.899 212.183 241.216C212.545 240.533 213.052 240.011 213.703 239.648C214.364 239.275 215.121 239.088 215.975 239.088C216.807 239.088 217.543 239.269 218.183 239.632C218.823 239.995 219.313 240.496 219.655 241.136C220.007 241.765 220.183 242.48 220.183 243.28ZM218.679 242.976C218.679 242.421 218.556 241.947 218.311 241.552C218.065 241.147 217.729 240.843 217.303 240.64C216.887 240.427 216.423 240.32 215.911 240.32C215.175 240.32 214.545 240.555 214.023 241.024C213.511 241.493 213.217 242.144 213.143 242.976H218.679ZM226.057 239.072C227.123 239.072 227.987 239.397 228.649 240.048C229.31 240.688 229.641 241.616 229.641 242.832V248H228.201V243.04C228.201 242.165 227.982 241.499 227.545 241.04C227.107 240.571 226.51 240.336 225.753 240.336C224.985 240.336 224.371 240.576 223.913 241.056C223.465 241.536 223.241 242.235 223.241 243.152V248H221.785V239.232H223.241V240.48C223.529 240.032 223.918 239.685 224.409 239.44C224.91 239.195 225.459 239.072 226.057 239.072ZM233.475 240.432V245.6C233.475 246.027 233.566 246.331 233.747 246.512C233.928 246.683 234.243 246.768 234.691 246.768H235.763V248H234.451C233.64 248 233.032 247.813 232.627 247.44C232.222 247.067 232.019 246.453 232.019 245.6V240.432H230.883V239.232H232.019V237.024H233.475V239.232H235.763V240.432H233.475ZM241.031 248.144C240.21 248.144 239.463 247.957 238.791 247.584C238.13 247.211 237.607 246.683 237.223 246C236.85 245.307 236.663 244.507 236.663 243.6C236.663 242.704 236.855 241.915 237.239 241.232C237.634 240.539 238.167 240.011 238.839 239.648C239.511 239.275 240.263 239.088 241.095 239.088C241.927 239.088 242.679 239.275 243.351 239.648C244.023 240.011 244.551 240.533 244.935 241.216C245.33 241.899 245.527 242.693 245.527 243.6C245.527 244.507 245.324 245.307 244.919 246C244.524 246.683 243.986 247.211 243.303 247.584C242.62 247.957 241.863 248.144 241.031 248.144ZM241.031 246.864C241.554 246.864 242.044 246.741 242.503 246.496C242.962 246.251 243.33 245.883 243.607 245.392C243.895 244.901 244.039 244.304 244.039 243.6C244.039 242.896 243.9 242.299 243.623 241.808C243.346 241.317 242.983 240.955 242.535 240.72C242.087 240.475 241.602 240.352 241.079 240.352C240.546 240.352 240.055 240.475 239.607 240.72C239.17 240.955 238.818 241.317 238.551 241.808C238.284 242.299 238.151 242.896 238.151 243.6C238.151 244.315 238.279 244.917 238.535 245.408C238.802 245.899 239.154 246.267 239.591 246.512C240.028 246.747 240.508 246.864 241.031 246.864ZM259.067 243.28C259.067 243.557 259.051 243.851 259.019 244.16H252.011C252.064 245.024 252.358 245.701 252.891 246.192C253.435 246.672 254.091 246.912 254.859 246.912C255.488 246.912 256.011 246.768 256.427 246.48C256.854 246.181 257.152 245.787 257.323 245.296H258.891C258.656 246.139 258.187 246.827 257.483 247.36C256.779 247.883 255.904 248.144 254.859 248.144C254.027 248.144 253.28 247.957 252.619 247.584C251.968 247.211 251.456 246.683 251.083 246C250.71 245.307 250.523 244.507 250.523 243.6C250.523 242.693 250.704 241.899 251.067 241.216C251.43 240.533 251.936 240.011 252.587 239.648C253.248 239.275 254.006 239.088 254.859 239.088C255.691 239.088 256.427 239.269 257.067 239.632C257.707 239.995 258.198 240.496 258.539 241.136C258.891 241.765 259.067 242.48 259.067 243.28ZM257.563 242.976C257.563 242.421 257.44 241.947 257.195 241.552C256.95 241.147 256.614 240.843 256.187 240.64C255.771 240.427 255.307 240.32 254.795 240.32C254.059 240.32 253.43 240.555 252.907 241.024C252.395 241.493 252.102 242.144 252.027 242.976H257.563ZM60.688 267.6C60.688 266.693 60.8693 265.904 61.232 265.232C61.5947 264.549 62.096 264.021 62.736 263.648C63.3867 263.275 64.128 263.088 64.96 263.088C66.0373 263.088 66.9227 263.349 67.616 263.872C68.32 264.395 68.784 265.12 69.008 266.048H67.44C67.2907 265.515 66.9973 265.093 66.56 264.784C66.1333 264.475 65.6 264.32 64.96 264.32C64.128 264.32 63.456 264.608 62.944 265.184C62.432 265.749 62.176 266.555 62.176 267.6C62.176 268.656 62.432 269.472 62.944 270.048C63.456 270.624 64.128 270.912 64.96 270.912C65.6 270.912 66.1333 270.763 66.56 270.464C66.9867 270.165 67.28 269.739 67.44 269.184H69.008C68.7733 270.08 68.304 270.8 67.6 271.344C66.896 271.877 66.016 272.144 64.96 272.144C64.128 272.144 63.3867 271.957 62.736 271.584C62.096 271.211 61.5947 270.683 61.232 270C60.8693 269.317 60.688 268.517 60.688 267.6ZM74.4548 272.144C73.6334 272.144 72.8868 271.957 72.2148 271.584C71.5534 271.211 71.0308 270.683 70.6468 270C70.2734 269.307 70.0868 268.507 70.0868 267.6C70.0868 266.704 70.2788 265.915 70.6628 265.232C71.0574 264.539 71.5908 264.011 72.2628 263.648C72.9348 263.275 73.6868 263.088 74.5188 263.088C75.3508 263.088 76.1028 263.275 76.7748 263.648C77.4468 264.011 77.9748 264.533 78.3588 265.216C78.7534 265.899 78.9508 266.693 78.9508 267.6C78.9508 268.507 78.7481 269.307 78.3428 270C77.9481 270.683 77.4094 271.211 76.7268 271.584C76.0441 271.957 75.2868 272.144 74.4548 272.144ZM74.4548 270.864C74.9774 270.864 75.4681 270.741 75.9268 270.496C76.3854 270.251 76.7534 269.883 77.0308 269.392C77.3188 268.901 77.4628 268.304 77.4628 267.6C77.4628 266.896 77.3241 266.299 77.0468 265.808C76.7694 265.317 76.4068 264.955 75.9588 264.72C75.5108 264.475 75.0254 264.352 74.5028 264.352C73.9694 264.352 73.4788 264.475 73.0308 264.72C72.5934 264.955 72.2414 265.317 71.9748 265.808C71.7081 266.299 71.5748 266.896 71.5748 267.6C71.5748 268.315 71.7028 268.917 71.9588 269.408C72.2254 269.899 72.5774 270.267 73.0148 270.512C73.4521 270.747 73.9321 270.864 74.4548 270.864ZM91.0891 263.072C91.7718 263.072 92.3798 263.216 92.9131 263.504C93.4465 263.781 93.8678 264.203 94.1771 264.768C94.4865 265.333 94.6411 266.021 94.6411 266.832V272H93.2011V267.04C93.2011 266.165 92.9825 265.499 92.5451 265.04C92.1185 264.571 91.5371 264.336 90.8011 264.336C90.0438 264.336 89.4411 264.581 88.9931 265.072C88.5451 265.552 88.3211 266.251 88.3211 267.168V272H86.8811V267.04C86.8811 266.165 86.6625 265.499 86.2251 265.04C85.7985 264.571 85.2171 264.336 84.4811 264.336C83.7238 264.336 83.1211 264.581 82.6731 265.072C82.2251 265.552 82.0011 266.251 82.0011 267.168V272H80.5451V263.232H82.0011V264.496C82.2891 264.037 82.6731 263.685 83.1531 263.44C83.6438 263.195 84.1825 263.072 84.7691 263.072C85.5051 263.072 86.1558 263.237 86.7211 263.568C87.2865 263.899 87.7078 264.384 87.9851 265.024C88.2305 264.405 88.6358 263.925 89.2011 263.584C89.7665 263.243 90.3958 263.072 91.0891 263.072ZM107.254 263.072C107.936 263.072 108.544 263.216 109.078 263.504C109.611 263.781 110.032 264.203 110.342 264.768C110.651 265.333 110.806 266.021 110.806 266.832V272H109.366V267.04C109.366 266.165 109.147 265.499 108.71 265.04C108.283 264.571 107.702 264.336 106.966 264.336C106.208 264.336 105.606 264.581 105.158 265.072C104.71 265.552 104.486 266.251 104.486 267.168V272H103.046V267.04C103.046 266.165 102.827 265.499 102.39 265.04C101.963 264.571 101.382 264.336 100.646 264.336C99.8882 264.336 99.2855 264.581 98.8375 265.072C98.3895 265.552 98.1655 266.251 98.1655 267.168V272H96.7095V263.232H98.1655V264.496C98.4535 264.037 98.8375 263.685 99.3175 263.44C99.8082 263.195 100.347 263.072 100.934 263.072C101.67 263.072 102.32 263.237 102.886 263.568C103.451 263.899 103.872 264.384 104.15 265.024C104.395 264.405 104.8 263.925 105.366 263.584C105.931 263.243 106.56 263.072 107.254 263.072ZM113.626 261.808C113.349 261.808 113.114 261.712 112.922 261.52C112.73 261.328 112.634 261.093 112.634 260.816C112.634 260.539 112.73 260.304 112.922 260.112C113.114 259.92 113.349 259.824 113.626 259.824C113.893 259.824 114.117 259.92 114.298 260.112C114.49 260.304 114.586 260.539 114.586 260.816C114.586 261.093 114.49 261.328 114.298 261.52C114.117 261.712 113.893 261.808 113.626 261.808ZM114.33 263.232V272H112.874V263.232H114.33ZM118.267 264.432V269.6C118.267 270.027 118.358 270.331 118.539 270.512C118.721 270.683 119.035 270.768 119.483 270.768H120.555V272H119.243C118.433 272 117.825 271.813 117.419 271.44C117.014 271.067 116.811 270.453 116.811 269.6V264.432H115.675V263.232H116.811V261.024H118.267V263.232H120.555V264.432H118.267ZM125.401 267.584C125.401 266.688 125.582 265.904 125.945 265.232C126.308 264.549 126.804 264.021 127.433 263.648C128.073 263.275 128.788 263.088 129.577 263.088C130.26 263.088 130.894 263.248 131.481 263.568C132.068 263.877 132.516 264.288 132.825 264.8V260.16H134.297V272H132.825V270.352C132.537 270.875 132.11 271.307 131.545 271.648C130.98 271.979 130.318 272.144 129.561 272.144C128.782 272.144 128.073 271.952 127.433 271.568C126.804 271.184 126.308 270.645 125.945 269.952C125.582 269.259 125.401 268.469 125.401 267.584ZM132.825 267.6C132.825 266.939 132.692 266.363 132.425 265.872C132.158 265.381 131.796 265.008 131.337 264.752C130.889 264.485 130.393 264.352 129.849 264.352C129.305 264.352 128.809 264.48 128.361 264.736C127.913 264.992 127.556 265.365 127.289 265.856C127.022 266.347 126.889 266.923 126.889 267.584C126.889 268.256 127.022 268.843 127.289 269.344C127.556 269.835 127.913 270.213 128.361 270.48C128.809 270.736 129.305 270.864 129.849 270.864C130.393 270.864 130.889 270.736 131.337 270.48C131.796 270.213 132.158 269.835 132.425 269.344C132.692 268.843 132.825 268.261 132.825 267.6ZM140.262 272.144C139.44 272.144 138.694 271.957 138.022 271.584C137.36 271.211 136.838 270.683 136.454 270C136.08 269.307 135.894 268.507 135.894 267.6C135.894 266.704 136.086 265.915 136.47 265.232C136.864 264.539 137.398 264.011 138.07 263.648C138.742 263.275 139.494 263.088 140.326 263.088C141.158 263.088 141.91 263.275 142.582 263.648C143.254 264.011 143.782 264.533 144.166 265.216C144.56 265.899 144.758 266.693 144.758 267.6C144.758 268.507 144.555 269.307 144.15 270C143.755 270.683 143.216 271.211 142.534 271.584C141.851 271.957 141.094 272.144 140.262 272.144ZM140.262 270.864C140.784 270.864 141.275 270.741 141.734 270.496C142.192 270.251 142.56 269.883 142.838 269.392C143.126 268.901 143.27 268.304 143.27 267.6C143.27 266.896 143.131 266.299 142.854 265.808C142.576 265.317 142.214 264.955 141.766 264.72C141.318 264.475 140.832 264.352 140.31 264.352C139.776 264.352 139.286 264.475 138.838 264.72C138.4 264.955 138.048 265.317 137.782 265.808C137.515 266.299 137.382 266.896 137.382 267.6C137.382 268.315 137.51 268.917 137.766 269.408C138.032 269.899 138.384 270.267 138.822 270.512C139.259 270.747 139.739 270.864 140.262 270.864ZM149.456 272.144C148.784 272.144 148.181 272.032 147.648 271.808C147.115 271.573 146.693 271.253 146.384 270.848C146.075 270.432 145.904 269.957 145.872 269.424H147.376C147.419 269.861 147.621 270.219 147.984 270.496C148.357 270.773 148.843 270.912 149.44 270.912C149.995 270.912 150.432 270.789 150.752 270.544C151.072 270.299 151.232 269.989 151.232 269.616C151.232 269.232 151.061 268.949 150.72 268.768C150.379 268.576 149.851 268.389 149.136 268.208C148.485 268.037 147.952 267.867 147.536 267.696C147.131 267.515 146.779 267.253 146.48 266.912C146.192 266.56 146.048 266.101 146.048 265.536C146.048 265.088 146.181 264.677 146.448 264.304C146.715 263.931 147.093 263.637 147.584 263.424C148.075 263.2 148.635 263.088 149.264 263.088C150.235 263.088 151.019 263.333 151.616 263.824C152.213 264.315 152.533 264.987 152.576 265.84H151.12C151.088 265.381 150.901 265.013 150.56 264.736C150.229 264.459 149.781 264.32 149.216 264.32C148.693 264.32 148.277 264.432 147.968 264.656C147.659 264.88 147.504 265.173 147.504 265.536C147.504 265.824 147.595 266.064 147.776 266.256C147.968 266.437 148.203 266.587 148.48 266.704C148.768 266.811 149.163 266.933 149.664 267.072C150.293 267.243 150.805 267.413 151.2 267.584C151.595 267.744 151.931 267.989 152.208 268.32C152.496 268.651 152.645 269.083 152.656 269.616C152.656 270.096 152.523 270.528 152.256 270.912C151.989 271.296 151.611 271.6 151.12 271.824C150.64 272.037 150.085 272.144 149.456 272.144ZM159.793 264.848C160.081 264.347 160.508 263.931 161.073 263.6C161.649 263.259 162.316 263.088 163.073 263.088C163.852 263.088 164.556 263.275 165.185 263.648C165.825 264.021 166.326 264.549 166.689 265.232C167.052 265.904 167.233 266.688 167.233 267.584C167.233 268.469 167.052 269.259 166.689 269.952C166.326 270.645 165.825 271.184 165.185 271.568C164.556 271.952 163.852 272.144 163.073 272.144C162.326 272.144 161.665 271.979 161.089 271.648C160.524 271.307 160.092 270.885 159.793 270.384V276.16H158.337V263.232H159.793V264.848ZM165.745 267.584C165.745 266.923 165.612 266.347 165.345 265.856C165.078 265.365 164.716 264.992 164.257 264.736C163.809 264.48 163.313 264.352 162.769 264.352C162.236 264.352 161.74 264.485 161.281 264.752C160.833 265.008 160.47 265.387 160.193 265.888C159.926 266.379 159.793 266.949 159.793 267.6C159.793 268.261 159.926 268.843 160.193 269.344C160.47 269.835 160.833 270.213 161.281 270.48C161.74 270.736 162.236 270.864 162.769 270.864C163.313 270.864 163.809 270.736 164.257 270.48C164.716 270.213 165.078 269.835 165.345 269.344C165.612 268.843 165.745 268.256 165.745 267.584ZM170.286 264.656C170.542 264.155 170.904 263.765 171.374 263.488C171.854 263.211 172.435 263.072 173.118 263.072V264.576H172.734C171.102 264.576 170.286 265.461 170.286 267.232V272H168.83V263.232H170.286V264.656ZM178.302 272.144C177.481 272.144 176.734 271.957 176.062 271.584C175.401 271.211 174.878 270.683 174.494 270C174.121 269.307 173.934 268.507 173.934 267.6C173.934 266.704 174.126 265.915 174.51 265.232C174.905 264.539 175.438 264.011 176.11 263.648C176.782 263.275 177.534 263.088 178.366 263.088C179.198 263.088 179.95 263.275 180.622 263.648C181.294 264.011 181.822 264.533 182.206 265.216C182.601 265.899 182.798 266.693 182.798 267.6C182.798 268.507 182.596 269.307 182.19 270C181.796 270.683 181.257 271.211 180.574 271.584C179.892 271.957 179.134 272.144 178.302 272.144ZM178.302 270.864C178.825 270.864 179.316 270.741 179.774 270.496C180.233 270.251 180.601 269.883 180.878 269.392C181.166 268.901 181.31 268.304 181.31 267.6C181.31 266.896 181.172 266.299 180.894 265.808C180.617 265.317 180.254 264.955 179.806 264.72C179.358 264.475 178.873 264.352 178.35 264.352C177.817 264.352 177.326 264.475 176.878 264.72C176.441 264.955 176.089 265.317 175.822 265.808C175.556 266.299 175.422 266.896 175.422 267.6C175.422 268.315 175.55 268.917 175.806 269.408C176.073 269.899 176.425 270.267 176.862 270.512C177.3 270.747 177.78 270.864 178.302 270.864ZM185.177 261.808C184.899 261.808 184.665 261.712 184.473 261.52C184.291 261.328 184.201 261.093 184.201 260.816C184.201 260.539 184.291 260.304 184.473 260.112C184.665 259.92 184.899 259.824 185.177 259.824C185.454 259.824 185.683 259.92 185.865 260.112C186.057 260.304 186.153 260.539 186.153 260.816C186.153 261.093 186.057 261.328 185.865 261.52C185.683 261.712 185.454 261.808 185.177 261.808ZM185.897 273.904C185.897 274.683 185.699 275.253 185.305 275.616C184.91 275.979 184.334 276.16 183.577 276.16H182.729V274.928H183.337C183.742 274.928 184.025 274.848 184.185 274.688C184.355 274.528 184.441 274.256 184.441 273.872V263.232H185.897V273.904ZM196.041 267.28C196.041 267.557 196.025 267.851 195.993 268.16H188.985C189.039 269.024 189.332 269.701 189.865 270.192C190.409 270.672 191.065 270.912 191.833 270.912C192.463 270.912 192.985 270.768 193.401 270.48C193.828 270.181 194.127 269.787 194.297 269.296H195.865C195.631 270.139 195.161 270.827 194.457 271.36C193.753 271.883 192.879 272.144 191.833 272.144C191.001 272.144 190.255 271.957 189.593 271.584C188.943 271.211 188.431 270.683 188.057 270C187.684 269.307 187.497 268.507 187.497 267.6C187.497 266.693 187.679 265.899 188.041 265.216C188.404 264.533 188.911 264.011 189.561 263.648C190.223 263.275 190.98 263.088 191.833 263.088C192.665 263.088 193.401 263.269 194.041 263.632C194.681 263.995 195.172 264.496 195.513 265.136C195.865 265.765 196.041 266.48 196.041 267.28ZM194.537 266.976C194.537 266.421 194.415 265.947 194.169 265.552C193.924 265.147 193.588 264.843 193.161 264.64C192.745 264.427 192.281 264.32 191.769 264.32C191.033 264.32 190.404 264.555 189.881 265.024C189.369 265.493 189.076 266.144 189.001 266.976H194.537ZM199.419 264.432V269.6C199.419 270.027 199.51 270.331 199.691 270.512C199.873 270.683 200.187 270.768 200.635 270.768H201.707V272H200.395C199.585 272 198.977 271.813 198.571 271.44C198.166 271.067 197.963 270.453 197.963 269.6V264.432H196.827V263.232H197.963V261.024H199.419V263.232H201.707V264.432H199.419ZM206.975 272.144C206.154 272.144 205.407 271.957 204.735 271.584C204.074 271.211 203.551 270.683 203.167 270C202.794 269.307 202.607 268.507 202.607 267.6C202.607 266.704 202.799 265.915 203.183 265.232C203.578 264.539 204.111 264.011 204.783 263.648C205.455 263.275 206.207 263.088 207.039 263.088C207.871 263.088 208.623 263.275 209.295 263.648C209.967 264.011 210.495 264.533 210.879 265.216C211.274 265.899 211.471 266.693 211.471 267.6C211.471 268.507 211.269 269.307 210.863 270C210.469 270.683 209.93 271.211 209.247 271.584C208.565 271.957 207.807 272.144 206.975 272.144ZM206.975 270.864C207.498 270.864 207.989 270.741 208.447 270.496C208.906 270.251 209.274 269.883 209.551 269.392C209.839 268.901 209.983 268.304 209.983 267.6C209.983 266.896 209.845 266.299 209.567 265.808C209.29 265.317 208.927 264.955 208.479 264.72C208.031 264.475 207.546 264.352 207.023 264.352C206.49 264.352 205.999 264.475 205.551 264.72C205.114 264.955 204.762 265.317 204.495 265.808C204.229 266.299 204.095 266.896 204.095 267.6C204.095 268.315 204.223 268.917 204.479 269.408C204.746 269.899 205.098 270.267 205.535 270.512C205.973 270.747 206.453 270.864 206.975 270.864ZM216.17 272.144C215.498 272.144 214.895 272.032 214.362 271.808C213.828 271.573 213.407 271.253 213.098 270.848C212.788 270.432 212.618 269.957 212.586 269.424H214.09C214.132 269.861 214.335 270.219 214.698 270.496C215.071 270.773 215.556 270.912 216.154 270.912C216.708 270.912 217.146 270.789 217.466 270.544C217.786 270.299 217.946 269.989 217.946 269.616C217.946 269.232 217.775 268.949 217.434 268.768C217.092 268.576 216.564 268.389 215.85 268.208C215.199 268.037 214.666 267.867 214.25 267.696C213.844 267.515 213.492 267.253 213.194 266.912C212.906 266.56 212.762 266.101 212.762 265.536C212.762 265.088 212.895 264.677 213.162 264.304C213.428 263.931 213.807 263.637 214.298 263.424C214.788 263.2 215.348 263.088 215.978 263.088C216.948 263.088 217.732 263.333 218.33 263.824C218.927 264.315 219.247 264.987 219.29 265.84H217.834C217.802 265.381 217.615 265.013 217.274 264.736C216.943 264.459 216.495 264.32 215.93 264.32C215.407 264.32 214.991 264.432 214.682 264.656C214.372 264.88 214.218 265.173 214.218 265.536C214.218 265.824 214.308 266.064 214.49 266.256C214.682 266.437 214.916 266.587 215.194 266.704C215.482 266.811 215.876 266.933 216.378 267.072C217.007 267.243 217.519 267.413 217.914 267.584C218.308 267.744 218.644 267.989 218.922 268.32C219.21 268.651 219.359 269.083 219.37 269.616C219.37 270.096 219.236 270.528 218.97 270.912C218.703 271.296 218.324 271.6 217.834 271.824C217.354 272.037 216.799 272.144 216.17 272.144ZM221.569 272.096C221.292 272.096 221.057 272 220.865 271.808C220.673 271.616 220.577 271.381 220.577 271.104C220.577 270.827 220.673 270.592 220.865 270.4C221.057 270.208 221.292 270.112 221.569 270.112C221.836 270.112 222.06 270.208 222.241 270.4C222.433 270.592 222.529 270.827 222.529 271.104C222.529 271.381 222.433 271.616 222.241 271.808C222.06 272 221.836 272.096 221.569 272.096Z" fill="#363636"/>
<path d="M73.76 165.28C77.6 165.28 80.8 167.12 81.88 170.8H86.04C85.08 165.24 80.16 161.6 73.84 161.6C65.32 161.6 59.64 167.84 59.64 176.64C59.64 185.56 65.28 191.48 73.48 191.48C77.72 191.48 81.24 189.64 82.8 187.12L83.08 191.04H86.36V175.08H73V178.56H82.68V179.4C82.68 185.24 78.72 187.76 73.8 187.76C67.84 187.76 63.76 183.72 63.76 176.72C63.76 169.88 67.52 165.28 73.76 165.28ZM93.9459 166.8C95.3059 166.8 96.4259 165.68 96.4259 164.32C96.4259 162.92 95.3059 161.84 93.9459 161.84C92.5859 161.84 91.4659 162.92 91.4659 164.32C91.4659 165.68 92.5859 166.8 93.9459 166.8ZM92.1059 191H95.8659V171.44H92.1059V191ZM107.645 191V174.6H111.485V171.44H107.645V165.32H103.885V171.44H100.045V174.6H103.885V191H107.645ZM120.219 191V178.16H134.539V191H138.459V162.08H134.539V174.52H120.219V162.08H116.299V191H120.219ZM158.846 171.44V181.76C158.846 185.96 156.966 188.16 153.526 188.16C150.646 188.16 148.846 186.56 148.846 182.36V171.44H145.086V183.6C145.086 188.4 147.646 191.48 152.206 191.48C155.086 191.48 157.686 190.08 158.806 188.04L159.206 191H162.566V171.44H158.846ZM172.222 191L172.502 187.44C173.782 190.12 176.382 191.48 179.462 191.48C185.142 191.48 188.662 187.24 188.662 181.32C188.662 175.28 185.302 170.88 179.702 170.88C176.502 170.88 173.862 172.24 172.582 174.8V161.56H168.822V191H172.222ZM172.622 181.16C172.622 177.16 174.942 174.28 178.782 174.28C182.622 174.28 184.902 177.16 184.902 181.16C184.902 185.2 182.622 188.08 178.782 188.08C174.942 188.08 172.622 185.24 172.622 181.16Z" fill="#3C2A56"/>
<g clip-path="url(#clip0_36_130)">
<path d="M205.297 0H135.703C118.746 0 105 13.7463 105 30.7031V100.297C105 117.254 118.746 131 135.703 131H205.297C222.254 131 236 117.254 236 100.297V30.7031C236 13.7463 222.254 0 205.297 0Z" fill="#242938"/>
<path d="M170.501 15.3516C142.242 15.3516 119.328 38.2612 119.328 66.524C119.328 89.1332 133.99 108.314 154.323 115.081C156.88 115.555 157.819 113.971 157.819 112.62C157.819 111.399 157.772 107.368 157.75 103.092C143.513 106.188 140.51 97.0546 140.51 97.0546C138.181 91.1397 134.828 89.5672 134.828 89.5672C130.185 86.3909 135.178 86.4564 135.178 86.4564C140.316 86.8172 143.022 91.7297 143.022 91.7297C147.586 99.5528 154.993 97.291 157.913 95.9836C158.373 92.6758 159.699 90.4187 161.162 89.1409C149.796 87.8468 137.848 83.4588 137.848 63.8512C137.848 58.2643 139.847 53.6993 143.12 50.1157C142.589 48.8267 140.837 43.622 143.616 36.5736C143.616 36.5736 147.913 35.1981 157.692 41.8187C161.774 40.6852 166.151 40.1167 170.501 40.0973C174.849 40.1167 179.23 40.6852 183.32 41.8192C193.087 35.1981 197.378 36.5741 197.378 36.5741C200.163 43.622 198.411 48.8272 197.88 50.1157C201.161 53.6993 203.146 58.2643 203.146 63.8512C203.146 83.5058 191.175 87.8335 179.78 89.1C181.616 90.6883 183.251 93.8021 183.251 98.5765C183.251 105.423 183.192 110.934 183.192 112.62C183.192 113.981 184.113 115.577 186.707 115.074C207.028 108.3 221.672 89.1255 221.672 66.524C221.672 38.2617 198.761 15.3516 170.501 15.3516ZM138.494 88.2474C138.381 88.5018 137.981 88.578 137.617 88.4035C137.245 88.2367 137.037 87.8897 137.157 87.6349C137.267 87.3729 137.669 87.3002 138.039 87.4758C138.411 87.6426 138.622 87.9926 138.494 88.2474ZM141.011 90.4934C140.767 90.7201 140.29 90.6146 139.966 90.257C139.632 89.9003 139.569 89.4234 139.816 89.1936C140.068 88.9674 140.531 89.0734 140.866 89.43C141.201 89.7913 141.266 90.2646 141.011 90.4934ZM142.738 93.3672C142.424 93.5852 141.911 93.381 141.595 92.9256C141.281 92.4706 141.281 91.9252 141.601 91.7061C141.919 91.4876 142.424 91.6841 142.745 92.136C143.058 92.5986 143.058 93.1446 142.738 93.3672ZM145.658 96.6954C145.378 97.0045 144.781 96.9216 144.343 96.4994C143.896 96.087 143.771 95.5016 144.052 95.192C144.336 94.8819 144.937 94.9694 145.378 95.388C145.822 95.7994 145.957 96.3894 145.658 96.6954ZM149.433 97.8186C149.309 98.2198 148.734 98.402 148.154 98.2316C147.576 98.0561 147.196 97.5868 147.314 97.1815C147.434 96.7783 148.011 96.5884 148.595 96.7706C149.174 96.9451 149.553 97.4113 149.433 97.8186ZM153.728 98.2955C153.742 98.7172 153.251 99.0672 152.643 99.0749C152.031 99.0887 151.536 98.7469 151.529 98.3319C151.529 97.9056 152.01 97.5592 152.621 97.5489C153.23 97.5372 153.728 97.8759 153.728 98.2955ZM157.948 98.1338C158.021 98.5453 157.598 98.9684 156.994 99.081C156.4 99.1895 155.849 98.9352 155.774 98.5268C155.701 98.1047 156.131 97.682 156.724 97.5725C157.329 97.4676 157.871 97.7153 157.948 98.1338Z" fill="white"/>
</g>
<defs>
<filter id="filter0_d_36_130" x="0.0748291" y="27.9167" width="341" height="360" filterUnits="userSpaceOnUse" color-interpolation-filters="sRGB">
<feFlood flood-opacity="0" result="BackgroundImageFix"/>
<feColorMatrix in="SourceAlpha" type="matrix" values="0 0 0 0 0 0 0 0 0 0 0 0 0 0 0 0 0 0 127 0" result="hardAlpha"/>
<feOffset dy="9"/>
<feGaussianBlur stdDeviation="13.5"/>
<feColorMatrix type="matrix" values="0 0 0 0 0 0 0 0 0 0 0 0 0 0 0 0 0 0 0.1 0"/>
<feBlend mode="normal" in2="BackgroundImageFix" result="effect1_dropShadow_36_130"/>
<feBlend mode="normal" in="SourceGraphic" in2="effect1_dropShadow_36_130" result="shape"/>
</filter>
<clipPath id="clip0_36_130">
<rect width="131" height="131" fill="white" transform="translate(105)"/>
</clipPath>
</defs>
</svg>
