<svg width="342" height="404" viewBox="0 0 342 404" fill="none" xmlns="http://www.w3.org/2000/svg">
<g filter="url(#filter0_d_20_85)">
<rect x="27.4886" y="61.3211" width="287" height="306" rx="20" fill="white"/>
</g>
<path d="M56.688 246.032V249.76H60.752V250.96H56.688V254.8H61.232V256H55.232V244.832H61.232V246.032H56.688ZM66.2191 256.144C65.5471 256.144 64.9445 256.032 64.4111 255.808C63.8778 255.573 63.4565 255.253 63.1471 254.848C62.8378 254.432 62.6671 253.957 62.6351 253.424H64.1391C64.1818 253.861 64.3845 254.219 64.7471 254.496C65.1205 254.773 65.6058 254.912 66.2031 254.912C66.7578 254.912 67.1951 254.789 67.5151 254.544C67.8351 254.299 67.9951 253.989 67.9951 253.616C67.9951 253.232 67.8245 252.949 67.4831 252.768C67.1418 252.576 66.6138 252.389 65.8991 252.208C65.2485 252.037 64.7151 251.867 64.2991 251.696C63.8938 251.515 63.5418 251.253 63.2431 250.912C62.9551 250.56 62.8111 250.101 62.8111 249.536C62.8111 249.088 62.9445 248.677 63.2111 248.304C63.4778 247.931 63.8565 247.637 64.3471 247.424C64.8378 247.2 65.3978 247.088 66.0271 247.088C66.9978 247.088 67.7818 247.333 68.3791 247.824C68.9765 248.315 69.2965 248.987 69.3391 249.84H67.8831C67.8511 249.381 67.6645 249.013 67.3231 248.736C66.9925 248.459 66.5445 248.32 65.9791 248.32C65.4565 248.32 65.0405 248.432 64.7311 248.656C64.4218 248.88 64.2671 249.173 64.2671 249.536C64.2671 249.824 64.3578 250.064 64.5391 250.256C64.7311 250.437 64.9658 250.587 65.2431 250.704C65.5311 250.811 65.9258 250.933 66.4271 251.072C67.0565 251.243 67.5685 251.413 67.9631 251.584C68.3578 251.744 68.6938 251.989 68.9711 252.32C69.2591 252.651 69.4085 253.083 69.4191 253.616C69.4191 254.096 69.2858 254.528 69.0191 254.912C68.7525 255.296 68.3738 255.6 67.8831 255.824C67.4031 256.037 66.8485 256.144 66.2191 256.144ZM72.9305 248.432V253.6C72.9305 254.027 73.0212 254.331 73.2025 254.512C73.3838 254.683 73.6985 254.768 74.1465 254.768H75.2185V256H73.9065C73.0958 256 72.4878 255.813 72.0825 255.44C71.6772 255.067 71.4745 254.453 71.4745 253.6V248.432H70.3385V247.232H71.4745V245.024H72.9305V247.232H75.2185V248.432H72.9305ZM78.1186 248.656C78.3746 248.155 78.7373 247.765 79.2066 247.488C79.6866 247.211 80.268 247.072 80.9506 247.072V248.576H80.5666C78.9346 248.576 78.1186 249.461 78.1186 251.232V256H76.6626V247.232H78.1186V248.656ZM90.0874 247.232V256H88.6314V254.704C88.354 255.152 87.9647 255.504 87.4634 255.76C86.9727 256.005 86.4287 256.128 85.8314 256.128C85.1487 256.128 84.5354 255.989 83.9914 255.712C83.4474 255.424 83.0154 254.997 82.6954 254.432C82.386 253.867 82.2314 253.179 82.2314 252.368V247.232H83.6714V252.176C83.6714 253.04 83.89 253.707 84.3274 254.176C84.7647 254.635 85.362 254.864 86.1194 254.864C86.898 254.864 87.5114 254.624 87.9594 254.144C88.4074 253.664 88.6314 252.965 88.6314 252.048V247.232H90.0874ZM94.0018 248.432V253.6C94.0018 254.027 94.0924 254.331 94.2738 254.512C94.4551 254.683 94.7698 254.768 95.2178 254.768H96.2898V256H94.9778C94.1671 256 93.5591 255.813 93.1538 255.44C92.7484 255.067 92.5458 254.453 92.5458 253.6V248.432H91.4098V247.232H92.5458V245.024H94.0018V247.232H96.2898V248.432H94.0018ZM105.51 247.232V256H104.054V254.704C103.777 255.152 103.387 255.504 102.886 255.76C102.395 256.005 101.851 256.128 101.254 256.128C100.571 256.128 99.9579 255.989 99.4139 255.712C98.8699 255.424 98.4379 254.997 98.1179 254.432C97.8085 253.867 97.6539 253.179 97.6539 252.368V247.232H99.0939V252.176C99.0939 253.04 99.3125 253.707 99.7499 254.176C100.187 254.635 100.785 254.864 101.542 254.864C102.321 254.864 102.934 254.624 103.382 254.144C103.83 253.664 104.054 252.965 104.054 252.048V247.232H105.51ZM109.104 248.656C109.36 248.155 109.723 247.765 110.192 247.488C110.672 247.211 111.254 247.072 111.936 247.072V248.576H111.552C109.92 248.576 109.104 249.461 109.104 251.232V256H107.648V247.232H109.104V248.656ZM112.753 251.584C112.753 250.688 112.934 249.904 113.297 249.232C113.66 248.549 114.156 248.021 114.785 247.648C115.425 247.275 116.134 247.088 116.913 247.088C117.681 247.088 118.348 247.253 118.913 247.584C119.478 247.915 119.9 248.331 120.177 248.832V247.232H121.649V256H120.177V254.368C119.889 254.88 119.457 255.307 118.881 255.648C118.316 255.979 117.654 256.144 116.897 256.144C116.118 256.144 115.414 255.952 114.785 255.568C114.156 255.184 113.66 254.645 113.297 253.952C112.934 253.259 112.753 252.469 112.753 251.584ZM120.177 251.6C120.177 250.939 120.044 250.363 119.777 249.872C119.51 249.381 119.148 249.008 118.689 248.752C118.241 248.485 117.745 248.352 117.201 248.352C116.657 248.352 116.161 248.48 115.713 248.736C115.265 248.992 114.908 249.365 114.641 249.856C114.374 250.347 114.241 250.923 114.241 251.584C114.241 252.256 114.374 252.843 114.641 253.344C114.908 253.835 115.265 254.213 115.713 254.48C116.161 254.736 116.657 254.864 117.201 254.864C117.745 254.864 118.241 254.736 118.689 254.48C119.148 254.213 119.51 253.835 119.777 253.344C120.044 252.843 120.177 252.261 120.177 251.6ZM127.518 254.912C128.158 254.912 128.691 254.763 129.118 254.464C129.544 254.165 129.838 253.739 129.998 253.184H131.566C131.352 254.016 130.931 254.699 130.302 255.232C129.683 255.755 128.904 256.053 127.966 256.128V256.928C128.595 256.917 129.096 257.051 129.47 257.328C129.843 257.605 130.03 258 130.03 258.512C130.03 259.013 129.848 259.413 129.486 259.712C129.123 260.011 128.654 260.16 128.078 260.16H126.238V259.216H127.79C128.142 259.216 128.398 259.163 128.558 259.056C128.728 258.949 128.814 258.768 128.814 258.512C128.814 258.267 128.728 258.091 128.558 257.984C128.398 257.877 128.142 257.824 127.79 257.824H126.99V256.112C126.254 256.037 125.603 255.808 125.038 255.424C124.472 255.029 124.03 254.507 123.71 253.856C123.4 253.195 123.246 252.443 123.246 251.6C123.246 250.693 123.427 249.904 123.79 249.232C124.152 248.549 124.654 248.021 125.294 247.648C125.944 247.275 126.686 247.088 127.518 247.088C128.595 247.088 129.48 247.349 130.174 247.872C130.878 248.395 131.342 249.12 131.566 250.048H129.998C129.848 249.515 129.555 249.093 129.118 248.784C128.691 248.475 128.158 248.32 127.518 248.32C126.686 248.32 126.014 248.608 125.502 249.184C124.99 249.749 124.734 250.555 124.734 251.6C124.734 252.656 124.99 253.472 125.502 254.048C126.014 254.624 126.686 254.912 127.518 254.912ZM132.644 251.584C132.644 250.688 132.826 249.904 133.188 249.232C133.551 248.549 134.047 248.021 134.676 247.648C135.316 247.275 136.026 247.088 136.804 247.088C137.572 247.088 138.239 247.253 138.804 247.584C139.37 247.915 139.791 248.331 140.068 248.832V247.232H141.54V256H140.068V254.368C139.78 254.88 139.348 255.307 138.772 255.648C138.207 255.979 137.546 256.144 136.788 256.144C136.01 256.144 135.306 255.952 134.676 255.568C134.047 255.184 133.551 254.645 133.188 253.952C132.826 253.259 132.644 252.469 132.644 251.584ZM140.068 251.6C140.068 250.939 139.935 250.363 139.668 249.872C139.402 249.381 139.039 249.008 138.58 248.752C138.132 248.485 137.636 248.352 137.092 248.352C136.548 248.352 136.052 248.48 135.604 248.736C135.156 248.992 134.799 249.365 134.532 249.856C134.266 250.347 134.132 250.923 134.132 251.584C134.132 252.256 134.266 252.843 134.532 253.344C134.799 253.835 135.156 254.213 135.604 254.48C136.052 254.736 136.548 254.864 137.092 254.864C137.636 254.864 138.132 254.736 138.58 254.48C139.039 254.213 139.402 253.835 139.668 253.344C139.935 252.843 140.068 252.261 140.068 251.6ZM135.028 246.288C135.103 245.744 135.279 245.328 135.556 245.04C135.844 244.752 136.202 244.608 136.628 244.608C136.831 244.608 137.002 244.645 137.14 244.72C137.29 244.784 137.466 244.88 137.668 245.008C137.818 245.115 137.951 245.2 138.068 245.264C138.186 245.317 138.314 245.344 138.452 245.344C138.634 245.344 138.788 245.285 138.916 245.168C139.044 245.051 139.124 244.88 139.156 244.656H139.988C139.924 245.189 139.748 245.6 139.46 245.888C139.172 246.176 138.815 246.32 138.388 246.32C138.186 246.32 138.004 246.288 137.844 246.224C137.695 246.149 137.524 246.043 137.332 245.904C137.162 245.797 137.023 245.717 136.916 245.664C136.82 245.611 136.703 245.584 136.564 245.584C136.383 245.584 136.228 245.643 136.1 245.76C135.983 245.877 135.908 246.053 135.876 246.288H135.028ZM147.505 256.144C146.683 256.144 145.937 255.957 145.265 255.584C144.603 255.211 144.081 254.683 143.697 254C143.323 253.307 143.137 252.507 143.137 251.6C143.137 250.704 143.329 249.915 143.713 249.232C144.107 248.539 144.641 248.011 145.313 247.648C145.985 247.275 146.737 247.088 147.569 247.088C148.401 247.088 149.153 247.275 149.825 247.648C150.497 248.011 151.025 248.533 151.409 249.216C151.803 249.899 152.001 250.693 152.001 251.6C152.001 252.507 151.798 253.307 151.393 254C150.998 254.683 150.459 255.211 149.777 255.584C149.094 255.957 148.337 256.144 147.505 256.144ZM147.505 254.864C148.027 254.864 148.518 254.741 148.977 254.496C149.435 254.251 149.803 253.883 150.081 253.392C150.369 252.901 150.513 252.304 150.513 251.6C150.513 250.896 150.374 250.299 150.097 249.808C149.819 249.317 149.457 248.955 149.009 248.72C148.561 248.475 148.075 248.352 147.553 248.352C147.019 248.352 146.529 248.475 146.081 248.72C145.643 248.955 145.291 249.317 145.025 249.808C144.758 250.299 144.625 250.896 144.625 251.6C144.625 252.315 144.753 252.917 145.009 253.408C145.275 253.899 145.627 254.267 146.065 254.512C146.502 254.747 146.982 254.864 147.505 254.864ZM156.997 251.6C156.997 250.693 157.178 249.904 157.541 249.232C157.903 248.549 158.405 248.021 159.045 247.648C159.695 247.275 160.437 247.088 161.269 247.088C162.346 247.088 163.231 247.349 163.925 247.872C164.629 248.395 165.093 249.12 165.317 250.048H163.749C163.599 249.515 163.306 249.093 162.869 248.784C162.442 248.475 161.909 248.32 161.269 248.32C160.437 248.32 159.765 248.608 159.253 249.184C158.741 249.749 158.485 250.555 158.485 251.6C158.485 252.656 158.741 253.472 159.253 254.048C159.765 254.624 160.437 254.912 161.269 254.912C161.909 254.912 162.442 254.763 162.869 254.464C163.295 254.165 163.589 253.739 163.749 253.184H165.317C165.082 254.08 164.613 254.8 163.909 255.344C163.205 255.877 162.325 256.144 161.269 256.144C160.437 256.144 159.695 255.957 159.045 255.584C158.405 255.211 157.903 254.683 157.541 254C157.178 253.317 156.997 252.517 156.997 251.6ZM170.763 256.144C169.942 256.144 169.195 255.957 168.523 255.584C167.862 255.211 167.339 254.683 166.955 254C166.582 253.307 166.395 252.507 166.395 251.6C166.395 250.704 166.587 249.915 166.971 249.232C167.366 248.539 167.899 248.011 168.571 247.648C169.243 247.275 169.995 247.088 170.827 247.088C171.659 247.088 172.411 247.275 173.083 247.648C173.755 248.011 174.283 248.533 174.667 249.216C175.062 249.899 175.259 250.693 175.259 251.6C175.259 252.507 175.057 253.307 174.651 254C174.257 254.683 173.718 255.211 173.035 255.584C172.353 255.957 171.595 256.144 170.763 256.144ZM170.763 254.864C171.286 254.864 171.777 254.741 172.235 254.496C172.694 254.251 173.062 253.883 173.339 253.392C173.627 252.901 173.771 252.304 173.771 251.6C173.771 250.896 173.633 250.299 173.355 249.808C173.078 249.317 172.715 248.955 172.267 248.72C171.819 248.475 171.334 248.352 170.811 248.352C170.278 248.352 169.787 248.475 169.339 248.72C168.902 248.955 168.55 249.317 168.283 249.808C168.017 250.299 167.883 250.896 167.883 251.6C167.883 252.315 168.011 252.917 168.267 253.408C168.534 253.899 168.886 254.267 169.323 254.512C169.761 254.747 170.241 254.864 170.763 254.864ZM187.398 247.072C188.081 247.072 188.689 247.216 189.222 247.504C189.755 247.781 190.177 248.203 190.486 248.768C190.795 249.333 190.95 250.021 190.95 250.832V256H189.51V251.04C189.51 250.165 189.291 249.499 188.854 249.04C188.427 248.571 187.846 248.336 187.11 248.336C186.353 248.336 185.75 248.581 185.302 249.072C184.854 249.552 184.63 250.251 184.63 251.168V256H183.19V251.04C183.19 250.165 182.971 249.499 182.534 249.04C182.107 248.571 181.526 248.336 180.79 248.336C180.033 248.336 179.43 248.581 178.982 249.072C178.534 249.552 178.31 250.251 178.31 251.168V256H176.854V247.232H178.31V248.496C178.598 248.037 178.982 247.685 179.462 247.44C179.953 247.195 180.491 247.072 181.078 247.072C181.814 247.072 182.465 247.237 183.03 247.568C183.595 247.899 184.017 248.384 184.294 249.024C184.539 248.405 184.945 247.925 185.51 247.584C186.075 247.243 186.705 247.072 187.398 247.072ZM196.42 251.584C196.42 250.688 196.601 249.904 196.964 249.232C197.327 248.549 197.823 248.021 198.452 247.648C199.092 247.275 199.801 247.088 200.58 247.088C201.348 247.088 202.015 247.253 202.58 247.584C203.145 247.915 203.567 248.331 203.844 248.832V247.232H205.316V256H203.844V254.368C203.556 254.88 203.124 255.307 202.548 255.648C201.983 255.979 201.321 256.144 200.564 256.144C199.785 256.144 199.081 255.952 198.452 255.568C197.823 255.184 197.327 254.645 196.964 253.952C196.601 253.259 196.42 252.469 196.42 251.584ZM203.844 251.6C203.844 250.939 203.711 250.363 203.444 249.872C203.177 249.381 202.815 249.008 202.356 248.752C201.908 248.485 201.412 248.352 200.868 248.352C200.324 248.352 199.828 248.48 199.38 248.736C198.932 248.992 198.575 249.365 198.308 249.856C198.041 250.347 197.908 250.923 197.908 251.584C197.908 252.256 198.041 252.843 198.308 253.344C198.575 253.835 198.932 254.213 199.38 254.48C199.828 254.736 200.324 254.864 200.868 254.864C201.412 254.864 201.908 254.736 202.356 254.48C202.815 254.213 203.177 253.835 203.444 253.344C203.711 252.843 203.844 252.261 203.844 251.6ZM63.008 271.232V280H61.552V278.704C61.2747 279.152 60.8853 279.504 60.384 279.76C59.8933 280.005 59.3493 280.128 58.752 280.128C58.0693 280.128 57.456 279.989 56.912 279.712C56.368 279.424 55.936 278.997 55.616 278.432C55.3067 277.867 55.152 277.179 55.152 276.368V271.232H56.592V276.176C56.592 277.04 56.8107 277.707 57.248 278.176C57.6853 278.635 58.2827 278.864 59.04 278.864C59.8187 278.864 60.432 278.624 60.88 278.144C61.328 277.664 61.552 276.965 61.552 276.048V271.232H63.008ZM66.9224 272.432V277.6C66.9224 278.027 67.013 278.331 67.1944 278.512C67.3757 278.683 67.6904 278.768 68.1384 278.768H69.2104V280H67.8984C67.0877 280 66.4797 279.813 66.0744 279.44C65.669 279.067 65.4664 278.453 65.4664 277.6V272.432H64.3304V271.232H65.4664V269.024H66.9224V271.232H69.2104V272.432H66.9224ZM71.4065 269.808C71.1292 269.808 70.8945 269.712 70.7025 269.52C70.5105 269.328 70.4145 269.093 70.4145 268.816C70.4145 268.539 70.5105 268.304 70.7025 268.112C70.8945 267.92 71.1292 267.824 71.4065 267.824C71.6732 267.824 71.8972 267.92 72.0785 268.112C72.2705 268.304 72.3665 268.539 72.3665 268.816C72.3665 269.093 72.2705 269.328 72.0785 269.52C71.8972 269.712 71.6732 269.808 71.4065 269.808ZM72.1105 271.232V280H70.6545V271.232H72.1105ZM75.728 268.16V280H74.272V268.16H75.728ZM78.6415 269.808C78.3642 269.808 78.1295 269.712 77.9375 269.52C77.7455 269.328 77.6495 269.093 77.6495 268.816C77.6495 268.539 77.7455 268.304 77.9375 268.112C78.1295 267.92 78.3642 267.824 78.6415 267.824C78.9082 267.824 79.1322 267.92 79.3135 268.112C79.5055 268.304 79.6015 268.539 79.6015 268.816C79.6015 269.093 79.5055 269.328 79.3135 269.52C79.1322 269.712 78.9082 269.808 78.6415 269.808ZM79.3455 271.232V280H77.8895V271.232H79.3455ZM82.595 278.8H86.899V280H80.931V278.8L85.187 272.416H80.963V271.232H86.867V272.416L82.595 278.8ZM87.9243 275.584C87.9243 274.688 88.1056 273.904 88.4683 273.232C88.8309 272.549 89.3269 272.021 89.9563 271.648C90.5963 271.275 91.3056 271.088 92.0843 271.088C92.8523 271.088 93.5189 271.253 94.0843 271.584C94.6496 271.915 95.0709 272.331 95.3483 272.832V271.232H96.8203V280H95.3483V278.368C95.0603 278.88 94.6283 279.307 94.0523 279.648C93.4869 279.979 92.8256 280.144 92.0683 280.144C91.2896 280.144 90.5856 279.952 89.9563 279.568C89.3269 279.184 88.8309 278.645 88.4683 277.952C88.1056 277.259 87.9243 276.469 87.9243 275.584ZM95.3483 275.6C95.3483 274.939 95.2149 274.363 94.9483 273.872C94.6816 273.381 94.3189 273.008 93.8603 272.752C93.4123 272.485 92.9163 272.352 92.3723 272.352C91.8283 272.352 91.3323 272.48 90.8843 272.736C90.4363 272.992 90.0789 273.365 89.8123 273.856C89.5456 274.347 89.4123 274.923 89.4123 275.584C89.4123 276.256 89.5456 276.843 89.8123 277.344C90.0789 277.835 90.4363 278.213 90.8843 278.48C91.3323 278.736 91.8283 278.864 92.3723 278.864C92.9163 278.864 93.4123 278.736 93.8603 278.48C94.3189 278.213 94.6816 277.835 94.9483 277.344C95.2149 276.843 95.3483 276.261 95.3483 275.6ZM102.689 278.912C103.329 278.912 103.862 278.763 104.289 278.464C104.715 278.165 105.009 277.739 105.169 277.184H106.737C106.523 278.016 106.102 278.699 105.473 279.232C104.854 279.755 104.075 280.053 103.137 280.128V280.928C103.766 280.917 104.267 281.051 104.641 281.328C105.014 281.605 105.201 282 105.201 282.512C105.201 283.013 105.019 283.413 104.657 283.712C104.294 284.011 103.825 284.16 103.249 284.16H101.409V283.216H102.961C103.313 283.216 103.569 283.163 103.729 283.056C103.899 282.949 103.985 282.768 103.985 282.512C103.985 282.267 103.899 282.091 103.729 281.984C103.569 281.877 103.313 281.824 102.961 281.824H102.161V280.112C101.425 280.037 100.774 279.808 100.209 279.424C99.6434 279.029 99.2007 278.507 98.8807 277.856C98.5714 277.195 98.4167 276.443 98.4167 275.6C98.4167 274.693 98.5981 273.904 98.9607 273.232C99.3234 272.549 99.8247 272.021 100.465 271.648C101.115 271.275 101.857 271.088 102.689 271.088C103.766 271.088 104.651 271.349 105.345 271.872C106.049 272.395 106.513 273.12 106.737 274.048H105.169C105.019 273.515 104.726 273.093 104.289 272.784C103.862 272.475 103.329 272.32 102.689 272.32C101.857 272.32 101.185 272.608 100.673 273.184C100.161 273.749 99.9047 274.555 99.9047 275.6C99.9047 276.656 100.161 277.472 100.673 278.048C101.185 278.624 101.857 278.912 102.689 278.912ZM107.815 275.584C107.815 274.688 107.997 273.904 108.359 273.232C108.722 272.549 109.218 272.021 109.847 271.648C110.487 271.275 111.197 271.088 111.975 271.088C112.743 271.088 113.41 271.253 113.975 271.584C114.541 271.915 114.962 272.331 115.239 272.832V271.232H116.711V280H115.239V278.368C114.951 278.88 114.519 279.307 113.943 279.648C113.378 279.979 112.717 280.144 111.959 280.144C111.181 280.144 110.477 279.952 109.847 279.568C109.218 279.184 108.722 278.645 108.359 277.952C107.997 277.259 107.815 276.469 107.815 275.584ZM115.239 275.6C115.239 274.939 115.106 274.363 114.839 273.872C114.573 273.381 114.21 273.008 113.751 272.752C113.303 272.485 112.807 272.352 112.263 272.352C111.719 272.352 111.223 272.48 110.775 272.736C110.327 272.992 109.97 273.365 109.703 273.856C109.437 274.347 109.303 274.923 109.303 275.584C109.303 276.256 109.437 276.843 109.703 277.344C109.97 277.835 110.327 278.213 110.775 278.48C111.223 278.736 111.719 278.864 112.263 278.864C112.807 278.864 113.303 278.736 113.751 278.48C114.21 278.213 114.573 277.835 114.839 277.344C115.106 276.843 115.239 276.261 115.239 275.6ZM110.199 270.288C110.274 269.744 110.45 269.328 110.727 269.04C111.015 268.752 111.373 268.608 111.799 268.608C112.002 268.608 112.173 268.645 112.311 268.72C112.461 268.784 112.637 268.88 112.839 269.008C112.989 269.115 113.122 269.2 113.239 269.264C113.357 269.317 113.485 269.344 113.623 269.344C113.805 269.344 113.959 269.285 114.087 269.168C114.215 269.051 114.295 268.88 114.327 268.656H115.159C115.095 269.189 114.919 269.6 114.631 269.888C114.343 270.176 113.986 270.32 113.559 270.32C113.357 270.32 113.175 270.288 113.015 270.224C112.866 270.149 112.695 270.043 112.503 269.904C112.333 269.797 112.194 269.717 112.087 269.664C111.991 269.611 111.874 269.584 111.735 269.584C111.554 269.584 111.399 269.643 111.271 269.76C111.154 269.877 111.079 270.053 111.047 270.288H110.199ZM122.676 280.144C121.855 280.144 121.108 279.957 120.436 279.584C119.775 279.211 119.252 278.683 118.868 278C118.495 277.307 118.308 276.507 118.308 275.6C118.308 274.704 118.5 273.915 118.884 273.232C119.279 272.539 119.812 272.011 120.484 271.648C121.156 271.275 121.908 271.088 122.74 271.088C123.572 271.088 124.324 271.275 124.996 271.648C125.668 272.011 126.196 272.533 126.58 273.216C126.975 273.899 127.172 274.693 127.172 275.6C127.172 276.507 126.969 277.307 126.564 278C126.169 278.683 125.631 279.211 124.948 279.584C124.265 279.957 123.508 280.144 122.676 280.144ZM122.676 278.864C123.199 278.864 123.689 278.741 124.148 278.496C124.607 278.251 124.975 277.883 125.252 277.392C125.54 276.901 125.684 276.304 125.684 275.6C125.684 274.896 125.545 274.299 125.268 273.808C124.991 273.317 124.628 272.955 124.18 272.72C123.732 272.475 123.247 272.352 122.724 272.352C122.191 272.352 121.7 272.475 121.252 272.72C120.815 272.955 120.463 273.317 120.196 273.808C119.929 274.299 119.796 274.896 119.796 275.6C119.796 276.315 119.924 276.917 120.18 277.408C120.447 277.899 120.799 278.267 121.236 278.512C121.673 278.747 122.153 278.864 122.676 278.864ZM132.168 275.584C132.168 274.688 132.349 273.904 132.712 273.232C133.075 272.549 133.571 272.021 134.2 271.648C134.84 271.275 135.555 271.088 136.344 271.088C137.027 271.088 137.661 271.248 138.248 271.568C138.835 271.877 139.283 272.288 139.592 272.8V268.16H141.064V280H139.592V278.352C139.304 278.875 138.877 279.307 138.312 279.648C137.747 279.979 137.085 280.144 136.328 280.144C135.549 280.144 134.84 279.952 134.2 279.568C133.571 279.184 133.075 278.645 132.712 277.952C132.349 277.259 132.168 276.469 132.168 275.584ZM139.592 275.6C139.592 274.939 139.459 274.363 139.192 273.872C138.925 273.381 138.563 273.008 138.104 272.752C137.656 272.485 137.16 272.352 136.616 272.352C136.072 272.352 135.576 272.48 135.128 272.736C134.68 272.992 134.323 273.365 134.056 273.856C133.789 274.347 133.656 274.923 133.656 275.584C133.656 276.256 133.789 276.843 134.056 277.344C134.323 277.835 134.68 278.213 135.128 278.48C135.576 278.736 136.072 278.864 136.616 278.864C137.16 278.864 137.656 278.736 138.104 278.48C138.563 278.213 138.925 277.835 139.192 277.344C139.459 276.843 139.592 276.261 139.592 275.6ZM142.661 275.584C142.661 274.688 142.842 273.904 143.205 273.232C143.567 272.549 144.063 272.021 144.693 271.648C145.333 271.275 146.042 271.088 146.821 271.088C147.589 271.088 148.255 271.253 148.821 271.584C149.386 271.915 149.807 272.331 150.085 272.832V271.232H151.557V280H150.085V278.368C149.797 278.88 149.365 279.307 148.789 279.648C148.223 279.979 147.562 280.144 146.805 280.144C146.026 280.144 145.322 279.952 144.693 279.568C144.063 279.184 143.567 278.645 143.205 277.952C142.842 277.259 142.661 276.469 142.661 275.584ZM150.085 275.6C150.085 274.939 149.951 274.363 149.685 273.872C149.418 273.381 149.055 273.008 148.597 272.752C148.149 272.485 147.653 272.352 147.109 272.352C146.565 272.352 146.069 272.48 145.621 272.736C145.173 272.992 144.815 273.365 144.549 273.856C144.282 274.347 144.149 274.923 144.149 275.584C144.149 276.256 144.282 276.843 144.549 277.344C144.815 277.835 145.173 278.213 145.621 278.48C146.069 278.736 146.565 278.864 147.109 278.864C147.653 278.864 148.149 278.736 148.597 278.48C149.055 278.213 149.418 277.835 149.685 277.344C149.951 276.843 150.085 276.261 150.085 275.6ZM156.801 280.144C156.129 280.144 155.526 280.032 154.993 279.808C154.46 279.573 154.038 279.253 153.729 278.848C153.42 278.432 153.249 277.957 153.217 277.424H154.721C154.764 277.861 154.966 278.219 155.329 278.496C155.702 278.773 156.188 278.912 156.785 278.912C157.34 278.912 157.777 278.789 158.097 278.544C158.417 278.299 158.577 277.989 158.577 277.616C158.577 277.232 158.406 276.949 158.065 276.768C157.724 276.576 157.196 276.389 156.481 276.208C155.83 276.037 155.297 275.867 154.881 275.696C154.476 275.515 154.124 275.253 153.825 274.912C153.537 274.56 153.393 274.101 153.393 273.536C153.393 273.088 153.526 272.677 153.793 272.304C154.06 271.931 154.438 271.637 154.929 271.424C155.42 271.2 155.98 271.088 156.609 271.088C157.58 271.088 158.364 271.333 158.961 271.824C159.558 272.315 159.878 272.987 159.921 273.84H158.465C158.433 273.381 158.246 273.013 157.905 272.736C157.574 272.459 157.126 272.32 156.561 272.32C156.038 272.32 155.622 272.432 155.313 272.656C155.004 272.88 154.849 273.173 154.849 273.536C154.849 273.824 154.94 274.064 155.121 274.256C155.313 274.437 155.548 274.587 155.825 274.704C156.113 274.811 156.508 274.933 157.009 275.072C157.638 275.243 158.15 275.413 158.545 275.584C158.94 275.744 159.276 275.989 159.553 276.32C159.841 276.651 159.99 277.083 160.001 277.616C160.001 278.096 159.868 278.528 159.601 278.912C159.334 279.296 158.956 279.6 158.465 279.824C157.985 280.037 157.43 280.144 156.801 280.144ZM167.458 272.432V277.6C167.458 278.027 167.549 278.331 167.73 278.512C167.911 278.683 168.226 278.768 168.674 278.768H169.746V280H168.434C167.623 280 167.015 279.813 166.61 279.44C166.205 279.067 166.002 278.453 166.002 277.6V272.432H164.866V271.232H166.002V269.024H167.458V271.232H169.746V272.432H167.458ZM170.646 275.584C170.646 274.688 170.827 273.904 171.19 273.232C171.553 272.549 172.049 272.021 172.678 271.648C173.318 271.275 174.027 271.088 174.806 271.088C175.574 271.088 176.241 271.253 176.806 271.584C177.371 271.915 177.793 272.331 178.07 272.832V271.232H179.542V280H178.07V278.368C177.782 278.88 177.35 279.307 176.774 279.648C176.209 279.979 175.547 280.144 174.79 280.144C174.011 280.144 173.307 279.952 172.678 279.568C172.049 279.184 171.553 278.645 171.19 277.952C170.827 277.259 170.646 276.469 170.646 275.584ZM178.07 275.6C178.07 274.939 177.937 274.363 177.67 273.872C177.403 273.381 177.041 273.008 176.582 272.752C176.134 272.485 175.638 272.352 175.094 272.352C174.55 272.352 174.054 272.48 173.606 272.736C173.158 272.992 172.801 273.365 172.534 273.856C172.267 274.347 172.134 274.923 172.134 275.584C172.134 276.256 172.267 276.843 172.534 277.344C172.801 277.835 173.158 278.213 173.606 278.48C174.054 278.736 174.55 278.864 175.094 278.864C175.638 278.864 176.134 278.736 176.582 278.48C177.041 278.213 177.403 277.835 177.67 277.344C177.937 276.843 178.07 276.261 178.07 275.6ZM185.299 271.088C186.056 271.088 186.717 271.253 187.283 271.584C187.859 271.915 188.285 272.331 188.563 272.832V271.232H190.035V280.192C190.035 280.992 189.864 281.701 189.523 282.32C189.181 282.949 188.691 283.44 188.051 283.792C187.421 284.144 186.685 284.32 185.843 284.32C184.691 284.32 183.731 284.048 182.963 283.504C182.195 282.96 181.741 282.219 181.603 281.28H183.043C183.203 281.813 183.533 282.24 184.035 282.56C184.536 282.891 185.139 283.056 185.843 283.056C186.643 283.056 187.293 282.805 187.795 282.304C188.307 281.803 188.563 281.099 188.563 280.192V278.352C188.275 278.864 187.848 279.291 187.283 279.632C186.717 279.973 186.056 280.144 185.299 280.144C184.52 280.144 183.811 279.952 183.171 279.568C182.541 279.184 182.045 278.645 181.683 277.952C181.32 277.259 181.139 276.469 181.139 275.584C181.139 274.688 181.32 273.904 181.683 273.232C182.045 272.549 182.541 272.021 183.171 271.648C183.811 271.275 184.52 271.088 185.299 271.088ZM188.563 275.6C188.563 274.939 188.429 274.363 188.163 273.872C187.896 273.381 187.533 273.008 187.075 272.752C186.627 272.485 186.131 272.352 185.587 272.352C185.043 272.352 184.547 272.48 184.099 272.736C183.651 272.992 183.293 273.365 183.027 273.856C182.76 274.347 182.627 274.923 182.627 275.584C182.627 276.256 182.76 276.843 183.027 277.344C183.293 277.835 183.651 278.213 184.099 278.48C184.547 278.736 185.043 278.864 185.587 278.864C186.131 278.864 186.627 278.736 187.075 278.48C187.533 278.213 187.896 277.835 188.163 277.344C188.429 276.843 188.563 276.261 188.563 275.6ZM195.279 280.144C194.607 280.144 194.004 280.032 193.471 279.808C192.938 279.573 192.516 279.253 192.207 278.848C191.898 278.432 191.727 277.957 191.695 277.424H193.199C193.242 277.861 193.444 278.219 193.807 278.496C194.18 278.773 194.666 278.912 195.263 278.912C195.818 278.912 196.255 278.789 196.575 278.544C196.895 278.299 197.055 277.989 197.055 277.616C197.055 277.232 196.884 276.949 196.543 276.768C196.202 276.576 195.674 276.389 194.959 276.208C194.308 276.037 193.775 275.867 193.359 275.696C192.954 275.515 192.602 275.253 192.303 274.912C192.015 274.56 191.871 274.101 191.871 273.536C191.871 273.088 192.004 272.677 192.271 272.304C192.538 271.931 192.916 271.637 193.407 271.424C193.898 271.2 194.458 271.088 195.087 271.088C196.058 271.088 196.842 271.333 197.439 271.824C198.036 272.315 198.356 272.987 198.399 273.84H196.943C196.911 273.381 196.724 273.013 196.383 272.736C196.052 272.459 195.604 272.32 195.039 272.32C194.516 272.32 194.1 272.432 193.791 272.656C193.482 272.88 193.327 273.173 193.327 273.536C193.327 273.824 193.418 274.064 193.599 274.256C193.791 274.437 194.026 274.587 194.303 274.704C194.591 274.811 194.986 274.933 195.487 275.072C196.116 275.243 196.628 275.413 197.023 275.584C197.418 275.744 197.754 275.989 198.031 276.32C198.319 276.651 198.468 277.083 198.479 277.616C198.479 278.096 198.346 278.528 198.079 278.912C197.812 279.296 197.434 279.6 196.943 279.824C196.463 280.037 195.908 280.144 195.279 280.144ZM203.616 275.6C203.616 274.693 203.797 273.904 204.16 273.232C204.523 272.549 205.024 272.021 205.664 271.648C206.315 271.275 207.056 271.088 207.888 271.088C208.965 271.088 209.851 271.349 210.544 271.872C211.248 272.395 211.712 273.12 211.936 274.048H210.368C210.219 273.515 209.925 273.093 209.488 272.784C209.061 272.475 208.528 272.32 207.888 272.32C207.056 272.32 206.384 272.608 205.872 273.184C205.36 273.749 205.104 274.555 205.104 275.6C205.104 276.656 205.36 277.472 205.872 278.048C206.384 278.624 207.056 278.912 207.888 278.912C208.528 278.912 209.061 278.763 209.488 278.464C209.915 278.165 210.208 277.739 210.368 277.184H211.936C211.701 278.08 211.232 278.8 210.528 279.344C209.824 279.877 208.944 280.144 207.888 280.144C207.056 280.144 206.315 279.957 205.664 279.584C205.024 279.211 204.523 278.683 204.16 278C203.797 277.317 203.616 276.517 203.616 275.6ZM217.383 280.144C216.562 280.144 215.815 279.957 215.143 279.584C214.482 279.211 213.959 278.683 213.575 278C213.202 277.307 213.015 276.507 213.015 275.6C213.015 274.704 213.207 273.915 213.591 273.232C213.986 272.539 214.519 272.011 215.191 271.648C215.863 271.275 216.615 271.088 217.447 271.088C218.279 271.088 219.031 271.275 219.703 271.648C220.375 272.011 220.903 272.533 221.287 273.216C221.682 273.899 221.879 274.693 221.879 275.6C221.879 276.507 221.676 277.307 221.271 278C220.876 278.683 220.338 279.211 219.655 279.584C218.972 279.957 218.215 280.144 217.383 280.144ZM217.383 278.864C217.906 278.864 218.396 278.741 218.855 278.496C219.314 278.251 219.682 277.883 219.959 277.392C220.247 276.901 220.391 276.304 220.391 275.6C220.391 274.896 220.252 274.299 219.975 273.808C219.698 273.317 219.335 272.955 218.887 272.72C218.439 272.475 217.954 272.352 217.431 272.352C216.898 272.352 216.407 272.475 215.959 272.72C215.522 272.955 215.17 273.317 214.903 273.808C214.636 274.299 214.503 274.896 214.503 275.6C214.503 276.315 214.631 276.917 214.887 277.408C215.154 277.899 215.506 278.267 215.943 278.512C216.38 278.747 216.86 278.864 217.383 278.864ZM224.929 272.656C225.185 272.155 225.548 271.765 226.017 271.488C226.497 271.211 227.079 271.072 227.761 271.072V272.576H227.377C225.745 272.576 224.929 273.461 224.929 275.232V280H223.473V271.232H224.929V272.656ZM230.578 272.656C230.834 272.155 231.197 271.765 231.666 271.488C232.146 271.211 232.727 271.072 233.41 271.072V272.576H233.026C231.394 272.576 230.578 273.461 230.578 275.232V280H229.122V271.232H230.578V272.656ZM242.771 275.28C242.771 275.557 242.755 275.851 242.723 276.16H235.715C235.768 277.024 236.061 277.701 236.595 278.192C237.139 278.672 237.795 278.912 238.563 278.912C239.192 278.912 239.715 278.768 240.131 278.48C240.557 278.181 240.856 277.787 241.027 277.296H242.595C242.36 278.139 241.891 278.827 241.187 279.36C240.483 279.883 239.608 280.144 238.563 280.144C237.731 280.144 236.984 279.957 236.323 279.584C235.672 279.211 235.16 278.683 234.787 278C234.413 277.307 234.227 276.507 234.227 275.6C234.227 274.693 234.408 273.899 234.771 273.216C235.133 272.533 235.64 272.011 236.291 271.648C236.952 271.275 237.709 271.088 238.563 271.088C239.395 271.088 240.131 271.269 240.771 271.632C241.411 271.995 241.901 272.496 242.243 273.136C242.595 273.765 242.771 274.48 242.771 275.28ZM241.267 274.976C241.267 274.421 241.144 273.947 240.899 273.552C240.653 273.147 240.317 272.843 239.891 272.64C239.475 272.427 239.011 272.32 238.499 272.32C237.763 272.32 237.133 272.555 236.611 273.024C236.099 273.493 235.805 274.144 235.731 274.976H241.267ZM246.149 272.432V277.6C246.149 278.027 246.239 278.331 246.421 278.512C246.602 278.683 246.917 278.768 247.365 278.768H248.437V280H247.125C246.314 280 245.706 279.813 245.301 279.44C244.895 279.067 244.693 278.453 244.693 277.6V272.432H243.557V271.232H244.693V269.024H246.149V271.232H248.437V272.432H246.149ZM249.337 275.584C249.337 274.688 249.518 273.904 249.881 273.232C250.243 272.549 250.739 272.021 251.369 271.648C252.009 271.275 252.718 271.088 253.497 271.088C254.265 271.088 254.931 271.253 255.497 271.584C256.062 271.915 256.483 272.331 256.761 272.832V271.232H258.233V280H256.761V278.368C256.473 278.88 256.041 279.307 255.465 279.648C254.899 279.979 254.238 280.144 253.481 280.144C252.702 280.144 251.998 279.952 251.369 279.568C250.739 279.184 250.243 278.645 249.881 277.952C249.518 277.259 249.337 276.469 249.337 275.584ZM256.761 275.6C256.761 274.939 256.627 274.363 256.361 273.872C256.094 273.381 255.731 273.008 255.273 272.752C254.825 272.485 254.329 272.352 253.785 272.352C253.241 272.352 252.745 272.48 252.297 272.736C251.849 272.992 251.491 273.365 251.225 273.856C250.958 274.347 250.825 274.923 250.825 275.584C250.825 276.256 250.958 276.843 251.225 277.344C251.491 277.835 251.849 278.213 252.297 278.48C252.745 278.736 253.241 278.864 253.785 278.864C254.329 278.864 254.825 278.736 255.273 278.48C255.731 278.213 256.094 277.835 256.361 277.344C256.627 276.843 256.761 276.261 256.761 275.6ZM263.477 280.144C262.805 280.144 262.203 280.032 261.669 279.808C261.136 279.573 260.715 279.253 260.405 278.848C260.096 278.432 259.925 277.957 259.893 277.424H261.397C261.44 277.861 261.643 278.219 262.005 278.496C262.379 278.773 262.864 278.912 263.461 278.912C264.016 278.912 264.453 278.789 264.773 278.544C265.093 278.299 265.253 277.989 265.253 277.616C265.253 277.232 265.083 276.949 264.741 276.768C264.4 276.576 263.872 276.389 263.157 276.208C262.507 276.037 261.973 275.867 261.557 275.696C261.152 275.515 260.8 275.253 260.501 274.912C260.213 274.56 260.069 274.101 260.069 273.536C260.069 273.088 260.203 272.677 260.469 272.304C260.736 271.931 261.115 271.637 261.605 271.424C262.096 271.2 262.656 271.088 263.285 271.088C264.256 271.088 265.04 271.333 265.637 271.824C266.235 272.315 266.555 272.987 266.597 273.84H265.141C265.109 273.381 264.923 273.013 264.581 272.736C264.251 272.459 263.803 272.32 263.237 272.32C262.715 272.32 262.299 272.432 261.989 272.656C261.68 272.88 261.525 273.173 261.525 273.536C261.525 273.824 261.616 274.064 261.797 274.256C261.989 274.437 262.224 274.587 262.501 274.704C262.789 274.811 263.184 274.933 263.685 275.072C264.315 275.243 264.827 275.413 265.221 275.584C265.616 275.744 265.952 275.989 266.229 276.32C266.517 276.651 266.667 277.083 266.677 277.616C266.677 278.096 266.544 278.528 266.277 278.912C266.011 279.296 265.632 279.6 265.141 279.824C264.661 280.037 264.107 280.144 263.477 280.144ZM63.232 299.28C63.232 299.557 63.216 299.851 63.184 300.16H56.176C56.2293 301.024 56.5227 301.701 57.056 302.192C57.6 302.672 58.256 302.912 59.024 302.912C59.6533 302.912 60.176 302.768 60.592 302.48C61.0187 302.181 61.3173 301.787 61.488 301.296H63.056C62.8213 302.139 62.352 302.827 61.648 303.36C60.944 303.883 60.0693 304.144 59.024 304.144C58.192 304.144 57.4453 303.957 56.784 303.584C56.1333 303.211 55.6213 302.683 55.248 302C54.8747 301.307 54.688 300.507 54.688 299.6C54.688 298.693 54.8693 297.899 55.232 297.216C55.5947 296.533 56.1013 296.011 56.752 295.648C57.4133 295.275 58.1707 295.088 59.024 295.088C59.856 295.088 60.592 295.269 61.232 295.632C61.872 295.995 62.3627 296.496 62.704 297.136C63.056 297.765 63.232 298.48 63.232 299.28ZM61.728 298.976C61.728 298.421 61.6053 297.947 61.36 297.552C61.1147 297.147 60.7787 296.843 60.352 296.64C59.936 296.427 59.472 296.32 58.96 296.32C58.224 296.32 57.5947 296.555 57.072 297.024C56.56 297.493 56.2667 298.144 56.192 298.976H61.728ZM73.0515 295.072C74.1182 295.072 74.9822 295.397 75.6435 296.048C76.3048 296.688 76.6355 297.616 76.6355 298.832V304H75.1955V299.04C75.1955 298.165 74.9768 297.499 74.5395 297.04C74.1022 296.571 73.5048 296.336 72.7475 296.336C71.9795 296.336 71.3662 296.576 70.9075 297.056C70.4595 297.536 70.2355 298.235 70.2355 299.152V304H68.7795V295.232H70.2355V296.48C70.5235 296.032 70.9128 295.685 71.4035 295.44C71.9048 295.195 72.4542 295.072 73.0515 295.072ZM86.6939 299.28C86.6939 299.557 86.6779 299.851 86.6459 300.16H79.6379C79.6912 301.024 79.9845 301.701 80.5179 302.192C81.0619 302.672 81.7179 302.912 82.4859 302.912C83.1152 302.912 83.6379 302.768 84.0539 302.48C84.4805 302.181 84.7792 301.787 84.9499 301.296H86.5179C86.2832 302.139 85.8139 302.827 85.1099 303.36C84.4059 303.883 83.5312 304.144 82.4859 304.144C81.6539 304.144 80.9072 303.957 80.2459 303.584C79.5952 303.211 79.0832 302.683 78.7099 302C78.3365 301.307 78.1499 300.507 78.1499 299.6C78.1499 298.693 78.3312 297.899 78.6939 297.216C79.0565 296.533 79.5632 296.011 80.2139 295.648C80.8752 295.275 81.6325 295.088 82.4859 295.088C83.3179 295.088 84.0539 295.269 84.6939 295.632C85.3339 295.995 85.8245 296.496 86.1659 297.136C86.5179 297.765 86.6939 298.48 86.6939 299.28ZM85.1899 298.976C85.1899 298.421 85.0672 297.947 84.8219 297.552C84.5765 297.147 84.2405 296.843 83.8139 296.64C83.3979 296.427 82.9339 296.32 82.4219 296.32C81.6859 296.32 81.0565 296.555 80.5339 297.024C80.0219 297.493 79.7285 298.144 79.6539 298.976H85.1899ZM87.7518 299.6C87.7518 298.693 87.9331 297.904 88.2958 297.232C88.6584 296.549 89.1598 296.021 89.7998 295.648C90.4504 295.275 91.1918 295.088 92.0238 295.088C93.1011 295.088 93.9864 295.349 94.6798 295.872C95.3838 296.395 95.8478 297.12 96.0718 298.048H94.5038C94.3544 297.515 94.0611 297.093 93.6238 296.784C93.1971 296.475 92.6638 296.32 92.0238 296.32C91.1918 296.32 90.5198 296.608 90.0078 297.184C89.4958 297.749 89.2398 298.555 89.2398 299.6C89.2398 300.656 89.4958 301.472 90.0078 302.048C90.5198 302.624 91.1918 302.912 92.0238 302.912C92.6638 302.912 93.1971 302.763 93.6238 302.464C94.0504 302.165 94.3438 301.739 94.5038 301.184H96.0718C95.8371 302.08 95.3678 302.8 94.6638 303.344C93.9598 303.877 93.0798 304.144 92.0238 304.144C91.1918 304.144 90.4504 303.957 89.7998 303.584C89.1598 303.211 88.6584 302.683 88.2958 302C87.9331 301.317 87.7518 300.517 87.7518 299.6ZM105.695 299.28C105.695 299.557 105.679 299.851 105.647 300.16H98.6385C98.6918 301.024 98.9852 301.701 99.5185 302.192C100.063 302.672 100.719 302.912 101.487 302.912C102.116 302.912 102.639 302.768 103.055 302.48C103.481 302.181 103.78 301.787 103.951 301.296H105.519C105.284 302.139 104.815 302.827 104.111 303.36C103.407 303.883 102.532 304.144 101.487 304.144C100.655 304.144 99.9078 303.957 99.2465 303.584C98.5958 303.211 98.0838 302.683 97.7105 302C97.3372 301.307 97.1505 300.507 97.1505 299.6C97.1505 298.693 97.3318 297.899 97.6945 297.216C98.0572 296.533 98.5638 296.011 99.2145 295.648C99.8758 295.275 100.633 295.088 101.487 295.088C102.319 295.088 103.055 295.269 103.695 295.632C104.335 295.995 104.825 296.496 105.167 297.136C105.519 297.765 105.695 298.48 105.695 299.28ZM104.191 298.976C104.191 298.421 104.068 297.947 103.823 297.552C103.577 297.147 103.241 296.843 102.815 296.64C102.399 296.427 101.935 296.32 101.423 296.32C100.687 296.32 100.057 296.555 99.5345 297.024C99.0225 297.493 98.7292 298.144 98.6545 298.976H104.191ZM110.4 304.144C109.728 304.144 109.126 304.032 108.592 303.808C108.059 303.573 107.638 303.253 107.328 302.848C107.019 302.432 106.848 301.957 106.816 301.424H108.32C108.363 301.861 108.566 302.219 108.928 302.496C109.302 302.773 109.787 302.912 110.384 302.912C110.939 302.912 111.376 302.789 111.696 302.544C112.016 302.299 112.176 301.989 112.176 301.616C112.176 301.232 112.006 300.949 111.664 300.768C111.323 300.576 110.795 300.389 110.08 300.208C109.43 300.037 108.896 299.867 108.48 299.696C108.075 299.515 107.723 299.253 107.424 298.912C107.136 298.56 106.992 298.101 106.992 297.536C106.992 297.088 107.126 296.677 107.392 296.304C107.659 295.931 108.038 295.637 108.528 295.424C109.019 295.2 109.579 295.088 110.208 295.088C111.179 295.088 111.963 295.333 112.56 295.824C113.158 296.315 113.478 296.987 113.52 297.84H112.064C112.032 297.381 111.846 297.013 111.504 296.736C111.174 296.459 110.726 296.32 110.16 296.32C109.638 296.32 109.222 296.432 108.912 296.656C108.603 296.88 108.448 297.173 108.448 297.536C108.448 297.824 108.539 298.064 108.72 298.256C108.912 298.437 109.147 298.587 109.424 298.704C109.712 298.811 110.107 298.933 110.608 299.072C111.238 299.243 111.75 299.413 112.144 299.584C112.539 299.744 112.875 299.989 113.152 300.32C113.44 300.651 113.59 301.083 113.6 301.616C113.6 302.096 113.467 302.528 113.2 302.912C112.934 303.296 112.555 303.6 112.064 303.824C111.584 304.037 111.03 304.144 110.4 304.144ZM118.44 304.144C117.768 304.144 117.165 304.032 116.632 303.808C116.098 303.573 115.677 303.253 115.368 302.848C115.058 302.432 114.888 301.957 114.856 301.424H116.36C116.402 301.861 116.605 302.219 116.968 302.496C117.341 302.773 117.826 302.912 118.424 302.912C118.978 302.912 119.416 302.789 119.736 302.544C120.056 302.299 120.216 301.989 120.216 301.616C120.216 301.232 120.045 300.949 119.704 300.768C119.362 300.576 118.834 300.389 118.12 300.208C117.469 300.037 116.936 299.867 116.52 299.696C116.114 299.515 115.762 299.253 115.464 298.912C115.176 298.56 115.032 298.101 115.032 297.536C115.032 297.088 115.165 296.677 115.432 296.304C115.698 295.931 116.077 295.637 116.568 295.424C117.058 295.2 117.618 295.088 118.248 295.088C119.218 295.088 120.002 295.333 120.6 295.824C121.197 296.315 121.517 296.987 121.56 297.84H120.104C120.072 297.381 119.885 297.013 119.544 296.736C119.213 296.459 118.765 296.32 118.2 296.32C117.677 296.32 117.261 296.432 116.952 296.656C116.642 296.88 116.488 297.173 116.488 297.536C116.488 297.824 116.578 298.064 116.76 298.256C116.952 298.437 117.186 298.587 117.464 298.704C117.752 298.811 118.146 298.933 118.648 299.072C119.277 299.243 119.789 299.413 120.184 299.584C120.578 299.744 120.914 299.989 121.192 300.32C121.48 300.651 121.629 301.083 121.64 301.616C121.64 302.096 121.506 302.528 121.24 302.912C120.973 303.296 120.594 303.6 120.104 303.824C119.624 304.037 119.069 304.144 118.44 304.144ZM122.831 299.584C122.831 298.688 123.012 297.904 123.375 297.232C123.738 296.549 124.234 296.021 124.863 295.648C125.503 295.275 126.212 295.088 126.991 295.088C127.759 295.088 128.426 295.253 128.991 295.584C129.556 295.915 129.978 296.331 130.255 296.832V295.232H131.727V304H130.255V302.368C129.967 302.88 129.535 303.307 128.959 303.648C128.394 303.979 127.732 304.144 126.975 304.144C126.196 304.144 125.492 303.952 124.863 303.568C124.234 303.184 123.738 302.645 123.375 301.952C123.012 301.259 122.831 300.469 122.831 299.584ZM130.255 299.6C130.255 298.939 130.122 298.363 129.855 297.872C129.588 297.381 129.226 297.008 128.767 296.752C128.319 296.485 127.823 296.352 127.279 296.352C126.735 296.352 126.239 296.48 125.791 296.736C125.343 296.992 124.986 297.365 124.719 297.856C124.452 298.347 124.319 298.923 124.319 299.584C124.319 300.256 124.452 300.843 124.719 301.344C124.986 301.835 125.343 302.213 125.791 302.48C126.239 302.736 126.735 302.864 127.279 302.864C127.823 302.864 128.319 302.736 128.767 302.48C129.226 302.213 129.588 301.835 129.855 301.344C130.122 300.843 130.255 300.261 130.255 299.6ZM129.119 292.752L125.711 294.576V293.488L129.119 291.488V292.752ZM135.324 296.656C135.58 296.155 135.942 295.765 136.412 295.488C136.892 295.211 137.473 295.072 138.156 295.072V296.576H137.772C136.14 296.576 135.324 297.461 135.324 299.232V304H133.868V295.232H135.324V296.656ZM140.268 293.808C139.991 293.808 139.756 293.712 139.564 293.52C139.372 293.328 139.276 293.093 139.276 292.816C139.276 292.539 139.372 292.304 139.564 292.112C139.756 291.92 139.991 291.824 140.268 291.824C140.535 291.824 140.759 291.92 140.94 292.112C141.132 292.304 141.228 292.539 141.228 292.816C141.228 293.093 141.132 293.328 140.94 293.52C140.759 293.712 140.535 293.808 140.268 293.808ZM140.972 295.232V304H139.516V295.232H140.972ZM142.59 299.584C142.59 298.688 142.771 297.904 143.134 297.232C143.497 296.549 143.993 296.021 144.622 295.648C145.262 295.275 145.971 295.088 146.75 295.088C147.518 295.088 148.185 295.253 148.75 295.584C149.315 295.915 149.737 296.331 150.014 296.832V295.232H151.486V304H150.014V302.368C149.726 302.88 149.294 303.307 148.718 303.648C148.153 303.979 147.491 304.144 146.734 304.144C145.955 304.144 145.251 303.952 144.622 303.568C143.993 303.184 143.497 302.645 143.134 301.952C142.771 301.259 142.59 300.469 142.59 299.584ZM150.014 299.6C150.014 298.939 149.881 298.363 149.614 297.872C149.347 297.381 148.985 297.008 148.526 296.752C148.078 296.485 147.582 296.352 147.038 296.352C146.494 296.352 145.998 296.48 145.55 296.736C145.102 296.992 144.745 297.365 144.478 297.856C144.211 298.347 144.078 298.923 144.078 299.584C144.078 300.256 144.211 300.843 144.478 301.344C144.745 301.835 145.102 302.213 145.55 302.48C145.998 302.736 146.494 302.864 147.038 302.864C147.582 302.864 148.078 302.736 148.526 302.48C148.985 302.213 149.347 301.835 149.614 301.344C149.881 300.843 150.014 300.261 150.014 299.6ZM156.73 304.144C156.058 304.144 155.456 304.032 154.922 303.808C154.389 303.573 153.968 303.253 153.658 302.848C153.349 302.432 153.178 301.957 153.146 301.424H154.65C154.693 301.861 154.896 302.219 155.258 302.496C155.632 302.773 156.117 302.912 156.714 302.912C157.269 302.912 157.706 302.789 158.026 302.544C158.346 302.299 158.506 301.989 158.506 301.616C158.506 301.232 158.336 300.949 157.994 300.768C157.653 300.576 157.125 300.389 156.41 300.208C155.76 300.037 155.226 299.867 154.81 299.696C154.405 299.515 154.053 299.253 153.754 298.912C153.466 298.56 153.322 298.101 153.322 297.536C153.322 297.088 153.456 296.677 153.722 296.304C153.989 295.931 154.368 295.637 154.858 295.424C155.349 295.2 155.909 295.088 156.538 295.088C157.509 295.088 158.293 295.333 158.89 295.824C159.488 296.315 159.808 296.987 159.85 297.84H158.394C158.362 297.381 158.176 297.013 157.834 296.736C157.504 296.459 157.056 296.32 156.49 296.32C155.968 296.32 155.552 296.432 155.242 296.656C154.933 296.88 154.778 297.173 154.778 297.536C154.778 297.824 154.869 298.064 155.05 298.256C155.242 298.437 155.477 298.587 155.754 298.704C156.042 298.811 156.437 298.933 156.938 299.072C157.568 299.243 158.08 299.413 158.474 299.584C158.869 299.744 159.205 299.989 159.482 300.32C159.77 300.651 159.92 301.083 159.93 301.616C159.93 302.096 159.797 302.528 159.53 302.912C159.264 303.296 158.885 303.6 158.394 303.824C157.914 304.037 157.36 304.144 156.73 304.144ZM167.067 296.848C167.355 296.347 167.782 295.931 168.347 295.6C168.923 295.259 169.59 295.088 170.347 295.088C171.126 295.088 171.83 295.275 172.459 295.648C173.099 296.021 173.601 296.549 173.963 297.232C174.326 297.904 174.507 298.688 174.507 299.584C174.507 300.469 174.326 301.259 173.963 301.952C173.601 302.645 173.099 303.184 172.459 303.568C171.83 303.952 171.126 304.144 170.347 304.144C169.601 304.144 168.939 303.979 168.363 303.648C167.798 303.307 167.366 302.885 167.067 302.384V308.16H165.611V295.232H167.067V296.848ZM173.019 299.584C173.019 298.923 172.886 298.347 172.619 297.856C172.353 297.365 171.99 296.992 171.531 296.736C171.083 296.48 170.587 296.352 170.043 296.352C169.51 296.352 169.014 296.485 168.555 296.752C168.107 297.008 167.745 297.387 167.467 297.888C167.201 298.379 167.067 298.949 167.067 299.6C167.067 300.261 167.201 300.843 167.467 301.344C167.745 301.835 168.107 302.213 168.555 302.48C169.014 302.736 169.51 302.864 170.043 302.864C170.587 302.864 171.083 302.736 171.531 302.48C171.99 302.213 172.353 301.835 172.619 301.344C172.886 300.843 173.019 300.256 173.019 299.584ZM175.56 299.584C175.56 298.688 175.741 297.904 176.104 297.232C176.467 296.549 176.963 296.021 177.592 295.648C178.232 295.275 178.941 295.088 179.72 295.088C180.488 295.088 181.155 295.253 181.72 295.584C182.285 295.915 182.707 296.331 182.984 296.832V295.232H184.456V304H182.984V302.368C182.696 302.88 182.264 303.307 181.688 303.648C181.123 303.979 180.461 304.144 179.704 304.144C178.925 304.144 178.221 303.952 177.592 303.568C176.963 303.184 176.467 302.645 176.104 301.952C175.741 301.259 175.56 300.469 175.56 299.584ZM182.984 299.6C182.984 298.939 182.851 298.363 182.584 297.872C182.317 297.381 181.955 297.008 181.496 296.752C181.048 296.485 180.552 296.352 180.008 296.352C179.464 296.352 178.968 296.48 178.52 296.736C178.072 296.992 177.715 297.365 177.448 297.856C177.181 298.347 177.048 298.923 177.048 299.584C177.048 300.256 177.181 300.843 177.448 301.344C177.715 301.835 178.072 302.213 178.52 302.48C178.968 302.736 179.464 302.864 180.008 302.864C180.552 302.864 181.048 302.736 181.496 302.48C181.955 302.213 182.317 301.835 182.584 301.344C182.851 300.843 182.984 300.261 182.984 299.6ZM188.052 296.656C188.308 296.155 188.671 295.765 189.14 295.488C189.62 295.211 190.202 295.072 190.884 295.072V296.576H190.5C188.868 296.576 188.052 297.461 188.052 299.232V304H186.596V295.232H188.052V296.656ZM191.701 299.584C191.701 298.688 191.882 297.904 192.245 297.232C192.608 296.549 193.104 296.021 193.733 295.648C194.373 295.275 195.082 295.088 195.861 295.088C196.629 295.088 197.296 295.253 197.861 295.584C198.426 295.915 198.848 296.331 199.125 296.832V295.232H200.597V304H199.125V302.368C198.837 302.88 198.405 303.307 197.829 303.648C197.264 303.979 196.602 304.144 195.845 304.144C195.066 304.144 194.362 303.952 193.733 303.568C193.104 303.184 192.608 302.645 192.245 301.952C191.882 301.259 191.701 300.469 191.701 299.584ZM199.125 299.6C199.125 298.939 198.992 298.363 198.725 297.872C198.458 297.381 198.096 297.008 197.637 296.752C197.189 296.485 196.693 296.352 196.149 296.352C195.605 296.352 195.109 296.48 194.661 296.736C194.213 296.992 193.856 297.365 193.589 297.856C193.322 298.347 193.189 298.923 193.189 299.584C193.189 300.256 193.322 300.843 193.589 301.344C193.856 301.835 194.213 302.213 194.661 302.48C195.109 302.736 195.605 302.864 196.149 302.864C196.693 302.864 197.189 302.736 197.637 302.48C198.096 302.213 198.458 301.835 198.725 301.344C198.992 300.843 199.125 300.261 199.125 299.6ZM206.139 299.584C206.139 298.688 206.321 297.904 206.683 297.232C207.046 296.549 207.542 296.021 208.171 295.648C208.811 295.275 209.521 295.088 210.299 295.088C211.067 295.088 211.734 295.253 212.299 295.584C212.865 295.915 213.286 296.331 213.563 296.832V295.232H215.035V304H213.563V302.368C213.275 302.88 212.843 303.307 212.267 303.648C211.702 303.979 211.041 304.144 210.283 304.144C209.505 304.144 208.801 303.952 208.171 303.568C207.542 303.184 207.046 302.645 206.683 301.952C206.321 301.259 206.139 300.469 206.139 299.584ZM213.563 299.6C213.563 298.939 213.43 298.363 213.163 297.872C212.897 297.381 212.534 297.008 212.075 296.752C211.627 296.485 211.131 296.352 210.587 296.352C210.043 296.352 209.547 296.48 209.099 296.736C208.651 296.992 208.294 297.365 208.027 297.856C207.761 298.347 207.627 298.923 207.627 299.584C207.627 300.256 207.761 300.843 208.027 301.344C208.294 301.835 208.651 302.213 209.099 302.48C209.547 302.736 210.043 302.864 210.587 302.864C211.131 302.864 211.627 302.736 212.075 302.48C212.534 302.213 212.897 301.835 213.163 301.344C213.43 300.843 213.563 300.261 213.563 299.6ZM56.688 320.848C56.976 320.347 57.4027 319.931 57.968 319.6C58.544 319.259 59.2107 319.088 59.968 319.088C60.7467 319.088 61.4507 319.275 62.08 319.648C62.72 320.021 63.2213 320.549 63.584 321.232C63.9467 321.904 64.128 322.688 64.128 323.584C64.128 324.469 63.9467 325.259 63.584 325.952C63.2213 326.645 62.72 327.184 62.08 327.568C61.4507 327.952 60.7467 328.144 59.968 328.144C59.2213 328.144 58.56 327.979 57.984 327.648C57.4187 327.307 56.9867 326.885 56.688 326.384V332.16H55.232V319.232H56.688V320.848ZM62.64 323.584C62.64 322.923 62.5067 322.347 62.24 321.856C61.9733 321.365 61.6107 320.992 61.152 320.736C60.704 320.48 60.208 320.352 59.664 320.352C59.1307 320.352 58.6347 320.485 58.176 320.752C57.728 321.008 57.3653 321.387 57.088 321.888C56.8213 322.379 56.688 322.949 56.688 323.6C56.688 324.261 56.8213 324.843 57.088 325.344C57.3653 325.835 57.728 326.213 58.176 326.48C58.6347 326.736 59.1307 326.864 59.664 326.864C60.208 326.864 60.704 326.736 61.152 326.48C61.6107 326.213 61.9733 325.835 62.24 325.344C62.5067 324.843 62.64 324.256 62.64 323.584ZM65.1805 323.584C65.1805 322.688 65.3618 321.904 65.7245 321.232C66.0872 320.549 66.5832 320.021 67.2125 319.648C67.8525 319.275 68.5618 319.088 69.3405 319.088C70.1085 319.088 70.7752 319.253 71.3405 319.584C71.9058 319.915 72.3272 320.331 72.6045 320.832V319.232H74.0765V328H72.6045V326.368C72.3165 326.88 71.8845 327.307 71.3085 327.648C70.7432 327.979 70.0818 328.144 69.3245 328.144C68.5458 328.144 67.8418 327.952 67.2125 327.568C66.5832 327.184 66.0872 326.645 65.7245 325.952C65.3618 325.259 65.1805 324.469 65.1805 323.584ZM72.6045 323.6C72.6045 322.939 72.4712 322.363 72.2045 321.872C71.9378 321.381 71.5752 321.008 71.1165 320.752C70.6685 320.485 70.1725 320.352 69.6285 320.352C69.0845 320.352 68.5885 320.48 68.1405 320.736C67.6925 320.992 67.3352 321.365 67.0685 321.856C66.8018 322.347 66.6685 322.923 66.6685 323.584C66.6685 324.256 66.8018 324.843 67.0685 325.344C67.3352 325.835 67.6925 326.213 68.1405 326.48C68.5885 326.736 69.0845 326.864 69.6285 326.864C70.1725 326.864 70.6685 326.736 71.1165 326.48C71.5752 326.213 71.9378 325.835 72.2045 325.344C72.4712 324.843 72.6045 324.261 72.6045 323.6ZM71.4685 316.752L68.0605 318.576V317.488L71.4685 315.488V316.752ZM79.833 319.088C80.5903 319.088 81.2517 319.253 81.817 319.584C82.393 319.915 82.8197 320.331 83.097 320.832V319.232H84.569V328.192C84.569 328.992 84.3983 329.701 84.057 330.32C83.7157 330.949 83.225 331.44 82.585 331.792C81.9557 332.144 81.2197 332.32 80.377 332.32C79.225 332.32 78.265 332.048 77.497 331.504C76.729 330.96 76.2757 330.219 76.137 329.28H77.577C77.737 329.813 78.0677 330.24 78.569 330.56C79.0703 330.891 79.673 331.056 80.377 331.056C81.177 331.056 81.8277 330.805 82.329 330.304C82.841 329.803 83.097 329.099 83.097 328.192V326.352C82.809 326.864 82.3823 327.291 81.817 327.632C81.2517 327.973 80.5903 328.144 79.833 328.144C79.0543 328.144 78.345 327.952 77.705 327.568C77.0757 327.184 76.5797 326.645 76.217 325.952C75.8543 325.259 75.673 324.469 75.673 323.584C75.673 322.688 75.8543 321.904 76.217 321.232C76.5797 320.549 77.0757 320.021 77.705 319.648C78.345 319.275 79.0543 319.088 79.833 319.088ZM83.097 323.6C83.097 322.939 82.9637 322.363 82.697 321.872C82.4303 321.381 82.0677 321.008 81.609 320.752C81.161 320.485 80.665 320.352 80.121 320.352C79.577 320.352 79.081 320.48 78.633 320.736C78.185 320.992 77.8277 321.365 77.561 321.856C77.2943 322.347 77.161 322.923 77.161 323.584C77.161 324.256 77.2943 324.843 77.561 325.344C77.8277 325.835 78.185 326.213 78.633 326.48C79.081 326.736 79.577 326.864 80.121 326.864C80.665 326.864 81.161 326.736 81.609 326.48C82.0677 326.213 82.4303 325.835 82.697 325.344C82.9637 324.843 83.097 324.261 83.097 323.6ZM87.4615 317.808C87.1842 317.808 86.9495 317.712 86.7575 317.52C86.5655 317.328 86.4695 317.093 86.4695 316.816C86.4695 316.539 86.5655 316.304 86.7575 316.112C86.9495 315.92 87.1842 315.824 87.4615 315.824C87.7282 315.824 87.9522 315.92 88.1335 316.112C88.3255 316.304 88.4215 316.539 88.4215 316.816C88.4215 317.093 88.3255 317.328 88.1335 317.52C87.9522 317.712 87.7282 317.808 87.4615 317.808ZM88.1655 319.232V328H86.7095V319.232H88.1655ZM94.599 319.072C95.6657 319.072 96.5297 319.397 97.191 320.048C97.8523 320.688 98.183 321.616 98.183 322.832V328H96.743V323.04C96.743 322.165 96.5243 321.499 96.087 321.04C95.6497 320.571 95.0523 320.336 94.295 320.336C93.527 320.336 92.9137 320.576 92.455 321.056C92.007 321.536 91.783 322.235 91.783 323.152V328H90.327V319.232H91.783V320.48C92.071 320.032 92.4603 319.685 92.951 319.44C93.4523 319.195 94.0017 319.072 94.599 319.072ZM99.6974 323.584C99.6974 322.688 99.8787 321.904 100.241 321.232C100.604 320.549 101.1 320.021 101.729 319.648C102.369 319.275 103.079 319.088 103.857 319.088C104.625 319.088 105.292 319.253 105.857 319.584C106.423 319.915 106.844 320.331 107.121 320.832V319.232H108.593V328H107.121V326.368C106.833 326.88 106.401 327.307 105.825 327.648C105.26 327.979 104.599 328.144 103.841 328.144C103.063 328.144 102.359 327.952 101.729 327.568C101.1 327.184 100.604 326.645 100.241 325.952C99.8787 325.259 99.6974 324.469 99.6974 323.584ZM107.121 323.6C107.121 322.939 106.988 322.363 106.721 321.872C106.455 321.381 106.092 321.008 105.633 320.752C105.185 320.485 104.689 320.352 104.145 320.352C103.601 320.352 103.105 320.48 102.657 320.736C102.209 320.992 101.852 321.365 101.585 321.856C101.319 322.347 101.185 322.923 101.185 323.584C101.185 324.256 101.319 324.843 101.585 325.344C101.852 325.835 102.209 326.213 102.657 326.48C103.105 326.736 103.601 326.864 104.145 326.864C104.689 326.864 105.185 326.736 105.633 326.48C106.092 326.213 106.455 325.835 106.721 325.344C106.988 324.843 107.121 324.261 107.121 323.6ZM111.198 328.096C110.921 328.096 110.686 328 110.494 327.808C110.302 327.616 110.206 327.381 110.206 327.104C110.206 326.827 110.302 326.592 110.494 326.4C110.686 326.208 110.921 326.112 111.198 326.112C111.465 326.112 111.689 326.208 111.87 326.4C112.062 326.592 112.158 326.827 112.158 327.104C112.158 327.381 112.062 327.616 111.87 327.808C111.689 328 111.465 328.096 111.198 328.096Z" fill="#363636"/>
<path d="M61.28 229V216.16H75.6V229H79.52V200.08H75.6V212.52H61.28V200.08H57.36V229H61.28ZM84.2272 203.68H92.9472V229H96.8672V203.68H105.547V200.08H84.2272V203.68ZM114.128 229V216.64C114.128 212.6 114.048 209.64 113.848 208.24L122.248 229H125.928L134.368 208.16C134.168 210.2 134.128 212.16 134.128 217.56V229H137.968V200.08H134.048L124.088 224.4L114.128 200.08H110.288V229H114.128ZM149.422 200.08H145.502V229H162.142V225.36H149.422V200.08Z" fill="#3C2A56"/>
<g clip-path="url(#clip0_20_85)">
<path d="M226.795 32.7366L216.082 153.18L167.928 166.578L119.907 153.199L109.205 32.7366H226.795Z" fill="#E44D26"/>
<path d="M168 156.337L206.911 145.511L216.065 42.5859H168V156.337Z" fill="#F16529"/>
<path d="M147.175 72.1347H168V57.3606H131.087L131.439 61.3242L135.057 102.038H168V87.2637H148.52L147.175 72.1347ZM150.493 109.425H135.715L137.777 132.623L167.932 141.024L168 141.005V125.634L167.935 125.651L151.541 121.208L150.493 109.425Z" fill="#EBEBEB"/>
<path d="M120.145 0H127.626V7.41785H134.47V0H141.952V22.4631H134.47V14.9412H127.627V22.4631H120.146L120.145 0ZM151.789 7.44931H145.204V0H165.86V7.44931H159.271V22.4631H151.79V7.44931H151.789ZM169.139 0H176.939L181.737 7.89295L186.531 0H194.335V22.4631H186.884V11.3292L181.737 19.316H181.608L176.458 11.3292V22.4631H169.139V0ZM198.058 0H205.541V15.0383H216.061V22.4631H198.057V0H198.058Z" fill="#FCFCFC"/>
<path d="M167.949 102.038H186.077L184.367 121.199L167.949 125.646V141.017L198.128 132.623L198.349 130.127L201.809 91.231L202.168 87.2637H167.949V102.038ZM167.949 72.0987V72.1347H203.507L203.802 68.8142L204.474 61.3242L204.825 57.3606H167.949V72.0987Z" fill="white"/>
</g>
<defs>
<filter id="filter0_d_20_85" x="0.488586" y="43.3211" width="341" height="360" filterUnits="userSpaceOnUse" color-interpolation-filters="sRGB">
<feFlood flood-opacity="0" result="BackgroundImageFix"/>
<feColorMatrix in="SourceAlpha" type="matrix" values="0 0 0 0 0 0 0 0 0 0 0 0 0 0 0 0 0 0 127 0" result="hardAlpha"/>
<feOffset dy="9"/>
<feGaussianBlur stdDeviation="13.5"/>
<feColorMatrix type="matrix" values="0 0 0 0 0 0 0 0 0 0 0 0 0 0 0 0 0 0 0.1 0"/>
<feBlend mode="normal" in2="BackgroundImageFix" result="effect1_dropShadow_20_85"/>
<feBlend mode="normal" in="SourceGraphic" in2="effect1_dropShadow_20_85" result="shape"/>
</filter>
<clipPath id="clip0_20_85">
<rect width="118" height="167" fill="white" transform="translate(109)"/>
</clipPath>
</defs>
</svg>
