<svg width="342" height="388" viewBox="0 0 342 388" fill="none" xmlns="http://www.w3.org/2000/svg">
<g filter="url(#filter0_d_36_103)">
<rect x="27.0748" y="45.9167" width="287" height="306" rx="20" fill="white"/>
</g>
<path d="M62.688 238.032V241.76H66.752V242.96H62.688V246.8H67.232V248H61.232V236.832H67.232V238.032H62.688ZM68.5711 243.584C68.5711 242.688 68.7525 241.904 69.1151 241.232C69.4778 240.549 69.9738 240.021 70.6031 239.648C71.2431 239.275 71.9578 239.088 72.7471 239.088C73.4298 239.088 74.0645 239.248 74.6511 239.568C75.2378 239.877 75.6858 240.288 75.9951 240.8V236.16H77.4671V248H75.9951V246.352C75.7071 246.875 75.2805 247.307 74.7151 247.648C74.1498 247.979 73.4885 248.144 72.7311 248.144C71.9525 248.144 71.2431 247.952 70.6031 247.568C69.9738 247.184 69.4778 246.645 69.1151 245.952C68.7525 245.259 68.5711 244.469 68.5711 243.584ZM75.9951 243.6C75.9951 242.939 75.8618 242.363 75.5951 241.872C75.3285 241.381 74.9658 241.008 74.5071 240.752C74.0591 240.485 73.5631 240.352 73.0191 240.352C72.4751 240.352 71.9791 240.48 71.5311 240.736C71.0831 240.992 70.7258 241.365 70.4591 241.856C70.1925 242.347 70.0591 242.923 70.0591 243.584C70.0591 244.256 70.1925 244.843 70.4591 245.344C70.7258 245.835 71.0831 246.213 71.5311 246.48C71.9791 246.736 72.4751 246.864 73.0191 246.864C73.5631 246.864 74.0591 246.736 74.5071 246.48C74.9658 246.213 75.3285 245.835 75.5951 245.344C75.8618 244.843 75.9951 244.261 75.9951 243.6ZM80.3596 237.808C80.0823 237.808 79.8476 237.712 79.6556 237.52C79.4636 237.328 79.3676 237.093 79.3676 236.816C79.3676 236.539 79.4636 236.304 79.6556 236.112C79.8476 235.92 80.0823 235.824 80.3596 235.824C80.6263 235.824 80.8503 235.92 81.0316 236.112C81.2236 236.304 81.3196 236.539 81.3196 236.816C81.3196 237.093 81.2236 237.328 81.0316 237.52C80.8503 237.712 80.6263 237.808 80.3596 237.808ZM81.0636 239.232V248H79.6076V239.232H81.0636ZM86.9531 246.912C87.5931 246.912 88.1265 246.763 88.5531 246.464C88.9798 246.165 89.2731 245.739 89.4331 245.184H91.0011C90.7878 246.016 90.3665 246.699 89.7371 247.232C89.1185 247.755 88.3398 248.053 87.4011 248.128V248.928C88.0305 248.917 88.5318 249.051 88.9051 249.328C89.2785 249.605 89.4651 250 89.4651 250.512C89.4651 251.013 89.2838 251.413 88.9211 251.712C88.5585 252.011 88.0891 252.16 87.5131 252.16H85.6731V251.216H87.2251C87.5771 251.216 87.8331 251.163 87.9931 251.056C88.1638 250.949 88.2491 250.768 88.2491 250.512C88.2491 250.267 88.1638 250.091 87.9931 249.984C87.8331 249.877 87.5771 249.824 87.2251 249.824H86.4251V248.112C85.6891 248.037 85.0385 247.808 84.4731 247.424C83.9078 247.029 83.4651 246.507 83.1451 245.856C82.8358 245.195 82.6811 244.443 82.6811 243.6C82.6811 242.693 82.8625 241.904 83.2251 241.232C83.5878 240.549 84.0891 240.021 84.7291 239.648C85.3798 239.275 86.1211 239.088 86.9531 239.088C88.0305 239.088 88.9158 239.349 89.6091 239.872C90.3131 240.395 90.7771 241.12 91.0011 242.048H89.4331C89.2838 241.515 88.9905 241.093 88.5531 240.784C88.1265 240.475 87.5931 240.32 86.9531 240.32C86.1211 240.32 85.4491 240.608 84.9371 241.184C84.4251 241.749 84.1691 242.555 84.1691 243.6C84.1691 244.656 84.4251 245.472 84.9371 246.048C85.4491 246.624 86.1211 246.912 86.9531 246.912ZM96.4479 248.144C95.6265 248.144 94.8799 247.957 94.2079 247.584C93.5465 247.211 93.0239 246.683 92.6399 246C92.2665 245.307 92.0799 244.507 92.0799 243.6C92.0799 242.704 92.2719 241.915 92.6559 241.232C93.0505 240.539 93.5839 240.011 94.2559 239.648C94.9279 239.275 95.6799 239.088 96.5119 239.088C97.3439 239.088 98.0959 239.275 98.7679 239.648C99.4399 240.011 99.9679 240.533 100.352 241.216C100.747 241.899 100.944 242.693 100.944 243.6C100.944 244.507 100.741 245.307 100.336 246C99.9412 246.683 99.4025 247.211 98.7199 247.584C98.0372 247.957 97.2799 248.144 96.4479 248.144ZM96.4479 246.864C96.9705 246.864 97.4612 246.741 97.9199 246.496C98.3785 246.251 98.7465 245.883 99.0239 245.392C99.3119 244.901 99.4559 244.304 99.4559 243.6C99.4559 242.896 99.3172 242.299 99.0399 241.808C98.7625 241.317 98.3999 240.955 97.9519 240.72C97.5039 240.475 97.0185 240.352 96.4959 240.352C95.9625 240.352 95.4719 240.475 95.0239 240.72C94.5865 240.955 94.2345 241.317 93.9679 241.808C93.7012 242.299 93.5679 242.896 93.5679 243.6C93.5679 244.315 93.6959 244.917 93.9519 245.408C94.2185 245.899 94.5705 246.267 95.0079 246.512C95.4452 246.747 95.9252 246.864 96.4479 246.864ZM94.1759 238.176C94.2505 237.632 94.4265 237.216 94.7039 236.928C94.9919 236.64 95.3492 236.496 95.7759 236.496C95.9785 236.496 96.1492 236.533 96.2879 236.608C96.4372 236.672 96.6132 236.768 96.8159 236.896C96.9652 237.003 97.0985 237.088 97.2159 237.152C97.3332 237.205 97.4612 237.232 97.5999 237.232C97.7812 237.232 97.9359 237.173 98.0639 237.056C98.1919 236.939 98.2719 236.768 98.3039 236.544H99.1359C99.0719 237.077 98.8959 237.488 98.6079 237.776C98.3199 238.064 97.9625 238.208 97.5359 238.208C97.3332 238.208 97.1519 238.176 96.9919 238.112C96.8425 238.037 96.6719 237.931 96.4799 237.792C96.3092 237.685 96.1705 237.605 96.0639 237.552C95.9679 237.499 95.8505 237.472 95.7119 237.472C95.5305 237.472 95.3759 237.531 95.2479 237.648C95.1305 237.765 95.0559 237.941 95.0239 238.176H94.1759ZM110.538 243.28C110.538 243.557 110.522 243.851 110.49 244.16H103.482C103.536 245.024 103.829 245.701 104.362 246.192C104.906 246.672 105.562 246.912 106.33 246.912C106.96 246.912 107.482 246.768 107.898 246.48C108.325 246.181 108.624 245.787 108.794 245.296H110.362C110.128 246.139 109.658 246.827 108.954 247.36C108.25 247.883 107.376 248.144 106.33 248.144C105.498 248.144 104.752 247.957 104.09 247.584C103.44 247.211 102.928 246.683 102.554 246C102.181 245.307 101.994 244.507 101.994 243.6C101.994 242.693 102.176 241.899 102.538 241.216C102.901 240.533 103.408 240.011 104.058 239.648C104.72 239.275 105.477 239.088 106.33 239.088C107.162 239.088 107.898 239.269 108.538 239.632C109.178 239.995 109.669 240.496 110.01 241.136C110.362 241.765 110.538 242.48 110.538 243.28ZM109.034 242.976C109.034 242.421 108.912 241.947 108.666 241.552C108.421 241.147 108.085 240.843 107.658 240.64C107.242 240.427 106.778 240.32 106.266 240.32C105.53 240.32 104.901 240.555 104.378 241.024C103.866 241.493 103.573 242.144 103.498 242.976H109.034ZM115.244 248.144C114.572 248.144 113.969 248.032 113.436 247.808C112.903 247.573 112.481 247.253 112.172 246.848C111.863 246.432 111.692 245.957 111.66 245.424H113.164C113.207 245.861 113.409 246.219 113.772 246.496C114.145 246.773 114.631 246.912 115.228 246.912C115.783 246.912 116.22 246.789 116.54 246.544C116.86 246.299 117.02 245.989 117.02 245.616C117.02 245.232 116.849 244.949 116.508 244.768C116.167 244.576 115.639 244.389 114.924 244.208C114.273 244.037 113.74 243.867 113.324 243.696C112.919 243.515 112.567 243.253 112.268 242.912C111.98 242.56 111.836 242.101 111.836 241.536C111.836 241.088 111.969 240.677 112.236 240.304C112.503 239.931 112.881 239.637 113.372 239.424C113.863 239.2 114.423 239.088 115.052 239.088C116.023 239.088 116.807 239.333 117.404 239.824C118.001 240.315 118.321 240.987 118.364 241.84H116.908C116.876 241.381 116.689 241.013 116.348 240.736C116.017 240.459 115.569 240.32 115.004 240.32C114.481 240.32 114.065 240.432 113.756 240.656C113.447 240.88 113.292 241.173 113.292 241.536C113.292 241.824 113.383 242.064 113.564 242.256C113.756 242.437 113.991 242.587 114.268 242.704C114.556 242.811 114.951 242.933 115.452 243.072C116.081 243.243 116.593 243.413 116.988 243.584C117.383 243.744 117.719 243.989 117.996 244.32C118.284 244.651 118.433 245.083 118.444 245.616C118.444 246.096 118.311 246.528 118.044 246.912C117.777 247.296 117.399 247.6 116.908 247.824C116.428 248.037 115.873 248.144 115.244 248.144ZM123.581 243.584C123.581 242.688 123.762 241.904 124.125 241.232C124.488 240.549 124.984 240.021 125.613 239.648C126.253 239.275 126.968 239.088 127.757 239.088C128.44 239.088 129.074 239.248 129.661 239.568C130.248 239.877 130.696 240.288 131.005 240.8V236.16H132.477V248H131.005V246.352C130.717 246.875 130.29 247.307 129.725 247.648C129.16 247.979 128.498 248.144 127.741 248.144C126.962 248.144 126.253 247.952 125.613 247.568C124.984 247.184 124.488 246.645 124.125 245.952C123.762 245.259 123.581 244.469 123.581 243.584ZM131.005 243.6C131.005 242.939 130.872 242.363 130.605 241.872C130.338 241.381 129.976 241.008 129.517 240.752C129.069 240.485 128.573 240.352 128.029 240.352C127.485 240.352 126.989 240.48 126.541 240.736C126.093 240.992 125.736 241.365 125.469 241.856C125.202 242.347 125.069 242.923 125.069 243.584C125.069 244.256 125.202 244.843 125.469 245.344C125.736 245.835 126.093 246.213 126.541 246.48C126.989 246.736 127.485 246.864 128.029 246.864C128.573 246.864 129.069 246.736 129.517 246.48C129.976 246.213 130.338 245.835 130.605 245.344C130.872 244.843 131.005 244.261 131.005 243.6ZM138.442 248.144C137.62 248.144 136.874 247.957 136.202 247.584C135.54 247.211 135.018 246.683 134.634 246C134.26 245.307 134.074 244.507 134.074 243.6C134.074 242.704 134.266 241.915 134.65 241.232C135.044 240.539 135.578 240.011 136.25 239.648C136.922 239.275 137.674 239.088 138.506 239.088C139.338 239.088 140.09 239.275 140.762 239.648C141.434 240.011 141.962 240.533 142.346 241.216C142.74 241.899 142.938 242.693 142.938 243.6C142.938 244.507 142.735 245.307 142.33 246C141.935 246.683 141.396 247.211 140.714 247.584C140.031 247.957 139.274 248.144 138.442 248.144ZM138.442 246.864C138.964 246.864 139.455 246.741 139.914 246.496C140.372 246.251 140.74 245.883 141.018 245.392C141.306 244.901 141.45 244.304 141.45 243.6C141.45 242.896 141.311 242.299 141.034 241.808C140.756 241.317 140.394 240.955 139.946 240.72C139.498 240.475 139.012 240.352 138.49 240.352C137.956 240.352 137.466 240.475 137.018 240.72C136.58 240.955 136.228 241.317 135.962 241.808C135.695 242.299 135.562 242.896 135.562 243.6C135.562 244.315 135.69 244.917 135.946 245.408C136.212 245.899 136.564 246.267 137.002 246.512C137.439 246.747 137.919 246.864 138.442 246.864ZM147.636 248.144C146.964 248.144 146.361 248.032 145.828 247.808C145.295 247.573 144.873 247.253 144.564 246.848C144.255 246.432 144.084 245.957 144.052 245.424H145.556C145.599 245.861 145.801 246.219 146.164 246.496C146.537 246.773 147.023 246.912 147.62 246.912C148.175 246.912 148.612 246.789 148.932 246.544C149.252 246.299 149.412 245.989 149.412 245.616C149.412 245.232 149.241 244.949 148.9 244.768C148.559 244.576 148.031 244.389 147.316 244.208C146.665 244.037 146.132 243.867 145.716 243.696C145.311 243.515 144.959 243.253 144.66 242.912C144.372 242.56 144.228 242.101 144.228 241.536C144.228 241.088 144.361 240.677 144.628 240.304C144.895 239.931 145.273 239.637 145.764 239.424C146.255 239.2 146.815 239.088 147.444 239.088C148.415 239.088 149.199 239.333 149.796 239.824C150.393 240.315 150.713 240.987 150.756 241.84H149.3C149.268 241.381 149.081 241.013 148.74 240.736C148.409 240.459 147.961 240.32 147.396 240.32C146.873 240.32 146.457 240.432 146.148 240.656C145.839 240.88 145.684 241.173 145.684 241.536C145.684 241.824 145.775 242.064 145.956 242.256C146.148 242.437 146.383 242.587 146.66 242.704C146.948 242.811 147.343 242.933 147.844 243.072C148.473 243.243 148.985 243.413 149.38 243.584C149.775 243.744 150.111 243.989 150.388 244.32C150.676 244.651 150.825 245.083 150.836 245.616C150.836 246.096 150.703 246.528 150.436 246.912C150.169 247.296 149.791 247.6 149.3 247.824C148.82 248.037 148.265 248.144 147.636 248.144ZM155.973 243.6C155.973 242.693 156.154 241.904 156.517 241.232C156.88 240.549 157.381 240.021 158.021 239.648C158.672 239.275 159.413 239.088 160.245 239.088C161.322 239.088 162.208 239.349 162.901 239.872C163.605 240.395 164.069 241.12 164.293 242.048H162.725C162.576 241.515 162.282 241.093 161.845 240.784C161.418 240.475 160.885 240.32 160.245 240.32C159.413 240.32 158.741 240.608 158.229 241.184C157.717 241.749 157.461 242.555 157.461 243.6C157.461 244.656 157.717 245.472 158.229 246.048C158.741 246.624 159.413 246.912 160.245 246.912C160.885 246.912 161.418 246.763 161.845 246.464C162.272 246.165 162.565 245.739 162.725 245.184H164.293C164.058 246.08 163.589 246.8 162.885 247.344C162.181 247.877 161.301 248.144 160.245 248.144C159.413 248.144 158.672 247.957 158.021 247.584C157.381 247.211 156.88 246.683 156.517 246C156.154 245.317 155.973 244.517 155.973 243.6ZM169.74 248.144C168.918 248.144 168.172 247.957 167.5 247.584C166.838 247.211 166.316 246.683 165.932 246C165.558 245.307 165.372 244.507 165.372 243.6C165.372 242.704 165.564 241.915 165.948 241.232C166.342 240.539 166.876 240.011 167.548 239.648C168.22 239.275 168.972 239.088 169.804 239.088C170.636 239.088 171.388 239.275 172.06 239.648C172.732 240.011 173.26 240.533 173.644 241.216C174.038 241.899 174.236 242.693 174.236 243.6C174.236 244.507 174.033 245.307 173.628 246C173.233 246.683 172.694 247.211 172.012 247.584C171.329 247.957 170.572 248.144 169.74 248.144ZM169.74 246.864C170.262 246.864 170.753 246.741 171.212 246.496C171.67 246.251 172.038 245.883 172.316 245.392C172.604 244.901 172.748 244.304 172.748 243.6C172.748 242.896 172.609 242.299 172.332 241.808C172.054 241.317 171.692 240.955 171.244 240.72C170.796 240.475 170.31 240.352 169.788 240.352C169.254 240.352 168.764 240.475 168.316 240.72C167.878 240.955 167.526 241.317 167.26 241.808C166.993 242.299 166.86 242.896 166.86 243.6C166.86 244.315 166.988 244.917 167.244 245.408C167.51 245.899 167.862 246.267 168.3 246.512C168.737 246.747 169.217 246.864 169.74 246.864ZM171.372 236.64L167.964 238.464V237.376L171.372 235.376V236.64ZM175.286 243.584C175.286 242.688 175.467 241.904 175.83 241.232C176.193 240.549 176.689 240.021 177.318 239.648C177.958 239.275 178.673 239.088 179.462 239.088C180.145 239.088 180.779 239.248 181.366 239.568C181.953 239.877 182.401 240.288 182.71 240.8V236.16H184.182V248H182.71V246.352C182.422 246.875 181.995 247.307 181.43 247.648C180.865 247.979 180.203 248.144 179.446 248.144C178.667 248.144 177.958 247.952 177.318 247.568C176.689 247.184 176.193 246.645 175.83 245.952C175.467 245.259 175.286 244.469 175.286 243.584ZM182.71 243.6C182.71 242.939 182.577 242.363 182.31 241.872C182.043 241.381 181.681 241.008 181.222 240.752C180.774 240.485 180.278 240.352 179.734 240.352C179.19 240.352 178.694 240.48 178.246 240.736C177.798 240.992 177.441 241.365 177.174 241.856C176.907 242.347 176.774 242.923 176.774 243.584C176.774 244.256 176.907 244.843 177.174 245.344C177.441 245.835 177.798 246.213 178.246 246.48C178.694 246.736 179.19 246.864 179.734 246.864C180.278 246.864 180.774 246.736 181.222 246.48C181.681 246.213 182.043 245.835 182.31 245.344C182.577 244.843 182.71 244.261 182.71 243.6ZM187.075 237.808C186.797 237.808 186.563 237.712 186.371 237.52C186.179 237.328 186.083 237.093 186.083 236.816C186.083 236.539 186.179 236.304 186.371 236.112C186.563 235.92 186.797 235.824 187.075 235.824C187.341 235.824 187.565 235.92 187.747 236.112C187.939 236.304 188.035 236.539 188.035 236.816C188.035 237.093 187.939 237.328 187.747 237.52C187.565 237.712 187.341 237.808 187.075 237.808ZM187.779 239.232V248H186.323V239.232H187.779ZM193.556 239.088C194.313 239.088 194.975 239.253 195.54 239.584C196.116 239.915 196.543 240.331 196.82 240.832V239.232H198.292V248.192C198.292 248.992 198.121 249.701 197.78 250.32C197.439 250.949 196.948 251.44 196.308 251.792C195.679 252.144 194.943 252.32 194.1 252.32C192.948 252.32 191.988 252.048 191.22 251.504C190.452 250.96 189.999 250.219 189.86 249.28H191.3C191.46 249.813 191.791 250.24 192.292 250.56C192.793 250.891 193.396 251.056 194.1 251.056C194.9 251.056 195.551 250.805 196.052 250.304C196.564 249.803 196.82 249.099 196.82 248.192V246.352C196.532 246.864 196.105 247.291 195.54 247.632C194.975 247.973 194.313 248.144 193.556 248.144C192.777 248.144 192.068 247.952 191.428 247.568C190.799 247.184 190.303 246.645 189.94 245.952C189.577 245.259 189.396 244.469 189.396 243.584C189.396 242.688 189.577 241.904 189.94 241.232C190.303 240.549 190.799 240.021 191.428 239.648C192.068 239.275 192.777 239.088 193.556 239.088ZM196.82 243.6C196.82 242.939 196.687 242.363 196.42 241.872C196.153 241.381 195.791 241.008 195.332 240.752C194.884 240.485 194.388 240.352 193.844 240.352C193.3 240.352 192.804 240.48 192.356 240.736C191.908 240.992 191.551 241.365 191.284 241.856C191.017 242.347 190.884 242.923 190.884 243.584C190.884 244.256 191.017 244.843 191.284 245.344C191.551 245.835 191.908 246.213 192.356 246.48C192.804 246.736 193.3 246.864 193.844 246.864C194.388 246.864 194.884 246.736 195.332 246.48C195.791 246.213 196.153 245.835 196.42 245.344C196.687 244.843 196.82 244.261 196.82 243.6ZM204.257 248.144C203.435 248.144 202.689 247.957 202.017 247.584C201.355 247.211 200.833 246.683 200.449 246C200.075 245.307 199.889 244.507 199.889 243.6C199.889 242.704 200.081 241.915 200.465 241.232C200.859 240.539 201.393 240.011 202.065 239.648C202.737 239.275 203.489 239.088 204.321 239.088C205.153 239.088 205.905 239.275 206.577 239.648C207.249 240.011 207.777 240.533 208.161 241.216C208.555 241.899 208.753 242.693 208.753 243.6C208.753 244.507 208.55 245.307 208.145 246C207.75 246.683 207.211 247.211 206.529 247.584C205.846 247.957 205.089 248.144 204.257 248.144ZM204.257 246.864C204.779 246.864 205.27 246.741 205.729 246.496C206.187 246.251 206.555 245.883 206.833 245.392C207.121 244.901 207.265 244.304 207.265 243.6C207.265 242.896 207.126 242.299 206.849 241.808C206.571 241.317 206.209 240.955 205.761 240.72C205.313 240.475 204.827 240.352 204.305 240.352C203.771 240.352 203.281 240.475 202.833 240.72C202.395 240.955 202.043 241.317 201.777 241.808C201.51 242.299 201.377 242.896 201.377 243.6C201.377 244.315 201.505 244.917 201.761 245.408C202.027 245.899 202.379 246.267 202.817 246.512C203.254 246.747 203.734 246.864 204.257 246.864ZM213.451 248.144C212.779 248.144 212.176 248.032 211.643 247.808C211.11 247.573 210.688 247.253 210.379 246.848C210.07 246.432 209.899 245.957 209.867 245.424H211.371C211.414 245.861 211.616 246.219 211.979 246.496C212.352 246.773 212.838 246.912 213.435 246.912C213.99 246.912 214.427 246.789 214.747 246.544C215.067 246.299 215.227 245.989 215.227 245.616C215.227 245.232 215.056 244.949 214.715 244.768C214.374 244.576 213.846 244.389 213.131 244.208C212.48 244.037 211.947 243.867 211.531 243.696C211.126 243.515 210.774 243.253 210.475 242.912C210.187 242.56 210.043 242.101 210.043 241.536C210.043 241.088 210.176 240.677 210.443 240.304C210.71 239.931 211.088 239.637 211.579 239.424C212.07 239.2 212.63 239.088 213.259 239.088C214.23 239.088 215.014 239.333 215.611 239.824C216.208 240.315 216.528 240.987 216.571 241.84H215.115C215.083 241.381 214.896 241.013 214.555 240.736C214.224 240.459 213.776 240.32 213.211 240.32C212.688 240.32 212.272 240.432 211.963 240.656C211.654 240.88 211.499 241.173 211.499 241.536C211.499 241.824 211.59 242.064 211.771 242.256C211.963 242.437 212.198 242.587 212.475 242.704C212.763 242.811 213.158 242.933 213.659 243.072C214.288 243.243 214.8 243.413 215.195 243.584C215.59 243.744 215.926 243.989 216.203 244.32C216.491 244.651 216.64 245.083 216.651 245.616C216.651 246.096 216.518 246.528 216.251 246.912C215.984 247.296 215.606 247.6 215.115 247.824C214.635 248.037 214.08 248.144 213.451 248.144ZM221.788 243.6C221.788 242.693 221.969 241.904 222.332 241.232C222.695 240.549 223.196 240.021 223.836 239.648C224.487 239.275 225.228 239.088 226.06 239.088C227.137 239.088 228.023 239.349 228.716 239.872C229.42 240.395 229.884 241.12 230.108 242.048H228.54C228.391 241.515 228.097 241.093 227.66 240.784C227.233 240.475 226.7 240.32 226.06 240.32C225.228 240.32 224.556 240.608 224.044 241.184C223.532 241.749 223.276 242.555 223.276 243.6C223.276 244.656 223.532 245.472 224.044 246.048C224.556 246.624 225.228 246.912 226.06 246.912C226.7 246.912 227.233 246.763 227.66 246.464C228.087 246.165 228.38 245.739 228.54 245.184H230.108C229.873 246.08 229.404 246.8 228.7 247.344C227.996 247.877 227.116 248.144 226.06 248.144C225.228 248.144 224.487 247.957 223.836 247.584C223.196 247.211 222.695 246.683 222.332 246C221.969 245.317 221.788 244.517 221.788 243.6ZM235.555 248.144C234.733 248.144 233.987 247.957 233.315 247.584C232.653 247.211 232.131 246.683 231.747 246C231.373 245.307 231.187 244.507 231.187 243.6C231.187 242.704 231.379 241.915 231.763 241.232C232.157 240.539 232.691 240.011 233.363 239.648C234.035 239.275 234.787 239.088 235.619 239.088C236.451 239.088 237.203 239.275 237.875 239.648C238.547 240.011 239.075 240.533 239.459 241.216C239.853 241.899 240.051 242.693 240.051 243.6C240.051 244.507 239.848 245.307 239.443 246C239.048 246.683 238.509 247.211 237.827 247.584C237.144 247.957 236.387 248.144 235.555 248.144ZM235.555 246.864C236.077 246.864 236.568 246.741 237.027 246.496C237.485 246.251 237.853 245.883 238.131 245.392C238.419 244.901 238.563 244.304 238.563 243.6C238.563 242.896 238.424 242.299 238.147 241.808C237.869 241.317 237.507 240.955 237.059 240.72C236.611 240.475 236.125 240.352 235.603 240.352C235.069 240.352 234.579 240.475 234.131 240.72C233.693 240.955 233.341 241.317 233.075 241.808C232.808 242.299 232.675 242.896 232.675 243.6C232.675 244.315 232.803 244.917 233.059 245.408C233.325 245.899 233.677 246.267 234.115 246.512C234.552 246.747 235.032 246.864 235.555 246.864ZM252.189 239.072C252.872 239.072 253.48 239.216 254.013 239.504C254.546 239.781 254.968 240.203 255.277 240.768C255.586 241.333 255.741 242.021 255.741 242.832V248H254.301V243.04C254.301 242.165 254.082 241.499 253.645 241.04C253.218 240.571 252.637 240.336 251.901 240.336C251.144 240.336 250.541 240.581 250.093 241.072C249.645 241.552 249.421 242.251 249.421 243.168V248H247.981V243.04C247.981 242.165 247.762 241.499 247.325 241.04C246.898 240.571 246.317 240.336 245.581 240.336C244.824 240.336 244.221 240.581 243.773 241.072C243.325 241.552 243.101 242.251 243.101 243.168V248H241.645V239.232H243.101V240.496C243.389 240.037 243.773 239.685 244.253 239.44C244.744 239.195 245.282 239.072 245.869 239.072C246.605 239.072 247.256 239.237 247.821 239.568C248.386 239.899 248.808 240.384 249.085 241.024C249.33 240.405 249.736 239.925 250.301 239.584C250.866 239.243 251.496 239.072 252.189 239.072ZM70.448 260.848L66.24 272H64.56L60.352 260.848H61.904L65.408 270.464L68.912 260.848H70.448ZM72.4765 261.808C72.1992 261.808 71.9645 261.712 71.7725 261.52C71.5805 261.328 71.4845 261.093 71.4845 260.816C71.4845 260.539 71.5805 260.304 71.7725 260.112C71.9645 259.92 72.1992 259.824 72.4765 259.824C72.7432 259.824 72.9672 259.92 73.1485 260.112C73.3405 260.304 73.4365 260.539 73.4365 260.816C73.4365 261.093 73.3405 261.328 73.1485 261.52C72.9672 261.712 72.7432 261.808 72.4765 261.808ZM73.1805 263.232V272H71.7245V263.232H73.1805ZM78.446 272.144C77.774 272.144 77.1713 272.032 76.638 271.808C76.1047 271.573 75.6833 271.253 75.374 270.848C75.0647 270.432 74.894 269.957 74.862 269.424H76.366C76.4087 269.861 76.6113 270.219 76.974 270.496C77.3473 270.773 77.8327 270.912 78.43 270.912C78.9847 270.912 79.422 270.789 79.742 270.544C80.062 270.299 80.222 269.989 80.222 269.616C80.222 269.232 80.0513 268.949 79.71 268.768C79.3687 268.576 78.8407 268.389 78.126 268.208C77.4753 268.037 76.942 267.867 76.526 267.696C76.1207 267.515 75.7687 267.253 75.47 266.912C75.182 266.56 75.038 266.101 75.038 265.536C75.038 265.088 75.1713 264.677 75.438 264.304C75.7047 263.931 76.0833 263.637 76.574 263.424C77.0647 263.2 77.6247 263.088 78.254 263.088C79.2247 263.088 80.0087 263.333 80.606 263.824C81.2033 264.315 81.5233 264.987 81.566 265.84H80.11C80.078 265.381 79.8913 265.013 79.55 264.736C79.2193 264.459 78.7713 264.32 78.206 264.32C77.6833 264.32 77.2673 264.432 76.958 264.656C76.6487 264.88 76.494 265.173 76.494 265.536C76.494 265.824 76.5847 266.064 76.766 266.256C76.958 266.437 77.1927 266.587 77.47 266.704C77.758 266.811 78.1527 266.933 78.654 267.072C79.2833 267.243 79.7953 267.413 80.19 267.584C80.5847 267.744 80.9207 267.989 81.198 268.32C81.486 268.651 81.6353 269.083 81.646 269.616C81.646 270.096 81.5127 270.528 81.246 270.912C80.9793 271.296 80.6007 271.6 80.11 271.824C79.63 272.037 79.0753 272.144 78.446 272.144ZM91.1574 263.232V272H89.7014V270.704C89.424 271.152 89.0347 271.504 88.5334 271.76C88.0427 272.005 87.4987 272.128 86.9014 272.128C86.2187 272.128 85.6054 271.989 85.0614 271.712C84.5174 271.424 84.0854 270.997 83.7654 270.432C83.456 269.867 83.3014 269.179 83.3014 268.368V263.232H84.7414V268.176C84.7414 269.04 84.96 269.707 85.3974 270.176C85.8347 270.635 86.432 270.864 87.1894 270.864C87.968 270.864 88.5814 270.624 89.0294 270.144C89.4774 269.664 89.7014 268.965 89.7014 268.048V263.232H91.1574ZM92.7518 267.584C92.7518 266.688 92.9331 265.904 93.2958 265.232C93.6584 264.549 94.1544 264.021 94.7838 263.648C95.4238 263.275 96.1331 263.088 96.9118 263.088C97.6798 263.088 98.3464 263.253 98.9118 263.584C99.4771 263.915 99.8984 264.331 100.176 264.832V263.232H101.648V272H100.176V270.368C99.8878 270.88 99.4558 271.307 98.8798 271.648C98.3144 271.979 97.6531 272.144 96.8958 272.144C96.1171 272.144 95.4131 271.952 94.7838 271.568C94.1544 271.184 93.6584 270.645 93.2958 269.952C92.9331 269.259 92.7518 268.469 92.7518 267.584ZM100.176 267.6C100.176 266.939 100.042 266.363 99.7758 265.872C99.5091 265.381 99.1464 265.008 98.6878 264.752C98.2398 264.485 97.7438 264.352 97.1998 264.352C96.6558 264.352 96.1598 264.48 95.7118 264.736C95.2638 264.992 94.9064 265.365 94.6398 265.856C94.3731 266.347 94.2398 266.923 94.2398 267.584C94.2398 268.256 94.3731 268.843 94.6398 269.344C94.9064 269.835 95.2638 270.213 95.7118 270.48C96.1598 270.736 96.6558 270.864 97.1998 270.864C97.7438 270.864 98.2398 270.736 98.6878 270.48C99.1464 270.213 99.5091 269.835 99.7758 269.344C100.042 268.843 100.176 268.261 100.176 267.6ZM105.244 260.16V272H103.788V260.16H105.244ZM114.887 272.112C114.151 272.112 113.49 271.984 112.903 271.728C112.327 271.461 111.874 271.099 111.543 270.64C111.213 270.171 111.042 269.632 111.031 269.024H112.583C112.637 269.547 112.85 269.989 113.223 270.352C113.607 270.704 114.162 270.88 114.887 270.88C115.581 270.88 116.125 270.709 116.519 270.368C116.925 270.016 117.127 269.568 117.127 269.024C117.127 268.597 117.01 268.251 116.775 267.984C116.541 267.717 116.247 267.515 115.895 267.376C115.543 267.237 115.069 267.088 114.471 266.928C113.735 266.736 113.143 266.544 112.695 266.352C112.258 266.16 111.879 265.861 111.559 265.456C111.25 265.04 111.095 264.485 111.095 263.792C111.095 263.184 111.25 262.645 111.559 262.176C111.869 261.707 112.301 261.344 112.855 261.088C113.421 260.832 114.066 260.704 114.791 260.704C115.837 260.704 116.69 260.965 117.351 261.488C118.023 262.011 118.402 262.704 118.487 263.568H116.887C116.834 263.141 116.61 262.768 116.215 262.448C115.821 262.117 115.298 261.952 114.647 261.952C114.039 261.952 113.543 262.112 113.159 262.432C112.775 262.741 112.583 263.179 112.583 263.744C112.583 264.149 112.695 264.48 112.919 264.736C113.154 264.992 113.437 265.189 113.767 265.328C114.109 265.456 114.583 265.605 115.191 265.776C115.927 265.979 116.519 266.181 116.967 266.384C117.415 266.576 117.799 266.88 118.119 267.296C118.439 267.701 118.599 268.256 118.599 268.96C118.599 269.504 118.455 270.016 118.167 270.496C117.879 270.976 117.453 271.365 116.887 271.664C116.322 271.963 115.655 272.112 114.887 272.112ZM122.198 264.432V269.6C122.198 270.027 122.289 270.331 122.47 270.512C122.651 270.683 122.966 270.768 123.414 270.768H124.486V272H123.174C122.363 272 121.755 271.813 121.35 271.44C120.945 271.067 120.742 270.453 120.742 269.6V264.432H119.606V263.232H120.742V261.024H122.198V263.232H124.486V264.432H122.198ZM133.706 263.232V272H132.25V270.704C131.973 271.152 131.583 271.504 131.082 271.76C130.591 272.005 130.047 272.128 129.45 272.128C128.767 272.128 128.154 271.989 127.61 271.712C127.066 271.424 126.634 270.997 126.314 270.432C126.005 269.867 125.85 269.179 125.85 268.368V263.232H127.29V268.176C127.29 269.04 127.509 269.707 127.946 270.176C128.383 270.635 128.981 270.864 129.738 270.864C130.517 270.864 131.13 270.624 131.578 270.144C132.026 269.664 132.25 268.965 132.25 268.048V263.232H133.706ZM135.301 267.584C135.301 266.688 135.482 265.904 135.845 265.232C136.207 264.549 136.703 264.021 137.333 263.648C137.973 263.275 138.687 263.088 139.477 263.088C140.159 263.088 140.794 263.248 141.381 263.568C141.967 263.877 142.415 264.288 142.725 264.8V260.16H144.197V272H142.725V270.352C142.437 270.875 142.01 271.307 141.445 271.648C140.879 271.979 140.218 272.144 139.461 272.144C138.682 272.144 137.973 271.952 137.333 271.568C136.703 271.184 136.207 270.645 135.845 269.952C135.482 269.259 135.301 268.469 135.301 267.584ZM142.725 267.6C142.725 266.939 142.591 266.363 142.325 265.872C142.058 265.381 141.695 265.008 141.237 264.752C140.789 264.485 140.293 264.352 139.749 264.352C139.205 264.352 138.709 264.48 138.261 264.736C137.813 264.992 137.455 265.365 137.189 265.856C136.922 266.347 136.789 266.923 136.789 267.584C136.789 268.256 136.922 268.843 137.189 269.344C137.455 269.835 137.813 270.213 138.261 270.48C138.709 270.736 139.205 270.864 139.749 270.864C140.293 270.864 140.789 270.736 141.237 270.48C141.695 270.213 142.058 269.835 142.325 269.344C142.591 268.843 142.725 268.261 142.725 267.6ZM147.089 261.808C146.812 261.808 146.577 261.712 146.385 261.52C146.193 261.328 146.097 261.093 146.097 260.816C146.097 260.539 146.193 260.304 146.385 260.112C146.577 259.92 146.812 259.824 147.089 259.824C147.356 259.824 147.58 259.92 147.761 260.112C147.953 260.304 148.049 260.539 148.049 260.816C148.049 261.093 147.953 261.328 147.761 261.52C147.58 261.712 147.356 261.808 147.089 261.808ZM147.793 263.232V272H146.337V263.232H147.793ZM153.779 272.144C152.957 272.144 152.211 271.957 151.539 271.584C150.877 271.211 150.355 270.683 149.971 270C149.597 269.307 149.411 268.507 149.411 267.6C149.411 266.704 149.603 265.915 149.987 265.232C150.381 264.539 150.915 264.011 151.587 263.648C152.259 263.275 153.011 263.088 153.843 263.088C154.675 263.088 155.427 263.275 156.099 263.648C156.771 264.011 157.299 264.533 157.683 265.216C158.077 265.899 158.275 266.693 158.275 267.6C158.275 268.507 158.072 269.307 157.667 270C157.272 270.683 156.733 271.211 156.051 271.584C155.368 271.957 154.611 272.144 153.779 272.144ZM153.779 270.864C154.301 270.864 154.792 270.741 155.251 270.496C155.709 270.251 156.077 269.883 156.355 269.392C156.643 268.901 156.787 268.304 156.787 267.6C156.787 266.896 156.648 266.299 156.371 265.808C156.093 265.317 155.731 264.955 155.283 264.72C154.835 264.475 154.349 264.352 153.827 264.352C153.293 264.352 152.803 264.475 152.355 264.72C151.917 264.955 151.565 265.317 151.299 265.808C151.032 266.299 150.899 266.896 150.899 267.6C150.899 268.315 151.027 268.917 151.283 269.408C151.549 269.899 151.901 270.267 152.339 270.512C152.776 270.747 153.256 270.864 153.779 270.864ZM163.27 266.416C163.27 265.328 163.516 264.352 164.006 263.488C164.497 262.613 165.164 261.931 166.006 261.44C166.86 260.949 167.804 260.704 168.838 260.704C170.054 260.704 171.116 260.997 172.022 261.584C172.929 262.171 173.59 263.003 174.006 264.08H172.262C171.953 263.408 171.505 262.891 170.918 262.528C170.342 262.165 169.649 261.984 168.838 261.984C168.06 261.984 167.361 262.165 166.742 262.528C166.124 262.891 165.638 263.408 165.286 264.08C164.934 264.741 164.758 265.52 164.758 266.416C164.758 267.301 164.934 268.08 165.286 268.752C165.638 269.413 166.124 269.925 166.742 270.288C167.361 270.651 168.06 270.832 168.838 270.832C169.649 270.832 170.342 270.656 170.918 270.304C171.505 269.941 171.953 269.424 172.262 268.752H174.006C173.59 269.819 172.929 270.645 172.022 271.232C171.116 271.808 170.054 272.096 168.838 272.096C167.804 272.096 166.86 271.856 166.006 271.376C165.164 270.885 164.497 270.208 164.006 269.344C163.516 268.48 163.27 267.504 163.27 266.416ZM179.678 272.144C178.857 272.144 178.11 271.957 177.438 271.584C176.777 271.211 176.254 270.683 175.87 270C175.497 269.307 175.31 268.507 175.31 267.6C175.31 266.704 175.502 265.915 175.886 265.232C176.281 264.539 176.814 264.011 177.486 263.648C178.158 263.275 178.91 263.088 179.742 263.088C180.574 263.088 181.326 263.275 181.998 263.648C182.67 264.011 183.198 264.533 183.582 265.216C183.977 265.899 184.174 266.693 184.174 267.6C184.174 268.507 183.971 269.307 183.566 270C183.171 270.683 182.633 271.211 181.95 271.584C181.267 271.957 180.51 272.144 179.678 272.144ZM179.678 270.864C180.201 270.864 180.691 270.741 181.15 270.496C181.609 270.251 181.977 269.883 182.254 269.392C182.542 268.901 182.686 268.304 182.686 267.6C182.686 266.896 182.547 266.299 182.27 265.808C181.993 265.317 181.63 264.955 181.182 264.72C180.734 264.475 180.249 264.352 179.726 264.352C179.193 264.352 178.702 264.475 178.254 264.72C177.817 264.955 177.465 265.317 177.198 265.808C176.931 266.299 176.798 266.896 176.798 267.6C176.798 268.315 176.926 268.917 177.182 269.408C177.449 269.899 177.801 270.267 178.238 270.512C178.675 270.747 179.155 270.864 179.678 270.864ZM185.224 267.584C185.224 266.688 185.406 265.904 185.768 265.232C186.131 264.549 186.627 264.021 187.256 263.648C187.896 263.275 188.611 263.088 189.4 263.088C190.083 263.088 190.718 263.248 191.304 263.568C191.891 263.877 192.339 264.288 192.648 264.8V260.16H194.12V272H192.648V270.352C192.36 270.875 191.934 271.307 191.368 271.648C190.803 271.979 190.142 272.144 189.384 272.144C188.606 272.144 187.896 271.952 187.256 271.568C186.627 271.184 186.131 270.645 185.768 269.952C185.406 269.259 185.224 268.469 185.224 267.584ZM192.648 267.6C192.648 266.939 192.515 266.363 192.248 265.872C191.982 265.381 191.619 265.008 191.16 264.752C190.712 264.485 190.216 264.352 189.672 264.352C189.128 264.352 188.632 264.48 188.184 264.736C187.736 264.992 187.379 265.365 187.112 265.856C186.846 266.347 186.712 266.923 186.712 267.584C186.712 268.256 186.846 268.843 187.112 269.344C187.379 269.835 187.736 270.213 188.184 270.48C188.632 270.736 189.128 270.864 189.672 270.864C190.216 270.864 190.712 270.736 191.16 270.48C191.619 270.213 191.982 269.835 192.248 269.344C192.515 268.843 192.648 268.261 192.648 267.6ZM204.261 267.28C204.261 267.557 204.245 267.851 204.213 268.16H197.205C197.258 269.024 197.551 269.701 198.085 270.192C198.629 270.672 199.285 270.912 200.053 270.912C200.682 270.912 201.205 270.768 201.621 270.48C202.047 270.181 202.346 269.787 202.517 269.296H204.085C203.85 270.139 203.381 270.827 202.677 271.36C201.973 271.883 201.098 272.144 200.053 272.144C199.221 272.144 198.474 271.957 197.813 271.584C197.162 271.211 196.65 270.683 196.277 270C195.903 269.307 195.717 268.507 195.717 267.6C195.717 266.693 195.898 265.899 196.261 265.216C196.623 264.533 197.13 264.011 197.781 263.648C198.442 263.275 199.199 263.088 200.053 263.088C200.885 263.088 201.621 263.269 202.261 263.632C202.901 263.995 203.391 264.496 203.733 265.136C204.085 265.765 204.261 266.48 204.261 267.28ZM202.757 266.976C202.757 266.421 202.634 265.947 202.389 265.552C202.143 265.147 201.807 264.843 201.381 264.64C200.965 264.427 200.501 264.32 199.989 264.32C199.253 264.32 198.623 264.555 198.101 265.024C197.589 265.493 197.295 266.144 197.221 266.976H202.757ZM206.327 272.096C206.049 272.096 205.815 272 205.623 271.808C205.431 271.616 205.335 271.381 205.335 271.104C205.335 270.827 205.431 270.592 205.623 270.4C205.815 270.208 206.049 270.112 206.327 270.112C206.593 270.112 206.817 270.208 206.999 270.4C207.191 270.592 207.287 270.827 207.287 271.104C207.287 271.381 207.191 271.616 206.999 271.808C206.817 272 206.593 272.096 206.327 272.096Z" fill="#363636"/>
<path d="M69.4 191H73.48L84.36 162.08H80.28L73.28 180.52C72.8 181.8 72.12 183.72 71.44 186C70.84 183.84 70.28 182.2 69.64 180.56L62.6 162.08H58.4L69.4 191ZM87.0816 169.88C87.0816 174.04 89.5216 176.76 94.2416 177.84L99.0016 178.92C101.762 179.56 103.002 181 103.002 183.28C103.002 186.16 100.562 187.96 96.7216 187.96C93.0816 187.96 90.7616 186.2 90.6816 183.44H86.6816C86.9216 188.4 90.8416 191.48 96.7216 191.48C102.882 191.48 106.922 188.16 106.922 182.96C106.922 178.88 104.522 176.32 99.8016 175.24L95.0416 174.12C92.3216 173.48 91.0016 172.08 91.0016 169.76C91.0016 166.92 93.3616 165.08 97.0016 165.08C100.242 165.08 102.282 166.76 102.482 169.64H106.442C106.122 164.64 102.562 161.56 97.0416 161.56C91.0816 161.56 87.0816 164.92 87.0816 169.88ZM124.647 191.44C131.168 191.44 136.328 187.6 137.567 181.84H133.408C132.327 185.4 128.967 187.68 124.727 187.68C118.887 187.68 115.047 183.28 115.047 176.52C115.047 169.76 118.887 165.36 124.727 165.36C128.927 165.36 132.167 167.64 133.247 171.4H137.448C136.368 165.48 131.368 161.6 124.847 161.6C116.567 161.6 110.927 167.64 110.927 176.56C110.927 185.52 116.407 191.44 124.647 191.44ZM141.254 181.2C141.254 187.24 145.574 191.48 151.454 191.48C157.294 191.48 161.614 187.24 161.614 181.2C161.614 175.16 157.294 170.92 151.454 170.92C145.574 170.92 141.254 175.16 141.254 181.2ZM145.054 181.2C145.054 177.12 147.654 174.28 151.454 174.28C155.214 174.28 157.854 177.12 157.854 181.2C157.854 185.28 155.214 188.12 151.454 188.12C147.654 188.12 145.054 185.28 145.054 181.2ZM174.416 191.48C177.536 191.48 180.176 190.12 181.456 187.44L181.776 191H185.136V161.56H181.416V174.6C180.096 172.2 177.576 170.88 174.576 170.88C168.776 170.88 165.296 175.28 165.296 181.28C165.296 187.24 168.736 191.48 174.416 191.48ZM175.176 188.08C171.336 188.08 169.096 185.2 169.096 181.16C169.096 177.16 171.336 174.28 175.176 174.28C179.016 174.28 181.376 177.16 181.376 181.16C181.376 185.24 179.016 188.08 175.176 188.08ZM199.801 191.48C204.641 191.48 207.921 189.12 208.881 184.92H205.361C204.721 187.16 202.801 188.36 199.881 188.36C196.161 188.36 194.001 186.08 193.721 181.96L208.841 181.92V180.52C208.841 174.72 205.201 170.88 199.641 170.88C193.961 170.88 190.081 175.12 190.081 181.24C190.081 187.32 194.041 191.48 199.801 191.48ZM199.641 174.04C202.961 174.04 205.081 176.2 205.081 179.44H193.801C194.281 176 196.361 174.04 199.641 174.04Z" fill="#3C2A56"/>
<g clip-path="url(#clip0_36_103)">
<path d="M205.297 0H135.703C118.746 0 105 13.7463 105 30.7031V100.297C105 117.254 118.746 131 135.703 131H205.297C222.254 131 236 117.254 236 100.297V30.7031C236 13.7463 222.254 0 205.297 0Z" fill="#242938"/>
<path d="M122.253 51.2783C122.253 51.2783 119.83 49.5318 122.738 47.1999L129.511 41.1432C129.511 41.1432 131.449 39.104 133.498 40.8807L196.004 88.2039V110.897C196.004 110.897 195.974 114.46 191.401 114.066L122.253 51.2783Z" fill="#2489CA"/>
<path d="M138.364 65.9053L122.253 80.5522C122.253 80.5522 120.597 81.7839 122.253 83.9848L129.733 90.7881C129.733 90.7881 131.51 92.6963 134.134 90.5256L151.214 77.5745L138.364 65.9053Z" fill="#1070B3"/>
<path d="M166.649 66.0266L196.196 43.4649L196.004 20.8935C196.004 20.8935 194.742 15.9672 190.533 18.5314L151.214 54.3164L166.649 66.0266Z" fill="#0877B9"/>
<path d="M191.401 114.097C193.117 115.853 195.197 115.278 195.197 115.278L218.222 103.932C221.17 101.923 220.756 99.4295 220.756 99.4295V31.6744C220.756 28.6962 217.707 27.6671 217.707 27.6671L197.751 18.0468C193.39 15.3515 190.533 18.5314 190.533 18.5314C190.533 18.5314 194.207 15.8868 196.004 20.8935V110.483C196.007 111.094 195.872 111.697 195.611 112.25C195.086 113.309 193.945 114.299 191.209 113.885L191.401 114.097Z" fill="#3C99D4"/>
</g>
<defs>
<filter id="filter0_d_36_103" x="0.0748291" y="27.9167" width="341" height="360" filterUnits="userSpaceOnUse" color-interpolation-filters="sRGB">
<feFlood flood-opacity="0" result="BackgroundImageFix"/>
<feColorMatrix in="SourceAlpha" type="matrix" values="0 0 0 0 0 0 0 0 0 0 0 0 0 0 0 0 0 0 127 0" result="hardAlpha"/>
<feOffset dy="9"/>
<feGaussianBlur stdDeviation="13.5"/>
<feColorMatrix type="matrix" values="0 0 0 0 0 0 0 0 0 0 0 0 0 0 0 0 0 0 0.1 0"/>
<feBlend mode="normal" in2="BackgroundImageFix" result="effect1_dropShadow_36_103"/>
<feBlend mode="normal" in="SourceGraphic" in2="effect1_dropShadow_36_103" result="shape"/>
</filter>
<clipPath id="clip0_36_103">
<rect width="131" height="131" fill="white" transform="translate(105)"/>
</clipPath>
</defs>
</svg>
