<svg width="342" height="412" viewBox="0 0 342 412" fill="none" xmlns="http://www.w3.org/2000/svg">
<g filter="url(#filter0_d_92_524)">
<rect x="27.9172" y="69.5366" width="287" height="306" rx="20" fill="white"/>
</g>
<path d="M59.984 259.8L65.856 259.8C65.984 259.8 66.096 259.848 66.192 259.944C66.288 260.029 66.336 260.141 66.336 260.28C66.336 260.419 66.288 260.531 66.192 260.616C66.096 260.701 65.984 260.744 65.856 260.744L60.352 260.744L60.512 260.472L60.512 264.968L60.336 264.76L65.136 264.76C65.264 264.76 65.376 264.808 65.472 264.904C65.568 265 65.616 265.112 65.616 265.24C65.616 265.379 65.568 265.491 65.472 265.576C65.376 265.661 65.264 265.704 65.136 265.704L60.368 265.704L60.512 265.544L60.512 270.152L60.432 270.056L65.856 270.056C65.984 270.056 66.096 270.104 66.192 270.2C66.288 270.296 66.336 270.408 66.336 270.536C66.336 270.675 66.288 270.787 66.192 270.872C66.096 270.957 65.984 271 65.856 271L59.984 271C59.856 271 59.744 270.952 59.648 270.856C59.552 270.76 59.504 270.648 59.504 270.52L59.504 260.28C59.504 260.152 59.552 260.04 59.648 259.944C59.744 259.848 59.856 259.8 59.984 259.8ZM67.5738 269.704C67.4884 269.576 67.4458 269.453 67.4458 269.336C67.4564 269.208 67.5258 269.107 67.6538 269.032C67.7391 268.957 67.8351 268.925 67.9418 268.936C68.0591 268.947 68.1658 269 68.2618 269.096C68.5498 269.469 68.8964 269.773 69.3018 270.008C69.7178 270.232 70.2084 270.344 70.7738 270.344C71.0724 270.344 71.3658 270.296 71.6538 270.2C71.9524 270.093 72.1978 269.939 72.3898 269.736C72.5818 269.523 72.6778 269.256 72.6778 268.936C72.6778 268.605 72.5818 268.339 72.3898 268.136C72.1978 267.933 71.9471 267.773 71.6378 267.656C71.3391 267.539 71.0191 267.437 70.6778 267.352C70.3151 267.256 69.9631 267.149 69.6218 267.032C69.2804 266.904 68.9764 266.749 68.7098 266.568C68.4538 266.376 68.2458 266.147 68.0858 265.88C67.9258 265.613 67.8458 265.288 67.8458 264.904C67.8458 264.456 67.9684 264.061 68.2138 263.72C68.4591 263.379 68.7898 263.112 69.2058 262.92C69.6324 262.728 70.1124 262.632 70.6458 262.632C70.9124 262.632 71.2004 262.669 71.5098 262.744C71.8191 262.808 72.1231 262.92 72.4218 263.08C72.7204 263.24 72.9871 263.459 73.2218 263.736C73.3178 263.832 73.3658 263.944 73.3658 264.072C73.3658 264.189 73.3124 264.296 73.2058 264.392C73.1204 264.456 73.0191 264.488 72.9018 264.488C72.7951 264.488 72.7044 264.445 72.6298 264.36C72.3738 264.072 72.0698 263.853 71.7178 263.704C71.3658 263.555 70.9871 263.48 70.5818 263.48C70.2724 263.48 69.9791 263.533 69.7018 263.64C69.4351 263.736 69.2111 263.885 69.0298 264.088C68.8484 264.291 68.7578 264.557 68.7578 264.888C68.7791 265.197 68.8858 265.448 69.0778 265.64C69.2804 265.832 69.5418 265.992 69.8618 266.12C70.1924 266.248 70.5604 266.365 70.9658 266.472C71.3071 266.557 71.6324 266.659 71.9418 266.776C72.2618 266.893 72.5391 267.043 72.7738 267.224C73.0191 267.395 73.2111 267.613 73.3498 267.88C73.4991 268.147 73.5738 268.483 73.5738 268.888C73.5738 269.357 73.4404 269.763 73.1738 270.104C72.9178 270.445 72.5711 270.707 72.1338 270.888C71.6964 271.069 71.2111 271.16 70.6778 271.16C70.1018 271.16 69.5418 271.048 68.9978 270.824C68.4644 270.6 67.9898 270.227 67.5738 269.704ZM74.6897 262.856L78.4177 262.856C78.5457 262.856 78.6524 262.904 78.7378 263C78.8231 263.085 78.8657 263.192 78.8657 263.32C78.8657 263.437 78.8231 263.539 78.7378 263.624C78.6524 263.709 78.5457 263.752 78.4177 263.752L74.6897 263.752C74.5617 263.752 74.4497 263.709 74.3537 263.624C74.2684 263.528 74.2257 263.421 74.2257 263.304C74.2257 263.176 74.2684 263.069 74.3537 262.984C74.4497 262.899 74.5617 262.856 74.6897 262.856ZM76.3377 260.6C76.4764 260.6 76.5884 260.648 76.6737 260.744C76.7697 260.84 76.8177 260.952 76.8177 261.08L76.8177 269.112C76.8177 269.411 76.8551 269.635 76.9297 269.784C77.0151 269.933 77.1217 270.035 77.2497 270.088C77.3777 270.131 77.5057 270.152 77.6337 270.152C77.7191 270.152 77.7937 270.141 77.8577 270.12C77.9324 270.088 78.0124 270.072 78.0977 270.072C78.1937 270.072 78.2737 270.109 78.3377 270.184C78.4124 270.259 78.4497 270.355 78.4497 270.472C78.4497 270.621 78.3644 270.749 78.1937 270.856C78.0231 270.952 77.8204 271 77.5857 271C77.4897 271 77.3457 270.995 77.1537 270.984C76.9617 270.963 76.7644 270.904 76.5617 270.808C76.3591 270.701 76.1884 270.52 76.0497 270.264C75.9217 270.008 75.8577 269.64 75.8577 269.16L75.8577 261.08C75.8577 260.952 75.9004 260.84 75.9857 260.744C76.0817 260.648 76.1991 260.6 76.3377 260.6ZM81.2476 270.52C81.2476 270.648 81.1996 270.76 81.1036 270.856C81.0076 270.952 80.8956 271 80.7676 271C80.629 271 80.5116 270.952 80.4156 270.856C80.3303 270.76 80.2876 270.648 80.2876 270.52L80.2876 263.16C80.2876 263.032 80.3303 262.92 80.4156 262.824C80.5116 262.728 80.629 262.68 80.7676 262.68C80.9063 262.68 81.0183 262.728 81.1036 262.824C81.1996 262.92 81.2476 263.032 81.2476 263.16L81.2476 270.52ZM80.7676 261.608C80.5436 261.608 80.373 261.56 80.2556 261.464C80.149 261.357 80.0956 261.208 80.0956 261.016L80.0956 260.856C80.0956 260.664 80.1543 260.52 80.2716 260.424C80.3996 260.317 80.5703 260.264 80.7836 260.264C80.9863 260.264 81.141 260.317 81.2476 260.424C81.365 260.52 81.4236 260.664 81.4236 260.856L81.4236 261.016C81.4236 261.208 81.365 261.357 81.2476 261.464C81.141 261.56 80.981 261.608 80.7676 261.608ZM84.4775 270.52C84.4775 270.648 84.4295 270.76 84.3335 270.856C84.2375 270.952 84.1255 271 83.9975 271C83.8588 271 83.7415 270.952 83.6455 270.856C83.5602 270.76 83.5175 270.648 83.5175 270.52L83.5175 259.64C83.5175 259.512 83.5655 259.4 83.6615 259.304C83.7575 259.208 83.8695 259.16 83.9975 259.16C84.1362 259.16 84.2482 259.208 84.3335 259.304C84.4295 259.4 84.4775 259.512 84.4775 259.64L84.4775 270.52ZM87.717 270.52C87.717 270.648 87.669 270.76 87.573 270.856C87.477 270.952 87.365 271 87.237 271C87.0983 271 86.981 270.952 86.885 270.856C86.7997 270.76 86.757 270.648 86.757 270.52L86.757 263.16C86.757 263.032 86.7997 262.92 86.885 262.824C86.981 262.728 87.0983 262.68 87.237 262.68C87.3757 262.68 87.4877 262.728 87.573 262.824C87.669 262.92 87.717 263.032 87.717 263.16L87.717 270.52ZM87.237 261.608C87.013 261.608 86.8423 261.56 86.725 261.464C86.6183 261.357 86.565 261.208 86.565 261.016L86.565 260.856C86.565 260.664 86.6237 260.52 86.741 260.424C86.869 260.317 87.0397 260.264 87.253 260.264C87.4557 260.264 87.6103 260.317 87.717 260.424C87.8343 260.52 87.893 260.664 87.893 260.856L87.893 261.016C87.893 261.208 87.8343 261.357 87.717 261.464C87.6103 261.56 87.4503 261.608 87.237 261.608ZM95.0109 270.104C95.1389 270.104 95.2455 270.152 95.3309 270.248C95.4269 270.333 95.4749 270.435 95.4749 270.552C95.4749 270.68 95.4269 270.787 95.3309 270.872C95.2455 270.957 95.1389 271 95.0109 271L89.8109 271C89.6722 271 89.5602 270.947 89.4749 270.84C89.3895 270.733 89.3469 270.632 89.3469 270.536C89.3469 270.472 89.3575 270.413 89.3789 270.36C89.4002 270.296 89.4375 270.232 89.4909 270.168L94.3389 263.464L94.4029 263.608L90.2109 263.608C90.0829 263.608 89.9709 263.565 89.8749 263.48C89.7895 263.384 89.7469 263.277 89.7469 263.16C89.7469 263.032 89.7895 262.925 89.8749 262.84C89.9709 262.755 90.0829 262.712 90.2109 262.712L95.1229 262.712C95.2402 262.712 95.3415 262.76 95.4269 262.856C95.5229 262.952 95.5709 263.064 95.5709 263.192C95.5709 263.256 95.5602 263.315 95.5389 263.368C95.5175 263.421 95.4855 263.48 95.4429 263.544L90.6269 270.184L90.4349 270.104L95.0109 270.104ZM103.931 262.824C104.07 262.824 104.182 262.872 104.267 262.968C104.363 263.064 104.411 263.181 104.411 263.32L104.411 270.52C104.411 270.648 104.363 270.76 104.267 270.856C104.171 270.952 104.059 271 103.931 271C103.792 271 103.675 270.952 103.579 270.856C103.494 270.76 103.451 270.648 103.451 270.52L103.451 268.616L103.723 268.488C103.723 268.787 103.638 269.091 103.467 269.4C103.307 269.709 103.083 269.997 102.795 270.264C102.507 270.531 102.166 270.749 101.771 270.92C101.387 271.08 100.971 271.16 100.523 271.16C99.7978 271.16 99.1471 270.973 98.5711 270.6C98.0058 270.227 97.5578 269.715 97.2271 269.064C96.9071 268.413 96.7471 267.683 96.7471 266.872C96.7471 266.04 96.9125 265.309 97.2431 264.68C97.5738 264.04 98.0218 263.539 98.5871 263.176C99.1525 262.813 99.7925 262.632 100.507 262.632C100.966 262.632 101.392 262.712 101.787 262.872C102.192 263.032 102.544 263.251 102.843 263.528C103.142 263.805 103.371 264.125 103.531 264.488C103.702 264.84 103.787 265.208 103.787 265.592L103.451 265.352L103.451 263.32C103.451 263.181 103.494 263.064 103.579 262.968C103.675 262.872 103.792 262.824 103.931 262.824ZM100.603 270.264C101.168 270.264 101.67 270.12 102.107 269.832C102.544 269.533 102.886 269.128 103.131 268.616C103.387 268.093 103.515 267.512 103.515 266.872C103.515 266.243 103.387 265.677 103.131 265.176C102.886 264.675 102.544 264.275 102.107 263.976C101.67 263.677 101.168 263.528 100.603 263.528C100.048 263.528 99.5471 263.672 99.0991 263.96C98.6618 264.248 98.3151 264.643 98.0591 265.144C97.8138 265.645 97.6911 266.221 97.6911 266.872C97.6911 267.512 97.8138 268.093 98.0591 268.616C98.3151 269.128 98.6618 269.533 99.0991 269.832C99.5365 270.12 100.038 270.264 100.603 270.264ZM110.21 262.632C110.722 262.632 111.192 262.691 111.618 262.808C112.045 262.915 112.386 263.064 112.642 263.256C112.909 263.448 113.042 263.656 113.042 263.88C113.042 263.987 113.005 264.093 112.93 264.2C112.856 264.296 112.754 264.344 112.626 264.344C112.498 264.344 112.392 264.312 112.306 264.248C112.232 264.184 112.152 264.109 112.066 264.024C111.992 263.939 111.88 263.859 111.73 263.784C111.592 263.72 111.394 263.661 111.138 263.608C110.882 263.555 110.589 263.528 110.258 263.528C109.661 263.528 109.122 263.677 108.642 263.976C108.162 264.275 107.784 264.68 107.506 265.192C107.229 265.693 107.09 266.259 107.09 266.888C107.09 267.528 107.224 268.104 107.49 268.616C107.757 269.128 108.125 269.533 108.594 269.832C109.064 270.12 109.613 270.264 110.242 270.264C110.669 270.264 111 270.227 111.234 270.152C111.469 270.077 111.672 269.992 111.842 269.896C112.045 269.779 112.189 269.667 112.274 269.56C112.37 269.443 112.493 269.384 112.642 269.384C112.781 269.384 112.882 269.427 112.946 269.512C113.021 269.587 113.058 269.688 113.058 269.816C113.058 269.987 112.93 270.179 112.674 270.392C112.429 270.595 112.088 270.776 111.65 270.936C111.213 271.085 110.712 271.16 110.146 271.16C109.346 271.16 108.642 270.973 108.034 270.6C107.437 270.227 106.968 269.72 106.626 269.08C106.296 268.429 106.13 267.699 106.13 266.888C106.13 266.109 106.301 265.4 106.642 264.76C106.984 264.12 107.458 263.608 108.066 263.224C108.685 262.829 109.4 262.632 110.21 262.632ZM109.17 273.288C109.096 273.288 109.005 273.267 108.898 273.224C108.792 273.181 108.696 273.123 108.61 273.048C108.525 272.973 108.482 272.888 108.482 272.792C108.482 272.675 108.52 272.579 108.594 272.504L109.986 270.76L110.61 270.76L109.586 272.984C109.49 273.187 109.352 273.288 109.17 273.288ZM121.275 262.824C121.414 262.824 121.526 262.872 121.611 262.968C121.707 263.064 121.755 263.181 121.755 263.32L121.755 270.52C121.755 270.648 121.707 270.76 121.611 270.856C121.515 270.952 121.403 271 121.275 271C121.137 271 121.019 270.952 120.923 270.856C120.838 270.76 120.795 270.648 120.795 270.52L120.795 268.616L121.067 268.488C121.067 268.787 120.982 269.091 120.811 269.4C120.651 269.709 120.427 269.997 120.139 270.264C119.851 270.531 119.51 270.749 119.115 270.92C118.731 271.08 118.315 271.16 117.867 271.16C117.142 271.16 116.491 270.973 115.915 270.6C115.35 270.227 114.902 269.715 114.571 269.064C114.251 268.413 114.091 267.683 114.091 266.872C114.091 266.04 114.257 265.309 114.587 264.68C114.918 264.04 115.366 263.539 115.931 263.176C116.497 262.813 117.137 262.632 117.851 262.632C118.31 262.632 118.737 262.712 119.131 262.872C119.537 263.032 119.889 263.251 120.187 263.528C120.486 263.805 120.715 264.125 120.875 264.488C121.046 264.84 121.131 265.208 121.131 265.592L120.795 265.352L120.795 263.32C120.795 263.181 120.838 263.064 120.923 262.968C121.019 262.872 121.137 262.824 121.275 262.824ZM117.947 270.264C118.513 270.264 119.014 270.12 119.451 269.832C119.889 269.533 120.23 269.128 120.475 268.616C120.731 268.093 120.859 267.512 120.859 266.872C120.859 266.243 120.731 265.677 120.475 265.176C120.23 264.675 119.889 264.275 119.451 263.976C119.014 263.677 118.513 263.528 117.947 263.528C117.393 263.528 116.891 263.672 116.443 263.96C116.006 264.248 115.659 264.643 115.403 265.144C115.158 265.645 115.035 266.221 115.035 266.872C115.035 267.512 115.158 268.093 115.403 268.616C115.659 269.128 116.006 269.533 116.443 269.832C116.881 270.12 117.382 270.264 117.947 270.264ZM115.979 261.688C115.809 261.688 115.697 261.629 115.643 261.512C115.601 261.395 115.595 261.224 115.627 261C115.691 260.648 115.857 260.381 116.123 260.2C116.39 260.008 116.705 259.912 117.067 259.912C117.259 259.912 117.451 259.96 117.643 260.056C117.846 260.152 118.043 260.259 118.235 260.376C118.427 260.493 118.603 260.6 118.763 260.696C118.934 260.792 119.089 260.84 119.227 260.84C119.377 260.84 119.494 260.787 119.579 260.68C119.675 260.573 119.729 260.424 119.739 260.232C119.729 260.115 119.761 260.019 119.835 259.944C119.91 259.869 120.001 259.832 120.107 259.832C120.289 259.832 120.406 259.896 120.459 260.024C120.513 260.141 120.529 260.301 120.507 260.504C120.465 260.739 120.379 260.941 120.251 261.112C120.134 261.283 119.979 261.416 119.787 261.512C119.595 261.597 119.371 261.64 119.115 261.64C118.955 261.64 118.774 261.597 118.571 261.512C118.379 261.416 118.187 261.309 117.995 261.192C117.803 261.075 117.617 260.973 117.435 260.888C117.265 260.792 117.105 260.744 116.955 260.744C116.817 260.744 116.694 260.792 116.587 260.888C116.481 260.973 116.401 261.123 116.347 261.336C116.358 261.443 116.321 261.528 116.235 261.592C116.161 261.656 116.075 261.688 115.979 261.688ZM131.571 266.904C131.571 267.715 131.395 268.445 131.043 269.096C130.691 269.736 130.211 270.243 129.603 270.616C128.995 270.979 128.301 271.16 127.523 271.16C126.765 271.16 126.077 270.979 125.459 270.616C124.851 270.243 124.365 269.736 124.003 269.096C123.651 268.445 123.475 267.715 123.475 266.904C123.475 266.083 123.651 265.352 124.003 264.712C124.365 264.072 124.851 263.565 125.459 263.192C126.077 262.819 126.765 262.632 127.523 262.632C128.301 262.632 128.995 262.819 129.603 263.192C130.211 263.565 130.691 264.072 131.043 264.712C131.395 265.352 131.571 266.083 131.571 266.904ZM130.611 266.904C130.611 266.253 130.477 265.677 130.211 265.176C129.944 264.664 129.576 264.264 129.107 263.976C128.648 263.677 128.12 263.528 127.523 263.528C126.947 263.528 126.424 263.677 125.955 263.976C125.485 264.264 125.112 264.664 124.835 265.176C124.568 265.677 124.435 266.253 124.435 266.904C124.435 267.555 124.568 268.131 124.835 268.632C125.112 269.133 125.485 269.533 125.955 269.832C126.424 270.12 126.947 270.264 127.523 270.264C128.12 270.264 128.648 270.12 129.107 269.832C129.576 269.533 129.944 269.133 130.211 268.632C130.477 268.131 130.611 267.555 130.611 266.904ZM144.05 259.16C144.189 259.16 144.301 259.208 144.386 259.304C144.482 259.389 144.53 259.501 144.53 259.64L144.53 270.52C144.53 270.648 144.482 270.76 144.386 270.856C144.29 270.952 144.178 271 144.05 271C143.911 271 143.794 270.952 143.698 270.856C143.613 270.76 143.57 270.648 143.57 270.52L143.57 268.616L143.842 268.392C143.842 268.691 143.762 269.005 143.602 269.336C143.442 269.656 143.213 269.955 142.914 270.232C142.626 270.509 142.285 270.733 141.89 270.904C141.506 271.075 141.09 271.16 140.642 271.16C139.927 271.16 139.282 270.973 138.706 270.6C138.141 270.227 137.693 269.72 137.362 269.08C137.031 268.44 136.866 267.709 136.866 266.888C136.866 266.077 137.031 265.352 137.362 264.712C137.693 264.061 138.141 263.555 138.706 263.192C139.271 262.819 139.911 262.632 140.626 262.632C141.063 262.632 141.479 262.712 141.874 262.872C142.269 263.032 142.615 263.251 142.914 263.528C143.223 263.805 143.463 264.125 143.634 264.488C143.815 264.84 143.906 265.208 143.906 265.592L143.57 265.352L143.57 259.64C143.57 259.512 143.613 259.4 143.698 259.304C143.794 259.208 143.911 259.16 144.05 259.16ZM140.722 270.264C141.298 270.264 141.799 270.12 142.226 269.832C142.663 269.533 143.005 269.133 143.25 268.632C143.506 268.12 143.634 267.539 143.634 266.888C143.634 266.248 143.506 265.677 143.25 265.176C143.005 264.664 142.663 264.264 142.226 263.976C141.789 263.677 141.287 263.528 140.722 263.528C140.167 263.528 139.666 263.677 139.218 263.976C138.781 264.264 138.434 264.664 138.178 265.176C137.933 265.677 137.81 266.248 137.81 266.888C137.81 267.528 137.933 268.104 138.178 268.616C138.434 269.128 138.781 269.533 139.218 269.832C139.666 270.12 140.167 270.264 140.722 270.264ZM153.433 262.824C153.572 262.824 153.684 262.872 153.769 262.968C153.865 263.064 153.913 263.181 153.913 263.32L153.913 270.52C153.913 270.648 153.865 270.76 153.769 270.856C153.673 270.952 153.561 271 153.433 271C153.294 271 153.177 270.952 153.081 270.856C152.996 270.76 152.953 270.648 152.953 270.52L152.953 268.616L153.225 268.488C153.225 268.787 153.14 269.091 152.969 269.4C152.809 269.709 152.585 269.997 152.297 270.264C152.009 270.531 151.668 270.749 151.273 270.92C150.889 271.08 150.473 271.16 150.025 271.16C149.3 271.16 148.649 270.973 148.073 270.6C147.508 270.227 147.06 269.715 146.729 269.064C146.409 268.413 146.249 267.683 146.249 266.872C146.249 266.04 146.414 265.309 146.745 264.68C147.076 264.04 147.524 263.539 148.089 263.176C148.654 262.813 149.294 262.632 150.009 262.632C150.468 262.632 150.894 262.712 151.289 262.872C151.694 263.032 152.046 263.251 152.345 263.528C152.644 263.805 152.873 264.125 153.033 264.488C153.204 264.84 153.289 265.208 153.289 265.592L152.953 265.352L152.953 263.32C152.953 263.181 152.996 263.064 153.081 262.968C153.177 262.872 153.294 262.824 153.433 262.824ZM150.105 270.264C150.67 270.264 151.172 270.12 151.609 269.832C152.046 269.533 152.388 269.128 152.633 268.616C152.889 268.093 153.017 267.512 153.017 266.872C153.017 266.243 152.889 265.677 152.633 265.176C152.388 264.675 152.046 264.275 151.609 263.976C151.172 263.677 150.67 263.528 150.105 263.528C149.55 263.528 149.049 263.672 148.601 263.96C148.164 264.248 147.817 264.643 147.561 265.144C147.316 265.645 147.193 266.221 147.193 266.872C147.193 267.512 147.316 268.093 147.561 268.616C147.817 269.128 148.164 269.533 148.601 269.832C149.038 270.12 149.54 270.264 150.105 270.264ZM155.648 269.704C155.563 269.576 155.52 269.453 155.52 269.336C155.531 269.208 155.6 269.107 155.728 269.032C155.813 268.957 155.909 268.925 156.016 268.936C156.133 268.947 156.24 269 156.336 269.096C156.624 269.469 156.971 269.773 157.376 270.008C157.792 270.232 158.283 270.344 158.848 270.344C159.147 270.344 159.44 270.296 159.728 270.2C160.027 270.093 160.272 269.939 160.464 269.736C160.656 269.523 160.752 269.256 160.752 268.936C160.752 268.605 160.656 268.339 160.464 268.136C160.272 267.933 160.021 267.773 159.712 267.656C159.413 267.539 159.093 267.437 158.752 267.352C158.389 267.256 158.037 267.149 157.696 267.032C157.355 266.904 157.051 266.749 156.784 266.568C156.528 266.376 156.32 266.147 156.16 265.88C156 265.613 155.92 265.288 155.92 264.904C155.92 264.456 156.043 264.061 156.288 263.72C156.533 263.379 156.864 263.112 157.28 262.92C157.707 262.728 158.187 262.632 158.72 262.632C158.987 262.632 159.275 262.669 159.584 262.744C159.893 262.808 160.197 262.92 160.496 263.08C160.795 263.24 161.061 263.459 161.296 263.736C161.392 263.832 161.44 263.944 161.44 264.072C161.44 264.189 161.387 264.296 161.28 264.392C161.195 264.456 161.093 264.488 160.976 264.488C160.869 264.488 160.779 264.445 160.704 264.36C160.448 264.072 160.144 263.853 159.792 263.704C159.44 263.555 159.061 263.48 158.656 263.48C158.347 263.48 158.053 263.533 157.776 263.64C157.509 263.736 157.285 263.885 157.104 264.088C156.923 264.291 156.832 264.557 156.832 264.888C156.853 265.197 156.96 265.448 157.152 265.64C157.355 265.832 157.616 265.992 157.936 266.12C158.267 266.248 158.635 266.365 159.04 266.472C159.381 266.557 159.707 266.659 160.016 266.776C160.336 266.893 160.613 267.043 160.848 267.224C161.093 267.395 161.285 267.613 161.424 267.88C161.573 268.147 161.648 268.483 161.648 268.888C161.648 269.357 161.515 269.763 161.248 270.104C160.992 270.445 160.645 270.707 160.208 270.888C159.771 271.069 159.285 271.16 158.752 271.16C158.176 271.16 157.616 271.048 157.072 270.824C156.539 270.6 156.064 270.227 155.648 269.704ZM171.235 262.76C171.96 262.76 172.6 262.941 173.155 263.304C173.72 263.656 174.168 264.147 174.499 264.776C174.83 265.395 174.995 266.109 174.995 266.92C174.995 267.731 174.83 268.451 174.499 269.08C174.168 269.709 173.72 270.205 173.155 270.568C172.59 270.931 171.955 271.112 171.251 271.112C170.878 271.112 170.52 271.059 170.179 270.952C169.848 270.835 169.544 270.68 169.267 270.488C168.99 270.296 168.744 270.072 168.531 269.816C168.318 269.549 168.147 269.261 168.019 268.952L168.307 268.744L168.307 273.72C168.307 273.848 168.259 273.96 168.163 274.056C168.078 274.152 167.966 274.2 167.827 274.2C167.688 274.2 167.571 274.152 167.475 274.056C167.39 273.96 167.347 273.848 167.347 273.72L167.347 263.288C167.347 263.149 167.39 263.032 167.475 262.936C167.56 262.84 167.678 262.792 167.827 262.792C167.966 262.792 168.078 262.84 168.163 262.936C168.259 263.032 168.307 263.149 168.307 263.288L168.307 265.016L168.083 264.888C168.19 264.557 168.344 264.264 168.547 264.008C168.76 263.741 169.006 263.517 169.283 263.336C169.56 263.144 169.864 263 170.195 262.904C170.526 262.808 170.872 262.76 171.235 262.76ZM171.155 263.656C170.579 263.656 170.072 263.8 169.635 264.088C169.198 264.365 168.851 264.749 168.595 265.24C168.35 265.72 168.227 266.28 168.227 266.92C168.227 267.549 168.35 268.115 168.595 268.616C168.851 269.117 169.198 269.512 169.635 269.8C170.072 270.077 170.579 270.216 171.155 270.216C171.72 270.216 172.216 270.077 172.643 269.8C173.08 269.512 173.427 269.117 173.683 268.616C173.939 268.115 174.067 267.549 174.067 266.92C174.067 266.291 173.939 265.731 173.683 265.24C173.427 264.749 173.08 264.365 172.643 264.088C172.216 263.8 171.72 263.656 171.155 263.656ZM183.434 262.824C183.573 262.824 183.685 262.872 183.77 262.968C183.866 263.064 183.914 263.181 183.914 263.32L183.914 270.52C183.914 270.648 183.866 270.76 183.77 270.856C183.674 270.952 183.562 271 183.434 271C183.296 271 183.178 270.952 183.082 270.856C182.997 270.76 182.954 270.648 182.954 270.52L182.954 268.616L183.226 268.488C183.226 268.787 183.141 269.091 182.97 269.4C182.81 269.709 182.586 269.997 182.298 270.264C182.01 270.531 181.669 270.749 181.274 270.92C180.89 271.08 180.474 271.16 180.026 271.16C179.301 271.16 178.65 270.973 178.074 270.6C177.509 270.227 177.061 269.715 176.73 269.064C176.41 268.413 176.25 267.683 176.25 266.872C176.25 266.04 176.416 265.309 176.746 264.68C177.077 264.04 177.525 263.539 178.09 263.176C178.656 262.813 179.296 262.632 180.01 262.632C180.469 262.632 180.896 262.712 181.29 262.872C181.696 263.032 182.048 263.251 182.346 263.528C182.645 263.805 182.874 264.125 183.034 264.488C183.205 264.84 183.29 265.208 183.29 265.592L182.954 265.352L182.954 263.32C182.954 263.181 182.997 263.064 183.082 262.968C183.178 262.872 183.296 262.824 183.434 262.824ZM180.106 270.264C180.672 270.264 181.173 270.12 181.61 269.832C182.048 269.533 182.389 269.128 182.634 268.616C182.89 268.093 183.018 267.512 183.018 266.872C183.018 266.243 182.89 265.677 182.634 265.176C182.389 264.675 182.048 264.275 181.61 263.976C181.173 263.677 180.672 263.528 180.106 263.528C179.552 263.528 179.05 263.672 178.602 263.96C178.165 264.248 177.818 264.643 177.562 265.144C177.317 265.645 177.194 266.221 177.194 266.872C177.194 267.512 177.317 268.093 177.562 268.616C177.818 269.128 178.165 269.533 178.602 269.832C179.04 270.12 179.541 270.264 180.106 270.264ZM179.994 262.168C179.941 262.168 179.882 262.141 179.818 262.088C179.765 262.024 179.738 261.955 179.738 261.88C179.738 261.816 179.765 261.741 179.818 261.656L180.794 260.136C180.848 260.051 180.917 259.971 181.002 259.896C181.098 259.821 181.21 259.784 181.338 259.784C181.498 259.784 181.626 259.827 181.722 259.912C181.818 259.997 181.861 260.12 181.85 260.28C181.85 260.355 181.834 260.424 181.802 260.488C181.781 260.541 181.744 260.595 181.69 260.648L180.49 261.912C180.426 261.987 180.352 262.051 180.266 262.104C180.181 262.147 180.09 262.168 179.994 262.168ZM189.521 262.632C190.001 262.632 190.444 262.717 190.849 262.888C191.255 263.048 191.607 263.261 191.905 263.528C192.215 263.784 192.455 264.061 192.625 264.36C192.796 264.648 192.881 264.925 192.881 265.192L192.609 264.808L192.609 263.32C192.609 263.181 192.652 263.064 192.737 262.968C192.833 262.872 192.951 262.824 193.089 262.824C193.239 262.824 193.356 262.872 193.441 262.968C193.527 263.064 193.569 263.181 193.569 263.32L193.569 270.248C193.569 271.101 193.393 271.821 193.041 272.408C192.689 272.995 192.209 273.437 191.601 273.736C191.004 274.045 190.321 274.2 189.553 274.2C189.18 274.2 188.785 274.152 188.369 274.056C187.964 273.96 187.612 273.837 187.313 273.688C187.025 273.539 186.865 273.384 186.833 273.224C186.748 273.128 186.705 273.032 186.705 272.936C186.716 272.851 186.764 272.776 186.849 272.712C186.956 272.637 187.068 272.627 187.185 272.68C187.303 272.744 187.479 272.824 187.713 272.92C187.82 272.952 187.964 273 188.145 273.064C188.327 273.128 188.54 273.181 188.785 273.224C189.041 273.277 189.308 273.304 189.585 273.304C190.545 273.304 191.287 273.027 191.809 272.472C192.343 271.928 192.609 271.208 192.609 270.312L192.609 268.776L192.785 268.824C192.689 269.208 192.529 269.544 192.305 269.832C192.092 270.12 191.836 270.365 191.537 270.568C191.239 270.76 190.913 270.904 190.561 271C190.22 271.107 189.879 271.16 189.537 271.16C188.801 271.16 188.14 270.973 187.553 270.6C186.967 270.227 186.497 269.72 186.145 269.08C185.804 268.44 185.633 267.709 185.633 266.888C185.633 266.077 185.804 265.352 186.145 264.712C186.497 264.061 186.961 263.555 187.537 263.192C188.124 262.819 188.785 262.632 189.521 262.632ZM189.633 263.528C189.047 263.528 188.519 263.677 188.049 263.976C187.591 264.264 187.228 264.664 186.961 265.176C186.705 265.677 186.577 266.248 186.577 266.888C186.577 267.528 186.705 268.104 186.961 268.616C187.228 269.128 187.591 269.533 188.049 269.832C188.519 270.12 189.047 270.264 189.633 270.264C190.22 270.264 190.743 270.12 191.201 269.832C191.66 269.544 192.023 269.149 192.289 268.648C192.556 268.136 192.689 267.549 192.689 266.888C192.689 266.227 192.556 265.645 192.289 265.144C192.023 264.632 191.66 264.237 191.201 263.96C190.743 263.672 190.22 263.528 189.633 263.528ZM196.706 270.52C196.706 270.648 196.658 270.76 196.562 270.856C196.466 270.952 196.354 271 196.226 271C196.087 271 195.97 270.952 195.874 270.856C195.788 270.76 195.746 270.648 195.746 270.52L195.746 263.16C195.746 263.032 195.788 262.92 195.874 262.824C195.97 262.728 196.087 262.68 196.226 262.68C196.364 262.68 196.476 262.728 196.562 262.824C196.658 262.92 196.706 263.032 196.706 263.16L196.706 270.52ZM196.226 261.608C196.002 261.608 195.831 261.56 195.714 261.464C195.607 261.357 195.554 261.208 195.554 261.016L195.554 260.856C195.554 260.664 195.612 260.52 195.73 260.424C195.858 260.317 196.028 260.264 196.242 260.264C196.444 260.264 196.599 260.317 196.706 260.424C196.823 260.52 196.882 260.664 196.882 260.856L196.882 261.016C196.882 261.208 196.823 261.357 196.706 261.464C196.599 261.56 196.439 261.608 196.226 261.608ZM202.736 262.632C203.44 262.632 204 262.776 204.416 263.064C204.842 263.341 205.146 263.725 205.328 264.216C205.52 264.696 205.616 265.229 205.616 265.816L205.616 270.52C205.616 270.648 205.568 270.76 205.472 270.856C205.376 270.952 205.264 271 205.136 271C204.986 271 204.869 270.952 204.784 270.856C204.698 270.76 204.656 270.648 204.656 270.52L204.656 265.864C204.656 265.437 204.586 265.048 204.448 264.696C204.309 264.344 204.08 264.061 203.76 263.848C203.45 263.635 203.04 263.528 202.528 263.528C202.069 263.528 201.632 263.635 201.216 263.848C200.81 264.061 200.48 264.344 200.224 264.696C199.968 265.048 199.84 265.437 199.84 265.864L199.84 270.52C199.84 270.648 199.792 270.76 199.696 270.856C199.6 270.952 199.488 271 199.36 271C199.21 271 199.093 270.952 199.008 270.856C198.922 270.76 198.88 270.648 198.88 270.52L198.88 263.352C198.88 263.224 198.922 263.112 199.008 263.016C199.104 262.92 199.221 262.872 199.36 262.872C199.498 262.872 199.61 262.92 199.696 263.016C199.792 263.112 199.84 263.224 199.84 263.352L199.84 264.696L199.472 265.272C199.493 264.931 199.6 264.605 199.792 264.296C199.994 263.976 200.25 263.693 200.56 263.448C200.869 263.192 201.21 262.995 201.584 262.856C201.968 262.707 202.352 262.632 202.736 262.632ZM214.514 262.824C214.652 262.824 214.764 262.872 214.85 262.968C214.946 263.064 214.994 263.181 214.994 263.32L214.994 270.52C214.994 270.648 214.946 270.76 214.85 270.856C214.754 270.952 214.642 271 214.514 271C214.375 271 214.258 270.952 214.162 270.856C214.076 270.76 214.034 270.648 214.034 270.52L214.034 268.616L214.306 268.488C214.306 268.787 214.22 269.091 214.05 269.4C213.89 269.709 213.666 269.997 213.378 270.264C213.09 270.531 212.748 270.749 212.354 270.92C211.97 271.08 211.554 271.16 211.106 271.16C210.38 271.16 209.73 270.973 209.154 270.6C208.588 270.227 208.14 269.715 207.81 269.064C207.49 268.413 207.33 267.683 207.33 266.872C207.33 266.04 207.495 265.309 207.826 264.68C208.156 264.04 208.604 263.539 209.17 263.176C209.735 262.813 210.375 262.632 211.09 262.632C211.548 262.632 211.975 262.712 212.37 262.872C212.775 263.032 213.127 263.251 213.426 263.528C213.724 263.805 213.954 264.125 214.114 264.488C214.284 264.84 214.37 265.208 214.37 265.592L214.034 265.352L214.034 263.32C214.034 263.181 214.076 263.064 214.162 262.968C214.258 262.872 214.375 262.824 214.514 262.824ZM211.186 270.264C211.751 270.264 212.252 270.12 212.69 269.832C213.127 269.533 213.468 269.128 213.714 268.616C213.97 268.093 214.098 267.512 214.098 266.872C214.098 266.243 213.97 265.677 213.714 265.176C213.468 264.675 213.127 264.275 212.69 263.976C212.252 263.677 211.751 263.528 211.186 263.528C210.631 263.528 210.13 263.672 209.682 263.96C209.244 264.248 208.898 264.643 208.642 265.144C208.396 265.645 208.274 266.221 208.274 266.872C208.274 267.512 208.396 268.093 208.642 268.616C208.898 269.128 209.244 269.533 209.682 269.832C210.119 270.12 210.62 270.264 211.186 270.264ZM216.729 269.704C216.643 269.576 216.601 269.453 216.601 269.336C216.611 269.208 216.681 269.107 216.809 269.032C216.894 268.957 216.99 268.925 217.097 268.936C217.214 268.947 217.321 269 217.417 269.096C217.705 269.469 218.051 269.773 218.457 270.008C218.873 270.232 219.363 270.344 219.929 270.344C220.227 270.344 220.521 270.296 220.809 270.2C221.107 270.093 221.353 269.939 221.545 269.736C221.737 269.523 221.833 269.256 221.833 268.936C221.833 268.605 221.737 268.339 221.545 268.136C221.353 267.933 221.102 267.773 220.793 267.656C220.494 267.539 220.174 267.437 219.833 267.352C219.47 267.256 219.118 267.149 218.777 267.032C218.435 266.904 218.131 266.749 217.865 266.568C217.609 266.376 217.401 266.147 217.241 265.88C217.081 265.613 217.001 265.288 217.001 264.904C217.001 264.456 217.123 264.061 217.369 263.72C217.614 263.379 217.945 263.112 218.361 262.92C218.787 262.728 219.267 262.632 219.801 262.632C220.067 262.632 220.355 262.669 220.665 262.744C220.974 262.808 221.278 262.92 221.577 263.08C221.875 263.24 222.142 263.459 222.377 263.736C222.473 263.832 222.521 263.944 222.521 264.072C222.521 264.189 222.467 264.296 222.361 264.392C222.275 264.456 222.174 264.488 222.057 264.488C221.95 264.488 221.859 264.445 221.785 264.36C221.529 264.072 221.225 263.853 220.873 263.704C220.521 263.555 220.142 263.48 219.737 263.48C219.427 263.48 219.134 263.533 218.857 263.64C218.59 263.736 218.366 263.885 218.185 264.088C218.003 264.291 217.913 264.557 217.913 264.888C217.934 265.197 218.041 265.448 218.233 265.64C218.435 265.832 218.697 265.992 219.017 266.12C219.347 266.248 219.715 266.365 220.121 266.472C220.462 266.557 220.787 266.659 221.097 266.776C221.417 266.893 221.694 267.043 221.929 267.224C222.174 267.395 222.366 267.613 222.505 267.88C222.654 268.147 222.729 268.483 222.729 268.888C222.729 269.357 222.595 269.763 222.329 270.104C222.073 270.445 221.726 270.707 221.289 270.888C220.851 271.069 220.366 271.16 219.833 271.16C219.257 271.16 218.697 271.048 218.153 270.824C217.619 270.6 217.145 270.227 216.729 269.704ZM238.14 262.648C238.257 262.648 238.364 262.691 238.46 262.776C238.566 262.861 238.62 262.979 238.62 263.128C238.62 263.16 238.614 263.197 238.604 263.24C238.593 263.283 238.582 263.315 238.572 263.336L236.108 270.696C236.065 270.792 235.996 270.872 235.9 270.936C235.814 270.989 235.724 271.011 235.628 271C235.436 270.989 235.292 270.888 235.196 270.696L232.94 265.384L233.228 265.448L231.228 270.696C231.142 270.888 230.998 270.989 230.796 271C230.7 271.011 230.604 270.989 230.508 270.936C230.412 270.872 230.348 270.792 230.316 270.696L227.788 263.336C227.756 263.261 227.74 263.192 227.74 263.128C227.74 262.989 227.782 262.877 227.868 262.792C227.964 262.696 228.086 262.648 228.236 262.648C228.332 262.648 228.417 262.675 228.492 262.728C228.577 262.781 228.636 262.861 228.668 262.968L230.94 269.784L230.636 269.768L232.7 264.568C232.785 264.365 232.934 264.264 233.148 264.264C233.254 264.264 233.345 264.291 233.42 264.344C233.494 264.397 233.553 264.472 233.596 264.568L235.788 269.784L235.436 269.8L237.692 262.968C237.756 262.755 237.905 262.648 238.14 262.648ZM243.835 271.16C243.014 271.16 242.288 270.984 241.659 270.632C241.03 270.28 240.539 269.789 240.187 269.16C239.835 268.531 239.659 267.795 239.659 266.952C239.659 266.045 239.835 265.272 240.187 264.632C240.55 263.992 241.014 263.501 241.579 263.16C242.155 262.808 242.763 262.632 243.403 262.632C243.872 262.632 244.326 262.717 244.763 262.888C245.211 263.048 245.606 263.293 245.947 263.624C246.299 263.944 246.576 264.339 246.779 264.808C246.992 265.277 247.11 265.821 247.131 266.44C247.12 266.568 247.067 266.68 246.971 266.776C246.875 266.861 246.763 266.904 246.635 266.904L240.219 266.904L240.027 266.04L246.331 266.04L246.123 266.232L246.123 265.912C246.08 265.411 245.92 264.984 245.643 264.632C245.366 264.28 245.03 264.013 244.635 263.832C244.24 263.651 243.83 263.56 243.403 263.56C243.083 263.56 242.752 263.624 242.411 263.752C242.08 263.88 241.776 264.083 241.499 264.36C241.232 264.627 241.014 264.973 240.843 265.4C240.672 265.816 240.587 266.312 240.587 266.888C240.587 267.517 240.715 268.088 240.971 268.6C241.227 269.112 241.595 269.517 242.075 269.816C242.566 270.115 243.147 270.264 243.819 270.264C244.192 270.264 244.528 270.211 244.827 270.104C245.126 269.997 245.387 269.859 245.611 269.688C245.835 269.507 246.022 269.32 246.171 269.128C246.288 269.032 246.406 268.984 246.523 268.984C246.63 268.984 246.72 269.027 246.795 269.112C246.88 269.197 246.923 269.293 246.923 269.4C246.923 269.528 246.87 269.64 246.763 269.736C246.443 270.12 246.027 270.456 245.515 270.744C245.003 271.021 244.443 271.16 243.835 271.16ZM252.754 262.632C253.479 262.632 254.119 262.813 254.674 263.176C255.239 263.539 255.687 264.04 256.018 264.68C256.349 265.309 256.514 266.04 256.514 266.872C256.514 267.683 256.349 268.413 256.018 269.064C255.687 269.715 255.239 270.227 254.674 270.6C254.109 270.973 253.474 271.16 252.77 271.16C252.397 271.16 252.039 271.101 251.698 270.984C251.367 270.867 251.063 270.712 250.786 270.52C250.509 270.317 250.263 270.083 250.05 269.816C249.837 269.549 249.666 269.261 249.538 268.952L249.826 268.744L249.826 270.552C249.826 270.691 249.778 270.808 249.682 270.904C249.597 270.989 249.485 271.032 249.346 271.032C249.207 271.032 249.09 270.989 248.994 270.904C248.909 270.808 248.866 270.691 248.866 270.552L248.866 259.656C248.866 259.517 248.909 259.405 248.994 259.32C249.079 259.224 249.197 259.176 249.346 259.176C249.485 259.176 249.597 259.224 249.682 259.32C249.778 259.405 249.826 259.517 249.826 259.656L249.826 265.016L249.602 264.888C249.709 264.557 249.863 264.259 250.066 263.992C250.279 263.715 250.525 263.475 250.802 263.272C251.079 263.069 251.383 262.915 251.714 262.808C252.045 262.691 252.391 262.632 252.754 262.632ZM252.674 263.528C252.098 263.528 251.591 263.672 251.154 263.96C250.717 264.248 250.37 264.643 250.114 265.144C249.869 265.645 249.746 266.221 249.746 266.872C249.746 267.512 249.869 268.093 250.114 268.616C250.37 269.128 250.717 269.533 251.154 269.832C251.591 270.12 252.098 270.264 252.674 270.264C253.239 270.264 253.735 270.115 254.162 269.816C254.599 269.517 254.946 269.112 255.202 268.6C255.458 268.077 255.586 267.501 255.586 266.872C255.586 266.221 255.458 265.645 255.202 265.144C254.946 264.643 254.599 264.248 254.162 263.96C253.735 263.672 253.239 263.528 252.674 263.528ZM65.968 282.824C66.1067 282.824 66.2187 282.872 66.304 282.968C66.4 283.064 66.448 283.181 66.448 283.32L66.448 290.52C66.448 290.648 66.4 290.76 66.304 290.856C66.208 290.952 66.096 291 65.968 291C65.8293 291 65.712 290.952 65.616 290.856C65.5307 290.76 65.488 290.648 65.488 290.52L65.488 288.616L65.76 288.488C65.76 288.787 65.6747 289.091 65.504 289.4C65.344 289.709 65.12 289.997 64.832 290.264C64.544 290.531 64.2027 290.749 63.808 290.92C63.424 291.08 63.008 291.16 62.56 291.16C61.8347 291.16 61.184 290.973 60.608 290.6C60.0427 290.227 59.5947 289.715 59.264 289.064C58.944 288.413 58.784 287.683 58.784 286.872C58.784 286.04 58.9493 285.309 59.28 284.68C59.6107 284.04 60.0587 283.539 60.624 283.176C61.1893 282.813 61.8293 282.632 62.544 282.632C63.0027 282.632 63.4293 282.712 63.824 282.872C64.2293 283.032 64.5813 283.251 64.88 283.528C65.1787 283.805 65.408 284.125 65.568 284.488C65.7387 284.84 65.824 285.208 65.824 285.592L65.488 285.352L65.488 283.32C65.488 283.181 65.5307 283.064 65.616 282.968C65.712 282.872 65.8293 282.824 65.968 282.824ZM62.64 290.264C63.2053 290.264 63.7067 290.12 64.144 289.832C64.5813 289.533 64.9227 289.128 65.168 288.616C65.424 288.093 65.552 287.512 65.552 286.872C65.552 286.243 65.424 285.677 65.168 285.176C64.9227 284.675 64.5813 284.275 64.144 283.976C63.7067 283.677 63.2053 283.528 62.64 283.528C62.0853 283.528 61.584 283.672 61.136 283.96C60.6987 284.248 60.352 284.643 60.096 285.144C59.8507 285.645 59.728 286.221 59.728 286.872C59.728 287.512 59.8507 288.093 60.096 288.616C60.352 289.128 60.6987 289.533 61.136 289.832C61.5733 290.12 62.0747 290.264 62.64 290.264ZM68.1191 282.856L71.8471 282.856C71.9751 282.856 72.0818 282.904 72.1671 283C72.2525 283.085 72.2951 283.192 72.2951 283.32C72.2951 283.437 72.2525 283.539 72.1671 283.624C72.0818 283.709 71.9751 283.752 71.8471 283.752L68.1191 283.752C67.9911 283.752 67.8791 283.709 67.7831 283.624C67.6978 283.528 67.6551 283.421 67.6551 283.304C67.6551 283.176 67.6978 283.069 67.7831 282.984C67.8791 282.899 67.9911 282.856 68.1191 282.856ZM69.7671 280.6C69.9058 280.6 70.0178 280.648 70.1031 280.744C70.1991 280.84 70.2471 280.952 70.2471 281.08L70.2471 289.112C70.2471 289.411 70.2845 289.635 70.3591 289.784C70.4445 289.933 70.5511 290.035 70.6791 290.088C70.8071 290.131 70.9351 290.152 71.0631 290.152C71.1485 290.152 71.2231 290.141 71.2871 290.12C71.3618 290.088 71.4418 290.072 71.5271 290.072C71.6231 290.072 71.7031 290.109 71.7671 290.184C71.8418 290.259 71.8791 290.355 71.8791 290.472C71.8791 290.621 71.7938 290.749 71.6231 290.856C71.4525 290.952 71.2498 291 71.0151 291C70.9191 291 70.7751 290.995 70.5831 290.984C70.3911 290.963 70.1938 290.904 69.9911 290.808C69.7885 290.701 69.6178 290.52 69.4791 290.264C69.3511 290.008 69.2871 289.64 69.2871 289.16L69.2871 281.08C69.2871 280.952 69.3298 280.84 69.4151 280.744C69.5111 280.648 69.6285 280.6 69.7671 280.6ZM74.229 291C74.0797 291 73.9623 290.952 73.877 290.856C73.7917 290.76 73.749 290.648 73.749 290.52L73.749 283.352C73.749 283.224 73.7917 283.112 73.877 283.016C73.973 282.92 74.0903 282.872 74.229 282.872C74.3677 282.872 74.4797 282.92 74.565 283.016C74.661 283.112 74.709 283.224 74.709 283.352L74.709 285.752L74.469 285.8C74.501 285.427 74.5917 285.059 74.741 284.696C74.901 284.323 75.1143 283.981 75.381 283.672C75.6477 283.363 75.9623 283.112 76.325 282.92C76.6983 282.728 77.1143 282.632 77.573 282.632C77.765 282.632 77.9517 282.675 78.133 282.76C78.3143 282.835 78.405 282.963 78.405 283.144C78.405 283.304 78.3623 283.427 78.277 283.512C78.1917 283.597 78.0903 283.64 77.973 283.64C77.877 283.64 77.7703 283.613 77.653 283.56C77.5463 283.507 77.4023 283.48 77.221 283.48C76.9223 283.48 76.6237 283.571 76.325 283.752C76.0263 283.923 75.7543 284.157 75.509 284.456C75.2637 284.755 75.0663 285.091 74.917 285.464C74.7783 285.827 74.709 286.195 74.709 286.568L74.709 290.52C74.709 290.648 74.661 290.76 74.565 290.856C74.469 290.952 74.357 291 74.229 291ZM86.1018 282.824C86.2404 282.824 86.3524 282.872 86.4378 282.968C86.5338 283.064 86.5818 283.181 86.5818 283.32L86.5818 290.52C86.5818 290.648 86.5338 290.76 86.4378 290.856C86.3418 290.952 86.2298 291 86.1018 291C85.9631 291 85.8458 290.952 85.7498 290.856C85.6644 290.76 85.6218 290.648 85.6218 290.52L85.6218 288.616L85.8938 288.488C85.8938 288.787 85.8084 289.091 85.6378 289.4C85.4778 289.709 85.2538 289.997 84.9658 290.264C84.6778 290.531 84.3364 290.749 83.9418 290.92C83.5578 291.08 83.1418 291.16 82.6938 291.16C81.9684 291.16 81.3178 290.973 80.7418 290.6C80.1764 290.227 79.7284 289.715 79.3978 289.064C79.0778 288.413 78.9178 287.683 78.9178 286.872C78.9178 286.04 79.0831 285.309 79.4138 284.68C79.7444 284.04 80.1924 283.539 80.7578 283.176C81.3231 282.813 81.9631 282.632 82.6778 282.632C83.1364 282.632 83.5631 282.712 83.9578 282.872C84.3631 283.032 84.7151 283.251 85.0138 283.528C85.3124 283.805 85.5418 284.125 85.7018 284.488C85.8724 284.84 85.9578 285.208 85.9578 285.592L85.6218 285.352L85.6218 283.32C85.6218 283.181 85.6644 283.064 85.7498 282.968C85.8458 282.872 85.9631 282.824 86.1018 282.824ZM82.7738 290.264C83.3391 290.264 83.8404 290.12 84.2778 289.832C84.7151 289.533 85.0564 289.128 85.3018 288.616C85.5578 288.093 85.6858 287.512 85.6858 286.872C85.6858 286.243 85.5578 285.677 85.3018 285.176C85.0564 284.675 84.7151 284.275 84.2778 283.976C83.8404 283.677 83.3391 283.528 82.7738 283.528C82.2191 283.528 81.7178 283.672 81.2698 283.96C80.8324 284.248 80.4858 284.643 80.2298 285.144C79.9844 285.645 79.8618 286.221 79.8618 286.872C79.8618 287.512 79.9844 288.093 80.2298 288.616C80.4858 289.128 80.8324 289.533 81.2698 289.832C81.7071 290.12 82.2084 290.264 82.7738 290.264ZM88.4014 282.648C88.4867 282.648 88.572 282.675 88.6574 282.728C88.7427 282.781 88.8067 282.861 88.8494 282.968L91.6494 289.624L91.4414 289.752L94.3054 282.968C94.3907 282.755 94.5454 282.653 94.7694 282.664C94.876 282.664 94.9774 282.701 95.0734 282.776C95.1694 282.84 95.2174 282.936 95.2174 283.064C95.2174 283.128 95.2067 283.181 95.1854 283.224C95.1747 283.256 95.164 283.293 95.1534 283.336L92.0174 290.696C91.932 290.888 91.788 290.989 91.5854 291C91.4894 291.011 91.3934 290.989 91.2974 290.936C91.212 290.872 91.148 290.792 91.1054 290.696L87.9534 283.336C87.9427 283.315 87.932 283.283 87.9214 283.24C87.9107 283.197 87.9054 283.155 87.9054 283.112C87.9054 282.995 87.948 282.888 88.0334 282.792C88.1187 282.696 88.2414 282.648 88.4014 282.648ZM100.36 291.16C99.5387 291.16 98.8133 290.984 98.184 290.632C97.5547 290.28 97.064 289.789 96.712 289.16C96.36 288.531 96.184 287.795 96.184 286.952C96.184 286.045 96.36 285.272 96.712 284.632C97.0747 283.992 97.5387 283.501 98.104 283.16C98.68 282.808 99.288 282.632 99.928 282.632C100.397 282.632 100.851 282.717 101.288 282.888C101.736 283.048 102.131 283.293 102.472 283.624C102.824 283.944 103.101 284.339 103.304 284.808C103.517 285.277 103.635 285.821 103.656 286.44C103.645 286.568 103.592 286.68 103.496 286.776C103.4 286.861 103.288 286.904 103.16 286.904L96.744 286.904L96.552 286.04L102.856 286.04L102.648 286.232L102.648 285.912C102.605 285.411 102.445 284.984 102.168 284.632C101.891 284.28 101.555 284.013 101.16 283.832C100.765 283.651 100.355 283.56 99.928 283.56C99.608 283.56 99.2773 283.624 98.936 283.752C98.6053 283.88 98.3013 284.083 98.024 284.36C97.7573 284.627 97.5387 284.973 97.368 285.4C97.1973 285.816 97.112 286.312 97.112 286.888C97.112 287.517 97.24 288.088 97.496 288.6C97.752 289.112 98.12 289.517 98.6 289.816C99.0907 290.115 99.672 290.264 100.344 290.264C100.717 290.264 101.053 290.211 101.352 290.104C101.651 289.997 101.912 289.859 102.136 289.688C102.36 289.507 102.547 289.32 102.696 289.128C102.813 289.032 102.931 288.984 103.048 288.984C103.155 288.984 103.245 289.027 103.32 289.112C103.405 289.197 103.448 289.293 103.448 289.4C103.448 289.528 103.395 289.64 103.288 289.736C102.968 290.12 102.552 290.456 102.04 290.744C101.528 291.021 100.968 291.16 100.36 291.16ZM99.8 282.168C99.7467 282.168 99.688 282.141 99.624 282.088C99.5707 282.024 99.544 281.955 99.544 281.88C99.544 281.816 99.5707 281.741 99.624 281.656L100.6 280.136C100.653 280.051 100.723 279.971 100.808 279.896C100.904 279.821 101.016 279.784 101.144 279.784C101.304 279.784 101.432 279.827 101.528 279.912C101.624 279.997 101.667 280.12 101.656 280.28C101.656 280.355 101.64 280.424 101.608 280.488C101.587 280.541 101.549 280.595 101.496 280.648L100.296 281.912C100.232 281.987 100.157 282.051 100.072 282.104C99.9867 282.147 99.896 282.168 99.8 282.168ZM104.927 289.704C104.842 289.576 104.799 289.453 104.799 289.336C104.81 289.208 104.879 289.107 105.007 289.032C105.092 288.957 105.188 288.925 105.295 288.936C105.412 288.947 105.519 289 105.615 289.096C105.903 289.469 106.25 289.773 106.655 290.008C107.071 290.232 107.562 290.344 108.127 290.344C108.426 290.344 108.719 290.296 109.007 290.2C109.306 290.093 109.551 289.939 109.743 289.736C109.935 289.523 110.031 289.256 110.031 288.936C110.031 288.605 109.935 288.339 109.743 288.136C109.551 287.933 109.3 287.773 108.991 287.656C108.692 287.539 108.372 287.437 108.031 287.352C107.668 287.256 107.316 287.149 106.975 287.032C106.634 286.904 106.33 286.749 106.063 286.568C105.807 286.376 105.599 286.147 105.439 285.88C105.279 285.613 105.199 285.288 105.199 284.904C105.199 284.456 105.322 284.061 105.567 283.72C105.812 283.379 106.143 283.112 106.559 282.92C106.986 282.728 107.466 282.632 107.999 282.632C108.266 282.632 108.554 282.669 108.863 282.744C109.172 282.808 109.476 282.92 109.775 283.08C110.074 283.24 110.34 283.459 110.575 283.736C110.671 283.832 110.719 283.944 110.719 284.072C110.719 284.189 110.666 284.296 110.559 284.392C110.474 284.456 110.372 284.488 110.255 284.488C110.148 284.488 110.058 284.445 109.983 284.36C109.727 284.072 109.423 283.853 109.071 283.704C108.719 283.555 108.34 283.48 107.935 283.48C107.626 283.48 107.332 283.533 107.055 283.64C106.788 283.736 106.564 283.885 106.383 284.088C106.202 284.291 106.111 284.557 106.111 284.888C106.132 285.197 106.239 285.448 106.431 285.64C106.634 285.832 106.895 285.992 107.215 286.12C107.546 286.248 107.914 286.365 108.319 286.472C108.66 286.557 108.986 286.659 109.295 286.776C109.615 286.893 109.892 287.043 110.127 287.224C110.372 287.395 110.564 287.613 110.703 287.88C110.852 288.147 110.927 288.483 110.927 288.888C110.927 289.357 110.794 289.763 110.527 290.104C110.271 290.445 109.924 290.707 109.487 290.888C109.05 291.069 108.564 291.16 108.031 291.16C107.455 291.16 106.895 291.048 106.351 290.824C105.818 290.6 105.343 290.227 104.927 289.704ZM123.33 279.16C123.469 279.16 123.581 279.208 123.666 279.304C123.762 279.389 123.81 279.501 123.81 279.64L123.81 290.52C123.81 290.648 123.762 290.76 123.666 290.856C123.57 290.952 123.458 291 123.33 291C123.191 291 123.074 290.952 122.978 290.856C122.893 290.76 122.85 290.648 122.85 290.52L122.85 288.616L123.122 288.392C123.122 288.691 123.042 289.005 122.882 289.336C122.722 289.656 122.493 289.955 122.194 290.232C121.906 290.509 121.565 290.733 121.17 290.904C120.786 291.075 120.37 291.16 119.922 291.16C119.207 291.16 118.562 290.973 117.986 290.6C117.421 290.227 116.973 289.72 116.642 289.08C116.311 288.44 116.146 287.709 116.146 286.888C116.146 286.077 116.311 285.352 116.642 284.712C116.973 284.061 117.421 283.555 117.986 283.192C118.551 282.819 119.191 282.632 119.906 282.632C120.343 282.632 120.759 282.712 121.154 282.872C121.549 283.032 121.895 283.251 122.194 283.528C122.503 283.805 122.743 284.125 122.914 284.488C123.095 284.84 123.186 285.208 123.186 285.592L122.85 285.352L122.85 279.64C122.85 279.512 122.893 279.4 122.978 279.304C123.074 279.208 123.191 279.16 123.33 279.16ZM120.002 290.264C120.578 290.264 121.079 290.12 121.506 289.832C121.943 289.533 122.285 289.133 122.53 288.632C122.786 288.12 122.914 287.539 122.914 286.888C122.914 286.248 122.786 285.677 122.53 285.176C122.285 284.664 121.943 284.264 121.506 283.976C121.069 283.677 120.567 283.528 120.002 283.528C119.447 283.528 118.946 283.677 118.498 283.976C118.061 284.264 117.714 284.664 117.458 285.176C117.213 285.677 117.09 286.248 117.09 286.888C117.09 287.528 117.213 288.104 117.458 288.616C117.714 289.128 118.061 289.533 118.498 289.832C118.946 290.12 119.447 290.264 120.002 290.264ZM133.625 286.904C133.625 287.715 133.449 288.445 133.097 289.096C132.745 289.736 132.265 290.243 131.657 290.616C131.049 290.979 130.356 291.16 129.577 291.16C128.82 291.16 128.132 290.979 127.513 290.616C126.905 290.243 126.42 289.736 126.057 289.096C125.705 288.445 125.529 287.715 125.529 286.904C125.529 286.083 125.705 285.352 126.057 284.712C126.42 284.072 126.905 283.565 127.513 283.192C128.132 282.819 128.82 282.632 129.577 282.632C130.356 282.632 131.049 282.819 131.657 283.192C132.265 283.565 132.745 284.072 133.097 284.712C133.449 285.352 133.625 286.083 133.625 286.904ZM132.665 286.904C132.665 286.253 132.532 285.677 132.265 285.176C131.998 284.664 131.63 284.264 131.161 283.976C130.702 283.677 130.174 283.528 129.577 283.528C129.001 283.528 128.478 283.677 128.009 283.976C127.54 284.264 127.166 284.664 126.889 285.176C126.622 285.677 126.489 286.253 126.489 286.904C126.489 287.555 126.622 288.131 126.889 288.632C127.166 289.133 127.54 289.533 128.009 289.832C128.478 290.12 129.001 290.264 129.577 290.264C130.174 290.264 130.702 290.12 131.161 289.832C131.63 289.533 131.998 289.133 132.265 288.632C132.532 288.131 132.665 287.555 132.665 286.904ZM147.816 280.632C147.944 280.717 148.019 280.829 148.04 280.968C148.062 281.096 148.03 281.224 147.944 281.352C147.87 281.448 147.774 281.501 147.656 281.512C147.539 281.523 147.427 281.501 147.32 281.448C146.915 281.181 146.478 280.973 146.008 280.824C145.55 280.675 145.054 280.6 144.52 280.6C143.87 280.6 143.262 280.717 142.696 280.952C142.142 281.176 141.656 281.507 141.24 281.944C140.824 282.371 140.499 282.877 140.264 283.464C140.04 284.051 139.928 284.696 139.928 285.4C139.928 286.125 140.046 286.787 140.28 287.384C140.515 287.971 140.84 288.477 141.256 288.904C141.683 289.331 142.174 289.656 142.728 289.88C143.283 290.104 143.88 290.216 144.52 290.216C145.043 290.216 145.534 290.141 145.992 289.992C146.462 289.843 146.899 289.64 147.304 289.384C147.411 289.32 147.523 289.299 147.64 289.32C147.768 289.331 147.87 289.389 147.944 289.496C148.04 289.613 148.072 289.741 148.04 289.88C148.019 290.008 147.95 290.109 147.832 290.184C147.566 290.355 147.251 290.515 146.888 290.664C146.526 290.813 146.142 290.931 145.736 291.016C145.331 291.112 144.926 291.16 144.52 291.16C143.752 291.16 143.032 291.021 142.36 290.744C141.688 290.467 141.091 290.077 140.568 289.576C140.046 289.064 139.635 288.456 139.336 287.752C139.048 287.048 138.904 286.264 138.904 285.4C138.904 284.568 139.048 283.805 139.336 283.112C139.624 282.408 140.024 281.8 140.536 281.288C141.048 280.776 141.646 280.376 142.328 280.088C143.011 279.8 143.742 279.656 144.52 279.656C145.128 279.656 145.715 279.741 146.28 279.912C146.846 280.083 147.358 280.323 147.816 280.632ZM152.861 291.16C152.051 291.171 151.347 291.043 150.749 290.776C150.152 290.509 149.581 290.109 149.037 289.576C148.984 289.533 148.936 289.48 148.893 289.416C148.861 289.352 148.845 289.277 148.845 289.192C148.845 289.064 148.893 288.947 148.989 288.84C149.096 288.733 149.213 288.68 149.341 288.68C149.469 288.68 149.587 288.733 149.693 288.84C150.109 289.288 150.579 289.629 151.101 289.864C151.635 290.099 152.205 290.216 152.813 290.216C153.325 290.216 153.779 290.136 154.173 289.976C154.579 289.816 154.899 289.587 155.133 289.288C155.368 288.989 155.485 288.643 155.485 288.248C155.485 287.757 155.352 287.363 155.085 287.064C154.819 286.755 154.467 286.504 154.029 286.312C153.592 286.109 153.107 285.928 152.573 285.768C152.136 285.64 151.72 285.496 151.325 285.336C150.931 285.165 150.579 284.963 150.269 284.728C149.96 284.483 149.72 284.184 149.549 283.832C149.379 283.48 149.293 283.053 149.293 282.552C149.293 281.987 149.443 281.485 149.741 281.048C150.04 280.611 150.461 280.269 151.005 280.024C151.56 279.768 152.2 279.64 152.925 279.64C153.555 279.64 154.157 279.747 154.733 279.96C155.32 280.173 155.784 280.488 156.125 280.904C156.285 281.075 156.365 281.229 156.365 281.368C156.365 281.475 156.312 281.581 156.205 281.688C156.099 281.795 155.981 281.848 155.853 281.848C155.747 281.848 155.656 281.811 155.581 281.736C155.4 281.512 155.171 281.315 154.893 281.144C154.616 280.963 154.307 280.824 153.965 280.728C153.635 280.632 153.288 280.584 152.925 280.584C152.424 280.584 151.971 280.664 151.565 280.824C151.171 280.973 150.856 281.192 150.621 281.48C150.397 281.768 150.285 282.115 150.285 282.52C150.285 282.968 150.413 283.336 150.669 283.624C150.925 283.912 151.261 284.152 151.677 284.344C152.093 284.525 152.536 284.696 153.005 284.856C153.464 284.984 153.901 285.133 154.317 285.304C154.744 285.464 155.117 285.667 155.437 285.912C155.768 286.157 156.024 286.467 156.205 286.84C156.397 287.213 156.493 287.683 156.493 288.248C156.493 288.792 156.339 289.283 156.029 289.72C155.72 290.157 155.293 290.504 154.749 290.76C154.216 291.016 153.587 291.149 152.861 291.16ZM161.526 291.16C160.715 291.171 160.011 291.043 159.414 290.776C158.816 290.509 158.246 290.109 157.702 289.576C157.648 289.533 157.6 289.48 157.558 289.416C157.526 289.352 157.51 289.277 157.51 289.192C157.51 289.064 157.558 288.947 157.654 288.84C157.76 288.733 157.878 288.68 158.006 288.68C158.134 288.68 158.251 288.733 158.358 288.84C158.774 289.288 159.243 289.629 159.766 289.864C160.299 290.099 160.87 290.216 161.478 290.216C161.99 290.216 162.443 290.136 162.838 289.976C163.243 289.816 163.563 289.587 163.798 289.288C164.032 288.989 164.15 288.643 164.15 288.248C164.15 287.757 164.016 287.363 163.75 287.064C163.483 286.755 163.131 286.504 162.694 286.312C162.256 286.109 161.771 285.928 161.238 285.768C160.8 285.64 160.384 285.496 159.99 285.336C159.595 285.165 159.243 284.963 158.934 284.728C158.624 284.483 158.384 284.184 158.214 283.832C158.043 283.48 157.958 283.053 157.958 282.552C157.958 281.987 158.107 281.485 158.406 281.048C158.704 280.611 159.126 280.269 159.67 280.024C160.224 279.768 160.864 279.64 161.59 279.64C162.219 279.64 162.822 279.747 163.398 279.96C163.984 280.173 164.448 280.488 164.79 280.904C164.95 281.075 165.03 281.229 165.03 281.368C165.03 281.475 164.976 281.581 164.87 281.688C164.763 281.795 164.646 281.848 164.518 281.848C164.411 281.848 164.32 281.811 164.246 281.736C164.064 281.512 163.835 281.315 163.558 281.144C163.28 280.963 162.971 280.824 162.63 280.728C162.299 280.632 161.952 280.584 161.59 280.584C161.088 280.584 160.635 280.664 160.23 280.824C159.835 280.973 159.52 281.192 159.286 281.48C159.062 281.768 158.95 282.115 158.95 282.52C158.95 282.968 159.078 283.336 159.334 283.624C159.59 283.912 159.926 284.152 160.342 284.344C160.758 284.525 161.2 284.696 161.67 284.856C162.128 284.984 162.566 285.133 162.982 285.304C163.408 285.464 163.782 285.667 164.102 285.912C164.432 286.157 164.688 286.467 164.87 286.84C165.062 287.213 165.158 287.683 165.158 288.248C165.158 288.792 165.003 289.283 164.694 289.72C164.384 290.157 163.958 290.504 163.414 290.76C162.88 291.016 162.251 291.149 161.526 291.16ZM167.022 289.352C167.075 289.352 167.129 289.363 167.182 289.384C167.246 289.405 167.321 289.453 167.406 289.528C167.63 289.763 167.897 289.944 168.206 290.072C168.515 290.189 168.867 290.248 169.262 290.248C169.785 290.248 170.259 290.131 170.686 289.896C171.123 289.661 171.47 289.336 171.726 288.92C171.982 288.493 172.11 288.008 172.11 287.464C172.11 286.845 171.971 286.349 171.694 285.976C171.427 285.592 171.081 285.309 170.654 285.128C170.238 284.936 169.811 284.84 169.374 284.84C169.257 284.84 169.139 284.851 169.022 284.872C168.915 284.883 168.814 284.899 168.718 284.92C168.622 284.941 168.547 284.952 168.494 284.952C168.355 284.952 168.249 284.909 168.174 284.824C168.099 284.728 168.062 284.611 168.062 284.472C168.062 284.397 168.078 284.333 168.11 284.28C168.142 284.216 168.185 284.147 168.238 284.072L171.486 280.536L171.678 280.792L166.83 280.792C166.702 280.792 166.59 280.749 166.494 280.664C166.409 280.568 166.366 280.456 166.366 280.328C166.366 280.2 166.409 280.093 166.494 280.008C166.59 279.923 166.702 279.88 166.83 279.88L172.206 279.88C172.387 279.88 172.515 279.939 172.59 280.056C172.665 280.163 172.702 280.269 172.702 280.376C172.702 280.44 172.686 280.504 172.654 280.568C172.622 280.621 172.579 280.68 172.526 280.744L169.278 284.28L168.926 284.072C168.958 284.04 169.065 284.008 169.246 283.976C169.438 283.933 169.587 283.912 169.694 283.912C170.281 283.912 170.83 284.051 171.342 284.328C171.865 284.605 172.286 285.005 172.606 285.528C172.937 286.04 173.102 286.675 173.102 287.432C173.102 288.179 172.926 288.835 172.574 289.4C172.222 289.955 171.747 290.387 171.15 290.696C170.553 291.005 169.891 291.16 169.166 291.16C168.729 291.16 168.297 291.085 167.87 290.936C167.443 290.787 167.07 290.563 166.75 290.264C166.675 290.2 166.622 290.136 166.59 290.072C166.558 290.008 166.542 289.944 166.542 289.88C166.542 289.752 166.585 289.635 166.67 289.528C166.766 289.411 166.883 289.352 167.022 289.352ZM175.061 291C174.879 291 174.741 290.941 174.645 290.824C174.549 290.707 174.501 290.557 174.501 290.376L174.501 290.04C174.501 289.848 174.549 289.699 174.645 289.592C174.741 289.485 174.879 289.432 175.061 289.432L175.173 289.432C175.354 289.432 175.493 289.485 175.589 289.592C175.685 289.699 175.733 289.848 175.733 290.04L175.733 290.376C175.733 290.557 175.685 290.707 175.589 290.824C175.493 290.941 175.354 291 175.173 291L175.061 291Z" fill="#363636"/>
<path d="M74.4934 232.977C81.0134 232.977 86.1734 229.137 87.4134 223.377L83.2534 223.377C82.1734 226.937 78.8134 229.217 74.5734 229.217C68.7334 229.217 64.8934 224.817 64.8934 218.057C64.8934 211.297 68.7334 206.897 74.5734 206.897C78.7734 206.897 82.0134 209.177 83.0934 212.937L87.2934 212.937C86.2134 207.017 81.2134 203.137 74.6934 203.137C66.4134 203.137 60.7734 209.177 60.7734 218.097C60.7734 227.057 66.2534 232.977 74.4934 232.977ZM91.3399 211.417C91.3399 215.577 93.7799 218.297 98.4999 219.377L103.26 220.457C106.02 221.097 107.26 222.537 107.26 224.817C107.26 227.697 104.82 229.497 100.98 229.497C97.3399 229.497 95.0199 227.737 94.9399 224.977L90.9399 224.977C91.1799 229.937 95.0999 233.017 100.98 233.017C107.14 233.017 111.18 229.697 111.18 224.497C111.18 220.417 108.78 217.857 104.06 216.777L99.2999 215.657C96.5799 215.017 95.2599 213.617 95.2599 211.297C95.2599 208.457 97.6199 206.617 101.26 206.617C104.5 206.617 106.54 208.297 106.74 211.177L110.7 211.177C110.38 206.177 106.82 203.097 101.3 203.097C95.3399 203.097 91.3399 206.457 91.3399 211.417ZM115.382 211.417C115.382 215.577 117.822 218.297 122.542 219.377L127.302 220.457C130.062 221.097 131.302 222.537 131.302 224.817C131.302 227.697 128.862 229.497 125.022 229.497C121.382 229.497 119.062 227.737 118.982 224.977L114.982 224.977C115.222 229.937 119.142 233.017 125.022 233.017C131.182 233.017 135.222 229.697 135.222 224.497C135.222 220.417 132.822 217.857 128.102 216.777L123.342 215.657C120.622 215.017 119.302 213.617 119.302 211.297C119.302 208.457 121.662 206.617 125.302 206.617C128.542 206.617 130.582 208.297 130.782 211.177L134.742 211.177C134.422 206.177 130.862 203.097 125.342 203.097C119.382 203.097 115.382 206.457 115.382 211.417Z" fill="#3C2A56"/>
<g clip-path="url(#clip0_92_524)">
<path d="M170.061 174.115L122.04 160.735L111.338 40.2733L228.928 40.2733L218.216 160.717L170.061 174.115Z" fill="#264DE4"/>
<path d="M209.044 153.047L218.199 50.1226L170.133 50.1226L170.133 163.874L209.044 153.047Z" fill="#2965F1"/>
<path d="M135.871 94.8004L137.191 109.575L170.133 109.575L170.133 94.8004L135.871 94.8004ZM133.22 64.8972L134.558 79.6714L170.133 79.6714L170.133 64.8972L133.22 64.8972ZM170.133 133.171L170.069 133.188L153.674 128.745L152.626 116.962L137.848 116.962L139.911 140.16L170.066 148.56L170.133 148.542L170.133 133.171Z" fill="#EBEBEB"/>
<path d="M139.013 7.53662L156.842 7.53662L156.842 15.0197L146.469 15.0197L146.469 22.5028L156.843 22.5028L156.843 29.9854L139.013 29.9854L139.013 7.53662ZM160.408 7.53662L178.238 7.53662L178.238 14.0436L167.864 14.0436L167.864 15.3449L178.238 15.3449L178.238 30.3111L160.408 30.3111L160.408 23.478L170.782 23.478L170.782 22.1766L160.408 22.1766L160.408 7.53662ZM181.804 7.53662L199.633 7.53662L199.633 14.0436L189.26 14.0436L189.26 15.3449L199.633 15.3449L199.633 30.3111L181.804 30.3111L181.804 23.478L192.177 23.478L192.177 22.1766L181.804 22.1766L181.804 7.53662L181.804 7.53662Z" fill="#FCFCFC"/>
<path d="M204.301 94.8004L206.959 64.8972L170.083 64.8972L170.083 79.6714L190.826 79.6714L189.486 94.8004L170.083 94.8004L170.083 109.575L188.21 109.575L186.501 128.736L170.082 133.183L170.082 148.554L200.261 140.16L200.482 137.663L203.942 98.7677L204.301 94.8004Z" fill="white"/>
</g>
<defs>
<filter id="filter0_d_92_524" x="0.917175" y="51.5366" width="341" height="360" filterUnits="userSpaceOnUse" color-interpolation-filters="sRGB">
<feFlood flood-opacity="0" result="BackgroundImageFix"/>
<feColorMatrix in="SourceAlpha" type="matrix" values="0 0 0 0 0 0 0 0 0 0 0 0 0 0 0 0 0 0 127 0" result="hardAlpha"/>
<feOffset dy="9"/>
<feGaussianBlur stdDeviation="13.5"/>
<feColorMatrix type="matrix" values="0 0 0 0 0 0 0 0 0 0 0 0 0 0 0 0 0 0 0.1 0"/>
<feBlend mode="normal" in2="BackgroundImageFix" result="effect1_dropShadow_92_524"/>
<feBlend mode="normal" in="SourceGraphic" in2="effect1_dropShadow_92_524" result="shape"/>
</filter>
<clipPath id="clip0_92_524">
<rect width="118" height="167" fill="white" transform="translate(111.133 7.53662)"/>
</clipPath>
</defs>
</svg>
